<?xml version="1.0" encoding="utf-8" standalone="no"?>
<!DOCTYPE svg PUBLIC "-//W3C//DTD SVG 1.1//EN"
  "http://www.w3.org/Graphics/SVG/1.1/DTD/svg11.dtd">
<svg xmlns:xlink="http://www.w3.org/1999/xlink" width="1008pt" height="576pt" viewBox="0 0 1008 576" xmlns="http://www.w3.org/2000/svg" version="1.1">
 <metadata>
  <rdf:RDF xmlns:dc="http://purl.org/dc/elements/1.1/" xmlns:cc="http://creativecommons.org/ns#" xmlns:rdf="http://www.w3.org/1999/02/22-rdf-syntax-ns#">
   <cc:Work>
    <dc:type rdf:resource="http://purl.org/dc/dcmitype/StillImage"/>
    <dc:date>2024-06-22T10:02:25.687938</dc:date>
    <dc:format>image/svg+xml</dc:format>
    <dc:creator>
     <cc:Agent>
      <dc:title>Matplotlib v3.6.3, https://matplotlib.org/</dc:title>
     </cc:Agent>
    </dc:creator>
   </cc:Work>
  </rdf:RDF>
 </metadata>
 <defs>
  <style type="text/css">*{stroke-linejoin: round; stroke-linecap: butt}</style>
 </defs>
 <g id="figure_1">
  <g id="patch_1">
   <path d="M 0 576 
L 1008 576 
L 1008 0 
L 0 0 
z
" style="fill: #ffffff"/>
  </g>
  <g id="axes_1">
   <g id="patch_2">
    <path d="M 63.95 519.34 
L 997.2 519.34 
L 997.2 10.8 
L 63.95 10.8 
z
" style="fill: #ffffff"/>
   </g>
   <g id="matplotlib.axis_1">
    <g id="xtick_1">
     <g id="line2d_1">
      <path d="M 157.275 519.34 
L 157.275 10.8 
" clip-path="url(#p072bf92714)" style="fill: none; stroke-dasharray: 2.22,0.96; stroke-dashoffset: 0; stroke: #808080; stroke-opacity: 0.6; stroke-width: 0.6"/>
     </g>
     <g id="line2d_2"/>
     <g id="text_1">
      <!-- HelBERT -->
      <g style="fill: #262626" transform="translate(127.327031 532.985625) scale(0.14 -0.14)">
       <defs>
        <path id="LiberationSans-Bold-48" d="M 3269 0 
L 3269 1888 
L 1350 1888 
L 1350 0 
L 428 0 
L 428 4403 
L 1350 4403 
L 1350 2650 
L 3269 2650 
L 3269 4403 
L 4191 4403 
L 4191 0 
L 3269 0 
z
" transform="scale(0.015625)"/>
        <path id="LiberationSans-Bold-65" d="M 1831 -63 
Q 1466 -63 1173 45 
Q 881 153 675 373 
Q 469 594 359 926 
Q 250 1259 250 1706 
Q 250 2191 379 2522 
Q 509 2853 729 3058 
Q 950 3263 1237 3353 
Q 1525 3444 1844 3444 
Q 2244 3444 2526 3305 
Q 2809 3166 2990 2916 
Q 3172 2666 3256 2317 
Q 3341 1969 3341 1547 
L 3341 1522 
L 1172 1522 
Q 1172 1309 1209 1126 
Q 1247 944 1331 811 
Q 1416 678 1550 601 
Q 1684 525 1875 525 
Q 2106 525 2253 623 
Q 2400 722 2463 928 
L 3291 856 
Q 3234 713 3132 550 
Q 3031 388 2862 252 
Q 2694 116 2442 26 
Q 2191 -63 1831 -63 
z
M 1831 2891 
Q 1697 2891 1580 2845 
Q 1463 2800 1377 2701 
Q 1291 2603 1237 2447 
Q 1184 2291 1178 2072 
L 2491 2072 
Q 2466 2481 2294 2686 
Q 2122 2891 1831 2891 
z
" transform="scale(0.015625)"/>
        <path id="LiberationSans-Bold-6c" d="M 447 0 
L 447 4638 
L 1325 4638 
L 1325 0 
L 447 0 
z
" transform="scale(0.015625)"/>
        <path id="LiberationSans-Bold-42" d="M 4331 1256 
Q 4331 922 4197 683 
Q 4063 444 3830 292 
Q 3597 141 3287 70 
Q 2978 0 2631 0 
L 428 0 
L 428 4403 
L 2444 4403 
Q 2834 4403 3139 4336 
Q 3444 4269 3653 4131 
Q 3863 3994 3970 3786 
Q 4078 3578 4078 3297 
Q 4078 2922 3870 2664 
Q 3663 2406 3238 2316 
Q 3772 2253 4051 1979 
Q 4331 1706 4331 1256 
z
M 3150 3172 
Q 3150 3469 2961 3594 
Q 2772 3719 2400 3719 
L 1350 3719 
L 1350 2628 
L 2406 2628 
Q 2797 2628 2973 2764 
Q 3150 2900 3150 3172 
z
M 3406 1328 
Q 3406 1503 3337 1622 
Q 3269 1741 3148 1812 
Q 3028 1884 2867 1915 
Q 2706 1947 2519 1947 
L 1350 1947 
L 1350 684 
L 2553 684 
Q 2734 684 2890 714 
Q 3047 744 3161 817 
Q 3275 891 3340 1016 
Q 3406 1141 3406 1328 
z
" transform="scale(0.015625)"/>
        <path id="LiberationSans-Bold-45" d="M 428 0 
L 428 4403 
L 3891 4403 
L 3891 3691 
L 1350 3691 
L 1350 2584 
L 3700 2584 
L 3700 1872 
L 1350 1872 
L 1350 713 
L 4019 713 
L 4019 0 
L 428 0 
z
" transform="scale(0.015625)"/>
        <path id="LiberationSans-Bold-52" d="M 3453 0 
L 2431 1672 
L 1350 1672 
L 1350 0 
L 428 0 
L 428 4403 
L 2628 4403 
Q 3041 4403 3348 4311 
Q 3656 4219 3862 4048 
Q 4069 3878 4170 3636 
Q 4272 3394 4272 3091 
Q 4272 2844 4198 2639 
Q 4125 2434 3995 2275 
Q 3866 2116 3687 2008 
Q 3509 1900 3300 1850 
L 4491 0 
L 3453 0 
z
M 3344 3053 
Q 3344 3375 3133 3531 
Q 2922 3688 2531 3688 
L 1350 3688 
L 1350 2388 
L 2556 2388 
Q 2763 2388 2911 2436 
Q 3059 2484 3154 2573 
Q 3250 2663 3297 2784 
Q 3344 2906 3344 3053 
z
" transform="scale(0.015625)"/>
        <path id="LiberationSans-Bold-54" d="M 2416 3691 
L 2416 0 
L 1494 0 
L 1494 3691 
L 72 3691 
L 72 4403 
L 3841 4403 
L 3841 3691 
L 2416 3691 
z
" transform="scale(0.015625)"/>
       </defs>
       <use xlink:href="#LiberationSans-Bold-48"/>
       <use xlink:href="#LiberationSans-Bold-65" x="72.216797"/>
       <use xlink:href="#LiberationSans-Bold-6c" x="127.832031"/>
       <use xlink:href="#LiberationSans-Bold-42" x="155.615234"/>
       <use xlink:href="#LiberationSans-Bold-45" x="227.832031"/>
       <use xlink:href="#LiberationSans-Bold-52" x="294.53125"/>
       <use xlink:href="#LiberationSans-Bold-54" x="366.748047"/>
      </g>
     </g>
    </g>
    <g id="xtick_2">
     <g id="line2d_3">
      <path d="M 343.925 519.34 
L 343.925 10.8 
" clip-path="url(#p072bf92714)" style="fill: none; stroke-dasharray: 2.22,0.96; stroke-dashoffset: 0; stroke: #808080; stroke-opacity: 0.6; stroke-width: 0.6"/>
     </g>
     <g id="line2d_4"/>
     <g id="text_2">
      <!-- BERTimbau -->
      <g style="fill: #262626" transform="translate(304.379375 532.985625) scale(0.14 -0.14)">
       <defs>
        <path id="LiberationSans-Bold-69" d="M 447 3991 
L 447 4638 
L 1325 4638 
L 1325 3991 
L 447 3991 
z
M 447 0 
L 447 3381 
L 1325 3381 
L 1325 0 
L 447 0 
z
" transform="scale(0.015625)"/>
        <path id="LiberationSans-Bold-6d" d="M 2438 0 
L 2438 1897 
Q 2438 2094 2411 2258 
Q 2384 2422 2323 2539 
Q 2263 2656 2164 2722 
Q 2066 2788 1925 2788 
Q 1791 2788 1681 2717 
Q 1572 2647 1492 2517 
Q 1413 2388 1369 2208 
Q 1325 2028 1325 1813 
L 1325 0 
L 447 0 
L 447 2625 
Q 447 2734 445 2850 
Q 444 2966 439 3070 
Q 434 3175 431 3258 
Q 428 3341 422 3381 
L 1259 3381 
Q 1266 3344 1272 3261 
Q 1278 3178 1284 3078 
Q 1291 2978 1295 2878 
Q 1300 2778 1300 2709 
L 1313 2709 
Q 1475 3097 1717 3272 
Q 1959 3447 2297 3447 
Q 2684 3447 2920 3258 
Q 3156 3069 3238 2709 
L 3256 2709 
Q 3347 2919 3451 3059 
Q 3556 3200 3682 3286 
Q 3809 3372 3957 3409 
Q 4106 3447 4281 3447 
Q 4559 3447 4751 3347 
Q 4944 3247 5064 3072 
Q 5184 2897 5239 2659 
Q 5294 2422 5294 2147 
L 5294 0 
L 4422 0 
L 4422 1897 
Q 4422 2094 4395 2258 
Q 4369 2422 4308 2539 
Q 4247 2656 4148 2722 
Q 4050 2788 3909 2788 
Q 3778 2788 3670 2720 
Q 3563 2653 3483 2529 
Q 3403 2406 3359 2234 
Q 3316 2063 3309 1853 
L 3309 0 
L 2438 0 
z
" transform="scale(0.015625)"/>
        <path id="LiberationSans-Bold-62" d="M 3647 1703 
Q 3647 1319 3570 995 
Q 3494 672 3334 436 
Q 3175 200 2929 68 
Q 2684 -63 2350 -63 
Q 2200 -63 2050 -31 
Q 1900 0 1765 72 
Q 1631 144 1518 259 
Q 1406 375 1325 544 
L 1319 544 
Q 1319 478 1314 393 
Q 1309 309 1303 229 
Q 1297 150 1289 87 
Q 1281 25 1275 0 
L 422 0 
Q 431 109 439 311 
Q 447 513 447 772 
L 447 4638 
L 1325 4638 
L 1325 3344 
Q 1325 3244 1323 3148 
Q 1322 3053 1319 2972 
Q 1316 2878 1313 2794 
L 1325 2794 
Q 1484 3144 1762 3294 
Q 2041 3444 2406 3444 
Q 2731 3444 2965 3314 
Q 3200 3184 3351 2951 
Q 3503 2719 3575 2400 
Q 3647 2081 3647 1703 
z
M 2731 1703 
Q 2731 2278 2562 2556 
Q 2394 2834 2041 2834 
Q 1906 2834 1775 2781 
Q 1644 2728 1541 2595 
Q 1438 2463 1375 2239 
Q 1313 2016 1313 1675 
Q 1313 1344 1375 1125 
Q 1438 906 1538 775 
Q 1638 644 1769 591 
Q 1900 538 2034 538 
Q 2369 538 2550 814 
Q 2731 1091 2731 1703 
z
" transform="scale(0.015625)"/>
        <path id="LiberationSans-Bold-61" d="M 1228 -63 
Q 984 -63 792 4 
Q 600 72 465 201 
Q 331 331 259 522 
Q 188 713 188 956 
Q 188 1256 292 1461 
Q 397 1666 578 1792 
Q 759 1919 1003 1976 
Q 1247 2034 1522 2038 
L 2250 2050 
L 2250 2222 
Q 2250 2406 2217 2529 
Q 2184 2653 2121 2731 
Q 2059 2809 1967 2842 
Q 1875 2875 1756 2875 
Q 1647 2875 1561 2853 
Q 1475 2831 1412 2776 
Q 1350 2722 1311 2630 
Q 1272 2538 1256 2397 
L 341 2441 
Q 378 2663 478 2845 
Q 578 3028 754 3162 
Q 931 3297 1189 3370 
Q 1447 3444 1794 3444 
Q 2109 3444 2356 3366 
Q 2603 3288 2775 3133 
Q 2947 2978 3037 2753 
Q 3128 2528 3128 2231 
L 3128 1000 
Q 3128 881 3139 787 
Q 3150 694 3179 630 
Q 3209 566 3264 533 
Q 3319 500 3406 500 
Q 3506 500 3600 519 
L 3600 44 
Q 3522 25 3459 9 
Q 3397 -6 3334 -15 
Q 3272 -25 3201 -31 
Q 3131 -38 3038 -38 
Q 2706 -38 2548 125 
Q 2391 288 2359 603 
L 2341 603 
Q 2166 288 1892 112 
Q 1619 -63 1228 -63 
z
M 2250 1566 
L 1800 1559 
Q 1659 1553 1532 1536 
Q 1406 1519 1311 1464 
Q 1216 1409 1159 1306 
Q 1103 1203 1103 1025 
Q 1103 784 1214 667 
Q 1325 550 1509 550 
Q 1678 550 1815 622 
Q 1953 694 2048 811 
Q 2144 928 2197 1081 
Q 2250 1234 2250 1394 
L 2250 1566 
z
" transform="scale(0.015625)"/>
        <path id="LiberationSans-Bold-75" d="M 1275 3381 
L 1275 1484 
Q 1275 1288 1306 1123 
Q 1338 959 1409 842 
Q 1481 725 1595 659 
Q 1709 594 1875 594 
Q 2034 594 2164 664 
Q 2294 734 2387 864 
Q 2481 994 2532 1173 
Q 2584 1353 2584 1569 
L 2584 3381 
L 3463 3381 
L 3463 756 
Q 3463 650 3464 533 
Q 3466 416 3470 311 
Q 3475 206 3479 123 
Q 3484 41 3488 0 
L 2650 0 
Q 2647 38 2639 120 
Q 2631 203 2626 303 
Q 2622 403 2617 503 
Q 2613 603 2613 672 
L 2597 672 
Q 2422 288 2151 112 
Q 1881 -63 1509 -63 
Q 1206 -63 993 37 
Q 781 138 648 311 
Q 516 484 456 721 
Q 397 959 397 1234 
L 397 3381 
L 1275 3381 
z
" transform="scale(0.015625)"/>
       </defs>
       <use xlink:href="#LiberationSans-Bold-42"/>
       <use xlink:href="#LiberationSans-Bold-45" x="72.216797"/>
       <use xlink:href="#LiberationSans-Bold-52" x="138.916016"/>
       <use xlink:href="#LiberationSans-Bold-54" x="211.132812"/>
       <use xlink:href="#LiberationSans-Bold-69" x="270.466797"/>
       <use xlink:href="#LiberationSans-Bold-6d" x="298.25"/>
       <use xlink:href="#LiberationSans-Bold-62" x="387.166016"/>
       <use xlink:href="#LiberationSans-Bold-61" x="448.25"/>
       <use xlink:href="#LiberationSans-Bold-75" x="503.865234"/>
      </g>
     </g>
    </g>
    <g id="xtick_3">
     <g id="line2d_5">
      <path d="M 530.575 519.34 
L 530.575 10.8 
" clip-path="url(#p072bf92714)" style="fill: none; stroke-dasharray: 2.22,0.96; stroke-dashoffset: 0; stroke: #808080; stroke-opacity: 0.6; stroke-width: 0.6"/>
     </g>
     <g id="line2d_6"/>
     <g id="text_3">
      <!-- mBERT -->
      <g style="fill: #262626" transform="translate(505.295156 532.985625) scale(0.14 -0.14)">
       <use xlink:href="#LiberationSans-Bold-6d"/>
       <use xlink:href="#LiberationSans-Bold-42" x="88.916016"/>
       <use xlink:href="#LiberationSans-Bold-45" x="161.132812"/>
       <use xlink:href="#LiberationSans-Bold-52" x="227.832031"/>
       <use xlink:href="#LiberationSans-Bold-54" x="300.048828"/>
      </g>
     </g>
    </g>
    <g id="xtick_4">
     <g id="line2d_7">
      <path d="M 717.225 519.34 
L 717.225 10.8 
" clip-path="url(#p072bf92714)" style="fill: none; stroke-dasharray: 2.22,0.96; stroke-dashoffset: 0; stroke: #808080; stroke-opacity: 0.6; stroke-width: 0.6"/>
     </g>
     <g id="line2d_8"/>
     <g id="text_4">
      <!-- JurisBERT -->
      <g style="fill: #262626" transform="translate(681.439687 532.985625) scale(0.14 -0.14)">
       <defs>
        <path id="LiberationSans-Bold-4a" d="M 1638 -63 
Q 1306 -63 1047 6 
Q 788 75 597 225 
Q 406 375 282 614 
Q 159 853 97 1194 
L 1013 1328 
Q 1044 1144 1100 1017 
Q 1156 891 1236 811 
Q 1316 731 1419 695 
Q 1522 659 1644 659 
Q 1919 659 2061 843 
Q 2203 1028 2203 1372 
L 2203 3681 
L 1325 3681 
L 1325 4403 
L 3122 4403 
L 3122 1394 
Q 3122 1059 3025 789 
Q 2928 519 2739 330 
Q 2550 141 2273 39 
Q 1997 -63 1638 -63 
z
" transform="scale(0.015625)"/>
        <path id="LiberationSans-Bold-72" d="M 447 0 
L 447 2588 
Q 447 2697 445 2819 
Q 444 2941 439 3052 
Q 434 3163 431 3252 
Q 428 3341 422 3381 
L 1259 3381 
Q 1266 3344 1272 3251 
Q 1278 3159 1284 3050 
Q 1291 2941 1295 2833 
Q 1300 2725 1300 2659 
L 1313 2659 
Q 1378 2844 1443 2989 
Q 1509 3134 1598 3236 
Q 1688 3338 1813 3392 
Q 1938 3447 2122 3447 
Q 2200 3447 2276 3433 
Q 2353 3419 2394 3400 
L 2394 2666 
Q 2309 2684 2223 2698 
Q 2138 2713 2019 2713 
Q 1691 2713 1508 2447 
Q 1325 2181 1325 1659 
L 1325 0 
L 447 0 
z
" transform="scale(0.015625)"/>
        <path id="LiberationSans-Bold-73" d="M 3297 988 
Q 3297 744 3195 550 
Q 3094 356 2900 220 
Q 2706 84 2425 10 
Q 2144 -63 1784 -63 
Q 1463 -63 1203 -16 
Q 944 31 748 139 
Q 553 247 422 419 
Q 291 591 225 844 
L 997 959 
Q 1034 819 1100 731 
Q 1166 644 1262 597 
Q 1359 550 1489 534 
Q 1619 519 1784 519 
Q 1934 519 2064 536 
Q 2194 553 2289 595 
Q 2384 638 2437 714 
Q 2491 791 2491 906 
Q 2491 1038 2414 1114 
Q 2338 1191 2205 1239 
Q 2072 1288 1892 1323 
Q 1713 1359 1509 1406 
Q 1297 1453 1090 1518 
Q 884 1584 721 1696 
Q 559 1809 459 1982 
Q 359 2156 359 2422 
Q 359 2663 453 2852 
Q 547 3041 728 3173 
Q 909 3306 1176 3376 
Q 1444 3447 1791 3447 
Q 2066 3447 2303 3395 
Q 2541 3344 2728 3233 
Q 2916 3122 3042 2950 
Q 3169 2778 3219 2534 
L 2441 2453 
Q 2419 2575 2362 2654 
Q 2306 2734 2223 2781 
Q 2141 2828 2031 2845 
Q 1922 2863 1791 2863 
Q 1478 2863 1322 2783 
Q 1166 2703 1166 2516 
Q 1166 2400 1230 2331 
Q 1294 2263 1411 2217 
Q 1528 2172 1689 2139 
Q 1850 2106 2041 2059 
Q 2275 2009 2501 1942 
Q 2728 1875 2904 1758 
Q 3081 1641 3189 1456 
Q 3297 1272 3297 988 
z
" transform="scale(0.015625)"/>
       </defs>
       <use xlink:href="#LiberationSans-Bold-4a"/>
       <use xlink:href="#LiberationSans-Bold-75" x="55.615234"/>
       <use xlink:href="#LiberationSans-Bold-72" x="116.699219"/>
       <use xlink:href="#LiberationSans-Bold-69" x="155.615234"/>
       <use xlink:href="#LiberationSans-Bold-73" x="183.398438"/>
       <use xlink:href="#LiberationSans-Bold-42" x="239.013672"/>
       <use xlink:href="#LiberationSans-Bold-45" x="311.230469"/>
       <use xlink:href="#LiberationSans-Bold-52" x="377.929688"/>
       <use xlink:href="#LiberationSans-Bold-54" x="450.146484"/>
      </g>
     </g>
    </g>
    <g id="xtick_5">
     <g id="line2d_9">
      <path d="M 903.875 519.34 
L 903.875 10.8 
" clip-path="url(#p072bf92714)" style="fill: none; stroke-dasharray: 2.22,0.96; stroke-dashoffset: 0; stroke: #808080; stroke-opacity: 0.6; stroke-width: 0.6"/>
     </g>
     <g id="line2d_10"/>
     <g id="text_5">
      <!-- LegalBERT -->
      <g style="fill: #262626" transform="translate(866.53875 532.985625) scale(0.14 -0.14)">
       <defs>
        <path id="LiberationSans-Bold-4c" d="M 428 0 
L 428 4403 
L 1350 4403 
L 1350 713 
L 3713 713 
L 3713 0 
L 428 0 
z
" transform="scale(0.015625)"/>
        <path id="LiberationSans-Bold-67" d="M 1863 -1356 
Q 1528 -1356 1273 -1289 
Q 1019 -1222 839 -1101 
Q 659 -981 551 -814 
Q 444 -647 403 -447 
L 1281 -344 
Q 1328 -547 1483 -662 
Q 1638 -778 1888 -778 
Q 2044 -778 2173 -734 
Q 2303 -691 2395 -586 
Q 2488 -481 2539 -309 
Q 2591 -138 2591 116 
Q 2591 203 2591 293 
Q 2591 384 2594 459 
Q 2597 547 2597 628 
L 2591 628 
Q 2438 300 2161 153 
Q 1884 6 1503 6 
Q 1181 6 948 132 
Q 716 259 562 486 
Q 409 713 336 1027 
Q 263 1341 263 1719 
Q 263 2109 341 2426 
Q 419 2744 580 2972 
Q 741 3200 986 3323 
Q 1231 3447 1569 3447 
Q 1906 3447 2173 3303 
Q 2441 3159 2591 2838 
L 2606 2838 
Q 2606 2903 2611 2989 
Q 2616 3075 2622 3154 
Q 2628 3234 2636 3296 
Q 2644 3359 2650 3381 
L 3481 3381 
Q 3475 3269 3469 3066 
Q 3463 2863 3463 2600 
L 3463 103 
Q 3463 -266 3356 -539 
Q 3250 -813 3045 -994 
Q 2841 -1175 2542 -1265 
Q 2244 -1356 1863 -1356 
z
M 2597 1738 
Q 2597 2056 2534 2268 
Q 2472 2481 2372 2609 
Q 2272 2738 2142 2791 
Q 2013 2844 1881 2844 
Q 1713 2844 1583 2778 
Q 1453 2713 1362 2575 
Q 1272 2438 1225 2225 
Q 1178 2013 1178 1719 
Q 1178 1172 1353 894 
Q 1528 616 1875 616 
Q 2006 616 2136 667 
Q 2266 719 2369 848 
Q 2472 978 2534 1193 
Q 2597 1409 2597 1738 
z
" transform="scale(0.015625)"/>
       </defs>
       <use xlink:href="#LiberationSans-Bold-4c"/>
       <use xlink:href="#LiberationSans-Bold-65" x="61.083984"/>
       <use xlink:href="#LiberationSans-Bold-67" x="116.699219"/>
       <use xlink:href="#LiberationSans-Bold-61" x="177.783203"/>
       <use xlink:href="#LiberationSans-Bold-6c" x="233.398438"/>
       <use xlink:href="#LiberationSans-Bold-42" x="261.181641"/>
       <use xlink:href="#LiberationSans-Bold-45" x="333.398438"/>
       <use xlink:href="#LiberationSans-Bold-52" x="400.097656"/>
       <use xlink:href="#LiberationSans-Bold-54" x="472.314453"/>
      </g>
     </g>
    </g>
    <g id="xtick_6">
     <g id="line2d_11">
      <path d="M 82.615 519.34 
L 82.615 10.8 
" clip-path="url(#p072bf92714)" style="fill: none; stroke-dasharray: 0.4,0.66; stroke-dashoffset: 0; stroke: #808080; stroke-opacity: 0.4; stroke-width: 0.4"/>
     </g>
     <g id="line2d_12"/>
    </g>
    <g id="xtick_7">
     <g id="line2d_13">
      <path d="M 119.945 519.34 
L 119.945 10.8 
" clip-path="url(#p072bf92714)" style="fill: none; stroke-dasharray: 0.4,0.66; stroke-dashoffset: 0; stroke: #808080; stroke-opacity: 0.4; stroke-width: 0.4"/>
     </g>
     <g id="line2d_14"/>
    </g>
    <g id="xtick_8">
     <g id="line2d_15">
      <path d="M 194.605 519.34 
L 194.605 10.8 
" clip-path="url(#p072bf92714)" style="fill: none; stroke-dasharray: 0.4,0.66; stroke-dashoffset: 0; stroke: #808080; stroke-opacity: 0.4; stroke-width: 0.4"/>
     </g>
     <g id="line2d_16"/>
    </g>
    <g id="xtick_9">
     <g id="line2d_17">
      <path d="M 231.935 519.34 
L 231.935 10.8 
" clip-path="url(#p072bf92714)" style="fill: none; stroke-dasharray: 0.4,0.66; stroke-dashoffset: 0; stroke: #808080; stroke-opacity: 0.4; stroke-width: 0.4"/>
     </g>
     <g id="line2d_18"/>
    </g>
    <g id="xtick_10">
     <g id="line2d_19">
      <path d="M 269.265 519.34 
L 269.265 10.8 
" clip-path="url(#p072bf92714)" style="fill: none; stroke-dasharray: 0.4,0.66; stroke-dashoffset: 0; stroke: #808080; stroke-opacity: 0.4; stroke-width: 0.4"/>
     </g>
     <g id="line2d_20"/>
    </g>
    <g id="xtick_11">
     <g id="line2d_21">
      <path d="M 306.595 519.34 
L 306.595 10.8 
" clip-path="url(#p072bf92714)" style="fill: none; stroke-dasharray: 0.4,0.66; stroke-dashoffset: 0; stroke: #808080; stroke-opacity: 0.4; stroke-width: 0.4"/>
     </g>
     <g id="line2d_22"/>
    </g>
    <g id="xtick_12">
     <g id="line2d_23">
      <path d="M 381.255 519.34 
L 381.255 10.8 
" clip-path="url(#p072bf92714)" style="fill: none; stroke-dasharray: 0.4,0.66; stroke-dashoffset: 0; stroke: #808080; stroke-opacity: 0.4; stroke-width: 0.4"/>
     </g>
     <g id="line2d_24"/>
    </g>
    <g id="xtick_13">
     <g id="line2d_25">
      <path d="M 418.585 519.34 
L 418.585 10.8 
" clip-path="url(#p072bf92714)" style="fill: none; stroke-dasharray: 0.4,0.66; stroke-dashoffset: 0; stroke: #808080; stroke-opacity: 0.4; stroke-width: 0.4"/>
     </g>
     <g id="line2d_26"/>
    </g>
    <g id="xtick_14">
     <g id="line2d_27">
      <path d="M 455.915 519.34 
L 455.915 10.8 
" clip-path="url(#p072bf92714)" style="fill: none; stroke-dasharray: 0.4,0.66; stroke-dashoffset: 0; stroke: #808080; stroke-opacity: 0.4; stroke-width: 0.4"/>
     </g>
     <g id="line2d_28"/>
    </g>
    <g id="xtick_15">
     <g id="line2d_29">
      <path d="M 493.245 519.34 
L 493.245 10.8 
" clip-path="url(#p072bf92714)" style="fill: none; stroke-dasharray: 0.4,0.66; stroke-dashoffset: 0; stroke: #808080; stroke-opacity: 0.4; stroke-width: 0.4"/>
     </g>
     <g id="line2d_30"/>
    </g>
    <g id="xtick_16">
     <g id="line2d_31">
      <path d="M 567.905 519.34 
L 567.905 10.8 
" clip-path="url(#p072bf92714)" style="fill: none; stroke-dasharray: 0.4,0.66; stroke-dashoffset: 0; stroke: #808080; stroke-opacity: 0.4; stroke-width: 0.4"/>
     </g>
     <g id="line2d_32"/>
    </g>
    <g id="xtick_17">
     <g id="line2d_33">
      <path d="M 605.235 519.34 
L 605.235 10.8 
" clip-path="url(#p072bf92714)" style="fill: none; stroke-dasharray: 0.4,0.66; stroke-dashoffset: 0; stroke: #808080; stroke-opacity: 0.4; stroke-width: 0.4"/>
     </g>
     <g id="line2d_34"/>
    </g>
    <g id="xtick_18">
     <g id="line2d_35">
      <path d="M 642.565 519.34 
L 642.565 10.8 
" clip-path="url(#p072bf92714)" style="fill: none; stroke-dasharray: 0.4,0.66; stroke-dashoffset: 0; stroke: #808080; stroke-opacity: 0.4; stroke-width: 0.4"/>
     </g>
     <g id="line2d_36"/>
    </g>
    <g id="xtick_19">
     <g id="line2d_37">
      <path d="M 679.895 519.34 
L 679.895 10.8 
" clip-path="url(#p072bf92714)" style="fill: none; stroke-dasharray: 0.4,0.66; stroke-dashoffset: 0; stroke: #808080; stroke-opacity: 0.4; stroke-width: 0.4"/>
     </g>
     <g id="line2d_38"/>
    </g>
    <g id="xtick_20">
     <g id="line2d_39">
      <path d="M 754.555 519.34 
L 754.555 10.8 
" clip-path="url(#p072bf92714)" style="fill: none; stroke-dasharray: 0.4,0.66; stroke-dashoffset: 0; stroke: #808080; stroke-opacity: 0.4; stroke-width: 0.4"/>
     </g>
     <g id="line2d_40"/>
    </g>
    <g id="xtick_21">
     <g id="line2d_41">
      <path d="M 791.885 519.34 
L 791.885 10.8 
" clip-path="url(#p072bf92714)" style="fill: none; stroke-dasharray: 0.4,0.66; stroke-dashoffset: 0; stroke: #808080; stroke-opacity: 0.4; stroke-width: 0.4"/>
     </g>
     <g id="line2d_42"/>
    </g>
    <g id="xtick_22">
     <g id="line2d_43">
      <path d="M 829.215 519.34 
L 829.215 10.8 
" clip-path="url(#p072bf92714)" style="fill: none; stroke-dasharray: 0.4,0.66; stroke-dashoffset: 0; stroke: #808080; stroke-opacity: 0.4; stroke-width: 0.4"/>
     </g>
     <g id="line2d_44"/>
    </g>
    <g id="xtick_23">
     <g id="line2d_45">
      <path d="M 866.545 519.34 
L 866.545 10.8 
" clip-path="url(#p072bf92714)" style="fill: none; stroke-dasharray: 0.4,0.66; stroke-dashoffset: 0; stroke: #808080; stroke-opacity: 0.4; stroke-width: 0.4"/>
     </g>
     <g id="line2d_46"/>
    </g>
    <g id="xtick_24">
     <g id="line2d_47">
      <path d="M 941.205 519.34 
L 941.205 10.8 
" clip-path="url(#p072bf92714)" style="fill: none; stroke-dasharray: 0.4,0.66; stroke-dashoffset: 0; stroke: #808080; stroke-opacity: 0.4; stroke-width: 0.4"/>
     </g>
     <g id="line2d_48"/>
    </g>
    <g id="xtick_25">
     <g id="line2d_49">
      <path d="M 978.535 519.34 
L 978.535 10.8 
" clip-path="url(#p072bf92714)" style="fill: none; stroke-dasharray: 0.4,0.66; stroke-dashoffset: 0; stroke: #808080; stroke-opacity: 0.4; stroke-width: 0.4"/>
     </g>
     <g id="line2d_50"/>
    </g>
    <g id="text_6">
     <!-- Modelos -->
     <g style="fill: #262626" transform="translate(500.33875 562.546875) scale(0.16 -0.16)">
      <defs>
       <path id="LiberationSans-4d" d="M 4269 0 
L 4269 2938 
Q 4269 3097 4272 3262 
Q 4275 3428 4281 3566 
Q 4288 3725 4297 3875 
Q 4253 3716 4206 3559 
Q 4166 3425 4117 3273 
Q 4069 3122 4022 3000 
L 2884 0 
L 2466 0 
L 1313 3000 
Q 1294 3047 1273 3109 
Q 1253 3172 1229 3242 
Q 1206 3313 1182 3386 
Q 1159 3459 1138 3531 
Q 1084 3697 1034 3875 
Q 1038 3700 1044 3528 
Q 1050 3381 1053 3220 
Q 1056 3059 1056 2938 
L 1056 0 
L 525 0 
L 525 4403 
L 1309 4403 
L 2481 1350 
Q 2503 1288 2534 1189 
Q 2566 1091 2594 987 
Q 2622 884 2645 792 
Q 2669 700 2678 650 
Q 2688 700 2713 794 
Q 2738 888 2770 991 
Q 2803 1094 2834 1191 
Q 2866 1288 2891 1350 
L 4041 4403 
L 4806 4403 
L 4806 0 
L 4269 0 
z
" transform="scale(0.015625)"/>
       <path id="LiberationSans-6f" d="M 3291 1694 
Q 3291 806 2900 371 
Q 2509 -63 1766 -63 
Q 1413 -63 1134 43 
Q 856 150 664 369 
Q 472 588 370 917 
Q 269 1247 269 1694 
Q 269 3444 1784 3444 
Q 2178 3444 2464 3334 
Q 2750 3225 2933 3006 
Q 3116 2788 3203 2459 
Q 3291 2131 3291 1694 
z
M 2700 1694 
Q 2700 2088 2639 2344 
Q 2578 2600 2461 2753 
Q 2344 2906 2175 2967 
Q 2006 3028 1794 3028 
Q 1578 3028 1404 2964 
Q 1231 2900 1109 2745 
Q 988 2591 923 2334 
Q 859 2078 859 1694 
Q 859 1300 928 1042 
Q 997 784 1117 631 
Q 1238 478 1402 415 
Q 1566 353 1759 353 
Q 1975 353 2150 414 
Q 2325 475 2447 628 
Q 2569 781 2634 1040 
Q 2700 1300 2700 1694 
z
" transform="scale(0.015625)"/>
       <path id="LiberationSans-64" d="M 2566 544 
Q 2409 219 2151 78 
Q 1894 -63 1513 -63 
Q 872 -63 570 368 
Q 269 800 269 1675 
Q 269 3444 1513 3444 
Q 1897 3444 2153 3303 
Q 2409 3163 2566 2856 
L 2572 2856 
Q 2572 2888 2570 2955 
Q 2569 3022 2567 3095 
Q 2566 3169 2566 3234 
Q 2566 3300 2566 3328 
L 2566 4638 
L 3128 4638 
L 3128 697 
Q 3128 575 3129 462 
Q 3131 350 3134 256 
Q 3138 163 3141 95 
Q 3144 28 3147 0 
L 2609 0 
Q 2603 31 2598 89 
Q 2594 147 2589 222 
Q 2584 297 2581 380 
Q 2578 463 2578 544 
L 2566 544 
z
M 859 1694 
Q 859 1344 903 1094 
Q 947 844 1044 683 
Q 1141 522 1291 447 
Q 1441 372 1656 372 
Q 1878 372 2048 444 
Q 2219 516 2333 677 
Q 2447 838 2506 1097 
Q 2566 1356 2566 1731 
Q 2566 2091 2506 2339 
Q 2447 2588 2331 2741 
Q 2216 2894 2048 2961 
Q 1881 3028 1663 3028 
Q 1456 3028 1306 2956 
Q 1156 2884 1056 2725 
Q 956 2566 907 2311 
Q 859 2056 859 1694 
z
" transform="scale(0.015625)"/>
       <path id="LiberationSans-65" d="M 863 1572 
Q 863 1306 917 1082 
Q 972 859 1086 698 
Q 1200 538 1378 448 
Q 1556 359 1806 359 
Q 2172 359 2392 506 
Q 2613 653 2691 878 
L 3184 738 
Q 3131 597 3036 455 
Q 2941 313 2781 198 
Q 2622 84 2383 10 
Q 2144 -63 1806 -63 
Q 1056 -63 664 384 
Q 272 831 272 1713 
Q 272 2188 390 2517 
Q 509 2847 715 3053 
Q 922 3259 1197 3351 
Q 1472 3444 1784 3444 
Q 2209 3444 2495 3306 
Q 2781 3169 2954 2926 
Q 3128 2684 3201 2356 
Q 3275 2028 3275 1647 
L 3275 1572 
L 863 1572 
z
M 2694 2003 
Q 2647 2538 2422 2783 
Q 2197 3028 1775 3028 
Q 1634 3028 1479 2983 
Q 1325 2938 1194 2822 
Q 1063 2706 972 2507 
Q 881 2309 869 2003 
L 2694 2003 
z
" transform="scale(0.015625)"/>
       <path id="LiberationSans-6c" d="M 431 0 
L 431 4638 
L 994 4638 
L 994 0 
L 431 0 
z
" transform="scale(0.015625)"/>
       <path id="LiberationSans-73" d="M 2969 934 
Q 2969 697 2876 511 
Q 2784 325 2609 198 
Q 2434 72 2179 4 
Q 1925 -63 1597 -63 
Q 1303 -63 1067 -17 
Q 831 28 653 128 
Q 475 228 354 392 
Q 234 556 178 794 
L 675 891 
Q 747 619 972 492 
Q 1197 366 1597 366 
Q 1778 366 1929 391 
Q 2081 416 2190 477 
Q 2300 538 2361 639 
Q 2422 741 2422 891 
Q 2422 1044 2350 1142 
Q 2278 1241 2150 1306 
Q 2022 1372 1839 1420 
Q 1656 1469 1438 1528 
Q 1234 1581 1034 1647 
Q 834 1713 673 1820 
Q 513 1928 413 2087 
Q 313 2247 313 2488 
Q 313 2950 642 3192 
Q 972 3434 1603 3434 
Q 2163 3434 2492 3237 
Q 2822 3041 2909 2606 
L 2403 2544 
Q 2375 2675 2300 2764 
Q 2225 2853 2119 2908 
Q 2013 2963 1880 2986 
Q 1747 3009 1603 3009 
Q 1222 3009 1040 2893 
Q 859 2778 859 2544 
Q 859 2406 926 2317 
Q 994 2228 1114 2167 
Q 1234 2106 1403 2061 
Q 1572 2016 1775 1966 
Q 1909 1931 2050 1892 
Q 2191 1853 2323 1798 
Q 2456 1744 2573 1670 
Q 2691 1597 2778 1494 
Q 2866 1391 2917 1253 
Q 2969 1116 2969 934 
z
" transform="scale(0.015625)"/>
      </defs>
      <use xlink:href="#LiberationSans-4d"/>
      <use xlink:href="#LiberationSans-6f" x="83.300781"/>
      <use xlink:href="#LiberationSans-64" x="138.916016"/>
      <use xlink:href="#LiberationSans-65" x="194.53125"/>
      <use xlink:href="#LiberationSans-6c" x="250.146484"/>
      <use xlink:href="#LiberationSans-6f" x="272.363281"/>
      <use xlink:href="#LiberationSans-73" x="327.978516"/>
     </g>
    </g>
   </g>
   <g id="matplotlib.axis_2">
    <g id="ytick_1">
     <g id="line2d_51">
      <path d="M 63.95 498.562051 
L 997.2 498.562051 
" clip-path="url(#p072bf92714)" style="fill: none; stroke-dasharray: 2.22,0.96; stroke-dashoffset: 0; stroke: #808080; stroke-opacity: 0.6; stroke-width: 0.6"/>
     </g>
     <g id="line2d_52"/>
     <g id="text_7">
      <!-- 1.0 -->
      <g style="fill: #262626" transform="translate(40.99 503.634863) scale(0.14 -0.14)">
       <defs>
        <path id="LiberationSans-31" d="M 488 0 
L 488 478 
L 1609 478 
L 1609 3866 
L 616 3156 
L 616 3688 
L 1656 4403 
L 2175 4403 
L 2175 478 
L 3247 478 
L 3247 0 
L 488 0 
z
" transform="scale(0.015625)"/>
        <path id="LiberationSans-2e" d="M 584 0 
L 584 684 
L 1194 684 
L 1194 0 
L 584 0 
z
" transform="scale(0.015625)"/>
        <path id="LiberationSans-30" d="M 3309 2203 
Q 3309 1569 3189 1136 
Q 3069 703 2861 436 
Q 2653 169 2372 53 
Q 2091 -63 1772 -63 
Q 1450 -63 1172 53 
Q 894 169 689 434 
Q 484 700 367 1133 
Q 250 1566 250 2203 
Q 250 2869 367 3305 
Q 484 3741 690 4000 
Q 897 4259 1178 4364 
Q 1459 4469 1791 4469 
Q 2106 4469 2382 4364 
Q 2659 4259 2865 4000 
Q 3072 3741 3190 3305 
Q 3309 2869 3309 2203 
z
M 2738 2203 
Q 2738 2728 2675 3076 
Q 2613 3425 2491 3633 
Q 2369 3841 2192 3927 
Q 2016 4013 1791 4013 
Q 1553 4013 1372 3925 
Q 1191 3838 1067 3630 
Q 944 3422 881 3073 
Q 819 2725 819 2203 
Q 819 1697 883 1350 
Q 947 1003 1070 792 
Q 1194 581 1372 489 
Q 1550 397 1778 397 
Q 2000 397 2178 489 
Q 2356 581 2479 792 
Q 2603 1003 2670 1350 
Q 2738 1697 2738 2203 
z
" transform="scale(0.015625)"/>
       </defs>
       <use xlink:href="#LiberationSans-31"/>
       <use xlink:href="#LiberationSans-2e" x="55.615234"/>
       <use xlink:href="#LiberationSans-30" x="83.398438"/>
      </g>
     </g>
    </g>
    <g id="ytick_2">
     <g id="line2d_53">
      <path d="M 63.95 407.291273 
L 997.2 407.291273 
" clip-path="url(#p072bf92714)" style="fill: none; stroke-dasharray: 2.22,0.96; stroke-dashoffset: 0; stroke: #808080; stroke-opacity: 0.6; stroke-width: 0.6"/>
     </g>
     <g id="line2d_54"/>
     <g id="text_8">
      <!-- 1.5 -->
      <g style="fill: #262626" transform="translate(40.99 412.364086) scale(0.14 -0.14)">
       <defs>
        <path id="LiberationSans-35" d="M 3291 1434 
Q 3291 1103 3191 828 
Q 3091 553 2894 354 
Q 2697 156 2405 46 
Q 2113 -63 1728 -63 
Q 1381 -63 1123 18 
Q 866 100 687 242 
Q 509 384 404 575 
Q 300 766 256 984 
L 825 1050 
Q 859 925 921 808 
Q 984 691 1092 598 
Q 1200 506 1358 451 
Q 1516 397 1741 397 
Q 1959 397 2137 464 
Q 2316 531 2442 662 
Q 2569 794 2637 984 
Q 2706 1175 2706 1422 
Q 2706 1625 2640 1795 
Q 2575 1966 2453 2089 
Q 2331 2213 2154 2281 
Q 1978 2350 1753 2350 
Q 1613 2350 1494 2325 
Q 1375 2300 1273 2256 
Q 1172 2213 1089 2155 
Q 1006 2097 934 2034 
L 384 2034 
L 531 4403 
L 3034 4403 
L 3034 3925 
L 1044 3925 
L 959 2528 
Q 1109 2644 1334 2726 
Q 1559 2809 1869 2809 
Q 2197 2809 2459 2709 
Q 2722 2609 2906 2426 
Q 3091 2244 3191 1991 
Q 3291 1738 3291 1434 
z
" transform="scale(0.015625)"/>
       </defs>
       <use xlink:href="#LiberationSans-31"/>
       <use xlink:href="#LiberationSans-2e" x="55.615234"/>
       <use xlink:href="#LiberationSans-35" x="83.398438"/>
      </g>
     </g>
    </g>
    <g id="ytick_3">
     <g id="line2d_55">
      <path d="M 63.95 316.020496 
L 997.2 316.020496 
" clip-path="url(#p072bf92714)" style="fill: none; stroke-dasharray: 2.22,0.96; stroke-dashoffset: 0; stroke: #808080; stroke-opacity: 0.6; stroke-width: 0.6"/>
     </g>
     <g id="line2d_56"/>
     <g id="text_9">
      <!-- 2.0 -->
      <g style="fill: #262626" transform="translate(40.99 321.093309) scale(0.14 -0.14)">
       <defs>
        <path id="LiberationSans-32" d="M 322 0 
L 322 397 
Q 481 763 711 1042 
Q 941 1322 1194 1548 
Q 1447 1775 1695 1969 
Q 1944 2163 2144 2356 
Q 2344 2550 2467 2762 
Q 2591 2975 2591 3244 
Q 2591 3431 2534 3573 
Q 2478 3716 2372 3812 
Q 2266 3909 2117 3957 
Q 1969 4006 1788 4006 
Q 1619 4006 1470 3959 
Q 1322 3913 1206 3819 
Q 1091 3725 1017 3586 
Q 944 3447 922 3263 
L 347 3316 
Q 375 3553 478 3762 
Q 581 3972 762 4130 
Q 944 4288 1198 4378 
Q 1453 4469 1788 4469 
Q 2116 4469 2372 4391 
Q 2628 4313 2804 4159 
Q 2981 4006 3075 3781 
Q 3169 3556 3169 3263 
Q 3169 3041 3089 2841 
Q 3009 2641 2876 2459 
Q 2744 2278 2569 2109 
Q 2394 1941 2203 1780 
Q 2013 1619 1819 1461 
Q 1625 1303 1454 1143 
Q 1284 984 1150 820 
Q 1016 656 941 478 
L 3238 478 
L 3238 0 
L 322 0 
z
" transform="scale(0.015625)"/>
       </defs>
       <use xlink:href="#LiberationSans-32"/>
       <use xlink:href="#LiberationSans-2e" x="55.615234"/>
       <use xlink:href="#LiberationSans-30" x="83.398438"/>
      </g>
     </g>
    </g>
    <g id="ytick_4">
     <g id="line2d_57">
      <path d="M 63.95 224.749719 
L 997.2 224.749719 
" clip-path="url(#p072bf92714)" style="fill: none; stroke-dasharray: 2.22,0.96; stroke-dashoffset: 0; stroke: #808080; stroke-opacity: 0.6; stroke-width: 0.6"/>
     </g>
     <g id="line2d_58"/>
     <g id="text_10">
      <!-- 2.5 -->
      <g style="fill: #262626" transform="translate(40.99 229.822531) scale(0.14 -0.14)">
       <use xlink:href="#LiberationSans-32"/>
       <use xlink:href="#LiberationSans-2e" x="55.615234"/>
       <use xlink:href="#LiberationSans-35" x="83.398438"/>
      </g>
     </g>
    </g>
    <g id="ytick_5">
     <g id="line2d_59">
      <path d="M 63.95 133.478942 
L 997.2 133.478942 
" clip-path="url(#p072bf92714)" style="fill: none; stroke-dasharray: 2.22,0.96; stroke-dashoffset: 0; stroke: #808080; stroke-opacity: 0.6; stroke-width: 0.6"/>
     </g>
     <g id="line2d_60"/>
     <g id="text_11">
      <!-- 3.0 -->
      <g style="fill: #262626" transform="translate(40.99 138.551754) scale(0.14 -0.14)">
       <defs>
        <path id="LiberationSans-33" d="M 3278 1216 
Q 3278 913 3179 675 
Q 3081 438 2892 273 
Q 2703 109 2423 23 
Q 2144 -63 1784 -63 
Q 1375 -63 1095 39 
Q 816 141 634 308 
Q 453 475 362 689 
Q 272 903 244 1131 
L 825 1184 
Q 850 1009 917 865 
Q 984 722 1100 619 
Q 1216 516 1384 459 
Q 1553 403 1784 403 
Q 2209 403 2451 612 
Q 2694 822 2694 1234 
Q 2694 1478 2586 1626 
Q 2478 1775 2317 1858 
Q 2156 1941 1967 1969 
Q 1778 1997 1619 1997 
L 1300 1997 
L 1300 2484 
L 1606 2484 
Q 1766 2484 1937 2517 
Q 2109 2550 2251 2636 
Q 2394 2722 2486 2869 
Q 2578 3016 2578 3244 
Q 2578 3597 2370 3801 
Q 2163 4006 1753 4006 
Q 1381 4006 1151 3815 
Q 922 3625 884 3278 
L 319 3322 
Q 353 3613 478 3828 
Q 603 4044 795 4186 
Q 988 4328 1234 4398 
Q 1481 4469 1759 4469 
Q 2128 4469 2393 4376 
Q 2659 4284 2828 4126 
Q 2997 3969 3076 3756 
Q 3156 3544 3156 3303 
Q 3156 3109 3103 2940 
Q 3050 2772 2937 2637 
Q 2825 2503 2651 2406 
Q 2478 2309 2234 2259 
L 2234 2247 
Q 2500 2219 2697 2126 
Q 2894 2034 3022 1896 
Q 3150 1759 3214 1584 
Q 3278 1409 3278 1216 
z
" transform="scale(0.015625)"/>
       </defs>
       <use xlink:href="#LiberationSans-33"/>
       <use xlink:href="#LiberationSans-2e" x="55.615234"/>
       <use xlink:href="#LiberationSans-30" x="83.398438"/>
      </g>
     </g>
    </g>
    <g id="ytick_6">
     <g id="line2d_61">
      <path d="M 63.95 42.208164 
L 997.2 42.208164 
" clip-path="url(#p072bf92714)" style="fill: none; stroke-dasharray: 2.22,0.96; stroke-dashoffset: 0; stroke: #808080; stroke-opacity: 0.6; stroke-width: 0.6"/>
     </g>
     <g id="line2d_62"/>
     <g id="text_12">
      <!-- 3.5 -->
      <g style="fill: #262626" transform="translate(40.99 47.280977) scale(0.14 -0.14)">
       <use xlink:href="#LiberationSans-33"/>
       <use xlink:href="#LiberationSans-2e" x="55.615234"/>
       <use xlink:href="#LiberationSans-35" x="83.398438"/>
      </g>
     </g>
    </g>
    <g id="ytick_7">
     <g id="line2d_63">
      <path d="M 63.95 516.816206 
L 997.2 516.816206 
" clip-path="url(#p072bf92714)" style="fill: none; stroke-dasharray: 0.4,0.66; stroke-dashoffset: 0; stroke: #808080; stroke-opacity: 0.4; stroke-width: 0.4"/>
     </g>
     <g id="line2d_64"/>
    </g>
    <g id="ytick_8">
     <g id="line2d_65">
      <path d="M 63.95 480.307895 
L 997.2 480.307895 
" clip-path="url(#p072bf92714)" style="fill: none; stroke-dasharray: 0.4,0.66; stroke-dashoffset: 0; stroke: #808080; stroke-opacity: 0.4; stroke-width: 0.4"/>
     </g>
     <g id="line2d_66"/>
    </g>
    <g id="ytick_9">
     <g id="line2d_67">
      <path d="M 63.95 462.05374 
L 997.2 462.05374 
" clip-path="url(#p072bf92714)" style="fill: none; stroke-dasharray: 0.4,0.66; stroke-dashoffset: 0; stroke: #808080; stroke-opacity: 0.4; stroke-width: 0.4"/>
     </g>
     <g id="line2d_68"/>
    </g>
    <g id="ytick_10">
     <g id="line2d_69">
      <path d="M 63.95 443.799584 
L 997.2 443.799584 
" clip-path="url(#p072bf92714)" style="fill: none; stroke-dasharray: 0.4,0.66; stroke-dashoffset: 0; stroke: #808080; stroke-opacity: 0.4; stroke-width: 0.4"/>
     </g>
     <g id="line2d_70"/>
    </g>
    <g id="ytick_11">
     <g id="line2d_71">
      <path d="M 63.95 425.545429 
L 997.2 425.545429 
" clip-path="url(#p072bf92714)" style="fill: none; stroke-dasharray: 0.4,0.66; stroke-dashoffset: 0; stroke: #808080; stroke-opacity: 0.4; stroke-width: 0.4"/>
     </g>
     <g id="line2d_72"/>
    </g>
    <g id="ytick_12">
     <g id="line2d_73">
      <path d="M 63.95 389.037118 
L 997.2 389.037118 
" clip-path="url(#p072bf92714)" style="fill: none; stroke-dasharray: 0.4,0.66; stroke-dashoffset: 0; stroke: #808080; stroke-opacity: 0.4; stroke-width: 0.4"/>
     </g>
     <g id="line2d_74"/>
    </g>
    <g id="ytick_13">
     <g id="line2d_75">
      <path d="M 63.95 370.782963 
L 997.2 370.782963 
" clip-path="url(#p072bf92714)" style="fill: none; stroke-dasharray: 0.4,0.66; stroke-dashoffset: 0; stroke: #808080; stroke-opacity: 0.4; stroke-width: 0.4"/>
     </g>
     <g id="line2d_76"/>
    </g>
    <g id="ytick_14">
     <g id="line2d_77">
      <path d="M 63.95 352.528807 
L 997.2 352.528807 
" clip-path="url(#p072bf92714)" style="fill: none; stroke-dasharray: 0.4,0.66; stroke-dashoffset: 0; stroke: #808080; stroke-opacity: 0.4; stroke-width: 0.4"/>
     </g>
     <g id="line2d_78"/>
    </g>
    <g id="ytick_15">
     <g id="line2d_79">
      <path d="M 63.95 334.274652 
L 997.2 334.274652 
" clip-path="url(#p072bf92714)" style="fill: none; stroke-dasharray: 0.4,0.66; stroke-dashoffset: 0; stroke: #808080; stroke-opacity: 0.4; stroke-width: 0.4"/>
     </g>
     <g id="line2d_80"/>
    </g>
    <g id="ytick_16">
     <g id="line2d_81">
      <path d="M 63.95 297.766341 
L 997.2 297.766341 
" clip-path="url(#p072bf92714)" style="fill: none; stroke-dasharray: 0.4,0.66; stroke-dashoffset: 0; stroke: #808080; stroke-opacity: 0.4; stroke-width: 0.4"/>
     </g>
     <g id="line2d_82"/>
    </g>
    <g id="ytick_17">
     <g id="line2d_83">
      <path d="M 63.95 279.512185 
L 997.2 279.512185 
" clip-path="url(#p072bf92714)" style="fill: none; stroke-dasharray: 0.4,0.66; stroke-dashoffset: 0; stroke: #808080; stroke-opacity: 0.4; stroke-width: 0.4"/>
     </g>
     <g id="line2d_84"/>
    </g>
    <g id="ytick_18">
     <g id="line2d_85">
      <path d="M 63.95 261.25803 
L 997.2 261.25803 
" clip-path="url(#p072bf92714)" style="fill: none; stroke-dasharray: 0.4,0.66; stroke-dashoffset: 0; stroke: #808080; stroke-opacity: 0.4; stroke-width: 0.4"/>
     </g>
     <g id="line2d_86"/>
    </g>
    <g id="ytick_19">
     <g id="line2d_87">
      <path d="M 63.95 243.003874 
L 997.2 243.003874 
" clip-path="url(#p072bf92714)" style="fill: none; stroke-dasharray: 0.4,0.66; stroke-dashoffset: 0; stroke: #808080; stroke-opacity: 0.4; stroke-width: 0.4"/>
     </g>
     <g id="line2d_88"/>
    </g>
    <g id="ytick_20">
     <g id="line2d_89">
      <path d="M 63.95 206.495563 
L 997.2 206.495563 
" clip-path="url(#p072bf92714)" style="fill: none; stroke-dasharray: 0.4,0.66; stroke-dashoffset: 0; stroke: #808080; stroke-opacity: 0.4; stroke-width: 0.4"/>
     </g>
     <g id="line2d_90"/>
    </g>
    <g id="ytick_21">
     <g id="line2d_91">
      <path d="M 63.95 188.241408 
L 997.2 188.241408 
" clip-path="url(#p072bf92714)" style="fill: none; stroke-dasharray: 0.4,0.66; stroke-dashoffset: 0; stroke: #808080; stroke-opacity: 0.4; stroke-width: 0.4"/>
     </g>
     <g id="line2d_92"/>
    </g>
    <g id="ytick_22">
     <g id="line2d_93">
      <path d="M 63.95 169.987253 
L 997.2 169.987253 
" clip-path="url(#p072bf92714)" style="fill: none; stroke-dasharray: 0.4,0.66; stroke-dashoffset: 0; stroke: #808080; stroke-opacity: 0.4; stroke-width: 0.4"/>
     </g>
     <g id="line2d_94"/>
    </g>
    <g id="ytick_23">
     <g id="line2d_95">
      <path d="M 63.95 151.733097 
L 997.2 151.733097 
" clip-path="url(#p072bf92714)" style="fill: none; stroke-dasharray: 0.4,0.66; stroke-dashoffset: 0; stroke: #808080; stroke-opacity: 0.4; stroke-width: 0.4"/>
     </g>
     <g id="line2d_96"/>
    </g>
    <g id="ytick_24">
     <g id="line2d_97">
      <path d="M 63.95 115.224786 
L 997.2 115.224786 
" clip-path="url(#p072bf92714)" style="fill: none; stroke-dasharray: 0.4,0.66; stroke-dashoffset: 0; stroke: #808080; stroke-opacity: 0.4; stroke-width: 0.4"/>
     </g>
     <g id="line2d_98"/>
    </g>
    <g id="ytick_25">
     <g id="line2d_99">
      <path d="M 63.95 96.970631 
L 997.2 96.970631 
" clip-path="url(#p072bf92714)" style="fill: none; stroke-dasharray: 0.4,0.66; stroke-dashoffset: 0; stroke: #808080; stroke-opacity: 0.4; stroke-width: 0.4"/>
     </g>
     <g id="line2d_100"/>
    </g>
    <g id="ytick_26">
     <g id="line2d_101">
      <path d="M 63.95 78.716475 
L 997.2 78.716475 
" clip-path="url(#p072bf92714)" style="fill: none; stroke-dasharray: 0.4,0.66; stroke-dashoffset: 0; stroke: #808080; stroke-opacity: 0.4; stroke-width: 0.4"/>
     </g>
     <g id="line2d_102"/>
    </g>
    <g id="ytick_27">
     <g id="line2d_103">
      <path d="M 63.95 60.46232 
L 997.2 60.46232 
" clip-path="url(#p072bf92714)" style="fill: none; stroke-dasharray: 0.4,0.66; stroke-dashoffset: 0; stroke: #808080; stroke-opacity: 0.4; stroke-width: 0.4"/>
     </g>
     <g id="line2d_104"/>
    </g>
    <g id="ytick_28">
     <g id="line2d_105">
      <path d="M 63.95 23.954009 
L 997.2 23.954009 
" clip-path="url(#p072bf92714)" style="fill: none; stroke-dasharray: 0.4,0.66; stroke-dashoffset: 0; stroke: #808080; stroke-opacity: 0.4; stroke-width: 0.4"/>
     </g>
     <g id="line2d_106"/>
    </g>
    <g id="text_13">
     <!-- Fertilidade -->
     <g style="fill: #262626" transform="translate(22.67 302.41875) rotate(-90) scale(0.16 -0.16)">
      <defs>
       <path id="LiberationSans-46" d="M 1122 3916 
L 1122 2278 
L 3578 2278 
L 3578 1784 
L 1122 1784 
L 1122 0 
L 525 0 
L 525 4403 
L 3653 4403 
L 3653 3916 
L 1122 3916 
z
" transform="scale(0.015625)"/>
       <path id="LiberationSans-72" d="M 444 0 
L 444 2594 
Q 444 2700 442 2811 
Q 441 2922 437 3025 
Q 434 3128 431 3218 
Q 428 3309 425 3381 
L 956 3381 
Q 959 3309 964 3217 
Q 969 3125 973 3028 
Q 978 2931 979 2842 
Q 981 2753 981 2691 
L 994 2691 
Q 1053 2884 1120 3026 
Q 1188 3169 1278 3261 
Q 1369 3353 1494 3398 
Q 1619 3444 1797 3444 
Q 1866 3444 1928 3433 
Q 1991 3422 2025 3413 
L 2025 2897 
Q 1969 2913 1894 2920 
Q 1819 2928 1725 2928 
Q 1531 2928 1395 2840 
Q 1259 2753 1173 2598 
Q 1088 2444 1047 2230 
Q 1006 2016 1006 1763 
L 1006 0 
L 444 0 
z
" transform="scale(0.015625)"/>
       <path id="LiberationSans-74" d="M 1731 25 
Q 1603 -9 1470 -29 
Q 1338 -50 1163 -50 
Q 488 -50 488 716 
L 488 2972 
L 97 2972 
L 97 3381 
L 509 3381 
L 675 4138 
L 1050 4138 
L 1050 3381 
L 1675 3381 
L 1675 2972 
L 1050 2972 
L 1050 838 
Q 1050 594 1129 495 
Q 1209 397 1406 397 
Q 1488 397 1564 409 
Q 1641 422 1731 441 
L 1731 25 
z
" transform="scale(0.015625)"/>
       <path id="LiberationSans-69" d="M 428 4100 
L 428 4638 
L 991 4638 
L 991 4100 
L 428 4100 
z
M 428 0 
L 428 3381 
L 991 3381 
L 991 0 
L 428 0 
z
" transform="scale(0.015625)"/>
       <path id="LiberationSans-61" d="M 1294 -63 
Q 784 -63 528 206 
Q 272 475 272 944 
Q 272 1278 398 1492 
Q 525 1706 729 1828 
Q 934 1950 1196 1997 
Q 1459 2044 1731 2050 
L 2491 2063 
L 2491 2247 
Q 2491 2456 2447 2603 
Q 2403 2750 2312 2840 
Q 2222 2931 2086 2973 
Q 1950 3016 1766 3016 
Q 1603 3016 1472 2992 
Q 1341 2969 1244 2908 
Q 1147 2847 1087 2742 
Q 1028 2638 1009 2478 
L 422 2531 
Q 453 2731 540 2898 
Q 628 3066 789 3187 
Q 950 3309 1192 3376 
Q 1434 3444 1778 3444 
Q 2416 3444 2737 3151 
Q 3059 2859 3059 2306 
L 3059 850 
Q 3059 600 3125 473 
Q 3191 347 3375 347 
Q 3422 347 3469 353 
Q 3516 359 3559 369 
L 3559 19 
Q 3453 -6 3348 -18 
Q 3244 -31 3125 -31 
Q 2966 -31 2852 11 
Q 2738 53 2666 139 
Q 2594 225 2556 351 
Q 2519 478 2509 647 
L 2491 647 
Q 2400 484 2292 353 
Q 2184 222 2040 130 
Q 1897 38 1714 -12 
Q 1531 -63 1294 -63 
z
M 1422 359 
Q 1691 359 1892 457 
Q 2094 556 2226 709 
Q 2359 863 2425 1044 
Q 2491 1225 2491 1391 
L 2491 1669 
L 1875 1656 
Q 1669 1653 1483 1626 
Q 1297 1600 1156 1522 
Q 1016 1444 933 1303 
Q 850 1163 850 934 
Q 850 659 998 509 
Q 1147 359 1422 359 
z
" transform="scale(0.015625)"/>
      </defs>
      <use xlink:href="#LiberationSans-46"/>
      <use xlink:href="#LiberationSans-65" x="61.083984"/>
      <use xlink:href="#LiberationSans-72" x="116.699219"/>
      <use xlink:href="#LiberationSans-74" x="150"/>
      <use xlink:href="#LiberationSans-69" x="177.783203"/>
      <use xlink:href="#LiberationSans-6c" x="200"/>
      <use xlink:href="#LiberationSans-69" x="222.216797"/>
      <use xlink:href="#LiberationSans-64" x="244.433594"/>
      <use xlink:href="#LiberationSans-61" x="300.048828"/>
      <use xlink:href="#LiberationSans-64" x="355.664062"/>
      <use xlink:href="#LiberationSans-65" x="411.279297"/>
     </g>
    </g>
   </g>
   <g id="PolyCollection_1">
    <defs>
     <path id="m8d40d6f2c2" d="M 157.294627 -79.775455 
L 157.255373 -79.775455 
L 157.23022 -80.665649 
L 157.184489 -81.555843 
L 157.110304 -82.446038 
L 157.00009 -83.336232 
L 156.845544 -84.226427 
L 156.635353 -85.116621 
L 156.354454 -86.006816 
L 155.98905 -86.89701 
L 155.538426 -87.787204 
L 155.025544 -88.677399 
L 154.491656 -89.567593 
L 153.968918 -90.457788 
L 153.446351 -91.347982 
L 152.854781 -92.238176 
L 152.078569 -93.128371 
L 150.97177 -94.018565 
L 149.349608 -94.90876 
L 146.959309 -95.798954 
L 143.480571 -96.689149 
L 138.613438 -97.579343 
L 132.252556 -98.469537 
L 124.656073 -99.359732 
L 116.475856 -100.249926 
L 108.582104 -101.140121 
L 101.759603 -102.030315 
L 96.460467 -102.92051 
L 92.762821 -103.810704 
L 90.523151 -104.700898 
L 89.567795 -105.591093 
L 89.778198 -106.481287 
L 91.057617 -107.371482 
L 93.273999 -108.261676 
L 96.259396 -109.151871 
L 99.861612 -110.042065 
L 103.989438 -110.932259 
L 108.600758 -111.822454 
L 113.629284 -112.712648 
L 118.902617 -113.602843 
L 124.129025 -114.493037 
L 128.980839 -115.383232 
L 133.213954 -116.273426 
L 136.733049 -117.16362 
L 139.572416 -118.053815 
L 141.834627 -118.944009 
L 143.640004 -119.834204 
L 145.103143 -120.724398 
L 146.32174 -121.614593 
L 147.362496 -122.504787 
L 148.249994 -123.394981 
L 148.979217 -124.285176 
L 149.554057 -125.17537 
L 150.01774 -126.065565 
L 150.439677 -126.955759 
L 150.871692 -127.845954 
L 151.324285 -128.736148 
L 151.786076 -129.626342 
L 152.252976 -130.516537 
L 152.725774 -131.406731 
L 153.184128 -132.296926 
L 153.580921 -133.18712 
L 153.874736 -134.077314 
L 154.067469 -134.967509 
L 154.206322 -135.857703 
L 154.350433 -136.747898 
L 154.536872 -137.638092 
L 154.772128 -138.528287 
L 155.043929 -139.418481 
L 155.332967 -140.308675 
L 155.615475 -141.19887 
L 155.864487 -142.089064 
L 156.057607 -142.979259 
L 156.186046 -143.869453 
L 156.255357 -144.759648 
L 156.278829 -145.649842 
L 156.272889 -146.540036 
L 156.257852 -147.430231 
L 156.257346 -148.320425 
L 156.291078 -149.21062 
L 156.365998 -150.100814 
L 156.474462 -150.991009 
L 156.599423 -151.881203 
L 156.719238 -152.771397 
L 156.809517 -153.661592 
L 156.847831 -154.551786 
L 156.824729 -155.441981 
L 156.753975 -156.332175 
L 156.670957 -157.22237 
L 156.616594 -158.112564 
L 156.616093 -159.002758 
L 156.666981 -159.892953 
L 156.745177 -160.783147 
L 156.824574 -161.673342 
L 156.894237 -162.563536 
L 156.959407 -163.453731 
L 157.028391 -164.343925 
L 157.100559 -165.234119 
L 157.166473 -166.124314 
L 157.216607 -167.014508 
L 157.24807 -167.904703 
L 157.30193 -167.904703 
L 157.30193 -167.904703 
L 157.333393 -167.014508 
L 157.383527 -166.124314 
L 157.449441 -165.234119 
L 157.521609 -164.343925 
L 157.590593 -163.453731 
L 157.655763 -162.563536 
L 157.725426 -161.673342 
L 157.804823 -160.783147 
L 157.883019 -159.892953 
L 157.933907 -159.002758 
L 157.933406 -158.112564 
L 157.879043 -157.22237 
L 157.796025 -156.332175 
L 157.725271 -155.441981 
L 157.702169 -154.551786 
L 157.740483 -153.661592 
L 157.830762 -152.771397 
L 157.950577 -151.881203 
L 158.075538 -150.991009 
L 158.184002 -150.100814 
L 158.258922 -149.21062 
L 158.292654 -148.320425 
L 158.292148 -147.430231 
L 158.277111 -146.540036 
L 158.271171 -145.649842 
L 158.294643 -144.759648 
L 158.363954 -143.869453 
L 158.492393 -142.979259 
L 158.685513 -142.089064 
L 158.934525 -141.19887 
L 159.217033 -140.308675 
L 159.506071 -139.418481 
L 159.777872 -138.528287 
L 160.013128 -137.638092 
L 160.199567 -136.747898 
L 160.343678 -135.857703 
L 160.482531 -134.967509 
L 160.675264 -134.077314 
L 160.969079 -133.18712 
L 161.365872 -132.296926 
L 161.824226 -131.406731 
L 162.297024 -130.516537 
L 162.763924 -129.626342 
L 163.225715 -128.736148 
L 163.678308 -127.845954 
L 164.110323 -126.955759 
L 164.53226 -126.065565 
L 164.995943 -125.17537 
L 165.570783 -124.285176 
L 166.300006 -123.394981 
L 167.187504 -122.504787 
L 168.22826 -121.614593 
L 169.446857 -120.724398 
L 170.909996 -119.834204 
L 172.715373 -118.944009 
L 174.977584 -118.053815 
L 177.816951 -117.16362 
L 181.336046 -116.273426 
L 185.569161 -115.383232 
L 190.420975 -114.493037 
L 195.647383 -113.602843 
L 200.920716 -112.712648 
L 205.949242 -111.822454 
L 210.560562 -110.932259 
L 214.688388 -110.042065 
L 218.290604 -109.151871 
L 221.276001 -108.261676 
L 223.492383 -107.371482 
L 224.771802 -106.481287 
L 224.982205 -105.591093 
L 224.026849 -104.700898 
L 221.787179 -103.810704 
L 218.089533 -102.92051 
L 212.790397 -102.030315 
L 205.967896 -101.140121 
L 198.074144 -100.249926 
L 189.893927 -99.359732 
L 182.297444 -98.469537 
L 175.936562 -97.579343 
L 171.069429 -96.689149 
L 167.590691 -95.798954 
L 165.200392 -94.90876 
L 163.57823 -94.018565 
L 162.471431 -93.128371 
L 161.695219 -92.238176 
L 161.103649 -91.347982 
L 160.581082 -90.457788 
L 160.058344 -89.567593 
L 159.524456 -88.677399 
L 159.011574 -87.787204 
L 158.56095 -86.89701 
L 158.195546 -86.006816 
L 157.914647 -85.116621 
L 157.704456 -84.226427 
L 157.54991 -83.336232 
L 157.439696 -82.446038 
L 157.365511 -81.555843 
L 157.31978 -80.665649 
L 157.294627 -79.775455 
z
" style="stroke: #3d3d3d; stroke-width: 1.25"/>
    </defs>
    <g clip-path="url(#p072bf92714)">
     <use xlink:href="#m8d40d6f2c2" x="0" y="576" style="fill: #3274a1; stroke: #3d3d3d; stroke-width: 1.25"/>
    </g>
   </g>
   <g id="PolyCollection_2">
    <defs>
     <path id="m53f974efea" d="M 343.941007 -104.934883 
L 343.908993 -104.934883 
L 343.839908 -109.350536 
L 343.729678 -113.766189 
L 343.674297 -118.181842 
L 343.577115 -122.597495 
L 343.197534 -127.013149 
L 342.454349 -131.428802 
L 341.70239 -135.844455 
L 340.882426 -140.260108 
L 338.058432 -144.675761 
L 330.258914 -149.091414 
L 319.3477 -153.507068 
L 311.247068 -157.922721 
L 307.515171 -162.338374 
L 309.370131 -166.754027 
L 315.040045 -171.16968 
L 320.896808 -175.585333 
L 326.10802 -180.000987 
L 330.587656 -184.41664 
L 334.343766 -188.832293 
L 337.316331 -193.247946 
L 339.507167 -197.663599 
L 341.185543 -202.079252 
L 342.214686 -206.494905 
L 342.595841 -210.910559 
L 342.738737 -215.326212 
L 342.826244 -219.741865 
L 342.988387 -224.157518 
L 343.309988 -228.573171 
L 343.576701 -232.988824 
L 343.719651 -237.404478 
L 343.757077 -241.820131 
L 343.762427 -246.235784 
L 343.810471 -250.651437 
L 343.823332 -255.06709 
L 343.757946 -259.482743 
L 343.708659 -263.898397 
L 343.717239 -268.31405 
L 343.711416 -272.729703 
L 343.739063 -277.145356 
L 343.834345 -281.561009 
L 343.892461 -285.976662 
L 343.879687 -290.392315 
L 343.867613 -294.807969 
L 343.896023 -299.223622 
L 343.919391 -303.639275 
L 343.924479 -308.054928 
L 343.92285 -312.470581 
L 343.908538 -316.886234 
L 343.876484 -321.301888 
L 343.870277 -325.717541 
L 343.901376 -330.133194 
L 343.921097 -334.548847 
L 343.924753 -338.9645 
L 343.924994 -343.380153 
L 343.925 -347.795807 
L 343.925 -352.21146 
L 343.925 -356.627113 
L 343.924997 -361.042766 
L 343.924843 -365.458419 
L 343.922173 -369.874072 
L 343.905473 -374.289725 
L 343.873386 -378.705379 
L 343.872786 -383.121032 
L 343.904784 -387.536685 
L 343.922004 -391.952338 
L 343.92483 -396.367991 
L 343.924996 -400.783644 
L 343.925 -405.199298 
L 343.925 -409.614951 
L 343.925 -414.030604 
L 343.925 -418.446257 
L 343.925 -422.86191 
L 343.925 -427.277563 
L 343.925 -431.693217 
L 343.925 -436.10887 
L 343.925 -440.524523 
L 343.925 -444.940176 
L 343.925 -449.355829 
L 343.925 -453.771482 
L 343.925 -458.187135 
L 343.925 -462.602789 
L 343.925 -467.018442 
L 343.925 -471.434095 
L 343.925 -475.849748 
L 343.925 -480.265401 
L 343.925 -484.681054 
L 343.925 -489.096708 
L 343.925 -493.512361 
L 343.925 -497.928014 
L 343.925 -502.343667 
L 343.925 -506.75932 
L 343.925 -511.174973 
L 343.924969 -515.590627 
L 343.924127 -520.00628 
L 343.915734 -524.421933 
L 343.887368 -528.837586 
L 343.866508 -533.253239 
L 343.890204 -537.668892 
L 343.917078 -542.084545 
L 343.932922 -542.084545 
L 343.932922 -542.084545 
L 343.959796 -537.668892 
L 343.983492 -533.253239 
L 343.962632 -528.837586 
L 343.934266 -524.421933 
L 343.925873 -520.00628 
L 343.925031 -515.590627 
L 343.925 -511.174973 
L 343.925 -506.75932 
L 343.925 -502.343667 
L 343.925 -497.928014 
L 343.925 -493.512361 
L 343.925 -489.096708 
L 343.925 -484.681054 
L 343.925 -480.265401 
L 343.925 -475.849748 
L 343.925 -471.434095 
L 343.925 -467.018442 
L 343.925 -462.602789 
L 343.925 -458.187135 
L 343.925 -453.771482 
L 343.925 -449.355829 
L 343.925 -444.940176 
L 343.925 -440.524523 
L 343.925 -436.10887 
L 343.925 -431.693217 
L 343.925 -427.277563 
L 343.925 -422.86191 
L 343.925 -418.446257 
L 343.925 -414.030604 
L 343.925 -409.614951 
L 343.925 -405.199298 
L 343.925004 -400.783644 
L 343.92517 -396.367991 
L 343.927996 -391.952338 
L 343.945216 -387.536685 
L 343.977214 -383.121032 
L 343.976614 -378.705379 
L 343.944527 -374.289725 
L 343.927827 -369.874072 
L 343.925157 -365.458419 
L 343.925003 -361.042766 
L 343.925 -356.627113 
L 343.925 -352.21146 
L 343.925 -347.795807 
L 343.925006 -343.380153 
L 343.925247 -338.9645 
L 343.928903 -334.548847 
L 343.948624 -330.133194 
L 343.979723 -325.717541 
L 343.973516 -321.301888 
L 343.941462 -316.886234 
L 343.92715 -312.470581 
L 343.925521 -308.054928 
L 343.930609 -303.639275 
L 343.953977 -299.223622 
L 343.982387 -294.807969 
L 343.970313 -290.392315 
L 343.957539 -285.976662 
L 344.015655 -281.561009 
L 344.110937 -277.145356 
L 344.138584 -272.729703 
L 344.132761 -268.31405 
L 344.141341 -263.898397 
L 344.092054 -259.482743 
L 344.026668 -255.06709 
L 344.039529 -250.651437 
L 344.087573 -246.235784 
L 344.092923 -241.820131 
L 344.130349 -237.404478 
L 344.273299 -232.988824 
L 344.540012 -228.573171 
L 344.861613 -224.157518 
L 345.023756 -219.741865 
L 345.111263 -215.326212 
L 345.254159 -210.910559 
L 345.635314 -206.494905 
L 346.664457 -202.079252 
L 348.342833 -197.663599 
L 350.533669 -193.247946 
L 353.506234 -188.832293 
L 357.262344 -184.41664 
L 361.74198 -180.000987 
L 366.953192 -175.585333 
L 372.809955 -171.16968 
L 378.479869 -166.754027 
L 380.334829 -162.338374 
L 376.602932 -157.922721 
L 368.5023 -153.507068 
L 357.591086 -149.091414 
L 349.791568 -144.675761 
L 346.967574 -140.260108 
L 346.14761 -135.844455 
L 345.395651 -131.428802 
L 344.652466 -127.013149 
L 344.272885 -122.597495 
L 344.175703 -118.181842 
L 344.120322 -113.766189 
L 344.010092 -109.350536 
L 343.941007 -104.934883 
z
" style="stroke: #3d3d3d; stroke-width: 1.25"/>
    </defs>
    <g clip-path="url(#p072bf92714)">
     <use xlink:href="#m53f974efea" x="0" y="576" style="fill: #e1812c; stroke: #3d3d3d; stroke-width: 1.25"/>
    </g>
   </g>
   <g id="PolyCollection_3">
    <defs>
     <path id="mbc61609b08" d="M 530.584247 -152.15783 
L 530.565753 -152.15783 
L 530.535802 -155.7913 
L 530.502166 -159.424769 
L 530.478676 -163.058238 
L 530.35934 -166.691708 
L 530.145416 -170.325177 
L 529.927053 -173.958646 
L 529.587857 -177.592116 
L 529.162315 -181.225585 
L 528.611799 -184.859054 
L 527.427898 -188.492524 
L 524.509267 -192.125993 
L 518.296251 -195.759463 
L 508.372896 -199.392932 
L 497.999901 -203.026401 
L 491.801702 -206.659871 
L 491.798458 -210.29334 
L 495.333195 -213.926809 
L 499.484812 -217.560279 
L 504.419095 -221.193748 
L 509.579127 -224.827218 
L 514.450544 -228.460687 
L 518.991576 -232.094156 
L 522.182089 -235.727626 
L 524.44137 -239.361095 
L 526.783052 -242.994564 
L 528.261382 -246.628034 
L 528.829336 -250.261503 
L 529.315051 -253.894973 
L 529.808475 -257.528442 
L 530.127081 -261.161911 
L 530.166365 -264.795381 
L 530.028691 -268.42885 
L 529.94287 -272.062319 
L 530.019598 -275.695789 
L 530.139617 -279.329258 
L 530.213404 -282.962728 
L 530.295093 -286.596197 
L 530.337157 -290.229666 
L 530.324577 -293.863136 
L 530.35963 -297.496605 
L 530.417586 -301.130074 
L 530.443851 -304.763544 
L 530.482803 -308.397013 
L 530.516371 -312.030482 
L 530.507407 -315.663952 
L 530.514447 -319.297421 
L 530.550663 -322.930891 
L 530.566908 -326.56436 
L 530.55011 -330.197829 
L 530.514358 -333.831299 
L 530.513371 -337.464768 
L 530.549148 -341.098237 
L 530.570525 -344.731707 
L 530.57468 -348.365176 
L 530.574991 -351.998646 
L 530.575 -355.632115 
L 530.575 -359.265584 
L 530.575 -362.899054 
L 530.574993 -366.532523 
L 530.574747 -370.165992 
L 530.571214 -373.799462 
L 530.551629 -377.432931 
L 530.515459 -381.066401 
L 530.512398 -384.69987 
L 530.547836 -388.333339 
L 530.570136 -391.966809 
L 530.574641 -395.600278 
L 530.574989 -399.233747 
L 530.575 -402.867217 
L 530.575 -406.500686 
L 530.575 -410.134156 
L 530.575 -413.767625 
L 530.575 -417.401094 
L 530.575 -421.034564 
L 530.575 -424.668033 
L 530.575 -428.301502 
L 530.575 -431.934972 
L 530.575 -435.568441 
L 530.575 -439.20191 
L 530.575 -442.83538 
L 530.575 -446.468849 
L 530.575 -450.102319 
L 530.575 -453.735788 
L 530.575 -457.369257 
L 530.575 -461.002727 
L 530.575 -464.636196 
L 530.575 -468.269665 
L 530.575 -471.903135 
L 530.575 -475.536604 
L 530.575 -479.170074 
L 530.575 -482.803543 
L 530.574998 -486.437012 
L 530.574911 -490.070482 
L 530.573234 -493.703951 
L 530.560566 -497.33742 
L 530.526299 -500.97089 
L 530.507186 -504.604359 
L 530.53603 -508.237829 
L 530.565758 -511.871298 
L 530.584242 -511.871298 
L 530.584242 -511.871298 
L 530.61397 -508.237829 
L 530.642814 -504.604359 
L 530.623701 -500.97089 
L 530.589434 -497.33742 
L 530.576766 -493.703951 
L 530.575089 -490.070482 
L 530.575002 -486.437012 
L 530.575 -482.803543 
L 530.575 -479.170074 
L 530.575 -475.536604 
L 530.575 -471.903135 
L 530.575 -468.269665 
L 530.575 -464.636196 
L 530.575 -461.002727 
L 530.575 -457.369257 
L 530.575 -453.735788 
L 530.575 -450.102319 
L 530.575 -446.468849 
L 530.575 -442.83538 
L 530.575 -439.20191 
L 530.575 -435.568441 
L 530.575 -431.934972 
L 530.575 -428.301502 
L 530.575 -424.668033 
L 530.575 -421.034564 
L 530.575 -417.401094 
L 530.575 -413.767625 
L 530.575 -410.134156 
L 530.575 -406.500686 
L 530.575 -402.867217 
L 530.575011 -399.233747 
L 530.575359 -395.600278 
L 530.579864 -391.966809 
L 530.602164 -388.333339 
L 530.637602 -384.69987 
L 530.634541 -381.066401 
L 530.598371 -377.432931 
L 530.578786 -373.799462 
L 530.575253 -370.165992 
L 530.575007 -366.532523 
L 530.575 -362.899054 
L 530.575 -359.265584 
L 530.575 -355.632115 
L 530.575009 -351.998646 
L 530.57532 -348.365176 
L 530.579475 -344.731707 
L 530.600852 -341.098237 
L 530.636629 -337.464768 
L 530.635642 -333.831299 
L 530.59989 -330.197829 
L 530.583092 -326.56436 
L 530.599337 -322.930891 
L 530.635553 -319.297421 
L 530.642593 -315.663952 
L 530.633629 -312.030482 
L 530.667197 -308.397013 
L 530.706149 -304.763544 
L 530.732414 -301.130074 
L 530.79037 -297.496605 
L 530.825423 -293.863136 
L 530.812843 -290.229666 
L 530.854907 -286.596197 
L 530.936596 -282.962728 
L 531.010383 -279.329258 
L 531.130402 -275.695789 
L 531.20713 -272.062319 
L 531.121309 -268.42885 
L 530.983635 -264.795381 
L 531.022919 -261.161911 
L 531.341525 -257.528442 
L 531.834949 -253.894973 
L 532.320664 -250.261503 
L 532.888618 -246.628034 
L 534.366948 -242.994564 
L 536.70863 -239.361095 
L 538.967911 -235.727626 
L 542.158424 -232.094156 
L 546.699456 -228.460687 
L 551.570873 -224.827218 
L 556.730905 -221.193748 
L 561.665188 -217.560279 
L 565.816805 -213.926809 
L 569.351542 -210.29334 
L 569.348298 -206.659871 
L 563.150099 -203.026401 
L 552.777104 -199.392932 
L 542.853749 -195.759463 
L 536.640733 -192.125993 
L 533.722102 -188.492524 
L 532.538201 -184.859054 
L 531.987685 -181.225585 
L 531.562143 -177.592116 
L 531.222947 -173.958646 
L 531.004584 -170.325177 
L 530.79066 -166.691708 
L 530.671324 -163.058238 
L 530.647834 -159.424769 
L 530.614198 -155.7913 
L 530.584247 -152.15783 
z
" style="stroke: #3d3d3d; stroke-width: 1.25"/>
    </defs>
    <g clip-path="url(#p072bf92714)">
     <use xlink:href="#mbc61609b08" x="0" y="576" style="fill: #3a923a; stroke: #3d3d3d; stroke-width: 1.25"/>
    </g>
   </g>
   <g id="PolyCollection_4">
    <defs>
     <path id="mb9fa5ddcb0" d="M 717.244692 -108.448297 
L 717.205308 -108.448297 
L 717.174348 -109.428298 
L 717.122894 -110.408298 
L 717.056795 -111.388298 
L 716.980491 -112.368299 
L 716.881063 -113.348299 
L 716.740685 -114.328299 
L 716.575775 -115.308299 
L 716.44135 -116.2883 
L 716.361635 -117.2683 
L 716.251976 -118.2483 
L 715.937053 -119.228301 
L 715.268451 -120.208301 
L 714.225983 -121.188301 
L 712.886424 -122.168302 
L 711.253542 -123.148302 
L 709.077823 -124.128302 
L 705.840486 -125.108302 
L 701.000227 -126.088303 
L 694.436164 -127.068303 
L 686.781808 -128.048303 
L 679.246374 -129.028304 
L 672.860788 -130.008304 
L 667.716055 -130.988304 
L 662.984766 -131.968305 
L 657.77742 -132.948305 
L 651.995355 -133.928305 
L 646.546463 -134.908305 
L 642.958499 -135.888306 
L 642.565 -136.868306 
L 645.621902 -137.848306 
L 651.092283 -138.828307 
L 657.428022 -139.808307 
L 663.606377 -140.788307 
L 669.42504 -141.768308 
L 675.047739 -142.748308 
L 680.576219 -143.728308 
L 685.96756 -144.708308 
L 691.01179 -145.688309 
L 695.380204 -146.668309 
L 698.937872 -147.648309 
L 701.947696 -148.62831 
L 704.749286 -149.60831 
L 707.32305 -150.58831 
L 709.364288 -151.568311 
L 710.709032 -152.548311 
L 711.519866 -153.528311 
L 712.092376 -154.508311 
L 712.6021 -155.488312 
L 713.038087 -156.468312 
L 713.317218 -157.448312 
L 713.446011 -158.428313 
L 713.566753 -159.408313 
L 713.834029 -160.388313 
L 714.259743 -161.368313 
L 714.70591 -162.348314 
L 715.041269 -163.328314 
L 715.279138 -164.308314 
L 715.52902 -165.288315 
L 715.845665 -166.268315 
L 716.182912 -167.248315 
L 716.470015 -168.228316 
L 716.66638 -169.208316 
L 716.756791 -170.188316 
L 716.75733 -171.168316 
L 716.727206 -172.148317 
L 716.733928 -173.128317 
L 716.800441 -174.108317 
L 716.896056 -175.088318 
L 716.966686 -176.068318 
L 716.966925 -177.048318 
L 716.881635 -178.028319 
L 716.738511 -179.008319 
L 716.605497 -179.988319 
L 716.555926 -180.968319 
L 716.609297 -181.94832 
L 716.713822 -182.92832 
L 716.804729 -183.90832 
L 716.862402 -184.888321 
L 716.903768 -185.868321 
L 716.947143 -186.848321 
L 717.001184 -187.828322 
L 717.06591 -188.808322 
L 717.130563 -189.788322 
L 717.180126 -190.768322 
L 717.208375 -191.748323 
L 717.220266 -192.728323 
L 717.22396 -193.708323 
L 717.224729 -194.688324 
L 717.22432 -195.668324 
L 717.221764 -196.648324 
L 717.212985 -197.628324 
L 717.191215 -198.608325 
L 717.153098 -199.588325 
L 717.109185 -200.568325 
L 717.083816 -201.548326 
L 717.094741 -202.528326 
L 717.134043 -203.508326 
L 717.176931 -204.488327 
L 717.205774 -205.468327 
L 717.244226 -205.468327 
L 717.244226 -205.468327 
L 717.273069 -204.488327 
L 717.315957 -203.508326 
L 717.355259 -202.528326 
L 717.366184 -201.548326 
L 717.340815 -200.568325 
L 717.296902 -199.588325 
L 717.258785 -198.608325 
L 717.237015 -197.628324 
L 717.228236 -196.648324 
L 717.22568 -195.668324 
L 717.225271 -194.688324 
L 717.22604 -193.708323 
L 717.229734 -192.728323 
L 717.241625 -191.748323 
L 717.269874 -190.768322 
L 717.319437 -189.788322 
L 717.38409 -188.808322 
L 717.448816 -187.828322 
L 717.502857 -186.848321 
L 717.546232 -185.868321 
L 717.587598 -184.888321 
L 717.645271 -183.90832 
L 717.736178 -182.92832 
L 717.840703 -181.94832 
L 717.894074 -180.968319 
L 717.844503 -179.988319 
L 717.711489 -179.008319 
L 717.568365 -178.028319 
L 717.483075 -177.048318 
L 717.483314 -176.068318 
L 717.553944 -175.088318 
L 717.649559 -174.108317 
L 717.716072 -173.128317 
L 717.722794 -172.148317 
L 717.69267 -171.168316 
L 717.693209 -170.188316 
L 717.78362 -169.208316 
L 717.979985 -168.228316 
L 718.267088 -167.248315 
L 718.604335 -166.268315 
L 718.92098 -165.288315 
L 719.170862 -164.308314 
L 719.408731 -163.328314 
L 719.74409 -162.348314 
L 720.190257 -161.368313 
L 720.615971 -160.388313 
L 720.883247 -159.408313 
L 721.003989 -158.428313 
L 721.132782 -157.448312 
L 721.411913 -156.468312 
L 721.8479 -155.488312 
L 722.357624 -154.508311 
L 722.930134 -153.528311 
L 723.740968 -152.548311 
L 725.085712 -151.568311 
L 727.12695 -150.58831 
L 729.700714 -149.60831 
L 732.502304 -148.62831 
L 735.512128 -147.648309 
L 739.069796 -146.668309 
L 743.43821 -145.688309 
L 748.48244 -144.708308 
L 753.873781 -143.728308 
L 759.402261 -142.748308 
L 765.02496 -141.768308 
L 770.843623 -140.788307 
L 777.021978 -139.808307 
L 783.357717 -138.828307 
L 788.828098 -137.848306 
L 791.885 -136.868306 
L 791.491501 -135.888306 
L 787.903537 -134.908305 
L 782.454645 -133.928305 
L 776.67258 -132.948305 
L 771.465234 -131.968305 
L 766.733945 -130.988304 
L 761.589212 -130.008304 
L 755.203626 -129.028304 
L 747.668192 -128.048303 
L 740.013836 -127.068303 
L 733.449773 -126.088303 
L 728.609514 -125.108302 
L 725.372177 -124.128302 
L 723.196458 -123.148302 
L 721.563576 -122.168302 
L 720.224017 -121.188301 
L 719.181549 -120.208301 
L 718.512947 -119.228301 
L 718.198024 -118.2483 
L 718.088365 -117.2683 
L 718.00865 -116.2883 
L 717.874225 -115.308299 
L 717.709315 -114.328299 
L 717.568937 -113.348299 
L 717.469509 -112.368299 
L 717.393205 -111.388298 
L 717.327106 -110.408298 
L 717.275652 -109.428298 
L 717.244692 -108.448297 
z
" style="stroke: #3d3d3d; stroke-width: 1.25"/>
    </defs>
    <g clip-path="url(#p072bf92714)">
     <use xlink:href="#mb9fa5ddcb0" x="0" y="576" style="fill: #c03d3e; stroke: #3d3d3d; stroke-width: 1.25"/>
    </g>
   </g>
   <g id="PolyCollection_5">
    <defs>
     <path id="mc111d69983" d="M 903.897269 -93.607299 
L 903.852731 -93.607299 
L 903.80488 -94.925572 
L 903.710676 -96.243845 
L 903.581448 -97.562118 
L 903.455132 -98.880391 
L 903.345839 -100.198665 
L 903.205696 -101.516938 
L 902.958118 -102.835211 
L 902.53878 -104.153484 
L 901.883772 -105.471757 
L 900.897882 -106.79003 
L 899.419305 -108.108303 
L 897.209946 -109.426576 
L 894.046956 -110.74485 
L 889.903623 -112.063123 
L 885.061356 -113.381396 
L 879.934339 -114.699669 
L 874.701109 -116.017942 
L 869.239084 -117.336215 
L 863.446877 -118.654488 
L 857.511804 -119.972761 
L 852.009 -121.291035 
L 847.724967 -122.609308 
L 845.073342 -123.927581 
L 843.955619 -125.245854 
L 844.466218 -126.564127 
L 847.09034 -127.8824 
L 851.87625 -129.200673 
L 857.989896 -130.518946 
L 864.337245 -131.83722 
L 870.317557 -133.155493 
L 875.85709 -134.473766 
L 880.932647 -135.792039 
L 885.386208 -137.110312 
L 889.141712 -138.428585 
L 892.212779 -139.746858 
L 894.596772 -141.065131 
L 896.400721 -142.383405 
L 897.837226 -143.701678 
L 899.000262 -145.019951 
L 899.836973 -146.338224 
L 900.339187 -147.656497 
L 900.629923 -148.97477 
L 900.861057 -150.293043 
L 901.114832 -151.611316 
L 901.39857 -152.92959 
L 901.679949 -154.247863 
L 901.932709 -155.566136 
L 902.167778 -156.884409 
L 902.425393 -158.202682 
L 902.717945 -159.520955 
L 902.9828 -160.839228 
L 903.136014 -162.157501 
L 903.170084 -163.475775 
L 903.163945 -164.794048 
L 903.204143 -166.112321 
L 903.310997 -167.430594 
L 903.436561 -168.748867 
L 903.534912 -170.06714 
L 903.614006 -171.385413 
L 903.698077 -172.703686 
L 903.77825 -174.02196 
L 903.826995 -175.340233 
L 903.8278 -176.658506 
L 903.777888 -177.976779 
L 903.691992 -179.295052 
L 903.607348 -180.613325 
L 903.553667 -181.931598 
L 903.524589 -183.249871 
L 903.510745 -184.568145 
L 903.533396 -185.886418 
L 903.609351 -187.204691 
L 903.712811 -188.522964 
L 903.79877 -189.841237 
L 903.843733 -191.15951 
L 903.849217 -192.477783 
L 903.824152 -193.796056 
L 903.784119 -195.11433 
L 903.757951 -196.432603 
L 903.768451 -197.750876 
L 903.806545 -199.069149 
L 903.843962 -200.387422 
L 903.865069 -201.705695 
L 903.872758 -203.023968 
L 903.874643 -204.342241 
L 903.87496 -205.660515 
L 903.874997 -206.978788 
L 903.875 -208.297061 
L 903.874995 -209.615334 
L 903.874942 -210.933607 
L 903.874512 -212.25188 
L 903.872102 -213.570153 
L 903.862848 -214.888426 
L 903.839042 -216.2067 
L 903.799914 -217.524973 
L 903.76435 -218.843246 
L 903.759929 -220.161519 
L 903.790549 -221.479792 
L 903.831261 -222.798065 
L 903.859014 -224.116338 
L 903.890986 -224.116338 
L 903.890986 -224.116338 
L 903.918739 -222.798065 
L 903.959451 -221.479792 
L 903.990071 -220.161519 
L 903.98565 -218.843246 
L 903.950086 -217.524973 
L 903.910958 -216.2067 
L 903.887152 -214.888426 
L 903.877898 -213.570153 
L 903.875488 -212.25188 
L 903.875058 -210.933607 
L 903.875005 -209.615334 
L 903.875 -208.297061 
L 903.875003 -206.978788 
L 903.87504 -205.660515 
L 903.875357 -204.342241 
L 903.877242 -203.023968 
L 903.884931 -201.705695 
L 903.906038 -200.387422 
L 903.943455 -199.069149 
L 903.981549 -197.750876 
L 903.992049 -196.432603 
L 903.965881 -195.11433 
L 903.925848 -193.796056 
L 903.900783 -192.477783 
L 903.906267 -191.15951 
L 903.95123 -189.841237 
L 904.037189 -188.522964 
L 904.140649 -187.204691 
L 904.216604 -185.886418 
L 904.239255 -184.568145 
L 904.225411 -183.249871 
L 904.196333 -181.931598 
L 904.142652 -180.613325 
L 904.058008 -179.295052 
L 903.972112 -177.976779 
L 903.9222 -176.658506 
L 903.923005 -175.340233 
L 903.97175 -174.02196 
L 904.051923 -172.703686 
L 904.135994 -171.385413 
L 904.215088 -170.06714 
L 904.313439 -168.748867 
L 904.439003 -167.430594 
L 904.545857 -166.112321 
L 904.586055 -164.794048 
L 904.579916 -163.475775 
L 904.613986 -162.157501 
L 904.7672 -160.839228 
L 905.032055 -159.520955 
L 905.324607 -158.202682 
L 905.582222 -156.884409 
L 905.817291 -155.566136 
L 906.070051 -154.247863 
L 906.35143 -152.92959 
L 906.635168 -151.611316 
L 906.888943 -150.293043 
L 907.120077 -148.97477 
L 907.410813 -147.656497 
L 907.913027 -146.338224 
L 908.749738 -145.019951 
L 909.912774 -143.701678 
L 911.349279 -142.383405 
L 913.153228 -141.065131 
L 915.537221 -139.746858 
L 918.608288 -138.428585 
L 922.363792 -137.110312 
L 926.817353 -135.792039 
L 931.89291 -134.473766 
L 937.432443 -133.155493 
L 943.412755 -131.83722 
L 949.760104 -130.518946 
L 955.87375 -129.200673 
L 960.65966 -127.8824 
L 963.283782 -126.564127 
L 963.794381 -125.245854 
L 962.676658 -123.927581 
L 960.025033 -122.609308 
L 955.741 -121.291035 
L 950.238196 -119.972761 
L 944.303123 -118.654488 
L 938.510916 -117.336215 
L 933.048891 -116.017942 
L 927.815661 -114.699669 
L 922.688644 -113.381396 
L 917.846377 -112.063123 
L 913.703044 -110.74485 
L 910.540054 -109.426576 
L 908.330695 -108.108303 
L 906.852118 -106.79003 
L 905.866228 -105.471757 
L 905.21122 -104.153484 
L 904.791882 -102.835211 
L 904.544304 -101.516938 
L 904.404161 -100.198665 
L 904.294868 -98.880391 
L 904.168552 -97.562118 
L 904.039324 -96.243845 
L 903.94512 -94.925572 
L 903.897269 -93.607299 
z
" style="stroke: #3d3d3d; stroke-width: 1.25"/>
    </defs>
    <g clip-path="url(#p072bf92714)">
     <use xlink:href="#mc111d69983" x="0" y="576" style="fill: #9372b2; stroke: #3d3d3d; stroke-width: 1.25"/>
    </g>
   </g>
   <g id="line2d_107">
    <path d="M 97.068612 472.656592 
L 217.481388 472.656592 
" clip-path="url(#p072bf92714)" style="fill: none; stroke-dasharray: 2.34375,2.34375; stroke-dashoffset: 0; stroke: #3d3d3d; stroke-width: 1.25"/>
   </g>
   <g id="line2d_108">
    <path d="M 91.719791 468.372784 
L 222.830209 468.372784 
" clip-path="url(#p072bf92714)" style="fill: none; stroke-dasharray: 4.6875,4.6875; stroke-dashoffset: 0; stroke: #3d3d3d; stroke-width: 1.25"/>
   </g>
   <g id="line2d_109">
    <path d="M 114.065742 463.0975 
L 200.484258 463.0975 
" clip-path="url(#p072bf92714)" style="fill: none; stroke-dasharray: 2.34375,2.34375; stroke-dashoffset: 0; stroke: #3d3d3d; stroke-width: 1.25"/>
   </g>
   <g id="line2d_110">
    <path d="M 311.573847 417.704223 
L 376.276153 417.704223 
" clip-path="url(#p072bf92714)" style="fill: none; stroke-dasharray: 2.34375,2.34375; stroke-dashoffset: 0; stroke: #3d3d3d; stroke-width: 1.25"/>
   </g>
   <g id="line2d_111">
    <path d="M 309.71568 410.311794 
L 378.13432 410.311794 
" clip-path="url(#p072bf92714)" style="fill: none; stroke-dasharray: 4.6875,4.6875; stroke-dashoffset: 0; stroke: #3d3d3d; stroke-width: 1.25"/>
   </g>
   <g id="line2d_112">
    <path d="M 321.12709 399.639715 
L 366.72291 399.639715 
" clip-path="url(#p072bf92714)" style="fill: none; stroke-dasharray: 2.34375,2.34375; stroke-dashoffset: 0; stroke: #3d3d3d; stroke-width: 1.25"/>
   </g>
   <g id="line2d_113">
    <path d="M 492.189435 370.750457 
L 568.960565 370.750457 
" clip-path="url(#p072bf92714)" style="fill: none; stroke-dasharray: 2.34375,2.34375; stroke-dashoffset: 0; stroke: #3d3d3d; stroke-width: 1.25"/>
   </g>
   <g id="line2d_114">
    <path d="M 495.685613 363.550734 
L 565.464387 363.550734 
" clip-path="url(#p072bf92714)" style="fill: none; stroke-dasharray: 4.6875,4.6875; stroke-dashoffset: 0; stroke: #3d3d3d; stroke-width: 1.25"/>
   </g>
   <g id="line2d_115">
    <path d="M 504.680654 354.0717 
L 556.469346 354.0717 
" clip-path="url(#p072bf92714)" style="fill: none; stroke-dasharray: 2.34375,2.34375; stroke-dashoffset: 0; stroke: #3d3d3d; stroke-width: 1.25"/>
   </g>
   <g id="line2d_116">
    <path d="M 658.371896 443.246428 
L 776.078104 443.246428 
" clip-path="url(#p072bf92714)" style="fill: none; stroke-dasharray: 2.34375,2.34375; stroke-dashoffset: 0; stroke: #3d3d3d; stroke-width: 1.25"/>
   </g>
   <g id="line2d_117">
    <path d="M 643.3116 439.08432 
L 791.1384 439.08432 
" clip-path="url(#p072bf92714)" style="fill: none; stroke-dasharray: 4.6875,4.6875; stroke-dashoffset: 0; stroke: #3d3d3d; stroke-width: 1.25"/>
   </g>
   <g id="line2d_118">
    <path d="M 669.90304 434.394685 
L 764.54696 434.394685 
" clip-path="url(#p072bf92714)" style="fill: none; stroke-dasharray: 2.34375,2.34375; stroke-dashoffset: 0; stroke: #3d3d3d; stroke-width: 1.25"/>
   </g>
   <g id="line2d_119">
    <path d="M 857.975436 455.421852 
L 949.774564 455.421852 
" clip-path="url(#p072bf92714)" style="fill: none; stroke-dasharray: 2.34375,2.34375; stroke-dashoffset: 0; stroke: #3d3d3d; stroke-width: 1.25"/>
   </g>
   <g id="line2d_120">
    <path d="M 844.554812 450.220501 
L 963.195188 450.220501 
" clip-path="url(#p072bf92714)" style="fill: none; stroke-dasharray: 4.6875,4.6875; stroke-dashoffset: 0; stroke: #3d3d3d; stroke-width: 1.25"/>
   </g>
   <g id="line2d_121">
    <path d="M 858.448747 444.983301 
L 949.301253 444.983301 
" clip-path="url(#p072bf92714)" style="fill: none; stroke-dasharray: 2.34375,2.34375; stroke-dashoffset: 0; stroke: #3d3d3d; stroke-width: 1.25"/>
   </g>
   <g id="patch_3">
    <path d="M 63.95 519.34 
L 63.95 10.8 
" style="fill: none; stroke: #ffffff; stroke-width: 1.2; stroke-linejoin: miter; stroke-linecap: square"/>
   </g>
   <g id="patch_4">
    <path d="M 997.2 519.34 
L 997.2 10.8 
" style="fill: none; stroke: #ffffff; stroke-width: 1.2; stroke-linejoin: miter; stroke-linecap: square"/>
   </g>
   <g id="patch_5">
    <path d="M 63.95 519.34 
L 997.2 519.34 
" style="fill: none; stroke: #ffffff; stroke-width: 1.2; stroke-linejoin: miter; stroke-linecap: square"/>
   </g>
   <g id="patch_6">
    <path d="M 63.95 10.8 
L 997.2 10.8 
" style="fill: none; stroke: #ffffff; stroke-width: 1.2; stroke-linejoin: miter; stroke-linecap: square"/>
   </g>
  </g>
 </g>
 <defs>
  <clipPath id="p072bf92714">
   <rect x="63.95" y="10.8" width="933.25" height="508.54"/>
  </clipPath>
 </defs>
</svg>
