<?xml version="1.0" encoding="utf-8" standalone="no"?>
<!DOCTYPE svg PUBLIC "-//W3C//DTD SVG 1.1//EN"
  "http://www.w3.org/Graphics/SVG/1.1/DTD/svg11.dtd">
<svg xmlns:xlink="http://www.w3.org/1999/xlink" width="1008pt" height="576pt" viewBox="0 0 1008 576" xmlns="http://www.w3.org/2000/svg" version="1.1">
 <metadata>
  <rdf:RDF xmlns:dc="http://purl.org/dc/elements/1.1/" xmlns:cc="http://creativecommons.org/ns#" xmlns:rdf="http://www.w3.org/1999/02/22-rdf-syntax-ns#">
   <cc:Work>
    <dc:type rdf:resource="http://purl.org/dc/dcmitype/StillImage"/>
    <dc:date>2024-07-11T10:19:41.098765</dc:date>
    <dc:format>image/svg+xml</dc:format>
    <dc:creator>
     <cc:Agent>
      <dc:title>Matplotlib v3.6.3, https://matplotlib.org/</dc:title>
     </cc:Agent>
    </dc:creator>
   </cc:Work>
  </rdf:RDF>
 </metadata>
 <defs>
  <style type="text/css">*{stroke-linejoin: round; stroke-linecap: butt}</style>
 </defs>
 <g id="figure_1">
  <g id="patch_1">
   <path d="M 0 576 
L 1008 576 
L 1008 0 
L 0 0 
z
" style="fill: #ffffff"/>
  </g>
  <g id="axes_1">
   <g id="patch_2">
    <path d="M 52.34 519.34 
L 997.2 519.34 
L 997.2 10.8 
L 52.34 10.8 
z
" style="fill: #ffffff"/>
   </g>
   <g id="matplotlib.axis_1">
    <g id="xtick_1">
     <g id="line2d_1">
      <path d="M 146.826 519.34 
L 146.826 10.8 
" clip-path="url(#p299bca07cc)" style="fill: none; stroke-dasharray: 2.22,0.96; stroke-dashoffset: 0; stroke: #808080; stroke-opacity: 0.6; stroke-width: 0.6"/>
     </g>
     <g id="line2d_2"/>
     <g id="text_1">
      <!-- HelBERT -->
      <g style="fill: #262626" transform="translate(116.878031 532.985625) scale(0.14 -0.14)">
       <defs>
        <path id="LiberationSans-Bold-48" d="M 3269 0 
L 3269 1888 
L 1350 1888 
L 1350 0 
L 428 0 
L 428 4403 
L 1350 4403 
L 1350 2650 
L 3269 2650 
L 3269 4403 
L 4191 4403 
L 4191 0 
L 3269 0 
z
" transform="scale(0.015625)"/>
        <path id="LiberationSans-Bold-65" d="M 1831 -63 
Q 1466 -63 1173 45 
Q 881 153 675 373 
Q 469 594 359 926 
Q 250 1259 250 1706 
Q 250 2191 379 2522 
Q 509 2853 729 3058 
Q 950 3263 1237 3353 
Q 1525 3444 1844 3444 
Q 2244 3444 2526 3305 
Q 2809 3166 2990 2916 
Q 3172 2666 3256 2317 
Q 3341 1969 3341 1547 
L 3341 1522 
L 1172 1522 
Q 1172 1309 1209 1126 
Q 1247 944 1331 811 
Q 1416 678 1550 601 
Q 1684 525 1875 525 
Q 2106 525 2253 623 
Q 2400 722 2463 928 
L 3291 856 
Q 3234 713 3132 550 
Q 3031 388 2862 252 
Q 2694 116 2442 26 
Q 2191 -63 1831 -63 
z
M 1831 2891 
Q 1697 2891 1580 2845 
Q 1463 2800 1377 2701 
Q 1291 2603 1237 2447 
Q 1184 2291 1178 2072 
L 2491 2072 
Q 2466 2481 2294 2686 
Q 2122 2891 1831 2891 
z
" transform="scale(0.015625)"/>
        <path id="LiberationSans-Bold-6c" d="M 447 0 
L 447 4638 
L 1325 4638 
L 1325 0 
L 447 0 
z
" transform="scale(0.015625)"/>
        <path id="LiberationSans-Bold-42" d="M 4331 1256 
Q 4331 922 4197 683 
Q 4063 444 3830 292 
Q 3597 141 3287 70 
Q 2978 0 2631 0 
L 428 0 
L 428 4403 
L 2444 4403 
Q 2834 4403 3139 4336 
Q 3444 4269 3653 4131 
Q 3863 3994 3970 3786 
Q 4078 3578 4078 3297 
Q 4078 2922 3870 2664 
Q 3663 2406 3238 2316 
Q 3772 2253 4051 1979 
Q 4331 1706 4331 1256 
z
M 3150 3172 
Q 3150 3469 2961 3594 
Q 2772 3719 2400 3719 
L 1350 3719 
L 1350 2628 
L 2406 2628 
Q 2797 2628 2973 2764 
Q 3150 2900 3150 3172 
z
M 3406 1328 
Q 3406 1503 3337 1622 
Q 3269 1741 3148 1812 
Q 3028 1884 2867 1915 
Q 2706 1947 2519 1947 
L 1350 1947 
L 1350 684 
L 2553 684 
Q 2734 684 2890 714 
Q 3047 744 3161 817 
Q 3275 891 3340 1016 
Q 3406 1141 3406 1328 
z
" transform="scale(0.015625)"/>
        <path id="LiberationSans-Bold-45" d="M 428 0 
L 428 4403 
L 3891 4403 
L 3891 3691 
L 1350 3691 
L 1350 2584 
L 3700 2584 
L 3700 1872 
L 1350 1872 
L 1350 713 
L 4019 713 
L 4019 0 
L 428 0 
z
" transform="scale(0.015625)"/>
        <path id="LiberationSans-Bold-52" d="M 3453 0 
L 2431 1672 
L 1350 1672 
L 1350 0 
L 428 0 
L 428 4403 
L 2628 4403 
Q 3041 4403 3348 4311 
Q 3656 4219 3862 4048 
Q 4069 3878 4170 3636 
Q 4272 3394 4272 3091 
Q 4272 2844 4198 2639 
Q 4125 2434 3995 2275 
Q 3866 2116 3687 2008 
Q 3509 1900 3300 1850 
L 4491 0 
L 3453 0 
z
M 3344 3053 
Q 3344 3375 3133 3531 
Q 2922 3688 2531 3688 
L 1350 3688 
L 1350 2388 
L 2556 2388 
Q 2763 2388 2911 2436 
Q 3059 2484 3154 2573 
Q 3250 2663 3297 2784 
Q 3344 2906 3344 3053 
z
" transform="scale(0.015625)"/>
        <path id="LiberationSans-Bold-54" d="M 2416 3691 
L 2416 0 
L 1494 0 
L 1494 3691 
L 72 3691 
L 72 4403 
L 3841 4403 
L 3841 3691 
L 2416 3691 
z
" transform="scale(0.015625)"/>
       </defs>
       <use xlink:href="#LiberationSans-Bold-48"/>
       <use xlink:href="#LiberationSans-Bold-65" x="72.216797"/>
       <use xlink:href="#LiberationSans-Bold-6c" x="127.832031"/>
       <use xlink:href="#LiberationSans-Bold-42" x="155.615234"/>
       <use xlink:href="#LiberationSans-Bold-45" x="227.832031"/>
       <use xlink:href="#LiberationSans-Bold-52" x="294.53125"/>
       <use xlink:href="#LiberationSans-Bold-54" x="366.748047"/>
      </g>
     </g>
    </g>
    <g id="xtick_2">
     <g id="line2d_3">
      <path d="M 335.798 519.34 
L 335.798 10.8 
" clip-path="url(#p299bca07cc)" style="fill: none; stroke-dasharray: 2.22,0.96; stroke-dashoffset: 0; stroke: #808080; stroke-opacity: 0.6; stroke-width: 0.6"/>
     </g>
     <g id="line2d_4"/>
     <g id="text_2">
      <!-- BERTimbau -->
      <g style="fill: #262626" transform="translate(296.252375 532.985625) scale(0.14 -0.14)">
       <defs>
        <path id="LiberationSans-Bold-69" d="M 447 3991 
L 447 4638 
L 1325 4638 
L 1325 3991 
L 447 3991 
z
M 447 0 
L 447 3381 
L 1325 3381 
L 1325 0 
L 447 0 
z
" transform="scale(0.015625)"/>
        <path id="LiberationSans-Bold-6d" d="M 2438 0 
L 2438 1897 
Q 2438 2094 2411 2258 
Q 2384 2422 2323 2539 
Q 2263 2656 2164 2722 
Q 2066 2788 1925 2788 
Q 1791 2788 1681 2717 
Q 1572 2647 1492 2517 
Q 1413 2388 1369 2208 
Q 1325 2028 1325 1813 
L 1325 0 
L 447 0 
L 447 2625 
Q 447 2734 445 2850 
Q 444 2966 439 3070 
Q 434 3175 431 3258 
Q 428 3341 422 3381 
L 1259 3381 
Q 1266 3344 1272 3261 
Q 1278 3178 1284 3078 
Q 1291 2978 1295 2878 
Q 1300 2778 1300 2709 
L 1313 2709 
Q 1475 3097 1717 3272 
Q 1959 3447 2297 3447 
Q 2684 3447 2920 3258 
Q 3156 3069 3238 2709 
L 3256 2709 
Q 3347 2919 3451 3059 
Q 3556 3200 3682 3286 
Q 3809 3372 3957 3409 
Q 4106 3447 4281 3447 
Q 4559 3447 4751 3347 
Q 4944 3247 5064 3072 
Q 5184 2897 5239 2659 
Q 5294 2422 5294 2147 
L 5294 0 
L 4422 0 
L 4422 1897 
Q 4422 2094 4395 2258 
Q 4369 2422 4308 2539 
Q 4247 2656 4148 2722 
Q 4050 2788 3909 2788 
Q 3778 2788 3670 2720 
Q 3563 2653 3483 2529 
Q 3403 2406 3359 2234 
Q 3316 2063 3309 1853 
L 3309 0 
L 2438 0 
z
" transform="scale(0.015625)"/>
        <path id="LiberationSans-Bold-62" d="M 3647 1703 
Q 3647 1319 3570 995 
Q 3494 672 3334 436 
Q 3175 200 2929 68 
Q 2684 -63 2350 -63 
Q 2200 -63 2050 -31 
Q 1900 0 1765 72 
Q 1631 144 1518 259 
Q 1406 375 1325 544 
L 1319 544 
Q 1319 478 1314 393 
Q 1309 309 1303 229 
Q 1297 150 1289 87 
Q 1281 25 1275 0 
L 422 0 
Q 431 109 439 311 
Q 447 513 447 772 
L 447 4638 
L 1325 4638 
L 1325 3344 
Q 1325 3244 1323 3148 
Q 1322 3053 1319 2972 
Q 1316 2878 1313 2794 
L 1325 2794 
Q 1484 3144 1762 3294 
Q 2041 3444 2406 3444 
Q 2731 3444 2965 3314 
Q 3200 3184 3351 2951 
Q 3503 2719 3575 2400 
Q 3647 2081 3647 1703 
z
M 2731 1703 
Q 2731 2278 2562 2556 
Q 2394 2834 2041 2834 
Q 1906 2834 1775 2781 
Q 1644 2728 1541 2595 
Q 1438 2463 1375 2239 
Q 1313 2016 1313 1675 
Q 1313 1344 1375 1125 
Q 1438 906 1538 775 
Q 1638 644 1769 591 
Q 1900 538 2034 538 
Q 2369 538 2550 814 
Q 2731 1091 2731 1703 
z
" transform="scale(0.015625)"/>
        <path id="LiberationSans-Bold-61" d="M 1228 -63 
Q 984 -63 792 4 
Q 600 72 465 201 
Q 331 331 259 522 
Q 188 713 188 956 
Q 188 1256 292 1461 
Q 397 1666 578 1792 
Q 759 1919 1003 1976 
Q 1247 2034 1522 2038 
L 2250 2050 
L 2250 2222 
Q 2250 2406 2217 2529 
Q 2184 2653 2121 2731 
Q 2059 2809 1967 2842 
Q 1875 2875 1756 2875 
Q 1647 2875 1561 2853 
Q 1475 2831 1412 2776 
Q 1350 2722 1311 2630 
Q 1272 2538 1256 2397 
L 341 2441 
Q 378 2663 478 2845 
Q 578 3028 754 3162 
Q 931 3297 1189 3370 
Q 1447 3444 1794 3444 
Q 2109 3444 2356 3366 
Q 2603 3288 2775 3133 
Q 2947 2978 3037 2753 
Q 3128 2528 3128 2231 
L 3128 1000 
Q 3128 881 3139 787 
Q 3150 694 3179 630 
Q 3209 566 3264 533 
Q 3319 500 3406 500 
Q 3506 500 3600 519 
L 3600 44 
Q 3522 25 3459 9 
Q 3397 -6 3334 -15 
Q 3272 -25 3201 -31 
Q 3131 -38 3038 -38 
Q 2706 -38 2548 125 
Q 2391 288 2359 603 
L 2341 603 
Q 2166 288 1892 112 
Q 1619 -63 1228 -63 
z
M 2250 1566 
L 1800 1559 
Q 1659 1553 1532 1536 
Q 1406 1519 1311 1464 
Q 1216 1409 1159 1306 
Q 1103 1203 1103 1025 
Q 1103 784 1214 667 
Q 1325 550 1509 550 
Q 1678 550 1815 622 
Q 1953 694 2048 811 
Q 2144 928 2197 1081 
Q 2250 1234 2250 1394 
L 2250 1566 
z
" transform="scale(0.015625)"/>
        <path id="LiberationSans-Bold-75" d="M 1275 3381 
L 1275 1484 
Q 1275 1288 1306 1123 
Q 1338 959 1409 842 
Q 1481 725 1595 659 
Q 1709 594 1875 594 
Q 2034 594 2164 664 
Q 2294 734 2387 864 
Q 2481 994 2532 1173 
Q 2584 1353 2584 1569 
L 2584 3381 
L 3463 3381 
L 3463 756 
Q 3463 650 3464 533 
Q 3466 416 3470 311 
Q 3475 206 3479 123 
Q 3484 41 3488 0 
L 2650 0 
Q 2647 38 2639 120 
Q 2631 203 2626 303 
Q 2622 403 2617 503 
Q 2613 603 2613 672 
L 2597 672 
Q 2422 288 2151 112 
Q 1881 -63 1509 -63 
Q 1206 -63 993 37 
Q 781 138 648 311 
Q 516 484 456 721 
Q 397 959 397 1234 
L 397 3381 
L 1275 3381 
z
" transform="scale(0.015625)"/>
       </defs>
       <use xlink:href="#LiberationSans-Bold-42"/>
       <use xlink:href="#LiberationSans-Bold-45" x="72.216797"/>
       <use xlink:href="#LiberationSans-Bold-52" x="138.916016"/>
       <use xlink:href="#LiberationSans-Bold-54" x="211.132812"/>
       <use xlink:href="#LiberationSans-Bold-69" x="270.466797"/>
       <use xlink:href="#LiberationSans-Bold-6d" x="298.25"/>
       <use xlink:href="#LiberationSans-Bold-62" x="387.166016"/>
       <use xlink:href="#LiberationSans-Bold-61" x="448.25"/>
       <use xlink:href="#LiberationSans-Bold-75" x="503.865234"/>
      </g>
     </g>
    </g>
    <g id="xtick_3">
     <g id="line2d_5">
      <path d="M 524.77 519.34 
L 524.77 10.8 
" clip-path="url(#p299bca07cc)" style="fill: none; stroke-dasharray: 2.22,0.96; stroke-dashoffset: 0; stroke: #808080; stroke-opacity: 0.6; stroke-width: 0.6"/>
     </g>
     <g id="line2d_6"/>
     <g id="text_3">
      <!-- mBERT -->
      <g style="fill: #262626" transform="translate(499.490156 532.985625) scale(0.14 -0.14)">
       <use xlink:href="#LiberationSans-Bold-6d"/>
       <use xlink:href="#LiberationSans-Bold-42" x="88.916016"/>
       <use xlink:href="#LiberationSans-Bold-45" x="161.132812"/>
       <use xlink:href="#LiberationSans-Bold-52" x="227.832031"/>
       <use xlink:href="#LiberationSans-Bold-54" x="300.048828"/>
      </g>
     </g>
    </g>
    <g id="xtick_4">
     <g id="line2d_7">
      <path d="M 713.742 519.34 
L 713.742 10.8 
" clip-path="url(#p299bca07cc)" style="fill: none; stroke-dasharray: 2.22,0.96; stroke-dashoffset: 0; stroke: #808080; stroke-opacity: 0.6; stroke-width: 0.6"/>
     </g>
     <g id="line2d_8"/>
     <g id="text_4">
      <!-- JurisBERT -->
      <g style="fill: #262626" transform="translate(677.956688 532.985625) scale(0.14 -0.14)">
       <defs>
        <path id="LiberationSans-Bold-4a" d="M 1638 -63 
Q 1306 -63 1047 6 
Q 788 75 597 225 
Q 406 375 282 614 
Q 159 853 97 1194 
L 1013 1328 
Q 1044 1144 1100 1017 
Q 1156 891 1236 811 
Q 1316 731 1419 695 
Q 1522 659 1644 659 
Q 1919 659 2061 843 
Q 2203 1028 2203 1372 
L 2203 3681 
L 1325 3681 
L 1325 4403 
L 3122 4403 
L 3122 1394 
Q 3122 1059 3025 789 
Q 2928 519 2739 330 
Q 2550 141 2273 39 
Q 1997 -63 1638 -63 
z
" transform="scale(0.015625)"/>
        <path id="LiberationSans-Bold-72" d="M 447 0 
L 447 2588 
Q 447 2697 445 2819 
Q 444 2941 439 3052 
Q 434 3163 431 3252 
Q 428 3341 422 3381 
L 1259 3381 
Q 1266 3344 1272 3251 
Q 1278 3159 1284 3050 
Q 1291 2941 1295 2833 
Q 1300 2725 1300 2659 
L 1313 2659 
Q 1378 2844 1443 2989 
Q 1509 3134 1598 3236 
Q 1688 3338 1813 3392 
Q 1938 3447 2122 3447 
Q 2200 3447 2276 3433 
Q 2353 3419 2394 3400 
L 2394 2666 
Q 2309 2684 2223 2698 
Q 2138 2713 2019 2713 
Q 1691 2713 1508 2447 
Q 1325 2181 1325 1659 
L 1325 0 
L 447 0 
z
" transform="scale(0.015625)"/>
        <path id="LiberationSans-Bold-73" d="M 3297 988 
Q 3297 744 3195 550 
Q 3094 356 2900 220 
Q 2706 84 2425 10 
Q 2144 -63 1784 -63 
Q 1463 -63 1203 -16 
Q 944 31 748 139 
Q 553 247 422 419 
Q 291 591 225 844 
L 997 959 
Q 1034 819 1100 731 
Q 1166 644 1262 597 
Q 1359 550 1489 534 
Q 1619 519 1784 519 
Q 1934 519 2064 536 
Q 2194 553 2289 595 
Q 2384 638 2437 714 
Q 2491 791 2491 906 
Q 2491 1038 2414 1114 
Q 2338 1191 2205 1239 
Q 2072 1288 1892 1323 
Q 1713 1359 1509 1406 
Q 1297 1453 1090 1518 
Q 884 1584 721 1696 
Q 559 1809 459 1982 
Q 359 2156 359 2422 
Q 359 2663 453 2852 
Q 547 3041 728 3173 
Q 909 3306 1176 3376 
Q 1444 3447 1791 3447 
Q 2066 3447 2303 3395 
Q 2541 3344 2728 3233 
Q 2916 3122 3042 2950 
Q 3169 2778 3219 2534 
L 2441 2453 
Q 2419 2575 2362 2654 
Q 2306 2734 2223 2781 
Q 2141 2828 2031 2845 
Q 1922 2863 1791 2863 
Q 1478 2863 1322 2783 
Q 1166 2703 1166 2516 
Q 1166 2400 1230 2331 
Q 1294 2263 1411 2217 
Q 1528 2172 1689 2139 
Q 1850 2106 2041 2059 
Q 2275 2009 2501 1942 
Q 2728 1875 2904 1758 
Q 3081 1641 3189 1456 
Q 3297 1272 3297 988 
z
" transform="scale(0.015625)"/>
       </defs>
       <use xlink:href="#LiberationSans-Bold-4a"/>
       <use xlink:href="#LiberationSans-Bold-75" x="55.615234"/>
       <use xlink:href="#LiberationSans-Bold-72" x="116.699219"/>
       <use xlink:href="#LiberationSans-Bold-69" x="155.615234"/>
       <use xlink:href="#LiberationSans-Bold-73" x="183.398438"/>
       <use xlink:href="#LiberationSans-Bold-42" x="239.013672"/>
       <use xlink:href="#LiberationSans-Bold-45" x="311.230469"/>
       <use xlink:href="#LiberationSans-Bold-52" x="377.929688"/>
       <use xlink:href="#LiberationSans-Bold-54" x="450.146484"/>
      </g>
     </g>
    </g>
    <g id="xtick_5">
     <g id="line2d_9">
      <path d="M 902.714 519.34 
L 902.714 10.8 
" clip-path="url(#p299bca07cc)" style="fill: none; stroke-dasharray: 2.22,0.96; stroke-dashoffset: 0; stroke: #808080; stroke-opacity: 0.6; stroke-width: 0.6"/>
     </g>
     <g id="line2d_10"/>
     <g id="text_5">
      <!-- LegalBERT -->
      <g style="fill: #262626" transform="translate(865.37775 532.985625) scale(0.14 -0.14)">
       <defs>
        <path id="LiberationSans-Bold-4c" d="M 428 0 
L 428 4403 
L 1350 4403 
L 1350 713 
L 3713 713 
L 3713 0 
L 428 0 
z
" transform="scale(0.015625)"/>
        <path id="LiberationSans-Bold-67" d="M 1863 -1356 
Q 1528 -1356 1273 -1289 
Q 1019 -1222 839 -1101 
Q 659 -981 551 -814 
Q 444 -647 403 -447 
L 1281 -344 
Q 1328 -547 1483 -662 
Q 1638 -778 1888 -778 
Q 2044 -778 2173 -734 
Q 2303 -691 2395 -586 
Q 2488 -481 2539 -309 
Q 2591 -138 2591 116 
Q 2591 203 2591 293 
Q 2591 384 2594 459 
Q 2597 547 2597 628 
L 2591 628 
Q 2438 300 2161 153 
Q 1884 6 1503 6 
Q 1181 6 948 132 
Q 716 259 562 486 
Q 409 713 336 1027 
Q 263 1341 263 1719 
Q 263 2109 341 2426 
Q 419 2744 580 2972 
Q 741 3200 986 3323 
Q 1231 3447 1569 3447 
Q 1906 3447 2173 3303 
Q 2441 3159 2591 2838 
L 2606 2838 
Q 2606 2903 2611 2989 
Q 2616 3075 2622 3154 
Q 2628 3234 2636 3296 
Q 2644 3359 2650 3381 
L 3481 3381 
Q 3475 3269 3469 3066 
Q 3463 2863 3463 2600 
L 3463 103 
Q 3463 -266 3356 -539 
Q 3250 -813 3045 -994 
Q 2841 -1175 2542 -1265 
Q 2244 -1356 1863 -1356 
z
M 2597 1738 
Q 2597 2056 2534 2268 
Q 2472 2481 2372 2609 
Q 2272 2738 2142 2791 
Q 2013 2844 1881 2844 
Q 1713 2844 1583 2778 
Q 1453 2713 1362 2575 
Q 1272 2438 1225 2225 
Q 1178 2013 1178 1719 
Q 1178 1172 1353 894 
Q 1528 616 1875 616 
Q 2006 616 2136 667 
Q 2266 719 2369 848 
Q 2472 978 2534 1193 
Q 2597 1409 2597 1738 
z
" transform="scale(0.015625)"/>
       </defs>
       <use xlink:href="#LiberationSans-Bold-4c"/>
       <use xlink:href="#LiberationSans-Bold-65" x="61.083984"/>
       <use xlink:href="#LiberationSans-Bold-67" x="116.699219"/>
       <use xlink:href="#LiberationSans-Bold-61" x="177.783203"/>
       <use xlink:href="#LiberationSans-Bold-6c" x="233.398438"/>
       <use xlink:href="#LiberationSans-Bold-42" x="261.181641"/>
       <use xlink:href="#LiberationSans-Bold-45" x="333.398438"/>
       <use xlink:href="#LiberationSans-Bold-52" x="400.097656"/>
       <use xlink:href="#LiberationSans-Bold-54" x="472.314453"/>
      </g>
     </g>
    </g>
    <g id="xtick_6">
     <g id="line2d_11">
      <path d="M 71.2372 519.34 
L 71.2372 10.8 
" clip-path="url(#p299bca07cc)" style="fill: none; stroke-dasharray: 0.4,0.66; stroke-dashoffset: 0; stroke: #808080; stroke-opacity: 0.4; stroke-width: 0.4"/>
     </g>
     <g id="line2d_12"/>
    </g>
    <g id="xtick_7">
     <g id="line2d_13">
      <path d="M 109.0316 519.34 
L 109.0316 10.8 
" clip-path="url(#p299bca07cc)" style="fill: none; stroke-dasharray: 0.4,0.66; stroke-dashoffset: 0; stroke: #808080; stroke-opacity: 0.4; stroke-width: 0.4"/>
     </g>
     <g id="line2d_14"/>
    </g>
    <g id="xtick_8">
     <g id="line2d_15">
      <path d="M 184.6204 519.34 
L 184.6204 10.8 
" clip-path="url(#p299bca07cc)" style="fill: none; stroke-dasharray: 0.4,0.66; stroke-dashoffset: 0; stroke: #808080; stroke-opacity: 0.4; stroke-width: 0.4"/>
     </g>
     <g id="line2d_16"/>
    </g>
    <g id="xtick_9">
     <g id="line2d_17">
      <path d="M 222.4148 519.34 
L 222.4148 10.8 
" clip-path="url(#p299bca07cc)" style="fill: none; stroke-dasharray: 0.4,0.66; stroke-dashoffset: 0; stroke: #808080; stroke-opacity: 0.4; stroke-width: 0.4"/>
     </g>
     <g id="line2d_18"/>
    </g>
    <g id="xtick_10">
     <g id="line2d_19">
      <path d="M 260.2092 519.34 
L 260.2092 10.8 
" clip-path="url(#p299bca07cc)" style="fill: none; stroke-dasharray: 0.4,0.66; stroke-dashoffset: 0; stroke: #808080; stroke-opacity: 0.4; stroke-width: 0.4"/>
     </g>
     <g id="line2d_20"/>
    </g>
    <g id="xtick_11">
     <g id="line2d_21">
      <path d="M 298.0036 519.34 
L 298.0036 10.8 
" clip-path="url(#p299bca07cc)" style="fill: none; stroke-dasharray: 0.4,0.66; stroke-dashoffset: 0; stroke: #808080; stroke-opacity: 0.4; stroke-width: 0.4"/>
     </g>
     <g id="line2d_22"/>
    </g>
    <g id="xtick_12">
     <g id="line2d_23">
      <path d="M 373.5924 519.34 
L 373.5924 10.8 
" clip-path="url(#p299bca07cc)" style="fill: none; stroke-dasharray: 0.4,0.66; stroke-dashoffset: 0; stroke: #808080; stroke-opacity: 0.4; stroke-width: 0.4"/>
     </g>
     <g id="line2d_24"/>
    </g>
    <g id="xtick_13">
     <g id="line2d_25">
      <path d="M 411.3868 519.34 
L 411.3868 10.8 
" clip-path="url(#p299bca07cc)" style="fill: none; stroke-dasharray: 0.4,0.66; stroke-dashoffset: 0; stroke: #808080; stroke-opacity: 0.4; stroke-width: 0.4"/>
     </g>
     <g id="line2d_26"/>
    </g>
    <g id="xtick_14">
     <g id="line2d_27">
      <path d="M 449.1812 519.34 
L 449.1812 10.8 
" clip-path="url(#p299bca07cc)" style="fill: none; stroke-dasharray: 0.4,0.66; stroke-dashoffset: 0; stroke: #808080; stroke-opacity: 0.4; stroke-width: 0.4"/>
     </g>
     <g id="line2d_28"/>
    </g>
    <g id="xtick_15">
     <g id="line2d_29">
      <path d="M 486.9756 519.34 
L 486.9756 10.8 
" clip-path="url(#p299bca07cc)" style="fill: none; stroke-dasharray: 0.4,0.66; stroke-dashoffset: 0; stroke: #808080; stroke-opacity: 0.4; stroke-width: 0.4"/>
     </g>
     <g id="line2d_30"/>
    </g>
    <g id="xtick_16">
     <g id="line2d_31">
      <path d="M 562.5644 519.34 
L 562.5644 10.8 
" clip-path="url(#p299bca07cc)" style="fill: none; stroke-dasharray: 0.4,0.66; stroke-dashoffset: 0; stroke: #808080; stroke-opacity: 0.4; stroke-width: 0.4"/>
     </g>
     <g id="line2d_32"/>
    </g>
    <g id="xtick_17">
     <g id="line2d_33">
      <path d="M 600.3588 519.34 
L 600.3588 10.8 
" clip-path="url(#p299bca07cc)" style="fill: none; stroke-dasharray: 0.4,0.66; stroke-dashoffset: 0; stroke: #808080; stroke-opacity: 0.4; stroke-width: 0.4"/>
     </g>
     <g id="line2d_34"/>
    </g>
    <g id="xtick_18">
     <g id="line2d_35">
      <path d="M 638.1532 519.34 
L 638.1532 10.8 
" clip-path="url(#p299bca07cc)" style="fill: none; stroke-dasharray: 0.4,0.66; stroke-dashoffset: 0; stroke: #808080; stroke-opacity: 0.4; stroke-width: 0.4"/>
     </g>
     <g id="line2d_36"/>
    </g>
    <g id="xtick_19">
     <g id="line2d_37">
      <path d="M 675.9476 519.34 
L 675.9476 10.8 
" clip-path="url(#p299bca07cc)" style="fill: none; stroke-dasharray: 0.4,0.66; stroke-dashoffset: 0; stroke: #808080; stroke-opacity: 0.4; stroke-width: 0.4"/>
     </g>
     <g id="line2d_38"/>
    </g>
    <g id="xtick_20">
     <g id="line2d_39">
      <path d="M 751.5364 519.34 
L 751.5364 10.8 
" clip-path="url(#p299bca07cc)" style="fill: none; stroke-dasharray: 0.4,0.66; stroke-dashoffset: 0; stroke: #808080; stroke-opacity: 0.4; stroke-width: 0.4"/>
     </g>
     <g id="line2d_40"/>
    </g>
    <g id="xtick_21">
     <g id="line2d_41">
      <path d="M 789.3308 519.34 
L 789.3308 10.8 
" clip-path="url(#p299bca07cc)" style="fill: none; stroke-dasharray: 0.4,0.66; stroke-dashoffset: 0; stroke: #808080; stroke-opacity: 0.4; stroke-width: 0.4"/>
     </g>
     <g id="line2d_42"/>
    </g>
    <g id="xtick_22">
     <g id="line2d_43">
      <path d="M 827.1252 519.34 
L 827.1252 10.8 
" clip-path="url(#p299bca07cc)" style="fill: none; stroke-dasharray: 0.4,0.66; stroke-dashoffset: 0; stroke: #808080; stroke-opacity: 0.4; stroke-width: 0.4"/>
     </g>
     <g id="line2d_44"/>
    </g>
    <g id="xtick_23">
     <g id="line2d_45">
      <path d="M 864.9196 519.34 
L 864.9196 10.8 
" clip-path="url(#p299bca07cc)" style="fill: none; stroke-dasharray: 0.4,0.66; stroke-dashoffset: 0; stroke: #808080; stroke-opacity: 0.4; stroke-width: 0.4"/>
     </g>
     <g id="line2d_46"/>
    </g>
    <g id="xtick_24">
     <g id="line2d_47">
      <path d="M 940.5084 519.34 
L 940.5084 10.8 
" clip-path="url(#p299bca07cc)" style="fill: none; stroke-dasharray: 0.4,0.66; stroke-dashoffset: 0; stroke: #808080; stroke-opacity: 0.4; stroke-width: 0.4"/>
     </g>
     <g id="line2d_48"/>
    </g>
    <g id="xtick_25">
     <g id="line2d_49">
      <path d="M 978.3028 519.34 
L 978.3028 10.8 
" clip-path="url(#p299bca07cc)" style="fill: none; stroke-dasharray: 0.4,0.66; stroke-dashoffset: 0; stroke: #808080; stroke-opacity: 0.4; stroke-width: 0.4"/>
     </g>
     <g id="line2d_50"/>
    </g>
    <g id="text_6">
     <!-- Modelos -->
     <g style="fill: #262626" transform="translate(494.53375 562.546875) scale(0.16 -0.16)">
      <defs>
       <path id="LiberationSans-4d" d="M 4269 0 
L 4269 2938 
Q 4269 3097 4272 3262 
Q 4275 3428 4281 3566 
Q 4288 3725 4297 3875 
Q 4253 3716 4206 3559 
Q 4166 3425 4117 3273 
Q 4069 3122 4022 3000 
L 2884 0 
L 2466 0 
L 1313 3000 
Q 1294 3047 1273 3109 
Q 1253 3172 1229 3242 
Q 1206 3313 1182 3386 
Q 1159 3459 1138 3531 
Q 1084 3697 1034 3875 
Q 1038 3700 1044 3528 
Q 1050 3381 1053 3220 
Q 1056 3059 1056 2938 
L 1056 0 
L 525 0 
L 525 4403 
L 1309 4403 
L 2481 1350 
Q 2503 1288 2534 1189 
Q 2566 1091 2594 987 
Q 2622 884 2645 792 
Q 2669 700 2678 650 
Q 2688 700 2713 794 
Q 2738 888 2770 991 
Q 2803 1094 2834 1191 
Q 2866 1288 2891 1350 
L 4041 4403 
L 4806 4403 
L 4806 0 
L 4269 0 
z
" transform="scale(0.015625)"/>
       <path id="LiberationSans-6f" d="M 3291 1694 
Q 3291 806 2900 371 
Q 2509 -63 1766 -63 
Q 1413 -63 1134 43 
Q 856 150 664 369 
Q 472 588 370 917 
Q 269 1247 269 1694 
Q 269 3444 1784 3444 
Q 2178 3444 2464 3334 
Q 2750 3225 2933 3006 
Q 3116 2788 3203 2459 
Q 3291 2131 3291 1694 
z
M 2700 1694 
Q 2700 2088 2639 2344 
Q 2578 2600 2461 2753 
Q 2344 2906 2175 2967 
Q 2006 3028 1794 3028 
Q 1578 3028 1404 2964 
Q 1231 2900 1109 2745 
Q 988 2591 923 2334 
Q 859 2078 859 1694 
Q 859 1300 928 1042 
Q 997 784 1117 631 
Q 1238 478 1402 415 
Q 1566 353 1759 353 
Q 1975 353 2150 414 
Q 2325 475 2447 628 
Q 2569 781 2634 1040 
Q 2700 1300 2700 1694 
z
" transform="scale(0.015625)"/>
       <path id="LiberationSans-64" d="M 2566 544 
Q 2409 219 2151 78 
Q 1894 -63 1513 -63 
Q 872 -63 570 368 
Q 269 800 269 1675 
Q 269 3444 1513 3444 
Q 1897 3444 2153 3303 
Q 2409 3163 2566 2856 
L 2572 2856 
Q 2572 2888 2570 2955 
Q 2569 3022 2567 3095 
Q 2566 3169 2566 3234 
Q 2566 3300 2566 3328 
L 2566 4638 
L 3128 4638 
L 3128 697 
Q 3128 575 3129 462 
Q 3131 350 3134 256 
Q 3138 163 3141 95 
Q 3144 28 3147 0 
L 2609 0 
Q 2603 31 2598 89 
Q 2594 147 2589 222 
Q 2584 297 2581 380 
Q 2578 463 2578 544 
L 2566 544 
z
M 859 1694 
Q 859 1344 903 1094 
Q 947 844 1044 683 
Q 1141 522 1291 447 
Q 1441 372 1656 372 
Q 1878 372 2048 444 
Q 2219 516 2333 677 
Q 2447 838 2506 1097 
Q 2566 1356 2566 1731 
Q 2566 2091 2506 2339 
Q 2447 2588 2331 2741 
Q 2216 2894 2048 2961 
Q 1881 3028 1663 3028 
Q 1456 3028 1306 2956 
Q 1156 2884 1056 2725 
Q 956 2566 907 2311 
Q 859 2056 859 1694 
z
" transform="scale(0.015625)"/>
       <path id="LiberationSans-65" d="M 863 1572 
Q 863 1306 917 1082 
Q 972 859 1086 698 
Q 1200 538 1378 448 
Q 1556 359 1806 359 
Q 2172 359 2392 506 
Q 2613 653 2691 878 
L 3184 738 
Q 3131 597 3036 455 
Q 2941 313 2781 198 
Q 2622 84 2383 10 
Q 2144 -63 1806 -63 
Q 1056 -63 664 384 
Q 272 831 272 1713 
Q 272 2188 390 2517 
Q 509 2847 715 3053 
Q 922 3259 1197 3351 
Q 1472 3444 1784 3444 
Q 2209 3444 2495 3306 
Q 2781 3169 2954 2926 
Q 3128 2684 3201 2356 
Q 3275 2028 3275 1647 
L 3275 1572 
L 863 1572 
z
M 2694 2003 
Q 2647 2538 2422 2783 
Q 2197 3028 1775 3028 
Q 1634 3028 1479 2983 
Q 1325 2938 1194 2822 
Q 1063 2706 972 2507 
Q 881 2309 869 2003 
L 2694 2003 
z
" transform="scale(0.015625)"/>
       <path id="LiberationSans-6c" d="M 431 0 
L 431 4638 
L 994 4638 
L 994 0 
L 431 0 
z
" transform="scale(0.015625)"/>
       <path id="LiberationSans-73" d="M 2969 934 
Q 2969 697 2876 511 
Q 2784 325 2609 198 
Q 2434 72 2179 4 
Q 1925 -63 1597 -63 
Q 1303 -63 1067 -17 
Q 831 28 653 128 
Q 475 228 354 392 
Q 234 556 178 794 
L 675 891 
Q 747 619 972 492 
Q 1197 366 1597 366 
Q 1778 366 1929 391 
Q 2081 416 2190 477 
Q 2300 538 2361 639 
Q 2422 741 2422 891 
Q 2422 1044 2350 1142 
Q 2278 1241 2150 1306 
Q 2022 1372 1839 1420 
Q 1656 1469 1438 1528 
Q 1234 1581 1034 1647 
Q 834 1713 673 1820 
Q 513 1928 413 2087 
Q 313 2247 313 2488 
Q 313 2950 642 3192 
Q 972 3434 1603 3434 
Q 2163 3434 2492 3237 
Q 2822 3041 2909 2606 
L 2403 2544 
Q 2375 2675 2300 2764 
Q 2225 2853 2119 2908 
Q 2013 2963 1880 2986 
Q 1747 3009 1603 3009 
Q 1222 3009 1040 2893 
Q 859 2778 859 2544 
Q 859 2406 926 2317 
Q 994 2228 1114 2167 
Q 1234 2106 1403 2061 
Q 1572 2016 1775 1966 
Q 1909 1931 2050 1892 
Q 2191 1853 2323 1798 
Q 2456 1744 2573 1670 
Q 2691 1597 2778 1494 
Q 2866 1391 2917 1253 
Q 2969 1116 2969 934 
z
" transform="scale(0.015625)"/>
      </defs>
      <use xlink:href="#LiberationSans-4d"/>
      <use xlink:href="#LiberationSans-6f" x="83.300781"/>
      <use xlink:href="#LiberationSans-64" x="138.916016"/>
      <use xlink:href="#LiberationSans-65" x="194.53125"/>
      <use xlink:href="#LiberationSans-6c" x="250.146484"/>
      <use xlink:href="#LiberationSans-6f" x="272.363281"/>
      <use xlink:href="#LiberationSans-73" x="327.978516"/>
     </g>
    </g>
   </g>
   <g id="matplotlib.axis_2">
    <g id="ytick_1">
     <g id="line2d_51">
      <path d="M 52.34 427.29876 
L 997.2 427.29876 
" clip-path="url(#p299bca07cc)" style="fill: none; stroke-dasharray: 2.22,0.96; stroke-dashoffset: 0; stroke: #808080; stroke-opacity: 0.6; stroke-width: 0.6"/>
     </g>
     <g id="line2d_52"/>
     <g id="text_7">
      <!-- 2 -->
      <g style="fill: #262626" transform="translate(41.054688 432.371572) scale(0.14 -0.14)">
       <defs>
        <path id="LiberationSans-32" d="M 322 0 
L 322 397 
Q 481 763 711 1042 
Q 941 1322 1194 1548 
Q 1447 1775 1695 1969 
Q 1944 2163 2144 2356 
Q 2344 2550 2467 2762 
Q 2591 2975 2591 3244 
Q 2591 3431 2534 3573 
Q 2478 3716 2372 3812 
Q 2266 3909 2117 3957 
Q 1969 4006 1788 4006 
Q 1619 4006 1470 3959 
Q 1322 3913 1206 3819 
Q 1091 3725 1017 3586 
Q 944 3447 922 3263 
L 347 3316 
Q 375 3553 478 3762 
Q 581 3972 762 4130 
Q 944 4288 1198 4378 
Q 1453 4469 1788 4469 
Q 2116 4469 2372 4391 
Q 2628 4313 2804 4159 
Q 2981 4006 3075 3781 
Q 3169 3556 3169 3263 
Q 3169 3041 3089 2841 
Q 3009 2641 2876 2459 
Q 2744 2278 2569 2109 
Q 2394 1941 2203 1780 
Q 2013 1619 1819 1461 
Q 1625 1303 1454 1143 
Q 1284 984 1150 820 
Q 1016 656 941 478 
L 3238 478 
L 3238 0 
L 322 0 
z
" transform="scale(0.015625)"/>
       </defs>
       <use xlink:href="#LiberationSans-32"/>
      </g>
     </g>
    </g>
    <g id="ytick_2">
     <g id="line2d_53">
      <path d="M 52.34 316.666145 
L 997.2 316.666145 
" clip-path="url(#p299bca07cc)" style="fill: none; stroke-dasharray: 2.22,0.96; stroke-dashoffset: 0; stroke: #808080; stroke-opacity: 0.6; stroke-width: 0.6"/>
     </g>
     <g id="line2d_54"/>
     <g id="text_8">
      <!-- 4 -->
      <g style="fill: #262626" transform="translate(41.054688 321.738957) scale(0.14 -0.14)">
       <defs>
        <path id="LiberationSans-34" d="M 2753 997 
L 2753 0 
L 2222 0 
L 2222 997 
L 147 997 
L 147 1434 
L 2163 4403 
L 2753 4403 
L 2753 1441 
L 3372 1441 
L 3372 997 
L 2753 997 
z
M 2222 3769 
Q 2216 3753 2191 3708 
Q 2166 3663 2134 3606 
Q 2103 3550 2070 3492 
Q 2038 3434 2013 3397 
L 884 1734 
Q 869 1709 839 1668 
Q 809 1628 778 1586 
Q 747 1544 715 1503 
Q 684 1463 666 1441 
L 2222 1441 
L 2222 3769 
z
" transform="scale(0.015625)"/>
       </defs>
       <use xlink:href="#LiberationSans-34"/>
      </g>
     </g>
    </g>
    <g id="ytick_3">
     <g id="line2d_55">
      <path d="M 52.34 206.03353 
L 997.2 206.03353 
" clip-path="url(#p299bca07cc)" style="fill: none; stroke-dasharray: 2.22,0.96; stroke-dashoffset: 0; stroke: #808080; stroke-opacity: 0.6; stroke-width: 0.6"/>
     </g>
     <g id="line2d_56"/>
     <g id="text_9">
      <!-- 6 -->
      <g style="fill: #262626" transform="translate(41.054688 211.106342) scale(0.14 -0.14)">
       <defs>
        <path id="LiberationSans-36" d="M 3278 1441 
Q 3278 1109 3186 832 
Q 3094 556 2914 357 
Q 2734 159 2468 48 
Q 2203 -63 1856 -63 
Q 1472 -63 1184 84 
Q 897 231 706 507 
Q 516 784 420 1186 
Q 325 1588 325 2100 
Q 325 2688 433 3131 
Q 541 3575 744 3872 
Q 947 4169 1239 4319 
Q 1531 4469 1900 4469 
Q 2125 4469 2322 4422 
Q 2519 4375 2680 4270 
Q 2841 4166 2962 3994 
Q 3084 3822 3156 3572 
L 2619 3475 
Q 2531 3759 2339 3886 
Q 2147 4013 1894 4013 
Q 1663 4013 1475 3903 
Q 1288 3794 1156 3576 
Q 1025 3359 954 3031 
Q 884 2703 884 2266 
Q 1038 2550 1316 2698 
Q 1594 2847 1953 2847 
Q 2253 2847 2497 2750 
Q 2741 2653 2914 2470 
Q 3088 2288 3183 2027 
Q 3278 1766 3278 1441 
z
M 2706 1416 
Q 2706 1644 2650 1828 
Q 2594 2013 2481 2142 
Q 2369 2272 2203 2342 
Q 2038 2413 1819 2413 
Q 1666 2413 1509 2367 
Q 1353 2322 1226 2220 
Q 1100 2119 1020 1953 
Q 941 1788 941 1550 
Q 941 1306 1003 1095 
Q 1066 884 1183 728 
Q 1300 572 1465 481 
Q 1631 391 1838 391 
Q 2041 391 2202 461 
Q 2363 531 2475 664 
Q 2588 797 2647 987 
Q 2706 1178 2706 1416 
z
" transform="scale(0.015625)"/>
       </defs>
       <use xlink:href="#LiberationSans-36"/>
      </g>
     </g>
    </g>
    <g id="ytick_4">
     <g id="line2d_57">
      <path d="M 52.34 95.400915 
L 997.2 95.400915 
" clip-path="url(#p299bca07cc)" style="fill: none; stroke-dasharray: 2.22,0.96; stroke-dashoffset: 0; stroke: #808080; stroke-opacity: 0.6; stroke-width: 0.6"/>
     </g>
     <g id="line2d_58"/>
     <g id="text_10">
      <!-- 8 -->
      <g style="fill: #262626" transform="translate(41.054688 100.473727) scale(0.14 -0.14)">
       <defs>
        <path id="LiberationSans-38" d="M 3281 1228 
Q 3281 947 3192 711 
Q 3103 475 2920 303 
Q 2738 131 2453 34 
Q 2169 -63 1781 -63 
Q 1394 -63 1111 34 
Q 828 131 642 301 
Q 456 472 367 708 
Q 278 944 278 1222 
Q 278 1463 351 1650 
Q 425 1838 548 1973 
Q 672 2109 830 2192 
Q 988 2275 1156 2303 
L 1156 2316 
Q 972 2359 826 2456 
Q 681 2553 582 2689 
Q 484 2825 432 2990 
Q 381 3156 381 3341 
Q 381 3572 470 3776 
Q 559 3981 734 4136 
Q 909 4291 1168 4380 
Q 1428 4469 1769 4469 
Q 2128 4469 2392 4378 
Q 2656 4288 2829 4133 
Q 3003 3978 3087 3772 
Q 3172 3566 3172 3334 
Q 3172 3153 3120 2987 
Q 3069 2822 2970 2686 
Q 2872 2550 2726 2454 
Q 2581 2359 2391 2322 
L 2391 2309 
Q 2581 2278 2743 2195 
Q 2906 2113 3025 1977 
Q 3144 1841 3212 1653 
Q 3281 1466 3281 1228 
z
M 2588 3303 
Q 2588 3469 2545 3606 
Q 2503 3744 2406 3842 
Q 2309 3941 2153 3995 
Q 1997 4050 1769 4050 
Q 1547 4050 1394 3995 
Q 1241 3941 1142 3842 
Q 1044 3744 1000 3606 
Q 956 3469 956 3303 
Q 956 3172 990 3034 
Q 1025 2897 1115 2784 
Q 1206 2672 1365 2600 
Q 1525 2528 1775 2528 
Q 2041 2528 2202 2600 
Q 2363 2672 2448 2784 
Q 2534 2897 2561 3034 
Q 2588 3172 2588 3303 
z
M 2697 1281 
Q 2697 1441 2653 1589 
Q 2609 1738 2503 1852 
Q 2397 1966 2217 2036 
Q 2038 2106 1769 2106 
Q 1522 2106 1348 2036 
Q 1175 1966 1067 1850 
Q 959 1734 909 1582 
Q 859 1431 859 1269 
Q 859 1066 909 898 
Q 959 731 1068 611 
Q 1178 491 1356 425 
Q 1534 359 1788 359 
Q 2044 359 2219 425 
Q 2394 491 2500 611 
Q 2606 731 2651 901 
Q 2697 1072 2697 1281 
z
" transform="scale(0.015625)"/>
       </defs>
       <use xlink:href="#LiberationSans-38"/>
      </g>
     </g>
    </g>
    <g id="ytick_5">
     <g id="line2d_59">
      <path d="M 52.34 510.273221 
L 997.2 510.273221 
" clip-path="url(#p299bca07cc)" style="fill: none; stroke-dasharray: 0.4,0.66; stroke-dashoffset: 0; stroke: #808080; stroke-opacity: 0.4; stroke-width: 0.4"/>
     </g>
     <g id="line2d_60"/>
    </g>
    <g id="ytick_6">
     <g id="line2d_61">
      <path d="M 52.34 482.615067 
L 997.2 482.615067 
" clip-path="url(#p299bca07cc)" style="fill: none; stroke-dasharray: 0.4,0.66; stroke-dashoffset: 0; stroke: #808080; stroke-opacity: 0.4; stroke-width: 0.4"/>
     </g>
     <g id="line2d_62"/>
    </g>
    <g id="ytick_7">
     <g id="line2d_63">
      <path d="M 52.34 454.956913 
L 997.2 454.956913 
" clip-path="url(#p299bca07cc)" style="fill: none; stroke-dasharray: 0.4,0.66; stroke-dashoffset: 0; stroke: #808080; stroke-opacity: 0.4; stroke-width: 0.4"/>
     </g>
     <g id="line2d_64"/>
    </g>
    <g id="ytick_8">
     <g id="line2d_65">
      <path d="M 52.34 399.640606 
L 997.2 399.640606 
" clip-path="url(#p299bca07cc)" style="fill: none; stroke-dasharray: 0.4,0.66; stroke-dashoffset: 0; stroke: #808080; stroke-opacity: 0.4; stroke-width: 0.4"/>
     </g>
     <g id="line2d_66"/>
    </g>
    <g id="ytick_9">
     <g id="line2d_67">
      <path d="M 52.34 371.982452 
L 997.2 371.982452 
" clip-path="url(#p299bca07cc)" style="fill: none; stroke-dasharray: 0.4,0.66; stroke-dashoffset: 0; stroke: #808080; stroke-opacity: 0.4; stroke-width: 0.4"/>
     </g>
     <g id="line2d_68"/>
    </g>
    <g id="ytick_10">
     <g id="line2d_69">
      <path d="M 52.34 344.324298 
L 997.2 344.324298 
" clip-path="url(#p299bca07cc)" style="fill: none; stroke-dasharray: 0.4,0.66; stroke-dashoffset: 0; stroke: #808080; stroke-opacity: 0.4; stroke-width: 0.4"/>
     </g>
     <g id="line2d_70"/>
    </g>
    <g id="ytick_11">
     <g id="line2d_71">
      <path d="M 52.34 289.007991 
L 997.2 289.007991 
" clip-path="url(#p299bca07cc)" style="fill: none; stroke-dasharray: 0.4,0.66; stroke-dashoffset: 0; stroke: #808080; stroke-opacity: 0.4; stroke-width: 0.4"/>
     </g>
     <g id="line2d_72"/>
    </g>
    <g id="ytick_12">
     <g id="line2d_73">
      <path d="M 52.34 261.349837 
L 997.2 261.349837 
" clip-path="url(#p299bca07cc)" style="fill: none; stroke-dasharray: 0.4,0.66; stroke-dashoffset: 0; stroke: #808080; stroke-opacity: 0.4; stroke-width: 0.4"/>
     </g>
     <g id="line2d_74"/>
    </g>
    <g id="ytick_13">
     <g id="line2d_75">
      <path d="M 52.34 233.691683 
L 997.2 233.691683 
" clip-path="url(#p299bca07cc)" style="fill: none; stroke-dasharray: 0.4,0.66; stroke-dashoffset: 0; stroke: #808080; stroke-opacity: 0.4; stroke-width: 0.4"/>
     </g>
     <g id="line2d_76"/>
    </g>
    <g id="ytick_14">
     <g id="line2d_77">
      <path d="M 52.34 178.375376 
L 997.2 178.375376 
" clip-path="url(#p299bca07cc)" style="fill: none; stroke-dasharray: 0.4,0.66; stroke-dashoffset: 0; stroke: #808080; stroke-opacity: 0.4; stroke-width: 0.4"/>
     </g>
     <g id="line2d_78"/>
    </g>
    <g id="ytick_15">
     <g id="line2d_79">
      <path d="M 52.34 150.717222 
L 997.2 150.717222 
" clip-path="url(#p299bca07cc)" style="fill: none; stroke-dasharray: 0.4,0.66; stroke-dashoffset: 0; stroke: #808080; stroke-opacity: 0.4; stroke-width: 0.4"/>
     </g>
     <g id="line2d_80"/>
    </g>
    <g id="ytick_16">
     <g id="line2d_81">
      <path d="M 52.34 123.059069 
L 997.2 123.059069 
" clip-path="url(#p299bca07cc)" style="fill: none; stroke-dasharray: 0.4,0.66; stroke-dashoffset: 0; stroke: #808080; stroke-opacity: 0.4; stroke-width: 0.4"/>
     </g>
     <g id="line2d_82"/>
    </g>
    <g id="ytick_17">
     <g id="line2d_83">
      <path d="M 52.34 67.742761 
L 997.2 67.742761 
" clip-path="url(#p299bca07cc)" style="fill: none; stroke-dasharray: 0.4,0.66; stroke-dashoffset: 0; stroke: #808080; stroke-opacity: 0.4; stroke-width: 0.4"/>
     </g>
     <g id="line2d_84"/>
    </g>
    <g id="ytick_18">
     <g id="line2d_85">
      <path d="M 52.34 40.084607 
L 997.2 40.084607 
" clip-path="url(#p299bca07cc)" style="fill: none; stroke-dasharray: 0.4,0.66; stroke-dashoffset: 0; stroke: #808080; stroke-opacity: 0.4; stroke-width: 0.4"/>
     </g>
     <g id="line2d_86"/>
    </g>
    <g id="ytick_19">
     <g id="line2d_87">
      <path d="M 52.34 12.426454 
L 997.2 12.426454 
" clip-path="url(#p299bca07cc)" style="fill: none; stroke-dasharray: 0.4,0.66; stroke-dashoffset: 0; stroke: #808080; stroke-opacity: 0.4; stroke-width: 0.4"/>
     </g>
     <g id="line2d_88"/>
    </g>
    <g id="text_11">
     <!-- Fertilidade -->
     <g style="fill: #262626" transform="translate(22.734688 302.41875) rotate(-90) scale(0.16 -0.16)">
      <defs>
       <path id="LiberationSans-46" d="M 1122 3916 
L 1122 2278 
L 3578 2278 
L 3578 1784 
L 1122 1784 
L 1122 0 
L 525 0 
L 525 4403 
L 3653 4403 
L 3653 3916 
L 1122 3916 
z
" transform="scale(0.015625)"/>
       <path id="LiberationSans-72" d="M 444 0 
L 444 2594 
Q 444 2700 442 2811 
Q 441 2922 437 3025 
Q 434 3128 431 3218 
Q 428 3309 425 3381 
L 956 3381 
Q 959 3309 964 3217 
Q 969 3125 973 3028 
Q 978 2931 979 2842 
Q 981 2753 981 2691 
L 994 2691 
Q 1053 2884 1120 3026 
Q 1188 3169 1278 3261 
Q 1369 3353 1494 3398 
Q 1619 3444 1797 3444 
Q 1866 3444 1928 3433 
Q 1991 3422 2025 3413 
L 2025 2897 
Q 1969 2913 1894 2920 
Q 1819 2928 1725 2928 
Q 1531 2928 1395 2840 
Q 1259 2753 1173 2598 
Q 1088 2444 1047 2230 
Q 1006 2016 1006 1763 
L 1006 0 
L 444 0 
z
" transform="scale(0.015625)"/>
       <path id="LiberationSans-74" d="M 1731 25 
Q 1603 -9 1470 -29 
Q 1338 -50 1163 -50 
Q 488 -50 488 716 
L 488 2972 
L 97 2972 
L 97 3381 
L 509 3381 
L 675 4138 
L 1050 4138 
L 1050 3381 
L 1675 3381 
L 1675 2972 
L 1050 2972 
L 1050 838 
Q 1050 594 1129 495 
Q 1209 397 1406 397 
Q 1488 397 1564 409 
Q 1641 422 1731 441 
L 1731 25 
z
" transform="scale(0.015625)"/>
       <path id="LiberationSans-69" d="M 428 4100 
L 428 4638 
L 991 4638 
L 991 4100 
L 428 4100 
z
M 428 0 
L 428 3381 
L 991 3381 
L 991 0 
L 428 0 
z
" transform="scale(0.015625)"/>
       <path id="LiberationSans-61" d="M 1294 -63 
Q 784 -63 528 206 
Q 272 475 272 944 
Q 272 1278 398 1492 
Q 525 1706 729 1828 
Q 934 1950 1196 1997 
Q 1459 2044 1731 2050 
L 2491 2063 
L 2491 2247 
Q 2491 2456 2447 2603 
Q 2403 2750 2312 2840 
Q 2222 2931 2086 2973 
Q 1950 3016 1766 3016 
Q 1603 3016 1472 2992 
Q 1341 2969 1244 2908 
Q 1147 2847 1087 2742 
Q 1028 2638 1009 2478 
L 422 2531 
Q 453 2731 540 2898 
Q 628 3066 789 3187 
Q 950 3309 1192 3376 
Q 1434 3444 1778 3444 
Q 2416 3444 2737 3151 
Q 3059 2859 3059 2306 
L 3059 850 
Q 3059 600 3125 473 
Q 3191 347 3375 347 
Q 3422 347 3469 353 
Q 3516 359 3559 369 
L 3559 19 
Q 3453 -6 3348 -18 
Q 3244 -31 3125 -31 
Q 2966 -31 2852 11 
Q 2738 53 2666 139 
Q 2594 225 2556 351 
Q 2519 478 2509 647 
L 2491 647 
Q 2400 484 2292 353 
Q 2184 222 2040 130 
Q 1897 38 1714 -12 
Q 1531 -63 1294 -63 
z
M 1422 359 
Q 1691 359 1892 457 
Q 2094 556 2226 709 
Q 2359 863 2425 1044 
Q 2491 1225 2491 1391 
L 2491 1669 
L 1875 1656 
Q 1669 1653 1483 1626 
Q 1297 1600 1156 1522 
Q 1016 1444 933 1303 
Q 850 1163 850 934 
Q 850 659 998 509 
Q 1147 359 1422 359 
z
" transform="scale(0.015625)"/>
      </defs>
      <use xlink:href="#LiberationSans-46"/>
      <use xlink:href="#LiberationSans-65" x="61.083984"/>
      <use xlink:href="#LiberationSans-72" x="116.699219"/>
      <use xlink:href="#LiberationSans-74" x="150"/>
      <use xlink:href="#LiberationSans-69" x="177.783203"/>
      <use xlink:href="#LiberationSans-6c" x="200"/>
      <use xlink:href="#LiberationSans-69" x="222.216797"/>
      <use xlink:href="#LiberationSans-64" x="244.433594"/>
      <use xlink:href="#LiberationSans-61" x="300.048828"/>
      <use xlink:href="#LiberationSans-64" x="355.664062"/>
      <use xlink:href="#LiberationSans-65" x="411.279297"/>
     </g>
    </g>
   </g>
   <g id="PolyCollection_1">
    <defs>
     <path id="m62dfa8aee8" d="M 146.826359 -79.775455 
L 146.825641 -79.775455 
L 146.750934 -84.434437 
L 138.61588 -89.093418 
L 96.947012 -93.7524 
L 71.2372 -98.411382 
L 88.297245 -103.070364 
L 112.123491 -107.729346 
L 124.495013 -112.388328 
L 129.473085 -117.04731 
L 132.389455 -121.706292 
L 134.383034 -126.365274 
L 135.855618 -131.024256 
L 137.257691 -135.683238 
L 138.216628 -140.34222 
L 138.481817 -145.001202 
L 138.388822 -149.660184 
L 138.38169 -154.319166 
L 138.310841 -158.978148 
L 138.882583 -163.63713 
L 139.686586 -168.296112 
L 140.207108 -172.955094 
L 141.121249 -177.614076 
L 141.835012 -182.273058 
L 142.640936 -186.93204 
L 143.168827 -191.591022 
L 143.759516 -196.250004 
L 144.215714 -200.908986 
L 144.461255 -205.567968 
L 144.55501 -210.22695 
L 144.953557 -214.885932 
L 145.432799 -219.544914 
L 145.749502 -224.203896 
L 145.917402 -228.862878 
L 146.096595 -233.52186 
L 146.271016 -238.180842 
L 146.378699 -242.839824 
L 146.432231 -247.498806 
L 146.53195 -252.157788 
L 146.561789 -256.81677 
L 146.599625 -261.475751 
L 146.624548 -266.134733 
L 146.656208 -270.793715 
L 146.700403 -275.452697 
L 146.729067 -280.111679 
L 146.722858 -284.770661 
L 146.728268 -289.429643 
L 146.751681 -294.088625 
L 146.767556 -298.747607 
L 146.775467 -303.406589 
L 146.779768 -308.065571 
L 146.788657 -312.724553 
L 146.792575 -317.383535 
L 146.799615 -322.042517 
L 146.803553 -326.701499 
L 146.808209 -331.360481 
L 146.810435 -336.019463 
L 146.812716 -340.678445 
L 146.816499 -345.337427 
L 146.816503 -349.996409 
L 146.819828 -354.655391 
L 146.818419 -359.314373 
L 146.817463 -363.973355 
L 146.818779 -368.632337 
L 146.820906 -373.291319 
L 146.821932 -377.950301 
L 146.822332 -382.609283 
L 146.821169 -387.268265 
L 146.823325 -391.927247 
L 146.822983 -396.586229 
L 146.821126 -401.245211 
L 146.823414 -405.904193 
L 146.821817 -410.563175 
L 146.820642 -415.222157 
L 146.821514 -419.881139 
L 146.823511 -424.540121 
L 146.825476 -429.199103 
L 146.825101 -433.858084 
L 146.824044 -438.517066 
L 146.824888 -443.176048 
L 146.825953 -447.83503 
L 146.825896 -452.494012 
L 146.825267 -457.152994 
L 146.825705 -461.811976 
L 146.825262 -466.470958 
L 146.825828 -471.12994 
L 146.825999 -475.788922 
L 146.826 -480.447904 
L 146.826 -485.106886 
L 146.826 -489.765868 
L 146.826 -494.42485 
L 146.826 -499.083832 
L 146.826 -503.742814 
L 146.826 -508.401796 
L 146.825993 -513.060778 
L 146.825648 -517.71976 
L 146.825384 -522.378742 
L 146.82596 -527.037724 
L 146.825811 -531.696706 
L 146.82527 -536.355688 
L 146.8259 -541.01467 
L 146.8261 -541.01467 
L 146.8261 -541.01467 
L 146.82673 -536.355688 
L 146.826189 -531.696706 
L 146.82604 -527.037724 
L 146.826616 -522.378742 
L 146.826352 -517.71976 
L 146.826007 -513.060778 
L 146.826 -508.401796 
L 146.826 -503.742814 
L 146.826 -499.083832 
L 146.826 -494.42485 
L 146.826 -489.765868 
L 146.826 -485.106886 
L 146.826 -480.447904 
L 146.826001 -475.788922 
L 146.826172 -471.12994 
L 146.826738 -466.470958 
L 146.826295 -461.811976 
L 146.826733 -457.152994 
L 146.826104 -452.494012 
L 146.826047 -447.83503 
L 146.827112 -443.176048 
L 146.827956 -438.517066 
L 146.826899 -433.858084 
L 146.826524 -429.199103 
L 146.828489 -424.540121 
L 146.830486 -419.881139 
L 146.831358 -415.222157 
L 146.830183 -410.563175 
L 146.828586 -405.904193 
L 146.830874 -401.245211 
L 146.829017 -396.586229 
L 146.828675 -391.927247 
L 146.830831 -387.268265 
L 146.829668 -382.609283 
L 146.830068 -377.950301 
L 146.831094 -373.291319 
L 146.833221 -368.632337 
L 146.834537 -363.973355 
L 146.833581 -359.314373 
L 146.832172 -354.655391 
L 146.835497 -349.996409 
L 146.835501 -345.337427 
L 146.839284 -340.678445 
L 146.841565 -336.019463 
L 146.843791 -331.360481 
L 146.848447 -326.701499 
L 146.852385 -322.042517 
L 146.859425 -317.383535 
L 146.863343 -312.724553 
L 146.872232 -308.065571 
L 146.876533 -303.406589 
L 146.884444 -298.747607 
L 146.900319 -294.088625 
L 146.923732 -289.429643 
L 146.929142 -284.770661 
L 146.922933 -280.111679 
L 146.951597 -275.452697 
L 146.995792 -270.793715 
L 147.027452 -266.134733 
L 147.052375 -261.475751 
L 147.090211 -256.81677 
L 147.12005 -252.157788 
L 147.219769 -247.498806 
L 147.273301 -242.839824 
L 147.380984 -238.180842 
L 147.555405 -233.52186 
L 147.734598 -228.862878 
L 147.902498 -224.203896 
L 148.219201 -219.544914 
L 148.698443 -214.885932 
L 149.09699 -210.22695 
L 149.190745 -205.567968 
L 149.436286 -200.908986 
L 149.892484 -196.250004 
L 150.483173 -191.591022 
L 151.011064 -186.93204 
L 151.816988 -182.273058 
L 152.530751 -177.614076 
L 153.444892 -172.955094 
L 153.965414 -168.296112 
L 154.769417 -163.63713 
L 155.341159 -158.978148 
L 155.27031 -154.319166 
L 155.263178 -149.660184 
L 155.170183 -145.001202 
L 155.435372 -140.34222 
L 156.394309 -135.683238 
L 157.796382 -131.024256 
L 159.268966 -126.365274 
L 161.262545 -121.706292 
L 164.178915 -117.04731 
L 169.156987 -112.388328 
L 181.528509 -107.729346 
L 205.354755 -103.070364 
L 222.4148 -98.411382 
L 196.704988 -93.7524 
L 155.03612 -89.093418 
L 146.901066 -84.434437 
L 146.826359 -79.775455 
z
" style="stroke: #3d3d3d; stroke-width: 1.25"/>
    </defs>
    <g clip-path="url(#p299bca07cc)">
     <use xlink:href="#m62dfa8aee8" x="0" y="576" style="fill: #3274a1; stroke: #3d3d3d; stroke-width: 1.25"/>
    </g>
   </g>
   <g id="PolyCollection_2">
    <defs>
     <path id="mf5d586c362" d="M 335.801467 -82.187025 
L 335.794533 -82.187025 
L 335.539268 -86.832454 
L 332.774307 -91.477884 
L 324.230255 -96.123313 
L 311.121686 -100.768743 
L 299.580859 -105.414172 
L 294.062977 -110.059602 
L 295.435162 -114.705031 
L 301.459727 -119.350461 
L 308.482333 -123.99589 
L 314.61436 -128.64132 
L 319.198346 -133.286749 
L 322.515393 -137.932179 
L 324.796584 -142.577608 
L 326.190436 -147.223038 
L 327.142223 -151.868467 
L 327.992879 -156.513897 
L 328.385075 -161.159326 
L 328.553715 -165.804756 
L 328.833459 -170.450185 
L 328.858875 -175.095615 
L 328.815628 -179.741044 
L 328.986909 -184.386474 
L 329.124766 -189.031903 
L 329.329045 -193.677333 
L 329.585733 -198.322762 
L 329.921915 -202.968192 
L 330.286689 -207.613621 
L 330.71582 -212.259051 
L 331.164518 -216.90448 
L 331.603087 -221.54991 
L 331.993515 -226.195339 
L 332.605279 -230.840769 
L 333.108754 -235.486198 
L 333.229452 -240.131628 
L 333.293361 -244.777057 
L 334.053049 -249.422487 
L 334.519562 -254.067916 
L 334.808542 -258.713346 
L 335.030195 -263.358775 
L 335.189507 -268.004205 
L 335.302167 -272.649634 
L 335.405589 -277.295064 
L 335.494536 -281.940493 
L 335.553769 -286.585923 
L 335.586647 -291.231352 
L 335.643276 -295.876782 
L 335.686725 -300.522211 
L 335.705861 -305.167641 
L 335.719084 -309.81307 
L 335.737829 -314.4585 
L 335.748562 -319.103929 
L 335.757366 -323.749359 
L 335.765244 -328.394788 
L 335.774085 -333.040218 
L 335.780246 -337.685647 
L 335.780991 -342.331077 
L 335.782951 -346.976506 
L 335.783552 -351.621936 
L 335.782142 -356.267365 
L 335.786826 -360.912795 
L 335.791117 -365.558224 
L 335.791362 -370.203654 
L 335.791973 -374.849083 
L 335.793493 -379.494513 
L 335.794872 -384.139942 
L 335.79514 -388.785372 
L 335.793337 -393.430801 
L 335.794512 -398.076231 
L 335.796094 -402.72166 
L 335.796632 -407.36709 
L 335.796881 -412.012519 
L 335.796265 -416.657949 
L 335.796194 -421.303378 
L 335.797585 -425.948808 
L 335.797366 -430.594237 
L 335.796092 -435.239667 
L 335.796453 -439.885096 
L 335.796018 -444.530526 
L 335.797033 -449.175955 
L 335.797912 -453.821385 
L 335.797999 -458.466814 
L 335.798 -463.112244 
L 335.797993 -467.757673 
L 335.797789 -472.403103 
L 335.797388 -477.048532 
L 335.797816 -481.693962 
L 335.797994 -486.339391 
L 335.798 -490.984821 
L 335.798 -495.63025 
L 335.798 -500.27568 
L 335.797999 -504.921109 
L 335.79792 -509.566539 
L 335.797463 -514.211968 
L 335.797567 -518.857398 
L 335.79748 -523.502827 
L 335.797545 -528.148257 
L 335.797594 -532.793686 
L 335.797457 -537.439116 
L 335.797917 -542.084545 
L 335.798083 -542.084545 
L 335.798083 -542.084545 
L 335.798543 -537.439116 
L 335.798406 -532.793686 
L 335.798455 -528.148257 
L 335.79852 -523.502827 
L 335.798433 -518.857398 
L 335.798537 -514.211968 
L 335.79808 -509.566539 
L 335.798001 -504.921109 
L 335.798 -500.27568 
L 335.798 -495.63025 
L 335.798 -490.984821 
L 335.798006 -486.339391 
L 335.798184 -481.693962 
L 335.798612 -477.048532 
L 335.798211 -472.403103 
L 335.798007 -467.757673 
L 335.798 -463.112244 
L 335.798001 -458.466814 
L 335.798088 -453.821385 
L 335.798967 -449.175955 
L 335.799982 -444.530526 
L 335.799547 -439.885096 
L 335.799908 -435.239667 
L 335.798634 -430.594237 
L 335.798415 -425.948808 
L 335.799806 -421.303378 
L 335.799735 -416.657949 
L 335.799119 -412.012519 
L 335.799368 -407.36709 
L 335.799906 -402.72166 
L 335.801488 -398.076231 
L 335.802663 -393.430801 
L 335.80086 -388.785372 
L 335.801128 -384.139942 
L 335.802507 -379.494513 
L 335.804027 -374.849083 
L 335.804638 -370.203654 
L 335.804883 -365.558224 
L 335.809174 -360.912795 
L 335.813858 -356.267365 
L 335.812448 -351.621936 
L 335.813049 -346.976506 
L 335.815009 -342.331077 
L 335.815754 -337.685647 
L 335.821915 -333.040218 
L 335.830756 -328.394788 
L 335.838634 -323.749359 
L 335.847438 -319.103929 
L 335.858171 -314.4585 
L 335.876916 -309.81307 
L 335.890139 -305.167641 
L 335.909275 -300.522211 
L 335.952724 -295.876782 
L 336.009353 -291.231352 
L 336.042231 -286.585923 
L 336.101464 -281.940493 
L 336.190411 -277.295064 
L 336.293833 -272.649634 
L 336.406493 -268.004205 
L 336.565805 -263.358775 
L 336.787458 -258.713346 
L 337.076438 -254.067916 
L 337.542951 -249.422487 
L 338.302639 -244.777057 
L 338.366548 -240.131628 
L 338.487246 -235.486198 
L 338.990721 -230.840769 
L 339.602485 -226.195339 
L 339.992913 -221.54991 
L 340.431482 -216.90448 
L 340.88018 -212.259051 
L 341.309311 -207.613621 
L 341.674085 -202.968192 
L 342.010267 -198.322762 
L 342.266955 -193.677333 
L 342.471234 -189.031903 
L 342.609091 -184.386474 
L 342.780372 -179.741044 
L 342.737125 -175.095615 
L 342.762541 -170.450185 
L 343.042285 -165.804756 
L 343.210925 -161.159326 
L 343.603121 -156.513897 
L 344.453777 -151.868467 
L 345.405564 -147.223038 
L 346.799416 -142.577608 
L 349.080607 -137.932179 
L 352.397654 -133.286749 
L 356.98164 -128.64132 
L 363.113667 -123.99589 
L 370.136273 -119.350461 
L 376.160838 -114.705031 
L 377.533023 -110.059602 
L 372.015141 -105.414172 
L 360.474314 -100.768743 
L 347.365745 -96.123313 
L 338.821693 -91.477884 
L 336.056732 -86.832454 
L 335.801467 -82.187025 
z
" style="stroke: #3d3d3d; stroke-width: 1.25"/>
    </defs>
    <g clip-path="url(#p299bca07cc)">
     <use xlink:href="#mf5d586c362" x="0" y="576" style="fill: #e1812c; stroke: #3d3d3d; stroke-width: 1.25"/>
    </g>
   </g>
   <g id="PolyCollection_3">
    <defs>
     <path id="m543fc01832" d="M 524.805235 -88.445533 
L 524.734765 -88.445533 
L 524.364061 -93.015324 
L 523.170555 -97.585114 
L 520.158627 -102.154905 
L 514.432034 -106.724695 
L 506.510744 -111.294486 
L 497.723446 -115.864276 
L 490.311586 -120.434067 
L 486.831795 -125.003857 
L 487.226473 -129.573648 
L 490.330675 -134.143438 
L 494.885849 -138.713229 
L 500.136619 -143.283019 
L 504.742971 -147.85281 
L 508.264948 -152.4226 
L 510.855174 -156.992391 
L 512.867985 -161.562181 
L 514.202642 -166.131972 
L 515.044592 -170.701762 
L 515.5311 -175.271553 
L 516.249636 -179.841343 
L 517.065909 -184.411134 
L 517.762588 -188.980924 
L 518.227794 -193.550715 
L 518.947543 -198.120505 
L 519.478748 -202.690296 
L 520.013064 -207.260086 
L 520.659751 -211.829877 
L 521.283946 -216.399667 
L 521.757951 -220.969458 
L 522.12825 -225.539248 
L 522.403187 -230.109039 
L 522.320624 -234.678829 
L 523.191145 -239.24862 
L 523.582377 -243.81841 
L 523.841627 -248.388201 
L 523.996027 -252.957991 
L 524.160297 -257.527782 
L 524.306119 -262.097572 
L 524.406018 -266.667363 
L 524.466369 -271.237153 
L 524.523761 -275.806944 
L 524.580106 -280.376734 
L 524.63113 -284.946525 
L 524.659103 -289.516315 
L 524.669185 -294.086106 
L 524.684415 -298.655896 
L 524.702809 -303.225687 
L 524.716177 -307.795477 
L 524.72673 -312.365268 
L 524.734189 -316.935058 
L 524.742301 -321.504849 
L 524.748605 -326.074639 
L 524.753444 -330.64443 
L 524.758442 -335.21422 
L 524.760423 -339.78401 
L 524.759359 -344.353801 
L 524.759838 -348.923591 
L 524.760809 -353.493382 
L 524.761481 -358.063172 
L 524.76521 -362.632963 
L 524.767193 -367.202753 
L 524.76619 -371.772544 
L 524.766357 -376.342334 
L 524.767672 -380.912125 
L 524.768008 -385.481915 
L 524.768043 -390.051706 
L 524.766372 -394.621496 
L 524.767174 -399.191287 
L 524.76764 -403.761077 
L 524.768486 -408.330868 
L 524.767698 -412.900658 
L 524.768739 -417.470449 
L 524.7698 -422.040239 
L 524.769416 -426.61003 
L 524.767807 -431.17982 
L 524.769199 -435.749611 
L 524.769154 -440.319401 
L 524.769294 -444.889192 
L 524.769948 -449.458982 
L 524.769996 -454.028773 
L 524.769729 -458.598563 
L 524.769296 -463.168354 
L 524.76994 -467.738144 
L 524.77 -472.307935 
L 524.77 -476.877725 
L 524.77 -481.447516 
L 524.77 -486.017306 
L 524.77 -490.587097 
L 524.77 -495.156887 
L 524.77 -499.726678 
L 524.77 -504.296468 
L 524.77 -508.866259 
L 524.769991 -513.436049 
L 524.769602 -518.00584 
L 524.769378 -522.57563 
L 524.769392 -527.145421 
L 524.769401 -531.715211 
L 524.769233 -536.285002 
L 524.769896 -540.854792 
L 524.770104 -540.854792 
L 524.770104 -540.854792 
L 524.770767 -536.285002 
L 524.770599 -531.715211 
L 524.770608 -527.145421 
L 524.770622 -522.57563 
L 524.770398 -518.00584 
L 524.770009 -513.436049 
L 524.77 -508.866259 
L 524.77 -504.296468 
L 524.77 -499.726678 
L 524.77 -495.156887 
L 524.77 -490.587097 
L 524.77 -486.017306 
L 524.77 -481.447516 
L 524.77 -476.877725 
L 524.77 -472.307935 
L 524.77006 -467.738144 
L 524.770704 -463.168354 
L 524.770271 -458.598563 
L 524.770004 -454.028773 
L 524.770052 -449.458982 
L 524.770706 -444.889192 
L 524.770846 -440.319401 
L 524.770801 -435.749611 
L 524.772193 -431.17982 
L 524.770584 -426.61003 
L 524.7702 -422.040239 
L 524.771261 -417.470449 
L 524.772302 -412.900658 
L 524.771514 -408.330868 
L 524.77236 -403.761077 
L 524.772826 -399.191287 
L 524.773628 -394.621496 
L 524.771957 -390.051706 
L 524.771992 -385.481915 
L 524.772328 -380.912125 
L 524.773643 -376.342334 
L 524.77381 -371.772544 
L 524.772807 -367.202753 
L 524.77479 -362.632963 
L 524.778519 -358.063172 
L 524.779191 -353.493382 
L 524.780162 -348.923591 
L 524.780641 -344.353801 
L 524.779577 -339.78401 
L 524.781558 -335.21422 
L 524.786556 -330.64443 
L 524.791395 -326.074639 
L 524.797699 -321.504849 
L 524.805811 -316.935058 
L 524.81327 -312.365268 
L 524.823823 -307.795477 
L 524.837191 -303.225687 
L 524.855585 -298.655896 
L 524.870815 -294.086106 
L 524.880897 -289.516315 
L 524.90887 -284.946525 
L 524.959894 -280.376734 
L 525.016239 -275.806944 
L 525.073631 -271.237153 
L 525.133982 -266.667363 
L 525.233881 -262.097572 
L 525.379703 -257.527782 
L 525.543973 -252.957991 
L 525.698373 -248.388201 
L 525.957623 -243.81841 
L 526.348855 -239.24862 
L 527.219376 -234.678829 
L 527.136813 -230.109039 
L 527.41175 -225.539248 
L 527.782049 -220.969458 
L 528.256054 -216.399667 
L 528.880249 -211.829877 
L 529.526936 -207.260086 
L 530.061252 -202.690296 
L 530.592457 -198.120505 
L 531.312206 -193.550715 
L 531.777412 -188.980924 
L 532.474091 -184.411134 
L 533.290364 -179.841343 
L 534.0089 -175.271553 
L 534.495408 -170.701762 
L 535.337358 -166.131972 
L 536.672015 -161.562181 
L 538.684826 -156.992391 
L 541.275052 -152.4226 
L 544.797029 -147.85281 
L 549.403381 -143.283019 
L 554.654151 -138.713229 
L 559.209325 -134.143438 
L 562.313527 -129.573648 
L 562.708205 -125.003857 
L 559.228414 -120.434067 
L 551.816554 -115.864276 
L 543.029256 -111.294486 
L 535.107966 -106.724695 
L 529.381373 -102.154905 
L 526.369445 -97.585114 
L 525.175939 -93.015324 
L 524.805235 -88.445533 
z
" style="stroke: #3d3d3d; stroke-width: 1.25"/>
    </defs>
    <g clip-path="url(#p299bca07cc)">
     <use xlink:href="#m543fc01832" x="0" y="576" style="fill: #3a923a; stroke: #3d3d3d; stroke-width: 1.25"/>
    </g>
   </g>
   <g id="PolyCollection_4">
    <defs>
     <path id="m9930686fa8" d="M 713.7422 -84.664857 
L 713.7418 -84.664857 
L 713.384775 -89.260229 
L 707.38089 -93.855602 
L 688.209547 -98.450974 
L 662.926736 -103.046346 
L 651.715253 -107.641718 
L 656.396604 -112.237091 
L 667.829755 -116.832463 
L 680.936735 -121.427835 
L 688.907626 -126.023208 
L 694.199753 -130.61858 
L 697.793982 -135.213952 
L 700.152903 -139.809324 
L 701.280981 -144.404697 
L 703.095678 -149.000069 
L 704.888771 -153.595441 
L 706.993757 -158.190814 
L 708.974509 -162.786186 
L 709.794399 -167.381558 
L 710.360267 -171.97693 
L 710.883781 -176.572303 
L 711.481698 -181.167675 
L 711.842328 -185.763047 
L 712.06216 -190.35842 
L 712.257698 -194.953792 
L 712.455083 -199.549164 
L 712.597756 -204.144536 
L 712.822602 -208.739909 
L 712.944752 -213.335281 
L 713.041703 -217.930653 
L 713.160204 -222.526026 
L 713.227278 -227.121398 
L 713.332453 -231.71677 
L 713.389157 -236.312142 
L 713.457197 -240.907515 
L 713.504157 -245.502887 
L 713.543902 -250.098259 
L 713.565962 -254.693632 
L 713.611611 -259.289004 
L 713.611373 -263.884376 
L 713.64568 -268.479748 
L 713.664956 -273.075121 
L 713.684608 -277.670493 
L 713.687362 -282.265865 
L 713.687513 -286.861238 
L 713.695353 -291.45661 
L 713.70774 -296.051982 
L 713.722177 -300.647354 
L 713.722477 -305.242727 
L 713.726885 -309.838099 
L 713.730588 -314.433471 
L 713.725647 -319.028844 
L 713.730824 -323.624216 
L 713.734339 -328.219588 
L 713.736354 -332.81496 
L 713.732355 -337.410333 
L 713.735063 -342.005705 
L 713.738571 -346.601077 
L 713.737646 -351.19645 
L 713.738 -355.791822 
L 713.737241 -360.387194 
L 713.737807 -364.982566 
L 713.739614 -369.577939 
L 713.738149 -374.173311 
L 713.740357 -378.768683 
L 713.739397 -383.364056 
L 713.739285 -387.959428 
L 713.741317 -392.5548 
L 713.741141 -397.150172 
L 713.74105 -401.745545 
L 713.741338 -406.340917 
L 713.739013 -410.936289 
L 713.741003 -415.531662 
L 713.740461 -420.127034 
L 713.740966 -424.722406 
L 713.741886 -429.317778 
L 713.740966 -433.913151 
L 713.740885 -438.508523 
L 713.741965 -443.103895 
L 713.742 -447.699268 
L 713.742 -452.29464 
L 713.742 -456.890012 
L 713.742 -461.485385 
L 713.742 -466.080757 
L 713.741998 -470.676129 
L 713.741387 -475.271501 
L 713.741656 -479.866874 
L 713.742 -484.462246 
L 713.742 -489.057618 
L 713.742 -493.652991 
L 713.742 -498.248363 
L 713.742 -502.843735 
L 713.741799 -507.439107 
L 713.74119 -512.03448 
L 713.741993 -516.629852 
L 713.742 -521.225224 
L 713.742 -525.820597 
L 713.741988 -530.415969 
L 713.741092 -535.011341 
L 713.741861 -539.606713 
L 713.742139 -539.606713 
L 713.742139 -539.606713 
L 713.742908 -535.011341 
L 713.742012 -530.415969 
L 713.742 -525.820597 
L 713.742 -521.225224 
L 713.742007 -516.629852 
L 713.74281 -512.03448 
L 713.742201 -507.439107 
L 713.742 -502.843735 
L 713.742 -498.248363 
L 713.742 -493.652991 
L 713.742 -489.057618 
L 713.742 -484.462246 
L 713.742344 -479.866874 
L 713.742613 -475.271501 
L 713.742002 -470.676129 
L 713.742 -466.080757 
L 713.742 -461.485385 
L 713.742 -456.890012 
L 713.742 -452.29464 
L 713.742 -447.699268 
L 713.742035 -443.103895 
L 713.743115 -438.508523 
L 713.743034 -433.913151 
L 713.742114 -429.317778 
L 713.743034 -424.722406 
L 713.743539 -420.127034 
L 713.742997 -415.531662 
L 713.744987 -410.936289 
L 713.742662 -406.340917 
L 713.74295 -401.745545 
L 713.742859 -397.150172 
L 713.742683 -392.5548 
L 713.744715 -387.959428 
L 713.744603 -383.364056 
L 713.743643 -378.768683 
L 713.745851 -374.173311 
L 713.744386 -369.577939 
L 713.746193 -364.982566 
L 713.746759 -360.387194 
L 713.746 -355.791822 
L 713.746354 -351.19645 
L 713.745429 -346.601077 
L 713.748937 -342.005705 
L 713.751645 -337.410333 
L 713.747646 -332.81496 
L 713.749661 -328.219588 
L 713.753176 -323.624216 
L 713.758353 -319.028844 
L 713.753412 -314.433471 
L 713.757115 -309.838099 
L 713.761523 -305.242727 
L 713.761823 -300.647354 
L 713.77626 -296.051982 
L 713.788647 -291.45661 
L 713.796487 -286.861238 
L 713.796638 -282.265865 
L 713.799392 -277.670493 
L 713.819044 -273.075121 
L 713.83832 -268.479748 
L 713.872627 -263.884376 
L 713.872389 -259.289004 
L 713.918038 -254.693632 
L 713.940098 -250.098259 
L 713.979843 -245.502887 
L 714.026803 -240.907515 
L 714.094843 -236.312142 
L 714.151547 -231.71677 
L 714.256722 -227.121398 
L 714.323796 -222.526026 
L 714.442297 -217.930653 
L 714.539248 -213.335281 
L 714.661398 -208.739909 
L 714.886244 -204.144536 
L 715.028917 -199.549164 
L 715.226302 -194.953792 
L 715.42184 -190.35842 
L 715.641672 -185.763047 
L 716.002302 -181.167675 
L 716.600219 -176.572303 
L 717.123733 -171.97693 
L 717.689601 -167.381558 
L 718.509491 -162.786186 
L 720.490243 -158.190814 
L 722.595229 -153.595441 
L 724.388322 -149.000069 
L 726.203019 -144.404697 
L 727.331097 -139.809324 
L 729.690018 -135.213952 
L 733.284247 -130.61858 
L 738.576374 -126.023208 
L 746.547265 -121.427835 
L 759.654245 -116.832463 
L 771.087396 -112.237091 
L 775.768747 -107.641718 
L 764.557264 -103.046346 
L 739.274453 -98.450974 
L 720.10311 -93.855602 
L 714.099225 -89.260229 
L 713.7422 -84.664857 
z
" style="stroke: #3d3d3d; stroke-width: 1.25"/>
    </defs>
    <g clip-path="url(#p299bca07cc)">
     <use xlink:href="#m9930686fa8" x="0" y="576" style="fill: #c03d3e; stroke: #3d3d3d; stroke-width: 1.25"/>
    </g>
   </g>
   <g id="PolyCollection_5">
    <defs>
     <path id="mb1a9a20663" d="M 902.714959 -83.464388 
L 902.713041 -83.464388 
L 902.104171 -88.078933 
L 889.508314 -92.693477 
L 864.591315 -97.308022 
L 849.290651 -101.922567 
L 849.001369 -106.537111 
L 858.558798 -111.151656 
L 868.569797 -115.766201 
L 876.660889 -120.380745 
L 882.423939 -124.99529 
L 886.062641 -129.609834 
L 888.597141 -134.224379 
L 890.486737 -138.838924 
L 891.307873 -143.453468 
L 892.1544 -148.068013 
L 892.744214 -152.682558 
L 893.081613 -157.297102 
L 894.122893 -161.911647 
L 895.369846 -166.526192 
L 896.255904 -171.140736 
L 897.262925 -175.755281 
L 898.447593 -180.369825 
L 899.329561 -184.98437 
L 899.888752 -189.598915 
L 900.320066 -194.213459 
L 900.703818 -198.828004 
L 901.08343 -203.442549 
L 901.408538 -208.057093 
L 901.580199 -212.671638 
L 901.822883 -217.286182 
L 901.939457 -221.900727 
L 901.989449 -226.515272 
L 902.142573 -231.129816 
L 902.226808 -235.744361 
L 902.300421 -240.358906 
L 902.360877 -244.97345 
L 902.414232 -249.587995 
L 902.465107 -254.20254 
L 902.511979 -258.817084 
L 902.55071 -263.431629 
L 902.57261 -268.046173 
L 902.598486 -272.660718 
L 902.621735 -277.275263 
L 902.6504 -281.889807 
L 902.645812 -286.504352 
L 902.662058 -291.118897 
L 902.667641 -295.733441 
L 902.682691 -300.347986 
L 902.685312 -304.96253 
L 902.681336 -309.577075 
L 902.691575 -314.19162 
L 902.695573 -318.806164 
L 902.696671 -323.420709 
L 902.703372 -328.035254 
L 902.705211 -332.649798 
L 902.706492 -337.264343 
L 902.706851 -341.878888 
L 902.707992 -346.493432 
L 902.706337 -351.107977 
L 902.709098 -355.722521 
L 902.710073 -360.337066 
L 902.709507 -364.951611 
L 902.711753 -369.566155 
L 902.710635 -374.1807 
L 902.710209 -378.795245 
L 902.710964 -383.409789 
L 902.710115 -388.024334 
L 902.711934 -392.638878 
L 902.712623 -397.253423 
L 902.712518 -401.867968 
L 902.713772 -406.482512 
L 902.71224 -411.097057 
L 902.712512 -415.711602 
L 902.713169 -420.326146 
L 902.71308 -424.940691 
L 902.713014 -429.555236 
L 902.71247 -434.16978 
L 902.712601 -438.784325 
L 902.713729 -443.398869 
L 902.713999 -448.013414 
L 902.714 -452.627959 
L 902.714 -457.242503 
L 902.714 -461.857048 
L 902.714 -466.471593 
L 902.714 -471.086137 
L 902.714 -475.700682 
L 902.714 -480.315226 
L 902.714 -484.929771 
L 902.714 -489.544316 
L 902.713996 -494.15886 
L 902.713566 -498.773405 
L 902.713442 -503.38795 
L 902.71399 -508.002494 
L 902.713699 -512.617039 
L 902.713304 -517.231583 
L 902.713981 -521.846128 
L 902.714 -526.460673 
L 902.713924 -531.075217 
L 902.713143 -535.689762 
L 902.713883 -540.304307 
L 902.714117 -540.304307 
L 902.714117 -540.304307 
L 902.714857 -535.689762 
L 902.714076 -531.075217 
L 902.714 -526.460673 
L 902.714019 -521.846128 
L 902.714696 -517.231583 
L 902.714301 -512.617039 
L 902.71401 -508.002494 
L 902.714558 -503.38795 
L 902.714434 -498.773405 
L 902.714004 -494.15886 
L 902.714 -489.544316 
L 902.714 -484.929771 
L 902.714 -480.315226 
L 902.714 -475.700682 
L 902.714 -471.086137 
L 902.714 -466.471593 
L 902.714 -461.857048 
L 902.714 -457.242503 
L 902.714 -452.627959 
L 902.714001 -448.013414 
L 902.714271 -443.398869 
L 902.715399 -438.784325 
L 902.71553 -434.16978 
L 902.714986 -429.555236 
L 902.71492 -424.940691 
L 902.714831 -420.326146 
L 902.715488 -415.711602 
L 902.71576 -411.097057 
L 902.714228 -406.482512 
L 902.715482 -401.867968 
L 902.715377 -397.253423 
L 902.716066 -392.638878 
L 902.717885 -388.024334 
L 902.717036 -383.409789 
L 902.717791 -378.795245 
L 902.717365 -374.1807 
L 902.716247 -369.566155 
L 902.718493 -364.951611 
L 902.717927 -360.337066 
L 902.718902 -355.722521 
L 902.721663 -351.107977 
L 902.720008 -346.493432 
L 902.721149 -341.878888 
L 902.721508 -337.264343 
L 902.722789 -332.649798 
L 902.724628 -328.035254 
L 902.731329 -323.420709 
L 902.732427 -318.806164 
L 902.736425 -314.19162 
L 902.746664 -309.577075 
L 902.742688 -304.96253 
L 902.745309 -300.347986 
L 902.760359 -295.733441 
L 902.765942 -291.118897 
L 902.782188 -286.504352 
L 902.7776 -281.889807 
L 902.806265 -277.275263 
L 902.829514 -272.660718 
L 902.85539 -268.046173 
L 902.87729 -263.431629 
L 902.916021 -258.817084 
L 902.962893 -254.20254 
L 903.013768 -249.587995 
L 903.067123 -244.97345 
L 903.127579 -240.358906 
L 903.201192 -235.744361 
L 903.285427 -231.129816 
L 903.438551 -226.515272 
L 903.488543 -221.900727 
L 903.605117 -217.286182 
L 903.847801 -212.671638 
L 904.019462 -208.057093 
L 904.34457 -203.442549 
L 904.724182 -198.828004 
L 905.107934 -194.213459 
L 905.539248 -189.598915 
L 906.098439 -184.98437 
L 906.980407 -180.369825 
L 908.165075 -175.755281 
L 909.172096 -171.140736 
L 910.058154 -166.526192 
L 911.305107 -161.911647 
L 912.346387 -157.297102 
L 912.683786 -152.682558 
L 913.2736 -148.068013 
L 914.120127 -143.453468 
L 914.941263 -138.838924 
L 916.830859 -134.224379 
L 919.365359 -129.609834 
L 923.004061 -124.99529 
L 928.767111 -120.380745 
L 936.858203 -115.766201 
L 946.869202 -111.151656 
L 956.426631 -106.537111 
L 956.137349 -101.922567 
L 940.836685 -97.308022 
L 915.919686 -92.693477 
L 903.323829 -88.078933 
L 902.714959 -83.464388 
z
" style="stroke: #3d3d3d; stroke-width: 1.25"/>
    </defs>
    <g clip-path="url(#p299bca07cc)">
     <use xlink:href="#mb1a9a20663" x="0" y="576" style="fill: #9372b2; stroke: #3d3d3d; stroke-width: 1.25"/>
    </g>
   </g>
   <g id="line2d_89">
    <path d="M 71.993088 477.586312 
L 221.658912 477.586312 
" clip-path="url(#p299bca07cc)" style="fill: none; stroke-dasharray: 2.34375,2.34375; stroke-dashoffset: 0; stroke: #3d3d3d; stroke-width: 1.25"/>
   </g>
   <g id="line2d_90">
    <path d="M 112.470516 468.78599 
L 181.181484 468.78599 
" clip-path="url(#p299bca07cc)" style="fill: none; stroke-dasharray: 4.6875,4.6875; stroke-dashoffset: 0; stroke: #3d3d3d; stroke-width: 1.25"/>
   </g>
   <g id="line2d_91">
    <path d="M 137.353374 438.362021 
L 156.298626 438.362021 
" clip-path="url(#p299bca07cc)" style="fill: none; stroke-dasharray: 2.34375,2.34375; stroke-dashoffset: 0; stroke: #3d3d3d; stroke-width: 1.25"/>
   </g>
   <g id="line2d_92">
    <path d="M 294.480327 465.328721 
L 377.115673 465.328721 
" clip-path="url(#p299bca07cc)" style="fill: none; stroke-dasharray: 2.34375,2.34375; stroke-dashoffset: 0; stroke: #3d3d3d; stroke-width: 1.25"/>
   </g>
   <g id="line2d_93">
    <path d="M 308.75549 452.442536 
L 362.84051 452.442536 
" clip-path="url(#p299bca07cc)" style="fill: none; stroke-dasharray: 4.6875,4.6875; stroke-dashoffset: 0; stroke: #3d3d3d; stroke-width: 1.25"/>
   </g>
   <g id="line2d_94">
    <path d="M 328.459205 413.469683 
L 343.136795 413.469683 
" clip-path="url(#p299bca07cc)" style="fill: none; stroke-dasharray: 2.34375,2.34375; stroke-dashoffset: 0; stroke: #3d3d3d; stroke-width: 1.25"/>
   </g>
   <g id="line2d_95">
    <path d="M 487.211177 452.442536 
L 562.328823 452.442536 
" clip-path="url(#p299bca07cc)" style="fill: none; stroke-dasharray: 2.34375,2.34375; stroke-dashoffset: 0; stroke: #3d3d3d; stroke-width: 1.25"/>
   </g>
   <g id="line2d_96">
    <path d="M 495.184691 438.362021 
L 554.355309 438.362021 
" clip-path="url(#p299bca07cc)" style="fill: none; stroke-dasharray: 4.6875,4.6875; stroke-dashoffset: 0; stroke: #3d3d3d; stroke-width: 1.25"/>
   </g>
   <g id="line2d_97">
    <path d="M 512.987005 414.533458 
L 536.552995 414.533458 
" clip-path="url(#p299bca07cc)" style="fill: none; stroke-dasharray: 2.34375,2.34375; stroke-dashoffset: 0; stroke: #3d3d3d; stroke-width: 1.25"/>
   </g>
   <g id="line2d_98">
    <path d="M 652.335521 468.78599 
L 775.148479 468.78599 
" clip-path="url(#p299bca07cc)" style="fill: none; stroke-dasharray: 2.34375,2.34375; stroke-dashoffset: 0; stroke: #3d3d3d; stroke-width: 1.25"/>
   </g>
   <g id="line2d_99">
    <path d="M 668.288878 460.488544 
L 759.195122 460.488544 
" clip-path="url(#p299bca07cc)" style="fill: none; stroke-dasharray: 4.6875,4.6875; stroke-dashoffset: 0; stroke: #3d3d3d; stroke-width: 1.25"/>
   </g>
   <g id="line2d_100">
    <path d="M 694.395175 445.645335 
L 733.088825 445.645335 
" clip-path="url(#p299bca07cc)" style="fill: none; stroke-dasharray: 2.34375,2.34375; stroke-dashoffset: 0; stroke: #3d3d3d; stroke-width: 1.25"/>
   </g>
   <g id="line2d_101">
    <path d="M 849.538496 471.551806 
L 955.889504 471.551806 
" clip-path="url(#p299bca07cc)" style="fill: none; stroke-dasharray: 2.34375,2.34375; stroke-dashoffset: 0; stroke: #3d3d3d; stroke-width: 1.25"/>
   </g>
   <g id="line2d_102">
    <path d="M 868.911239 461.871452 
L 936.516761 461.871452 
" clip-path="url(#p299bca07cc)" style="fill: none; stroke-dasharray: 4.6875,4.6875; stroke-dashoffset: 0; stroke: #3d3d3d; stroke-width: 1.25"/>
   </g>
   <g id="line2d_103">
    <path d="M 890.60901 439.152254 
L 914.81899 439.152254 
" clip-path="url(#p299bca07cc)" style="fill: none; stroke-dasharray: 2.34375,2.34375; stroke-dashoffset: 0; stroke: #3d3d3d; stroke-width: 1.25"/>
   </g>
   <g id="patch_3">
    <path d="M 52.34 519.34 
L 52.34 10.8 
" style="fill: none; stroke: #ffffff; stroke-width: 1.2; stroke-linejoin: miter; stroke-linecap: square"/>
   </g>
   <g id="patch_4">
    <path d="M 997.2 519.34 
L 997.2 10.8 
" style="fill: none; stroke: #ffffff; stroke-width: 1.2; stroke-linejoin: miter; stroke-linecap: square"/>
   </g>
   <g id="patch_5">
    <path d="M 52.34 519.34 
L 997.2 519.34 
" style="fill: none; stroke: #ffffff; stroke-width: 1.2; stroke-linejoin: miter; stroke-linecap: square"/>
   </g>
   <g id="patch_6">
    <path d="M 52.34 10.8 
L 997.2 10.8 
" style="fill: none; stroke: #ffffff; stroke-width: 1.2; stroke-linejoin: miter; stroke-linecap: square"/>
   </g>
  </g>
 </g>
 <defs>
  <clipPath id="p299bca07cc">
   <rect x="52.34" y="10.8" width="944.86" height="508.54"/>
  </clipPath>
 </defs>
</svg>
