<?xml version="1.0" encoding="utf-8" standalone="no"?>
<!DOCTYPE svg PUBLIC "-//W3C//DTD SVG 1.1//EN"
  "http://www.w3.org/Graphics/SVG/1.1/DTD/svg11.dtd">
<svg xmlns:xlink="http://www.w3.org/1999/xlink" width="1008pt" height="576pt" viewBox="0 0 1008 576" xmlns="http://www.w3.org/2000/svg" version="1.1">
 <metadata>
  <rdf:RDF xmlns:dc="http://purl.org/dc/elements/1.1/" xmlns:cc="http://creativecommons.org/ns#" xmlns:rdf="http://www.w3.org/1999/02/22-rdf-syntax-ns#">
   <cc:Work>
    <dc:type rdf:resource="http://purl.org/dc/dcmitype/StillImage"/>
    <dc:date>2024-06-14T13:53:22.395305</dc:date>
    <dc:format>image/svg+xml</dc:format>
    <dc:creator>
     <cc:Agent>
      <dc:title>Matplotlib v3.6.3, https://matplotlib.org/</dc:title>
     </cc:Agent>
    </dc:creator>
   </cc:Work>
  </rdf:RDF>
 </metadata>
 <defs>
  <style type="text/css">*{stroke-linejoin: round; stroke-linecap: butt}</style>
 </defs>
 <g id="figure_1">
  <g id="patch_1">
   <path d="M 0 576 
L 1008 576 
L 1008 0 
L 0 0 
z
" style="fill: #ffffff"/>
  </g>
  <g id="axes_1">
   <g id="patch_2">
    <path d="M 64.04 519.34 
L 997.2 519.34 
L 997.2 10.8 
L 64.04 10.8 
z
" style="fill: #ffffff"/>
   </g>
   <g id="matplotlib.axis_1">
    <g id="xtick_1">
     <g id="line2d_1">
      <path d="M 157.356 519.34 
L 157.356 10.8 
" clip-path="url(#p444ce2a806)" style="fill: none; stroke-dasharray: 2.22,0.96; stroke-dashoffset: 0; stroke: #808080; stroke-opacity: 0.6; stroke-width: 0.6"/>
     </g>
     <g id="line2d_2"/>
     <g id="text_1">
      <!-- HelBERT -->
      <g style="fill: #262626" transform="translate(127.408031 532.985625) scale(0.14 -0.14)">
       <defs>
        <path id="LiberationSans-Bold-48" d="M 3269 0 
L 3269 1888 
L 1350 1888 
L 1350 0 
L 428 0 
L 428 4403 
L 1350 4403 
L 1350 2650 
L 3269 2650 
L 3269 4403 
L 4191 4403 
L 4191 0 
L 3269 0 
z
" transform="scale(0.015625)"/>
        <path id="LiberationSans-Bold-65" d="M 1831 -63 
Q 1466 -63 1173 45 
Q 881 153 675 373 
Q 469 594 359 926 
Q 250 1259 250 1706 
Q 250 2191 379 2522 
Q 509 2853 729 3058 
Q 950 3263 1237 3353 
Q 1525 3444 1844 3444 
Q 2244 3444 2526 3305 
Q 2809 3166 2990 2916 
Q 3172 2666 3256 2317 
Q 3341 1969 3341 1547 
L 3341 1522 
L 1172 1522 
Q 1172 1309 1209 1126 
Q 1247 944 1331 811 
Q 1416 678 1550 601 
Q 1684 525 1875 525 
Q 2106 525 2253 623 
Q 2400 722 2463 928 
L 3291 856 
Q 3234 713 3132 550 
Q 3031 388 2862 252 
Q 2694 116 2442 26 
Q 2191 -63 1831 -63 
z
M 1831 2891 
Q 1697 2891 1580 2845 
Q 1463 2800 1377 2701 
Q 1291 2603 1237 2447 
Q 1184 2291 1178 2072 
L 2491 2072 
Q 2466 2481 2294 2686 
Q 2122 2891 1831 2891 
z
" transform="scale(0.015625)"/>
        <path id="LiberationSans-Bold-6c" d="M 447 0 
L 447 4638 
L 1325 4638 
L 1325 0 
L 447 0 
z
" transform="scale(0.015625)"/>
        <path id="LiberationSans-Bold-42" d="M 4331 1256 
Q 4331 922 4197 683 
Q 4063 444 3830 292 
Q 3597 141 3287 70 
Q 2978 0 2631 0 
L 428 0 
L 428 4403 
L 2444 4403 
Q 2834 4403 3139 4336 
Q 3444 4269 3653 4131 
Q 3863 3994 3970 3786 
Q 4078 3578 4078 3297 
Q 4078 2922 3870 2664 
Q 3663 2406 3238 2316 
Q 3772 2253 4051 1979 
Q 4331 1706 4331 1256 
z
M 3150 3172 
Q 3150 3469 2961 3594 
Q 2772 3719 2400 3719 
L 1350 3719 
L 1350 2628 
L 2406 2628 
Q 2797 2628 2973 2764 
Q 3150 2900 3150 3172 
z
M 3406 1328 
Q 3406 1503 3337 1622 
Q 3269 1741 3148 1812 
Q 3028 1884 2867 1915 
Q 2706 1947 2519 1947 
L 1350 1947 
L 1350 684 
L 2553 684 
Q 2734 684 2890 714 
Q 3047 744 3161 817 
Q 3275 891 3340 1016 
Q 3406 1141 3406 1328 
z
" transform="scale(0.015625)"/>
        <path id="LiberationSans-Bold-45" d="M 428 0 
L 428 4403 
L 3891 4403 
L 3891 3691 
L 1350 3691 
L 1350 2584 
L 3700 2584 
L 3700 1872 
L 1350 1872 
L 1350 713 
L 4019 713 
L 4019 0 
L 428 0 
z
" transform="scale(0.015625)"/>
        <path id="LiberationSans-Bold-52" d="M 3453 0 
L 2431 1672 
L 1350 1672 
L 1350 0 
L 428 0 
L 428 4403 
L 2628 4403 
Q 3041 4403 3348 4311 
Q 3656 4219 3862 4048 
Q 4069 3878 4170 3636 
Q 4272 3394 4272 3091 
Q 4272 2844 4198 2639 
Q 4125 2434 3995 2275 
Q 3866 2116 3687 2008 
Q 3509 1900 3300 1850 
L 4491 0 
L 3453 0 
z
M 3344 3053 
Q 3344 3375 3133 3531 
Q 2922 3688 2531 3688 
L 1350 3688 
L 1350 2388 
L 2556 2388 
Q 2763 2388 2911 2436 
Q 3059 2484 3154 2573 
Q 3250 2663 3297 2784 
Q 3344 2906 3344 3053 
z
" transform="scale(0.015625)"/>
        <path id="LiberationSans-Bold-54" d="M 2416 3691 
L 2416 0 
L 1494 0 
L 1494 3691 
L 72 3691 
L 72 4403 
L 3841 4403 
L 3841 3691 
L 2416 3691 
z
" transform="scale(0.015625)"/>
       </defs>
       <use xlink:href="#LiberationSans-Bold-48"/>
       <use xlink:href="#LiberationSans-Bold-65" x="72.216797"/>
       <use xlink:href="#LiberationSans-Bold-6c" x="127.832031"/>
       <use xlink:href="#LiberationSans-Bold-42" x="155.615234"/>
       <use xlink:href="#LiberationSans-Bold-45" x="227.832031"/>
       <use xlink:href="#LiberationSans-Bold-52" x="294.53125"/>
       <use xlink:href="#LiberationSans-Bold-54" x="366.748047"/>
      </g>
     </g>
    </g>
    <g id="xtick_2">
     <g id="line2d_3">
      <path d="M 343.988 519.34 
L 343.988 10.8 
" clip-path="url(#p444ce2a806)" style="fill: none; stroke-dasharray: 2.22,0.96; stroke-dashoffset: 0; stroke: #808080; stroke-opacity: 0.6; stroke-width: 0.6"/>
     </g>
     <g id="line2d_4"/>
     <g id="text_2">
      <!-- BERTimbau -->
      <g style="fill: #262626" transform="translate(304.442375 532.985625) scale(0.14 -0.14)">
       <defs>
        <path id="LiberationSans-Bold-69" d="M 447 3991 
L 447 4638 
L 1325 4638 
L 1325 3991 
L 447 3991 
z
M 447 0 
L 447 3381 
L 1325 3381 
L 1325 0 
L 447 0 
z
" transform="scale(0.015625)"/>
        <path id="LiberationSans-Bold-6d" d="M 2438 0 
L 2438 1897 
Q 2438 2094 2411 2258 
Q 2384 2422 2323 2539 
Q 2263 2656 2164 2722 
Q 2066 2788 1925 2788 
Q 1791 2788 1681 2717 
Q 1572 2647 1492 2517 
Q 1413 2388 1369 2208 
Q 1325 2028 1325 1813 
L 1325 0 
L 447 0 
L 447 2625 
Q 447 2734 445 2850 
Q 444 2966 439 3070 
Q 434 3175 431 3258 
Q 428 3341 422 3381 
L 1259 3381 
Q 1266 3344 1272 3261 
Q 1278 3178 1284 3078 
Q 1291 2978 1295 2878 
Q 1300 2778 1300 2709 
L 1313 2709 
Q 1475 3097 1717 3272 
Q 1959 3447 2297 3447 
Q 2684 3447 2920 3258 
Q 3156 3069 3238 2709 
L 3256 2709 
Q 3347 2919 3451 3059 
Q 3556 3200 3682 3286 
Q 3809 3372 3957 3409 
Q 4106 3447 4281 3447 
Q 4559 3447 4751 3347 
Q 4944 3247 5064 3072 
Q 5184 2897 5239 2659 
Q 5294 2422 5294 2147 
L 5294 0 
L 4422 0 
L 4422 1897 
Q 4422 2094 4395 2258 
Q 4369 2422 4308 2539 
Q 4247 2656 4148 2722 
Q 4050 2788 3909 2788 
Q 3778 2788 3670 2720 
Q 3563 2653 3483 2529 
Q 3403 2406 3359 2234 
Q 3316 2063 3309 1853 
L 3309 0 
L 2438 0 
z
" transform="scale(0.015625)"/>
        <path id="LiberationSans-Bold-62" d="M 3647 1703 
Q 3647 1319 3570 995 
Q 3494 672 3334 436 
Q 3175 200 2929 68 
Q 2684 -63 2350 -63 
Q 2200 -63 2050 -31 
Q 1900 0 1765 72 
Q 1631 144 1518 259 
Q 1406 375 1325 544 
L 1319 544 
Q 1319 478 1314 393 
Q 1309 309 1303 229 
Q 1297 150 1289 87 
Q 1281 25 1275 0 
L 422 0 
Q 431 109 439 311 
Q 447 513 447 772 
L 447 4638 
L 1325 4638 
L 1325 3344 
Q 1325 3244 1323 3148 
Q 1322 3053 1319 2972 
Q 1316 2878 1313 2794 
L 1325 2794 
Q 1484 3144 1762 3294 
Q 2041 3444 2406 3444 
Q 2731 3444 2965 3314 
Q 3200 3184 3351 2951 
Q 3503 2719 3575 2400 
Q 3647 2081 3647 1703 
z
M 2731 1703 
Q 2731 2278 2562 2556 
Q 2394 2834 2041 2834 
Q 1906 2834 1775 2781 
Q 1644 2728 1541 2595 
Q 1438 2463 1375 2239 
Q 1313 2016 1313 1675 
Q 1313 1344 1375 1125 
Q 1438 906 1538 775 
Q 1638 644 1769 591 
Q 1900 538 2034 538 
Q 2369 538 2550 814 
Q 2731 1091 2731 1703 
z
" transform="scale(0.015625)"/>
        <path id="LiberationSans-Bold-61" d="M 1228 -63 
Q 984 -63 792 4 
Q 600 72 465 201 
Q 331 331 259 522 
Q 188 713 188 956 
Q 188 1256 292 1461 
Q 397 1666 578 1792 
Q 759 1919 1003 1976 
Q 1247 2034 1522 2038 
L 2250 2050 
L 2250 2222 
Q 2250 2406 2217 2529 
Q 2184 2653 2121 2731 
Q 2059 2809 1967 2842 
Q 1875 2875 1756 2875 
Q 1647 2875 1561 2853 
Q 1475 2831 1412 2776 
Q 1350 2722 1311 2630 
Q 1272 2538 1256 2397 
L 341 2441 
Q 378 2663 478 2845 
Q 578 3028 754 3162 
Q 931 3297 1189 3370 
Q 1447 3444 1794 3444 
Q 2109 3444 2356 3366 
Q 2603 3288 2775 3133 
Q 2947 2978 3037 2753 
Q 3128 2528 3128 2231 
L 3128 1000 
Q 3128 881 3139 787 
Q 3150 694 3179 630 
Q 3209 566 3264 533 
Q 3319 500 3406 500 
Q 3506 500 3600 519 
L 3600 44 
Q 3522 25 3459 9 
Q 3397 -6 3334 -15 
Q 3272 -25 3201 -31 
Q 3131 -38 3038 -38 
Q 2706 -38 2548 125 
Q 2391 288 2359 603 
L 2341 603 
Q 2166 288 1892 112 
Q 1619 -63 1228 -63 
z
M 2250 1566 
L 1800 1559 
Q 1659 1553 1532 1536 
Q 1406 1519 1311 1464 
Q 1216 1409 1159 1306 
Q 1103 1203 1103 1025 
Q 1103 784 1214 667 
Q 1325 550 1509 550 
Q 1678 550 1815 622 
Q 1953 694 2048 811 
Q 2144 928 2197 1081 
Q 2250 1234 2250 1394 
L 2250 1566 
z
" transform="scale(0.015625)"/>
        <path id="LiberationSans-Bold-75" d="M 1275 3381 
L 1275 1484 
Q 1275 1288 1306 1123 
Q 1338 959 1409 842 
Q 1481 725 1595 659 
Q 1709 594 1875 594 
Q 2034 594 2164 664 
Q 2294 734 2387 864 
Q 2481 994 2532 1173 
Q 2584 1353 2584 1569 
L 2584 3381 
L 3463 3381 
L 3463 756 
Q 3463 650 3464 533 
Q 3466 416 3470 311 
Q 3475 206 3479 123 
Q 3484 41 3488 0 
L 2650 0 
Q 2647 38 2639 120 
Q 2631 203 2626 303 
Q 2622 403 2617 503 
Q 2613 603 2613 672 
L 2597 672 
Q 2422 288 2151 112 
Q 1881 -63 1509 -63 
Q 1206 -63 993 37 
Q 781 138 648 311 
Q 516 484 456 721 
Q 397 959 397 1234 
L 397 3381 
L 1275 3381 
z
" transform="scale(0.015625)"/>
       </defs>
       <use xlink:href="#LiberationSans-Bold-42"/>
       <use xlink:href="#LiberationSans-Bold-45" x="72.216797"/>
       <use xlink:href="#LiberationSans-Bold-52" x="138.916016"/>
       <use xlink:href="#LiberationSans-Bold-54" x="211.132812"/>
       <use xlink:href="#LiberationSans-Bold-69" x="270.466797"/>
       <use xlink:href="#LiberationSans-Bold-6d" x="298.25"/>
       <use xlink:href="#LiberationSans-Bold-62" x="387.166016"/>
       <use xlink:href="#LiberationSans-Bold-61" x="448.25"/>
       <use xlink:href="#LiberationSans-Bold-75" x="503.865234"/>
      </g>
     </g>
    </g>
    <g id="xtick_3">
     <g id="line2d_5">
      <path d="M 530.62 519.34 
L 530.62 10.8 
" clip-path="url(#p444ce2a806)" style="fill: none; stroke-dasharray: 2.22,0.96; stroke-dashoffset: 0; stroke: #808080; stroke-opacity: 0.6; stroke-width: 0.6"/>
     </g>
     <g id="line2d_6"/>
     <g id="text_3">
      <!-- mBERT -->
      <g style="fill: #262626" transform="translate(505.340156 532.985625) scale(0.14 -0.14)">
       <use xlink:href="#LiberationSans-Bold-6d"/>
       <use xlink:href="#LiberationSans-Bold-42" x="88.916016"/>
       <use xlink:href="#LiberationSans-Bold-45" x="161.132812"/>
       <use xlink:href="#LiberationSans-Bold-52" x="227.832031"/>
       <use xlink:href="#LiberationSans-Bold-54" x="300.048828"/>
      </g>
     </g>
    </g>
    <g id="xtick_4">
     <g id="line2d_7">
      <path d="M 717.252 519.34 
L 717.252 10.8 
" clip-path="url(#p444ce2a806)" style="fill: none; stroke-dasharray: 2.22,0.96; stroke-dashoffset: 0; stroke: #808080; stroke-opacity: 0.6; stroke-width: 0.6"/>
     </g>
     <g id="line2d_8"/>
     <g id="text_4">
      <!-- JurisBERT -->
      <g style="fill: #262626" transform="translate(681.466688 532.985625) scale(0.14 -0.14)">
       <defs>
        <path id="LiberationSans-Bold-4a" d="M 1638 -63 
Q 1306 -63 1047 6 
Q 788 75 597 225 
Q 406 375 282 614 
Q 159 853 97 1194 
L 1013 1328 
Q 1044 1144 1100 1017 
Q 1156 891 1236 811 
Q 1316 731 1419 695 
Q 1522 659 1644 659 
Q 1919 659 2061 843 
Q 2203 1028 2203 1372 
L 2203 3681 
L 1325 3681 
L 1325 4403 
L 3122 4403 
L 3122 1394 
Q 3122 1059 3025 789 
Q 2928 519 2739 330 
Q 2550 141 2273 39 
Q 1997 -63 1638 -63 
z
" transform="scale(0.015625)"/>
        <path id="LiberationSans-Bold-72" d="M 447 0 
L 447 2588 
Q 447 2697 445 2819 
Q 444 2941 439 3052 
Q 434 3163 431 3252 
Q 428 3341 422 3381 
L 1259 3381 
Q 1266 3344 1272 3251 
Q 1278 3159 1284 3050 
Q 1291 2941 1295 2833 
Q 1300 2725 1300 2659 
L 1313 2659 
Q 1378 2844 1443 2989 
Q 1509 3134 1598 3236 
Q 1688 3338 1813 3392 
Q 1938 3447 2122 3447 
Q 2200 3447 2276 3433 
Q 2353 3419 2394 3400 
L 2394 2666 
Q 2309 2684 2223 2698 
Q 2138 2713 2019 2713 
Q 1691 2713 1508 2447 
Q 1325 2181 1325 1659 
L 1325 0 
L 447 0 
z
" transform="scale(0.015625)"/>
        <path id="LiberationSans-Bold-73" d="M 3297 988 
Q 3297 744 3195 550 
Q 3094 356 2900 220 
Q 2706 84 2425 10 
Q 2144 -63 1784 -63 
Q 1463 -63 1203 -16 
Q 944 31 748 139 
Q 553 247 422 419 
Q 291 591 225 844 
L 997 959 
Q 1034 819 1100 731 
Q 1166 644 1262 597 
Q 1359 550 1489 534 
Q 1619 519 1784 519 
Q 1934 519 2064 536 
Q 2194 553 2289 595 
Q 2384 638 2437 714 
Q 2491 791 2491 906 
Q 2491 1038 2414 1114 
Q 2338 1191 2205 1239 
Q 2072 1288 1892 1323 
Q 1713 1359 1509 1406 
Q 1297 1453 1090 1518 
Q 884 1584 721 1696 
Q 559 1809 459 1982 
Q 359 2156 359 2422 
Q 359 2663 453 2852 
Q 547 3041 728 3173 
Q 909 3306 1176 3376 
Q 1444 3447 1791 3447 
Q 2066 3447 2303 3395 
Q 2541 3344 2728 3233 
Q 2916 3122 3042 2950 
Q 3169 2778 3219 2534 
L 2441 2453 
Q 2419 2575 2362 2654 
Q 2306 2734 2223 2781 
Q 2141 2828 2031 2845 
Q 1922 2863 1791 2863 
Q 1478 2863 1322 2783 
Q 1166 2703 1166 2516 
Q 1166 2400 1230 2331 
Q 1294 2263 1411 2217 
Q 1528 2172 1689 2139 
Q 1850 2106 2041 2059 
Q 2275 2009 2501 1942 
Q 2728 1875 2904 1758 
Q 3081 1641 3189 1456 
Q 3297 1272 3297 988 
z
" transform="scale(0.015625)"/>
       </defs>
       <use xlink:href="#LiberationSans-Bold-4a"/>
       <use xlink:href="#LiberationSans-Bold-75" x="55.615234"/>
       <use xlink:href="#LiberationSans-Bold-72" x="116.699219"/>
       <use xlink:href="#LiberationSans-Bold-69" x="155.615234"/>
       <use xlink:href="#LiberationSans-Bold-73" x="183.398438"/>
       <use xlink:href="#LiberationSans-Bold-42" x="239.013672"/>
       <use xlink:href="#LiberationSans-Bold-45" x="311.230469"/>
       <use xlink:href="#LiberationSans-Bold-52" x="377.929688"/>
       <use xlink:href="#LiberationSans-Bold-54" x="450.146484"/>
      </g>
     </g>
    </g>
    <g id="xtick_5">
     <g id="line2d_9">
      <path d="M 903.884 519.34 
L 903.884 10.8 
" clip-path="url(#p444ce2a806)" style="fill: none; stroke-dasharray: 2.22,0.96; stroke-dashoffset: 0; stroke: #808080; stroke-opacity: 0.6; stroke-width: 0.6"/>
     </g>
     <g id="line2d_10"/>
     <g id="text_5">
      <!-- LegalBERT -->
      <g style="fill: #262626" transform="translate(866.54775 532.985625) scale(0.14 -0.14)">
       <defs>
        <path id="LiberationSans-Bold-4c" d="M 428 0 
L 428 4403 
L 1350 4403 
L 1350 713 
L 3713 713 
L 3713 0 
L 428 0 
z
" transform="scale(0.015625)"/>
        <path id="LiberationSans-Bold-67" d="M 1863 -1356 
Q 1528 -1356 1273 -1289 
Q 1019 -1222 839 -1101 
Q 659 -981 551 -814 
Q 444 -647 403 -447 
L 1281 -344 
Q 1328 -547 1483 -662 
Q 1638 -778 1888 -778 
Q 2044 -778 2173 -734 
Q 2303 -691 2395 -586 
Q 2488 -481 2539 -309 
Q 2591 -138 2591 116 
Q 2591 203 2591 293 
Q 2591 384 2594 459 
Q 2597 547 2597 628 
L 2591 628 
Q 2438 300 2161 153 
Q 1884 6 1503 6 
Q 1181 6 948 132 
Q 716 259 562 486 
Q 409 713 336 1027 
Q 263 1341 263 1719 
Q 263 2109 341 2426 
Q 419 2744 580 2972 
Q 741 3200 986 3323 
Q 1231 3447 1569 3447 
Q 1906 3447 2173 3303 
Q 2441 3159 2591 2838 
L 2606 2838 
Q 2606 2903 2611 2989 
Q 2616 3075 2622 3154 
Q 2628 3234 2636 3296 
Q 2644 3359 2650 3381 
L 3481 3381 
Q 3475 3269 3469 3066 
Q 3463 2863 3463 2600 
L 3463 103 
Q 3463 -266 3356 -539 
Q 3250 -813 3045 -994 
Q 2841 -1175 2542 -1265 
Q 2244 -1356 1863 -1356 
z
M 2597 1738 
Q 2597 2056 2534 2268 
Q 2472 2481 2372 2609 
Q 2272 2738 2142 2791 
Q 2013 2844 1881 2844 
Q 1713 2844 1583 2778 
Q 1453 2713 1362 2575 
Q 1272 2438 1225 2225 
Q 1178 2013 1178 1719 
Q 1178 1172 1353 894 
Q 1528 616 1875 616 
Q 2006 616 2136 667 
Q 2266 719 2369 848 
Q 2472 978 2534 1193 
Q 2597 1409 2597 1738 
z
" transform="scale(0.015625)"/>
       </defs>
       <use xlink:href="#LiberationSans-Bold-4c"/>
       <use xlink:href="#LiberationSans-Bold-65" x="61.083984"/>
       <use xlink:href="#LiberationSans-Bold-67" x="116.699219"/>
       <use xlink:href="#LiberationSans-Bold-61" x="177.783203"/>
       <use xlink:href="#LiberationSans-Bold-6c" x="233.398438"/>
       <use xlink:href="#LiberationSans-Bold-42" x="261.181641"/>
       <use xlink:href="#LiberationSans-Bold-45" x="333.398438"/>
       <use xlink:href="#LiberationSans-Bold-52" x="400.097656"/>
       <use xlink:href="#LiberationSans-Bold-54" x="472.314453"/>
      </g>
     </g>
    </g>
    <g id="xtick_6">
     <g id="line2d_11">
      <path d="M 82.7032 519.34 
L 82.7032 10.8 
" clip-path="url(#p444ce2a806)" style="fill: none; stroke-dasharray: 0.4,0.66; stroke-dashoffset: 0; stroke: #808080; stroke-opacity: 0.4; stroke-width: 0.4"/>
     </g>
     <g id="line2d_12"/>
    </g>
    <g id="xtick_7">
     <g id="line2d_13">
      <path d="M 120.0296 519.34 
L 120.0296 10.8 
" clip-path="url(#p444ce2a806)" style="fill: none; stroke-dasharray: 0.4,0.66; stroke-dashoffset: 0; stroke: #808080; stroke-opacity: 0.4; stroke-width: 0.4"/>
     </g>
     <g id="line2d_14"/>
    </g>
    <g id="xtick_8">
     <g id="line2d_15">
      <path d="M 194.6824 519.34 
L 194.6824 10.8 
" clip-path="url(#p444ce2a806)" style="fill: none; stroke-dasharray: 0.4,0.66; stroke-dashoffset: 0; stroke: #808080; stroke-opacity: 0.4; stroke-width: 0.4"/>
     </g>
     <g id="line2d_16"/>
    </g>
    <g id="xtick_9">
     <g id="line2d_17">
      <path d="M 232.0088 519.34 
L 232.0088 10.8 
" clip-path="url(#p444ce2a806)" style="fill: none; stroke-dasharray: 0.4,0.66; stroke-dashoffset: 0; stroke: #808080; stroke-opacity: 0.4; stroke-width: 0.4"/>
     </g>
     <g id="line2d_18"/>
    </g>
    <g id="xtick_10">
     <g id="line2d_19">
      <path d="M 269.3352 519.34 
L 269.3352 10.8 
" clip-path="url(#p444ce2a806)" style="fill: none; stroke-dasharray: 0.4,0.66; stroke-dashoffset: 0; stroke: #808080; stroke-opacity: 0.4; stroke-width: 0.4"/>
     </g>
     <g id="line2d_20"/>
    </g>
    <g id="xtick_11">
     <g id="line2d_21">
      <path d="M 306.6616 519.34 
L 306.6616 10.8 
" clip-path="url(#p444ce2a806)" style="fill: none; stroke-dasharray: 0.4,0.66; stroke-dashoffset: 0; stroke: #808080; stroke-opacity: 0.4; stroke-width: 0.4"/>
     </g>
     <g id="line2d_22"/>
    </g>
    <g id="xtick_12">
     <g id="line2d_23">
      <path d="M 381.3144 519.34 
L 381.3144 10.8 
" clip-path="url(#p444ce2a806)" style="fill: none; stroke-dasharray: 0.4,0.66; stroke-dashoffset: 0; stroke: #808080; stroke-opacity: 0.4; stroke-width: 0.4"/>
     </g>
     <g id="line2d_24"/>
    </g>
    <g id="xtick_13">
     <g id="line2d_25">
      <path d="M 418.6408 519.34 
L 418.6408 10.8 
" clip-path="url(#p444ce2a806)" style="fill: none; stroke-dasharray: 0.4,0.66; stroke-dashoffset: 0; stroke: #808080; stroke-opacity: 0.4; stroke-width: 0.4"/>
     </g>
     <g id="line2d_26"/>
    </g>
    <g id="xtick_14">
     <g id="line2d_27">
      <path d="M 455.9672 519.34 
L 455.9672 10.8 
" clip-path="url(#p444ce2a806)" style="fill: none; stroke-dasharray: 0.4,0.66; stroke-dashoffset: 0; stroke: #808080; stroke-opacity: 0.4; stroke-width: 0.4"/>
     </g>
     <g id="line2d_28"/>
    </g>
    <g id="xtick_15">
     <g id="line2d_29">
      <path d="M 493.2936 519.34 
L 493.2936 10.8 
" clip-path="url(#p444ce2a806)" style="fill: none; stroke-dasharray: 0.4,0.66; stroke-dashoffset: 0; stroke: #808080; stroke-opacity: 0.4; stroke-width: 0.4"/>
     </g>
     <g id="line2d_30"/>
    </g>
    <g id="xtick_16">
     <g id="line2d_31">
      <path d="M 567.9464 519.34 
L 567.9464 10.8 
" clip-path="url(#p444ce2a806)" style="fill: none; stroke-dasharray: 0.4,0.66; stroke-dashoffset: 0; stroke: #808080; stroke-opacity: 0.4; stroke-width: 0.4"/>
     </g>
     <g id="line2d_32"/>
    </g>
    <g id="xtick_17">
     <g id="line2d_33">
      <path d="M 605.2728 519.34 
L 605.2728 10.8 
" clip-path="url(#p444ce2a806)" style="fill: none; stroke-dasharray: 0.4,0.66; stroke-dashoffset: 0; stroke: #808080; stroke-opacity: 0.4; stroke-width: 0.4"/>
     </g>
     <g id="line2d_34"/>
    </g>
    <g id="xtick_18">
     <g id="line2d_35">
      <path d="M 642.5992 519.34 
L 642.5992 10.8 
" clip-path="url(#p444ce2a806)" style="fill: none; stroke-dasharray: 0.4,0.66; stroke-dashoffset: 0; stroke: #808080; stroke-opacity: 0.4; stroke-width: 0.4"/>
     </g>
     <g id="line2d_36"/>
    </g>
    <g id="xtick_19">
     <g id="line2d_37">
      <path d="M 679.9256 519.34 
L 679.9256 10.8 
" clip-path="url(#p444ce2a806)" style="fill: none; stroke-dasharray: 0.4,0.66; stroke-dashoffset: 0; stroke: #808080; stroke-opacity: 0.4; stroke-width: 0.4"/>
     </g>
     <g id="line2d_38"/>
    </g>
    <g id="xtick_20">
     <g id="line2d_39">
      <path d="M 754.5784 519.34 
L 754.5784 10.8 
" clip-path="url(#p444ce2a806)" style="fill: none; stroke-dasharray: 0.4,0.66; stroke-dashoffset: 0; stroke: #808080; stroke-opacity: 0.4; stroke-width: 0.4"/>
     </g>
     <g id="line2d_40"/>
    </g>
    <g id="xtick_21">
     <g id="line2d_41">
      <path d="M 791.9048 519.34 
L 791.9048 10.8 
" clip-path="url(#p444ce2a806)" style="fill: none; stroke-dasharray: 0.4,0.66; stroke-dashoffset: 0; stroke: #808080; stroke-opacity: 0.4; stroke-width: 0.4"/>
     </g>
     <g id="line2d_42"/>
    </g>
    <g id="xtick_22">
     <g id="line2d_43">
      <path d="M 829.2312 519.34 
L 829.2312 10.8 
" clip-path="url(#p444ce2a806)" style="fill: none; stroke-dasharray: 0.4,0.66; stroke-dashoffset: 0; stroke: #808080; stroke-opacity: 0.4; stroke-width: 0.4"/>
     </g>
     <g id="line2d_44"/>
    </g>
    <g id="xtick_23">
     <g id="line2d_45">
      <path d="M 866.5576 519.34 
L 866.5576 10.8 
" clip-path="url(#p444ce2a806)" style="fill: none; stroke-dasharray: 0.4,0.66; stroke-dashoffset: 0; stroke: #808080; stroke-opacity: 0.4; stroke-width: 0.4"/>
     </g>
     <g id="line2d_46"/>
    </g>
    <g id="xtick_24">
     <g id="line2d_47">
      <path d="M 941.2104 519.34 
L 941.2104 10.8 
" clip-path="url(#p444ce2a806)" style="fill: none; stroke-dasharray: 0.4,0.66; stroke-dashoffset: 0; stroke: #808080; stroke-opacity: 0.4; stroke-width: 0.4"/>
     </g>
     <g id="line2d_48"/>
    </g>
    <g id="xtick_25">
     <g id="line2d_49">
      <path d="M 978.5368 519.34 
L 978.5368 10.8 
" clip-path="url(#p444ce2a806)" style="fill: none; stroke-dasharray: 0.4,0.66; stroke-dashoffset: 0; stroke: #808080; stroke-opacity: 0.4; stroke-width: 0.4"/>
     </g>
     <g id="line2d_50"/>
    </g>
    <g id="text_6">
     <!-- Modelos -->
     <g style="fill: #262626" transform="translate(500.38375 562.546875) scale(0.16 -0.16)">
      <defs>
       <path id="LiberationSans-4d" d="M 4269 0 
L 4269 2938 
Q 4269 3097 4272 3262 
Q 4275 3428 4281 3566 
Q 4288 3725 4297 3875 
Q 4253 3716 4206 3559 
Q 4166 3425 4117 3273 
Q 4069 3122 4022 3000 
L 2884 0 
L 2466 0 
L 1313 3000 
Q 1294 3047 1273 3109 
Q 1253 3172 1229 3242 
Q 1206 3313 1182 3386 
Q 1159 3459 1138 3531 
Q 1084 3697 1034 3875 
Q 1038 3700 1044 3528 
Q 1050 3381 1053 3220 
Q 1056 3059 1056 2938 
L 1056 0 
L 525 0 
L 525 4403 
L 1309 4403 
L 2481 1350 
Q 2503 1288 2534 1189 
Q 2566 1091 2594 987 
Q 2622 884 2645 792 
Q 2669 700 2678 650 
Q 2688 700 2713 794 
Q 2738 888 2770 991 
Q 2803 1094 2834 1191 
Q 2866 1288 2891 1350 
L 4041 4403 
L 4806 4403 
L 4806 0 
L 4269 0 
z
" transform="scale(0.015625)"/>
       <path id="LiberationSans-6f" d="M 3291 1694 
Q 3291 806 2900 371 
Q 2509 -63 1766 -63 
Q 1413 -63 1134 43 
Q 856 150 664 369 
Q 472 588 370 917 
Q 269 1247 269 1694 
Q 269 3444 1784 3444 
Q 2178 3444 2464 3334 
Q 2750 3225 2933 3006 
Q 3116 2788 3203 2459 
Q 3291 2131 3291 1694 
z
M 2700 1694 
Q 2700 2088 2639 2344 
Q 2578 2600 2461 2753 
Q 2344 2906 2175 2967 
Q 2006 3028 1794 3028 
Q 1578 3028 1404 2964 
Q 1231 2900 1109 2745 
Q 988 2591 923 2334 
Q 859 2078 859 1694 
Q 859 1300 928 1042 
Q 997 784 1117 631 
Q 1238 478 1402 415 
Q 1566 353 1759 353 
Q 1975 353 2150 414 
Q 2325 475 2447 628 
Q 2569 781 2634 1040 
Q 2700 1300 2700 1694 
z
" transform="scale(0.015625)"/>
       <path id="LiberationSans-64" d="M 2566 544 
Q 2409 219 2151 78 
Q 1894 -63 1513 -63 
Q 872 -63 570 368 
Q 269 800 269 1675 
Q 269 3444 1513 3444 
Q 1897 3444 2153 3303 
Q 2409 3163 2566 2856 
L 2572 2856 
Q 2572 2888 2570 2955 
Q 2569 3022 2567 3095 
Q 2566 3169 2566 3234 
Q 2566 3300 2566 3328 
L 2566 4638 
L 3128 4638 
L 3128 697 
Q 3128 575 3129 462 
Q 3131 350 3134 256 
Q 3138 163 3141 95 
Q 3144 28 3147 0 
L 2609 0 
Q 2603 31 2598 89 
Q 2594 147 2589 222 
Q 2584 297 2581 380 
Q 2578 463 2578 544 
L 2566 544 
z
M 859 1694 
Q 859 1344 903 1094 
Q 947 844 1044 683 
Q 1141 522 1291 447 
Q 1441 372 1656 372 
Q 1878 372 2048 444 
Q 2219 516 2333 677 
Q 2447 838 2506 1097 
Q 2566 1356 2566 1731 
Q 2566 2091 2506 2339 
Q 2447 2588 2331 2741 
Q 2216 2894 2048 2961 
Q 1881 3028 1663 3028 
Q 1456 3028 1306 2956 
Q 1156 2884 1056 2725 
Q 956 2566 907 2311 
Q 859 2056 859 1694 
z
" transform="scale(0.015625)"/>
       <path id="LiberationSans-65" d="M 863 1572 
Q 863 1306 917 1082 
Q 972 859 1086 698 
Q 1200 538 1378 448 
Q 1556 359 1806 359 
Q 2172 359 2392 506 
Q 2613 653 2691 878 
L 3184 738 
Q 3131 597 3036 455 
Q 2941 313 2781 198 
Q 2622 84 2383 10 
Q 2144 -63 1806 -63 
Q 1056 -63 664 384 
Q 272 831 272 1713 
Q 272 2188 390 2517 
Q 509 2847 715 3053 
Q 922 3259 1197 3351 
Q 1472 3444 1784 3444 
Q 2209 3444 2495 3306 
Q 2781 3169 2954 2926 
Q 3128 2684 3201 2356 
Q 3275 2028 3275 1647 
L 3275 1572 
L 863 1572 
z
M 2694 2003 
Q 2647 2538 2422 2783 
Q 2197 3028 1775 3028 
Q 1634 3028 1479 2983 
Q 1325 2938 1194 2822 
Q 1063 2706 972 2507 
Q 881 2309 869 2003 
L 2694 2003 
z
" transform="scale(0.015625)"/>
       <path id="LiberationSans-6c" d="M 431 0 
L 431 4638 
L 994 4638 
L 994 0 
L 431 0 
z
" transform="scale(0.015625)"/>
       <path id="LiberationSans-73" d="M 2969 934 
Q 2969 697 2876 511 
Q 2784 325 2609 198 
Q 2434 72 2179 4 
Q 1925 -63 1597 -63 
Q 1303 -63 1067 -17 
Q 831 28 653 128 
Q 475 228 354 392 
Q 234 556 178 794 
L 675 891 
Q 747 619 972 492 
Q 1197 366 1597 366 
Q 1778 366 1929 391 
Q 2081 416 2190 477 
Q 2300 538 2361 639 
Q 2422 741 2422 891 
Q 2422 1044 2350 1142 
Q 2278 1241 2150 1306 
Q 2022 1372 1839 1420 
Q 1656 1469 1438 1528 
Q 1234 1581 1034 1647 
Q 834 1713 673 1820 
Q 513 1928 413 2087 
Q 313 2247 313 2488 
Q 313 2950 642 3192 
Q 972 3434 1603 3434 
Q 2163 3434 2492 3237 
Q 2822 3041 2909 2606 
L 2403 2544 
Q 2375 2675 2300 2764 
Q 2225 2853 2119 2908 
Q 2013 2963 1880 2986 
Q 1747 3009 1603 3009 
Q 1222 3009 1040 2893 
Q 859 2778 859 2544 
Q 859 2406 926 2317 
Q 994 2228 1114 2167 
Q 1234 2106 1403 2061 
Q 1572 2016 1775 1966 
Q 1909 1931 2050 1892 
Q 2191 1853 2323 1798 
Q 2456 1744 2573 1670 
Q 2691 1597 2778 1494 
Q 2866 1391 2917 1253 
Q 2969 1116 2969 934 
z
" transform="scale(0.015625)"/>
      </defs>
      <use xlink:href="#LiberationSans-4d"/>
      <use xlink:href="#LiberationSans-6f" x="83.300781"/>
      <use xlink:href="#LiberationSans-64" x="138.916016"/>
      <use xlink:href="#LiberationSans-65" x="194.53125"/>
      <use xlink:href="#LiberationSans-6c" x="250.146484"/>
      <use xlink:href="#LiberationSans-6f" x="272.363281"/>
      <use xlink:href="#LiberationSans-73" x="327.978516"/>
     </g>
    </g>
   </g>
   <g id="matplotlib.axis_2">
    <g id="ytick_1">
     <g id="line2d_51">
      <path d="M 64.04 471.506438 
L 997.2 471.506438 
" clip-path="url(#p444ce2a806)" style="fill: none; stroke-dasharray: 2.22,0.96; stroke-dashoffset: 0; stroke: #808080; stroke-opacity: 0.6; stroke-width: 0.6"/>
     </g>
     <g id="line2d_52"/>
     <g id="text_7">
      <!-- 1.0 -->
      <g style="fill: #262626" transform="translate(41.08 476.57925) scale(0.14 -0.14)">
       <defs>
        <path id="LiberationSans-31" d="M 488 0 
L 488 478 
L 1609 478 
L 1609 3866 
L 616 3156 
L 616 3688 
L 1656 4403 
L 2175 4403 
L 2175 478 
L 3247 478 
L 3247 0 
L 488 0 
z
" transform="scale(0.015625)"/>
        <path id="LiberationSans-2e" d="M 584 0 
L 584 684 
L 1194 684 
L 1194 0 
L 584 0 
z
" transform="scale(0.015625)"/>
        <path id="LiberationSans-30" d="M 3309 2203 
Q 3309 1569 3189 1136 
Q 3069 703 2861 436 
Q 2653 169 2372 53 
Q 2091 -63 1772 -63 
Q 1450 -63 1172 53 
Q 894 169 689 434 
Q 484 700 367 1133 
Q 250 1566 250 2203 
Q 250 2869 367 3305 
Q 484 3741 690 4000 
Q 897 4259 1178 4364 
Q 1459 4469 1791 4469 
Q 2106 4469 2382 4364 
Q 2659 4259 2865 4000 
Q 3072 3741 3190 3305 
Q 3309 2869 3309 2203 
z
M 2738 2203 
Q 2738 2728 2675 3076 
Q 2613 3425 2491 3633 
Q 2369 3841 2192 3927 
Q 2016 4013 1791 4013 
Q 1553 4013 1372 3925 
Q 1191 3838 1067 3630 
Q 944 3422 881 3073 
Q 819 2725 819 2203 
Q 819 1697 883 1350 
Q 947 1003 1070 792 
Q 1194 581 1372 489 
Q 1550 397 1778 397 
Q 2000 397 2178 489 
Q 2356 581 2479 792 
Q 2603 1003 2670 1350 
Q 2738 1697 2738 2203 
z
" transform="scale(0.015625)"/>
       </defs>
       <use xlink:href="#LiberationSans-31"/>
       <use xlink:href="#LiberationSans-2e" x="55.615234"/>
       <use xlink:href="#LiberationSans-30" x="83.398438"/>
      </g>
     </g>
    </g>
    <g id="ytick_2">
     <g id="line2d_53">
      <path d="M 64.04 412.28287 
L 997.2 412.28287 
" clip-path="url(#p444ce2a806)" style="fill: none; stroke-dasharray: 2.22,0.96; stroke-dashoffset: 0; stroke: #808080; stroke-opacity: 0.6; stroke-width: 0.6"/>
     </g>
     <g id="line2d_54"/>
     <g id="text_8">
      <!-- 1.5 -->
      <g style="fill: #262626" transform="translate(41.08 417.355682) scale(0.14 -0.14)">
       <defs>
        <path id="LiberationSans-35" d="M 3291 1434 
Q 3291 1103 3191 828 
Q 3091 553 2894 354 
Q 2697 156 2405 46 
Q 2113 -63 1728 -63 
Q 1381 -63 1123 18 
Q 866 100 687 242 
Q 509 384 404 575 
Q 300 766 256 984 
L 825 1050 
Q 859 925 921 808 
Q 984 691 1092 598 
Q 1200 506 1358 451 
Q 1516 397 1741 397 
Q 1959 397 2137 464 
Q 2316 531 2442 662 
Q 2569 794 2637 984 
Q 2706 1175 2706 1422 
Q 2706 1625 2640 1795 
Q 2575 1966 2453 2089 
Q 2331 2213 2154 2281 
Q 1978 2350 1753 2350 
Q 1613 2350 1494 2325 
Q 1375 2300 1273 2256 
Q 1172 2213 1089 2155 
Q 1006 2097 934 2034 
L 384 2034 
L 531 4403 
L 3034 4403 
L 3034 3925 
L 1044 3925 
L 959 2528 
Q 1109 2644 1334 2726 
Q 1559 2809 1869 2809 
Q 2197 2809 2459 2709 
Q 2722 2609 2906 2426 
Q 3091 2244 3191 1991 
Q 3291 1738 3291 1434 
z
" transform="scale(0.015625)"/>
       </defs>
       <use xlink:href="#LiberationSans-31"/>
       <use xlink:href="#LiberationSans-2e" x="55.615234"/>
       <use xlink:href="#LiberationSans-35" x="83.398438"/>
      </g>
     </g>
    </g>
    <g id="ytick_3">
     <g id="line2d_55">
      <path d="M 64.04 353.059301 
L 997.2 353.059301 
" clip-path="url(#p444ce2a806)" style="fill: none; stroke-dasharray: 2.22,0.96; stroke-dashoffset: 0; stroke: #808080; stroke-opacity: 0.6; stroke-width: 0.6"/>
     </g>
     <g id="line2d_56"/>
     <g id="text_9">
      <!-- 2.0 -->
      <g style="fill: #262626" transform="translate(41.08 358.132114) scale(0.14 -0.14)">
       <defs>
        <path id="LiberationSans-32" d="M 322 0 
L 322 397 
Q 481 763 711 1042 
Q 941 1322 1194 1548 
Q 1447 1775 1695 1969 
Q 1944 2163 2144 2356 
Q 2344 2550 2467 2762 
Q 2591 2975 2591 3244 
Q 2591 3431 2534 3573 
Q 2478 3716 2372 3812 
Q 2266 3909 2117 3957 
Q 1969 4006 1788 4006 
Q 1619 4006 1470 3959 
Q 1322 3913 1206 3819 
Q 1091 3725 1017 3586 
Q 944 3447 922 3263 
L 347 3316 
Q 375 3553 478 3762 
Q 581 3972 762 4130 
Q 944 4288 1198 4378 
Q 1453 4469 1788 4469 
Q 2116 4469 2372 4391 
Q 2628 4313 2804 4159 
Q 2981 4006 3075 3781 
Q 3169 3556 3169 3263 
Q 3169 3041 3089 2841 
Q 3009 2641 2876 2459 
Q 2744 2278 2569 2109 
Q 2394 1941 2203 1780 
Q 2013 1619 1819 1461 
Q 1625 1303 1454 1143 
Q 1284 984 1150 820 
Q 1016 656 941 478 
L 3238 478 
L 3238 0 
L 322 0 
z
" transform="scale(0.015625)"/>
       </defs>
       <use xlink:href="#LiberationSans-32"/>
       <use xlink:href="#LiberationSans-2e" x="55.615234"/>
       <use xlink:href="#LiberationSans-30" x="83.398438"/>
      </g>
     </g>
    </g>
    <g id="ytick_4">
     <g id="line2d_57">
      <path d="M 64.04 293.835733 
L 997.2 293.835733 
" clip-path="url(#p444ce2a806)" style="fill: none; stroke-dasharray: 2.22,0.96; stroke-dashoffset: 0; stroke: #808080; stroke-opacity: 0.6; stroke-width: 0.6"/>
     </g>
     <g id="line2d_58"/>
     <g id="text_10">
      <!-- 2.5 -->
      <g style="fill: #262626" transform="translate(41.08 298.908546) scale(0.14 -0.14)">
       <use xlink:href="#LiberationSans-32"/>
       <use xlink:href="#LiberationSans-2e" x="55.615234"/>
       <use xlink:href="#LiberationSans-35" x="83.398438"/>
      </g>
     </g>
    </g>
    <g id="ytick_5">
     <g id="line2d_59">
      <path d="M 64.04 234.612165 
L 997.2 234.612165 
" clip-path="url(#p444ce2a806)" style="fill: none; stroke-dasharray: 2.22,0.96; stroke-dashoffset: 0; stroke: #808080; stroke-opacity: 0.6; stroke-width: 0.6"/>
     </g>
     <g id="line2d_60"/>
     <g id="text_11">
      <!-- 3.0 -->
      <g style="fill: #262626" transform="translate(41.08 239.684977) scale(0.14 -0.14)">
       <defs>
        <path id="LiberationSans-33" d="M 3278 1216 
Q 3278 913 3179 675 
Q 3081 438 2892 273 
Q 2703 109 2423 23 
Q 2144 -63 1784 -63 
Q 1375 -63 1095 39 
Q 816 141 634 308 
Q 453 475 362 689 
Q 272 903 244 1131 
L 825 1184 
Q 850 1009 917 865 
Q 984 722 1100 619 
Q 1216 516 1384 459 
Q 1553 403 1784 403 
Q 2209 403 2451 612 
Q 2694 822 2694 1234 
Q 2694 1478 2586 1626 
Q 2478 1775 2317 1858 
Q 2156 1941 1967 1969 
Q 1778 1997 1619 1997 
L 1300 1997 
L 1300 2484 
L 1606 2484 
Q 1766 2484 1937 2517 
Q 2109 2550 2251 2636 
Q 2394 2722 2486 2869 
Q 2578 3016 2578 3244 
Q 2578 3597 2370 3801 
Q 2163 4006 1753 4006 
Q 1381 4006 1151 3815 
Q 922 3625 884 3278 
L 319 3322 
Q 353 3613 478 3828 
Q 603 4044 795 4186 
Q 988 4328 1234 4398 
Q 1481 4469 1759 4469 
Q 2128 4469 2393 4376 
Q 2659 4284 2828 4126 
Q 2997 3969 3076 3756 
Q 3156 3544 3156 3303 
Q 3156 3109 3103 2940 
Q 3050 2772 2937 2637 
Q 2825 2503 2651 2406 
Q 2478 2309 2234 2259 
L 2234 2247 
Q 2500 2219 2697 2126 
Q 2894 2034 3022 1896 
Q 3150 1759 3214 1584 
Q 3278 1409 3278 1216 
z
" transform="scale(0.015625)"/>
       </defs>
       <use xlink:href="#LiberationSans-33"/>
       <use xlink:href="#LiberationSans-2e" x="55.615234"/>
       <use xlink:href="#LiberationSans-30" x="83.398438"/>
      </g>
     </g>
    </g>
    <g id="ytick_6">
     <g id="line2d_61">
      <path d="M 64.04 175.388597 
L 997.2 175.388597 
" clip-path="url(#p444ce2a806)" style="fill: none; stroke-dasharray: 2.22,0.96; stroke-dashoffset: 0; stroke: #808080; stroke-opacity: 0.6; stroke-width: 0.6"/>
     </g>
     <g id="line2d_62"/>
     <g id="text_12">
      <!-- 3.5 -->
      <g style="fill: #262626" transform="translate(41.08 180.461409) scale(0.14 -0.14)">
       <use xlink:href="#LiberationSans-33"/>
       <use xlink:href="#LiberationSans-2e" x="55.615234"/>
       <use xlink:href="#LiberationSans-35" x="83.398438"/>
      </g>
     </g>
    </g>
    <g id="ytick_7">
     <g id="line2d_63">
      <path d="M 64.04 116.165028 
L 997.2 116.165028 
" clip-path="url(#p444ce2a806)" style="fill: none; stroke-dasharray: 2.22,0.96; stroke-dashoffset: 0; stroke: #808080; stroke-opacity: 0.6; stroke-width: 0.6"/>
     </g>
     <g id="line2d_64"/>
     <g id="text_13">
      <!-- 4.0 -->
      <g style="fill: #262626" transform="translate(41.08 121.237841) scale(0.14 -0.14)">
       <defs>
        <path id="LiberationSans-34" d="M 2753 997 
L 2753 0 
L 2222 0 
L 2222 997 
L 147 997 
L 147 1434 
L 2163 4403 
L 2753 4403 
L 2753 1441 
L 3372 1441 
L 3372 997 
L 2753 997 
z
M 2222 3769 
Q 2216 3753 2191 3708 
Q 2166 3663 2134 3606 
Q 2103 3550 2070 3492 
Q 2038 3434 2013 3397 
L 884 1734 
Q 869 1709 839 1668 
Q 809 1628 778 1586 
Q 747 1544 715 1503 
Q 684 1463 666 1441 
L 2222 1441 
L 2222 3769 
z
" transform="scale(0.015625)"/>
       </defs>
       <use xlink:href="#LiberationSans-34"/>
       <use xlink:href="#LiberationSans-2e" x="55.615234"/>
       <use xlink:href="#LiberationSans-30" x="83.398438"/>
      </g>
     </g>
    </g>
    <g id="ytick_8">
     <g id="line2d_65">
      <path d="M 64.04 56.94146 
L 997.2 56.94146 
" clip-path="url(#p444ce2a806)" style="fill: none; stroke-dasharray: 2.22,0.96; stroke-dashoffset: 0; stroke: #808080; stroke-opacity: 0.6; stroke-width: 0.6"/>
     </g>
     <g id="line2d_66"/>
     <g id="text_14">
      <!-- 4.5 -->
      <g style="fill: #262626" transform="translate(41.08 62.014273) scale(0.14 -0.14)">
       <use xlink:href="#LiberationSans-34"/>
       <use xlink:href="#LiberationSans-2e" x="55.615234"/>
       <use xlink:href="#LiberationSans-35" x="83.398438"/>
      </g>
     </g>
    </g>
    <g id="ytick_9">
     <g id="line2d_67">
      <path d="M 64.04 518.885292 
L 997.2 518.885292 
" clip-path="url(#p444ce2a806)" style="fill: none; stroke-dasharray: 0.4,0.66; stroke-dashoffset: 0; stroke: #808080; stroke-opacity: 0.4; stroke-width: 0.4"/>
     </g>
     <g id="line2d_68"/>
    </g>
    <g id="ytick_10">
     <g id="line2d_69">
      <path d="M 64.04 507.040579 
L 997.2 507.040579 
" clip-path="url(#p444ce2a806)" style="fill: none; stroke-dasharray: 0.4,0.66; stroke-dashoffset: 0; stroke: #808080; stroke-opacity: 0.4; stroke-width: 0.4"/>
     </g>
     <g id="line2d_70"/>
    </g>
    <g id="ytick_11">
     <g id="line2d_71">
      <path d="M 64.04 495.195865 
L 997.2 495.195865 
" clip-path="url(#p444ce2a806)" style="fill: none; stroke-dasharray: 0.4,0.66; stroke-dashoffset: 0; stroke: #808080; stroke-opacity: 0.4; stroke-width: 0.4"/>
     </g>
     <g id="line2d_72"/>
    </g>
    <g id="ytick_12">
     <g id="line2d_73">
      <path d="M 64.04 483.351151 
L 997.2 483.351151 
" clip-path="url(#p444ce2a806)" style="fill: none; stroke-dasharray: 0.4,0.66; stroke-dashoffset: 0; stroke: #808080; stroke-opacity: 0.4; stroke-width: 0.4"/>
     </g>
     <g id="line2d_74"/>
    </g>
    <g id="ytick_13">
     <g id="line2d_75">
      <path d="M 64.04 459.661724 
L 997.2 459.661724 
" clip-path="url(#p444ce2a806)" style="fill: none; stroke-dasharray: 0.4,0.66; stroke-dashoffset: 0; stroke: #808080; stroke-opacity: 0.4; stroke-width: 0.4"/>
     </g>
     <g id="line2d_76"/>
    </g>
    <g id="ytick_14">
     <g id="line2d_77">
      <path d="M 64.04 447.817011 
L 997.2 447.817011 
" clip-path="url(#p444ce2a806)" style="fill: none; stroke-dasharray: 0.4,0.66; stroke-dashoffset: 0; stroke: #808080; stroke-opacity: 0.4; stroke-width: 0.4"/>
     </g>
     <g id="line2d_78"/>
    </g>
    <g id="ytick_15">
     <g id="line2d_79">
      <path d="M 64.04 435.972297 
L 997.2 435.972297 
" clip-path="url(#p444ce2a806)" style="fill: none; stroke-dasharray: 0.4,0.66; stroke-dashoffset: 0; stroke: #808080; stroke-opacity: 0.4; stroke-width: 0.4"/>
     </g>
     <g id="line2d_80"/>
    </g>
    <g id="ytick_16">
     <g id="line2d_81">
      <path d="M 64.04 424.127583 
L 997.2 424.127583 
" clip-path="url(#p444ce2a806)" style="fill: none; stroke-dasharray: 0.4,0.66; stroke-dashoffset: 0; stroke: #808080; stroke-opacity: 0.4; stroke-width: 0.4"/>
     </g>
     <g id="line2d_82"/>
    </g>
    <g id="ytick_17">
     <g id="line2d_83">
      <path d="M 64.04 400.438156 
L 997.2 400.438156 
" clip-path="url(#p444ce2a806)" style="fill: none; stroke-dasharray: 0.4,0.66; stroke-dashoffset: 0; stroke: #808080; stroke-opacity: 0.4; stroke-width: 0.4"/>
     </g>
     <g id="line2d_84"/>
    </g>
    <g id="ytick_18">
     <g id="line2d_85">
      <path d="M 64.04 388.593442 
L 997.2 388.593442 
" clip-path="url(#p444ce2a806)" style="fill: none; stroke-dasharray: 0.4,0.66; stroke-dashoffset: 0; stroke: #808080; stroke-opacity: 0.4; stroke-width: 0.4"/>
     </g>
     <g id="line2d_86"/>
    </g>
    <g id="ytick_19">
     <g id="line2d_87">
      <path d="M 64.04 376.748729 
L 997.2 376.748729 
" clip-path="url(#p444ce2a806)" style="fill: none; stroke-dasharray: 0.4,0.66; stroke-dashoffset: 0; stroke: #808080; stroke-opacity: 0.4; stroke-width: 0.4"/>
     </g>
     <g id="line2d_88"/>
    </g>
    <g id="ytick_20">
     <g id="line2d_89">
      <path d="M 64.04 364.904015 
L 997.2 364.904015 
" clip-path="url(#p444ce2a806)" style="fill: none; stroke-dasharray: 0.4,0.66; stroke-dashoffset: 0; stroke: #808080; stroke-opacity: 0.4; stroke-width: 0.4"/>
     </g>
     <g id="line2d_90"/>
    </g>
    <g id="ytick_21">
     <g id="line2d_91">
      <path d="M 64.04 341.214588 
L 997.2 341.214588 
" clip-path="url(#p444ce2a806)" style="fill: none; stroke-dasharray: 0.4,0.66; stroke-dashoffset: 0; stroke: #808080; stroke-opacity: 0.4; stroke-width: 0.4"/>
     </g>
     <g id="line2d_92"/>
    </g>
    <g id="ytick_22">
     <g id="line2d_93">
      <path d="M 64.04 329.369874 
L 997.2 329.369874 
" clip-path="url(#p444ce2a806)" style="fill: none; stroke-dasharray: 0.4,0.66; stroke-dashoffset: 0; stroke: #808080; stroke-opacity: 0.4; stroke-width: 0.4"/>
     </g>
     <g id="line2d_94"/>
    </g>
    <g id="ytick_23">
     <g id="line2d_95">
      <path d="M 64.04 317.52516 
L 997.2 317.52516 
" clip-path="url(#p444ce2a806)" style="fill: none; stroke-dasharray: 0.4,0.66; stroke-dashoffset: 0; stroke: #808080; stroke-opacity: 0.4; stroke-width: 0.4"/>
     </g>
     <g id="line2d_96"/>
    </g>
    <g id="ytick_24">
     <g id="line2d_97">
      <path d="M 64.04 305.680447 
L 997.2 305.680447 
" clip-path="url(#p444ce2a806)" style="fill: none; stroke-dasharray: 0.4,0.66; stroke-dashoffset: 0; stroke: #808080; stroke-opacity: 0.4; stroke-width: 0.4"/>
     </g>
     <g id="line2d_98"/>
    </g>
    <g id="ytick_25">
     <g id="line2d_99">
      <path d="M 64.04 281.991019 
L 997.2 281.991019 
" clip-path="url(#p444ce2a806)" style="fill: none; stroke-dasharray: 0.4,0.66; stroke-dashoffset: 0; stroke: #808080; stroke-opacity: 0.4; stroke-width: 0.4"/>
     </g>
     <g id="line2d_100"/>
    </g>
    <g id="ytick_26">
     <g id="line2d_101">
      <path d="M 64.04 270.146306 
L 997.2 270.146306 
" clip-path="url(#p444ce2a806)" style="fill: none; stroke-dasharray: 0.4,0.66; stroke-dashoffset: 0; stroke: #808080; stroke-opacity: 0.4; stroke-width: 0.4"/>
     </g>
     <g id="line2d_102"/>
    </g>
    <g id="ytick_27">
     <g id="line2d_103">
      <path d="M 64.04 258.301592 
L 997.2 258.301592 
" clip-path="url(#p444ce2a806)" style="fill: none; stroke-dasharray: 0.4,0.66; stroke-dashoffset: 0; stroke: #808080; stroke-opacity: 0.4; stroke-width: 0.4"/>
     </g>
     <g id="line2d_104"/>
    </g>
    <g id="ytick_28">
     <g id="line2d_105">
      <path d="M 64.04 246.456879 
L 997.2 246.456879 
" clip-path="url(#p444ce2a806)" style="fill: none; stroke-dasharray: 0.4,0.66; stroke-dashoffset: 0; stroke: #808080; stroke-opacity: 0.4; stroke-width: 0.4"/>
     </g>
     <g id="line2d_106"/>
    </g>
    <g id="ytick_29">
     <g id="line2d_107">
      <path d="M 64.04 222.767451 
L 997.2 222.767451 
" clip-path="url(#p444ce2a806)" style="fill: none; stroke-dasharray: 0.4,0.66; stroke-dashoffset: 0; stroke: #808080; stroke-opacity: 0.4; stroke-width: 0.4"/>
     </g>
     <g id="line2d_108"/>
    </g>
    <g id="ytick_30">
     <g id="line2d_109">
      <path d="M 64.04 210.922738 
L 997.2 210.922738 
" clip-path="url(#p444ce2a806)" style="fill: none; stroke-dasharray: 0.4,0.66; stroke-dashoffset: 0; stroke: #808080; stroke-opacity: 0.4; stroke-width: 0.4"/>
     </g>
     <g id="line2d_110"/>
    </g>
    <g id="ytick_31">
     <g id="line2d_111">
      <path d="M 64.04 199.078024 
L 997.2 199.078024 
" clip-path="url(#p444ce2a806)" style="fill: none; stroke-dasharray: 0.4,0.66; stroke-dashoffset: 0; stroke: #808080; stroke-opacity: 0.4; stroke-width: 0.4"/>
     </g>
     <g id="line2d_112"/>
    </g>
    <g id="ytick_32">
     <g id="line2d_113">
      <path d="M 64.04 187.23331 
L 997.2 187.23331 
" clip-path="url(#p444ce2a806)" style="fill: none; stroke-dasharray: 0.4,0.66; stroke-dashoffset: 0; stroke: #808080; stroke-opacity: 0.4; stroke-width: 0.4"/>
     </g>
     <g id="line2d_114"/>
    </g>
    <g id="ytick_33">
     <g id="line2d_115">
      <path d="M 64.04 163.543883 
L 997.2 163.543883 
" clip-path="url(#p444ce2a806)" style="fill: none; stroke-dasharray: 0.4,0.66; stroke-dashoffset: 0; stroke: #808080; stroke-opacity: 0.4; stroke-width: 0.4"/>
     </g>
     <g id="line2d_116"/>
    </g>
    <g id="ytick_34">
     <g id="line2d_117">
      <path d="M 64.04 151.699169 
L 997.2 151.699169 
" clip-path="url(#p444ce2a806)" style="fill: none; stroke-dasharray: 0.4,0.66; stroke-dashoffset: 0; stroke: #808080; stroke-opacity: 0.4; stroke-width: 0.4"/>
     </g>
     <g id="line2d_118"/>
    </g>
    <g id="ytick_35">
     <g id="line2d_119">
      <path d="M 64.04 139.854456 
L 997.2 139.854456 
" clip-path="url(#p444ce2a806)" style="fill: none; stroke-dasharray: 0.4,0.66; stroke-dashoffset: 0; stroke: #808080; stroke-opacity: 0.4; stroke-width: 0.4"/>
     </g>
     <g id="line2d_120"/>
    </g>
    <g id="ytick_36">
     <g id="line2d_121">
      <path d="M 64.04 128.009742 
L 997.2 128.009742 
" clip-path="url(#p444ce2a806)" style="fill: none; stroke-dasharray: 0.4,0.66; stroke-dashoffset: 0; stroke: #808080; stroke-opacity: 0.4; stroke-width: 0.4"/>
     </g>
     <g id="line2d_122"/>
    </g>
    <g id="ytick_37">
     <g id="line2d_123">
      <path d="M 64.04 104.320315 
L 997.2 104.320315 
" clip-path="url(#p444ce2a806)" style="fill: none; stroke-dasharray: 0.4,0.66; stroke-dashoffset: 0; stroke: #808080; stroke-opacity: 0.4; stroke-width: 0.4"/>
     </g>
     <g id="line2d_124"/>
    </g>
    <g id="ytick_38">
     <g id="line2d_125">
      <path d="M 64.04 92.475601 
L 997.2 92.475601 
" clip-path="url(#p444ce2a806)" style="fill: none; stroke-dasharray: 0.4,0.66; stroke-dashoffset: 0; stroke: #808080; stroke-opacity: 0.4; stroke-width: 0.4"/>
     </g>
     <g id="line2d_126"/>
    </g>
    <g id="ytick_39">
     <g id="line2d_127">
      <path d="M 64.04 80.630888 
L 997.2 80.630888 
" clip-path="url(#p444ce2a806)" style="fill: none; stroke-dasharray: 0.4,0.66; stroke-dashoffset: 0; stroke: #808080; stroke-opacity: 0.4; stroke-width: 0.4"/>
     </g>
     <g id="line2d_128"/>
    </g>
    <g id="ytick_40">
     <g id="line2d_129">
      <path d="M 64.04 68.786174 
L 997.2 68.786174 
" clip-path="url(#p444ce2a806)" style="fill: none; stroke-dasharray: 0.4,0.66; stroke-dashoffset: 0; stroke: #808080; stroke-opacity: 0.4; stroke-width: 0.4"/>
     </g>
     <g id="line2d_130"/>
    </g>
    <g id="ytick_41">
     <g id="line2d_131">
      <path d="M 64.04 45.096747 
L 997.2 45.096747 
" clip-path="url(#p444ce2a806)" style="fill: none; stroke-dasharray: 0.4,0.66; stroke-dashoffset: 0; stroke: #808080; stroke-opacity: 0.4; stroke-width: 0.4"/>
     </g>
     <g id="line2d_132"/>
    </g>
    <g id="ytick_42">
     <g id="line2d_133">
      <path d="M 64.04 33.252033 
L 997.2 33.252033 
" clip-path="url(#p444ce2a806)" style="fill: none; stroke-dasharray: 0.4,0.66; stroke-dashoffset: 0; stroke: #808080; stroke-opacity: 0.4; stroke-width: 0.4"/>
     </g>
     <g id="line2d_134"/>
    </g>
    <g id="ytick_43">
     <g id="line2d_135">
      <path d="M 64.04 21.407319 
L 997.2 21.407319 
" clip-path="url(#p444ce2a806)" style="fill: none; stroke-dasharray: 0.4,0.66; stroke-dashoffset: 0; stroke: #808080; stroke-opacity: 0.4; stroke-width: 0.4"/>
     </g>
     <g id="line2d_136"/>
    </g>
    <g id="text_15">
     <!-- Fertilidade -->
     <g style="fill: #262626" transform="translate(22.76 302.41875) rotate(-90) scale(0.16 -0.16)">
      <defs>
       <path id="LiberationSans-46" d="M 1122 3916 
L 1122 2278 
L 3578 2278 
L 3578 1784 
L 1122 1784 
L 1122 0 
L 525 0 
L 525 4403 
L 3653 4403 
L 3653 3916 
L 1122 3916 
z
" transform="scale(0.015625)"/>
       <path id="LiberationSans-72" d="M 444 0 
L 444 2594 
Q 444 2700 442 2811 
Q 441 2922 437 3025 
Q 434 3128 431 3218 
Q 428 3309 425 3381 
L 956 3381 
Q 959 3309 964 3217 
Q 969 3125 973 3028 
Q 978 2931 979 2842 
Q 981 2753 981 2691 
L 994 2691 
Q 1053 2884 1120 3026 
Q 1188 3169 1278 3261 
Q 1369 3353 1494 3398 
Q 1619 3444 1797 3444 
Q 1866 3444 1928 3433 
Q 1991 3422 2025 3413 
L 2025 2897 
Q 1969 2913 1894 2920 
Q 1819 2928 1725 2928 
Q 1531 2928 1395 2840 
Q 1259 2753 1173 2598 
Q 1088 2444 1047 2230 
Q 1006 2016 1006 1763 
L 1006 0 
L 444 0 
z
" transform="scale(0.015625)"/>
       <path id="LiberationSans-74" d="M 1731 25 
Q 1603 -9 1470 -29 
Q 1338 -50 1163 -50 
Q 488 -50 488 716 
L 488 2972 
L 97 2972 
L 97 3381 
L 509 3381 
L 675 4138 
L 1050 4138 
L 1050 3381 
L 1675 3381 
L 1675 2972 
L 1050 2972 
L 1050 838 
Q 1050 594 1129 495 
Q 1209 397 1406 397 
Q 1488 397 1564 409 
Q 1641 422 1731 441 
L 1731 25 
z
" transform="scale(0.015625)"/>
       <path id="LiberationSans-69" d="M 428 4100 
L 428 4638 
L 991 4638 
L 991 4100 
L 428 4100 
z
M 428 0 
L 428 3381 
L 991 3381 
L 991 0 
L 428 0 
z
" transform="scale(0.015625)"/>
       <path id="LiberationSans-61" d="M 1294 -63 
Q 784 -63 528 206 
Q 272 475 272 944 
Q 272 1278 398 1492 
Q 525 1706 729 1828 
Q 934 1950 1196 1997 
Q 1459 2044 1731 2050 
L 2491 2063 
L 2491 2247 
Q 2491 2456 2447 2603 
Q 2403 2750 2312 2840 
Q 2222 2931 2086 2973 
Q 1950 3016 1766 3016 
Q 1603 3016 1472 2992 
Q 1341 2969 1244 2908 
Q 1147 2847 1087 2742 
Q 1028 2638 1009 2478 
L 422 2531 
Q 453 2731 540 2898 
Q 628 3066 789 3187 
Q 950 3309 1192 3376 
Q 1434 3444 1778 3444 
Q 2416 3444 2737 3151 
Q 3059 2859 3059 2306 
L 3059 850 
Q 3059 600 3125 473 
Q 3191 347 3375 347 
Q 3422 347 3469 353 
Q 3516 359 3559 369 
L 3559 19 
Q 3453 -6 3348 -18 
Q 3244 -31 3125 -31 
Q 2966 -31 2852 11 
Q 2738 53 2666 139 
Q 2594 225 2556 351 
Q 2519 478 2509 647 
L 2491 647 
Q 2400 484 2292 353 
Q 2184 222 2040 130 
Q 1897 38 1714 -12 
Q 1531 -63 1294 -63 
z
M 1422 359 
Q 1691 359 1892 457 
Q 2094 556 2226 709 
Q 2359 863 2425 1044 
Q 2491 1225 2491 1391 
L 2491 1669 
L 1875 1656 
Q 1669 1653 1483 1626 
Q 1297 1600 1156 1522 
Q 1016 1444 933 1303 
Q 850 1163 850 934 
Q 850 659 998 509 
Q 1147 359 1422 359 
z
" transform="scale(0.015625)"/>
      </defs>
      <use xlink:href="#LiberationSans-46"/>
      <use xlink:href="#LiberationSans-65" x="61.083984"/>
      <use xlink:href="#LiberationSans-72" x="116.699219"/>
      <use xlink:href="#LiberationSans-74" x="150"/>
      <use xlink:href="#LiberationSans-69" x="177.783203"/>
      <use xlink:href="#LiberationSans-6c" x="200"/>
      <use xlink:href="#LiberationSans-69" x="222.216797"/>
      <use xlink:href="#LiberationSans-64" x="244.433594"/>
      <use xlink:href="#LiberationSans-61" x="300.048828"/>
      <use xlink:href="#LiberationSans-64" x="355.664062"/>
      <use xlink:href="#LiberationSans-65" x="411.279297"/>
     </g>
    </g>
   </g>
   <g id="PolyCollection_1">
    <defs>
     <path id="mf368b255dd" d="M 158.19955 -100.858293 
L 156.51245 -100.858293 
L 155.315379 -101.764036 
L 153.447164 -102.669779 
L 151.301509 -103.575522 
L 149.404059 -104.481264 
L 147.6861 -105.387007 
L 145.314233 -106.29275 
L 141.524592 -107.198493 
L 136.412255 -108.104236 
L 130.61377 -109.009979 
L 124.400829 -109.915722 
L 117.434218 -110.821465 
L 109.454259 -111.727208 
L 101.027105 -112.63295 
L 93.457894 -113.538693 
L 87.933373 -114.444436 
L 84.742048 -115.350179 
L 83.277516 -116.255922 
L 82.728086 -117.161665 
L 82.7032 -118.067408 
L 83.239412 -118.973151 
L 84.455246 -119.878894 
L 86.426842 -120.784637 
L 89.28521 -121.690379 
L 93.142422 -122.596122 
L 97.832238 -123.501865 
L 102.888251 -124.407608 
L 107.919787 -125.313351 
L 112.917955 -126.219094 
L 118.043907 -127.124837 
L 123.20605 -128.03058 
L 128.0304 -128.936323 
L 132.186084 -129.842065 
L 135.566686 -130.747808 
L 138.210638 -131.653551 
L 140.229331 -132.559294 
L 141.818203 -133.465037 
L 143.200511 -134.37078 
L 144.507141 -135.276523 
L 145.752132 -136.182266 
L 146.919929 -137.088009 
L 148.027866 -137.993752 
L 149.102081 -138.899494 
L 150.122192 -139.805237 
L 150.999895 -140.71098 
L 151.609674 -141.616723 
L 151.847301 -142.522466 
L 151.695216 -143.428209 
L 151.286675 -144.333952 
L 150.912899 -145.239695 
L 150.904168 -146.145438 
L 151.435434 -147.051181 
L 152.418327 -147.956923 
L 153.577966 -148.862666 
L 154.640096 -149.768409 
L 155.465144 -150.674152 
L 156.046915 -151.579895 
L 156.434944 -152.485638 
L 156.678944 -153.391381 
L 156.822578 -154.297124 
L 156.911814 -155.202867 
L 156.989071 -156.108609 
L 157.077015 -157.014352 
L 157.171531 -157.920095 
L 157.253689 -158.825838 
L 157.309461 -159.731581 
L 157.338882 -160.637324 
L 157.350906 -161.543067 
L 157.354462 -162.44881 
L 157.354062 -163.354553 
L 157.349568 -164.260296 
L 157.337416 -165.166038 
L 157.31385 -166.071781 
L 157.281049 -166.977524 
L 157.250514 -167.883267 
L 157.235222 -168.78901 
L 157.235624 -169.694753 
L 157.23886 -170.600496 
L 157.236054 -171.506239 
L 157.234715 -172.411982 
L 157.24823 -173.317725 
L 157.277755 -174.223467 
L 157.310964 -175.12921 
L 157.33567 -176.034953 
L 157.348828 -176.940696 
L 157.354025 -177.846439 
L 157.355571 -178.752182 
L 157.355889 -179.657925 
L 157.355733 -180.563668 
L 157.354709 -181.469411 
L 157.350964 -182.375153 
L 157.340656 -183.280896 
L 157.319532 -184.186639 
L 157.288385 -185.092382 
L 157.258199 -185.998125 
L 157.245644 -186.903868 
L 157.258857 -187.809611 
L 157.28929 -188.715354 
L 157.320263 -189.621097 
L 157.341065 -190.52684 
L 157.370935 -190.52684 
L 157.370935 -190.52684 
L 157.391737 -189.621097 
L 157.42271 -188.715354 
L 157.453143 -187.809611 
L 157.466356 -186.903868 
L 157.453801 -185.998125 
L 157.423615 -185.092382 
L 157.392468 -184.186639 
L 157.371344 -183.280896 
L 157.361036 -182.375153 
L 157.357291 -181.469411 
L 157.356267 -180.563668 
L 157.356111 -179.657925 
L 157.356429 -178.752182 
L 157.357975 -177.846439 
L 157.363172 -176.940696 
L 157.37633 -176.034953 
L 157.401036 -175.12921 
L 157.434245 -174.223467 
L 157.46377 -173.317725 
L 157.477285 -172.411982 
L 157.475946 -171.506239 
L 157.47314 -170.600496 
L 157.476376 -169.694753 
L 157.476778 -168.78901 
L 157.461486 -167.883267 
L 157.430951 -166.977524 
L 157.39815 -166.071781 
L 157.374584 -165.166038 
L 157.362432 -164.260296 
L 157.357938 -163.354553 
L 157.357538 -162.44881 
L 157.361094 -161.543067 
L 157.373118 -160.637324 
L 157.402539 -159.731581 
L 157.458311 -158.825838 
L 157.540469 -157.920095 
L 157.634985 -157.014352 
L 157.722929 -156.108609 
L 157.800186 -155.202867 
L 157.889422 -154.297124 
L 158.033056 -153.391381 
L 158.277056 -152.485638 
L 158.665085 -151.579895 
L 159.246856 -150.674152 
L 160.071904 -149.768409 
L 161.134034 -148.862666 
L 162.293673 -147.956923 
L 163.276566 -147.051181 
L 163.807832 -146.145438 
L 163.799101 -145.239695 
L 163.425325 -144.333952 
L 163.016784 -143.428209 
L 162.864699 -142.522466 
L 163.102326 -141.616723 
L 163.712105 -140.71098 
L 164.589808 -139.805237 
L 165.609919 -138.899494 
L 166.684134 -137.993752 
L 167.792071 -137.088009 
L 168.959868 -136.182266 
L 170.204859 -135.276523 
L 171.511489 -134.37078 
L 172.893797 -133.465037 
L 174.482669 -132.559294 
L 176.501362 -131.653551 
L 179.145314 -130.747808 
L 182.525916 -129.842065 
L 186.6816 -128.936323 
L 191.50595 -128.03058 
L 196.668093 -127.124837 
L 201.794045 -126.219094 
L 206.792213 -125.313351 
L 211.823749 -124.407608 
L 216.879762 -123.501865 
L 221.569578 -122.596122 
L 225.42679 -121.690379 
L 228.285158 -120.784637 
L 230.256754 -119.878894 
L 231.472588 -118.973151 
L 232.0088 -118.067408 
L 231.983914 -117.161665 
L 231.434484 -116.255922 
L 229.969952 -115.350179 
L 226.778627 -114.444436 
L 221.254106 -113.538693 
L 213.684895 -112.63295 
L 205.257741 -111.727208 
L 197.277782 -110.821465 
L 190.311171 -109.915722 
L 184.09823 -109.009979 
L 178.299745 -108.104236 
L 173.187408 -107.198493 
L 169.397767 -106.29275 
L 167.0259 -105.387007 
L 165.307941 -104.481264 
L 163.410491 -103.575522 
L 161.264836 -102.669779 
L 159.396621 -101.764036 
L 158.19955 -100.858293 
z
" style="stroke: #3d3d3d; stroke-width: 1.25"/>
    </defs>
    <g clip-path="url(#p444ce2a806)">
     <use xlink:href="#mf368b255dd" x="0" y="576" style="fill: #3274a1; stroke: #3d3d3d; stroke-width: 1.25"/>
    </g>
   </g>
   <g id="PolyCollection_2">
    <defs>
     <path id="macf5b1af5b" d="M 344.016095 -79.775455 
L 343.959905 -79.775455 
L 343.925185 -84.445243 
L 343.856251 -89.115032 
L 343.72815 -93.784821 
L 343.504846 -98.45461 
L 343.138917 -103.124399 
L 342.574211 -107.794187 
L 341.752712 -112.463976 
L 340.626268 -117.133765 
L 339.172592 -121.803554 
L 337.412687 -126.473343 
L 335.424318 -131.143131 
L 333.344663 -135.81292 
L 331.35681 -140.482709 
L 329.659972 -145.152498 
L 328.430317 -149.822287 
L 327.784282 -154.492075 
L 327.756136 -159.161864 
L 328.295985 -163.831653 
L 329.286794 -168.501442 
L 330.573166 -173.17123 
L 331.992895 -177.841019 
L 333.404036 -182.510808 
L 334.703234 -187.180597 
L 335.833591 -191.850386 
L 336.782141 -196.520174 
L 337.568621 -201.189963 
L 338.229186 -205.859752 
L 338.800177 -210.529541 
L 339.307017 -215.19933 
L 339.761032 -219.869118 
L 340.163384 -224.538907 
L 340.512293 -229.208696 
L 340.808969 -233.878485 
L 341.059539 -238.548274 
L 341.27319 -243.218062 
L 341.458922 -247.887851 
L 341.623363 -252.55764 
L 341.770531 -257.227429 
L 341.902684 -261.897218 
L 342.020902 -266.567006 
L 342.124849 -271.236795 
L 342.212392 -275.906584 
L 342.280148 -280.576373 
L 342.325294 -285.246162 
L 342.347874 -289.91595 
L 342.352175 -294.585739 
L 342.346154 -299.255528 
L 342.338925 -303.925317 
L 342.337424 -308.595106 
L 342.343849 -313.264894 
L 342.355212 -317.934683 
L 342.365315 -322.604472 
L 342.368302 -327.274261 
L 342.362117 -331.94405 
L 342.350257 -336.613838 
L 342.34099 -341.283627 
L 342.34439 -345.953416 
L 342.368468 -350.623205 
L 342.416079 -355.292994 
L 342.483894 -359.962782 
L 342.56379 -364.632571 
L 342.645864 -369.30236 
L 342.721571 -373.972149 
L 342.785639 -378.641938 
L 342.836354 -383.311726 
L 342.874813 -387.981515 
L 342.90415 -392.651304 
L 342.929223 -397.321093 
L 342.956427 -401.990882 
L 342.992835 -406.66067 
L 343.04433 -411.330459 
L 343.113321 -416.000248 
L 343.197282 -420.670037 
L 343.289153 -425.339826 
L 343.379586 -430.009614 
L 343.460002 -434.679403 
L 343.524974 -439.349192 
L 343.573011 -444.018981 
L 343.60575 -448.68877 
L 343.626403 -453.358558 
L 343.63843 -458.028347 
L 343.644983 -462.698136 
L 343.649017 -467.367925 
L 343.653567 -472.037713 
L 343.661752 -476.707502 
L 343.676324 -481.377291 
L 343.698962 -486.04708 
L 343.729696 -490.716869 
L 343.766768 -495.386657 
L 343.807085 -500.056446 
L 343.847057 -504.726235 
L 343.883509 -509.396024 
L 343.914314 -514.065813 
L 343.938586 -518.735601 
L 343.956507 -523.40539 
L 343.968951 -528.075179 
L 343.977088 -532.744968 
L 343.982099 -537.414757 
L 343.984997 -542.084545 
L 343.991003 -542.084545 
L 343.991003 -542.084545 
L 343.993901 -537.414757 
L 343.998912 -532.744968 
L 344.007049 -528.075179 
L 344.019493 -523.40539 
L 344.037414 -518.735601 
L 344.061686 -514.065813 
L 344.092491 -509.396024 
L 344.128943 -504.726235 
L 344.168915 -500.056446 
L 344.209232 -495.386657 
L 344.246304 -490.716869 
L 344.277038 -486.04708 
L 344.299676 -481.377291 
L 344.314248 -476.707502 
L 344.322433 -472.037713 
L 344.326983 -467.367925 
L 344.331017 -462.698136 
L 344.33757 -458.028347 
L 344.349597 -453.358558 
L 344.37025 -448.68877 
L 344.402989 -444.018981 
L 344.451026 -439.349192 
L 344.515998 -434.679403 
L 344.596414 -430.009614 
L 344.686847 -425.339826 
L 344.778718 -420.670037 
L 344.862679 -416.000248 
L 344.93167 -411.330459 
L 344.983165 -406.66067 
L 345.019573 -401.990882 
L 345.046777 -397.321093 
L 345.07185 -392.651304 
L 345.101187 -387.981515 
L 345.139646 -383.311726 
L 345.190361 -378.641938 
L 345.254429 -373.972149 
L 345.330136 -369.30236 
L 345.41221 -364.632571 
L 345.492106 -359.962782 
L 345.559921 -355.292994 
L 345.607532 -350.623205 
L 345.63161 -345.953416 
L 345.63501 -341.283627 
L 345.625743 -336.613838 
L 345.613883 -331.94405 
L 345.607698 -327.274261 
L 345.610685 -322.604472 
L 345.620788 -317.934683 
L 345.632151 -313.264894 
L 345.638576 -308.595106 
L 345.637075 -303.925317 
L 345.629846 -299.255528 
L 345.623825 -294.585739 
L 345.628126 -289.91595 
L 345.650706 -285.246162 
L 345.695852 -280.576373 
L 345.763608 -275.906584 
L 345.851151 -271.236795 
L 345.955098 -266.567006 
L 346.073316 -261.897218 
L 346.205469 -257.227429 
L 346.352637 -252.55764 
L 346.517078 -247.887851 
L 346.70281 -243.218062 
L 346.916461 -238.548274 
L 347.167031 -233.878485 
L 347.463707 -229.208696 
L 347.812616 -224.538907 
L 348.214968 -219.869118 
L 348.668983 -215.19933 
L 349.175823 -210.529541 
L 349.746814 -205.859752 
L 350.407379 -201.189963 
L 351.193859 -196.520174 
L 352.142409 -191.850386 
L 353.272766 -187.180597 
L 354.571964 -182.510808 
L 355.983105 -177.841019 
L 357.402834 -173.17123 
L 358.689206 -168.501442 
L 359.680015 -163.831653 
L 360.219864 -159.161864 
L 360.191718 -154.492075 
L 359.545683 -149.822287 
L 358.316028 -145.152498 
L 356.61919 -140.482709 
L 354.631337 -135.81292 
L 352.551682 -131.143131 
L 350.563313 -126.473343 
L 348.803408 -121.803554 
L 347.349732 -117.133765 
L 346.223288 -112.463976 
L 345.401789 -107.794187 
L 344.837083 -103.124399 
L 344.471154 -98.45461 
L 344.24785 -93.784821 
L 344.119749 -89.115032 
L 344.050815 -84.445243 
L 344.016095 -79.775455 
z
" style="stroke: #3d3d3d; stroke-width: 1.25"/>
    </defs>
    <g clip-path="url(#p444ce2a806)">
     <use xlink:href="#macf5b1af5b" x="0" y="576" style="fill: #e1812c; stroke: #3d3d3d; stroke-width: 1.25"/>
    </g>
   </g>
   <g id="PolyCollection_3">
    <defs>
     <path id="m477ab7d48e" d="M 530.655204 -111.240247 
L 530.584796 -111.240247 
L 530.545326 -115.322418 
L 530.473222 -119.404589 
L 530.35126 -123.486759 
L 530.158627 -127.56893 
L 529.871374 -131.651101 
L 529.461723 -135.733271 
L 528.896178 -139.815442 
L 528.13437 -143.897613 
L 527.132325 -147.979783 
L 525.853127 -152.061954 
L 524.28396 -156.144125 
L 522.453325 -160.226295 
L 520.43988 -164.308466 
L 518.367686 -168.390637 
L 516.389778 -172.472807 
L 514.667326 -176.554978 
L 513.350752 -180.637149 
L 512.563309 -184.719319 
L 512.383464 -188.80149 
L 512.82525 -192.88366 
L 513.823594 -196.965831 
L 515.236408 -201.048002 
L 516.87046 -205.130172 
L 518.525783 -209.212343 
L 520.042404 -213.294514 
L 521.331282 -217.376684 
L 522.379016 -221.458855 
L 523.22789 -225.541026 
L 523.94269 -229.623196 
L 524.579525 -233.705367 
L 525.168614 -237.787538 
L 525.714502 -241.869708 
L 526.208109 -245.951879 
L 526.640465 -250.03405 
L 527.010181 -254.11622 
L 527.323058 -258.198391 
L 527.587629 -262.280562 
L 527.811445 -266.362732 
L 528.000247 -270.444903 
L 528.158983 -274.527074 
L 528.292451 -278.609244 
L 528.404515 -282.691415 
L 528.496675 -286.773586 
L 528.567709 -290.855756 
L 528.615333 -294.937927 
L 528.639028 -299.020098 
L 528.642018 -303.102268 
L 528.63076 -307.184439 
L 528.61239 -311.26661 
L 528.592227 -315.34878 
L 528.573369 -319.430951 
L 528.558386 -323.513122 
L 528.551239 -327.595292 
L 528.557465 -331.677463 
L 528.582328 -335.759634 
L 528.628388 -339.841804 
L 528.694148 -343.923975 
L 528.774454 -348.006146 
L 528.862117 -352.088316 
L 528.949882 -356.170487 
L 529.032177 -360.252658 
L 529.106383 -364.334828 
L 529.173401 -368.416999 
L 529.237249 -372.49917 
L 529.303659 -376.58134 
L 529.378112 -380.663511 
L 529.463996 -384.745682 
L 529.561433 -388.827852 
L 529.666995 -392.910023 
L 529.774249 -396.992194 
L 529.875035 -401.074364 
L 529.96128 -405.156535 
L 530.026957 -409.238706 
L 530.069668 -413.320876 
L 530.091377 -417.403047 
L 530.098025 -421.485217 
L 530.098039 -425.567388 
L 530.100102 -429.649559 
L 530.110822 -433.731729 
L 530.133166 -437.8139 
L 530.166234 -441.896071 
L 530.206389 -445.978241 
L 530.249082 -450.060412 
L 530.290536 -454.142583 
L 530.328672 -458.224753 
L 530.363155 -462.306924 
L 530.394843 -466.389095 
L 530.42498 -470.471265 
L 530.454477 -474.553436 
L 530.483496 -478.635607 
L 530.511425 -482.717777 
L 530.537186 -486.799948 
L 530.559687 -490.882119 
L 530.578201 -494.964289 
L 530.592523 -499.04646 
L 530.602931 -503.128631 
L 530.610024 -507.210801 
L 530.614543 -511.292972 
L 530.617221 -515.375143 
L 530.622779 -515.375143 
L 530.622779 -515.375143 
L 530.625457 -511.292972 
L 530.629976 -507.210801 
L 530.637069 -503.128631 
L 530.647477 -499.04646 
L 530.661799 -494.964289 
L 530.680313 -490.882119 
L 530.702814 -486.799948 
L 530.728575 -482.717777 
L 530.756504 -478.635607 
L 530.785523 -474.553436 
L 530.81502 -470.471265 
L 530.845157 -466.389095 
L 530.876845 -462.306924 
L 530.911328 -458.224753 
L 530.949464 -454.142583 
L 530.990918 -450.060412 
L 531.033611 -445.978241 
L 531.073766 -441.896071 
L 531.106834 -437.8139 
L 531.129178 -433.731729 
L 531.139898 -429.649559 
L 531.141961 -425.567388 
L 531.141975 -421.485217 
L 531.148623 -417.403047 
L 531.170332 -413.320876 
L 531.213043 -409.238706 
L 531.27872 -405.156535 
L 531.364965 -401.074364 
L 531.465751 -396.992194 
L 531.573005 -392.910023 
L 531.678567 -388.827852 
L 531.776004 -384.745682 
L 531.861888 -380.663511 
L 531.936341 -376.58134 
L 532.002751 -372.49917 
L 532.066599 -368.416999 
L 532.133617 -364.334828 
L 532.207823 -360.252658 
L 532.290118 -356.170487 
L 532.377883 -352.088316 
L 532.465546 -348.006146 
L 532.545852 -343.923975 
L 532.611612 -339.841804 
L 532.657672 -335.759634 
L 532.682535 -331.677463 
L 532.688761 -327.595292 
L 532.681614 -323.513122 
L 532.666631 -319.430951 
L 532.647773 -315.34878 
L 532.62761 -311.26661 
L 532.60924 -307.184439 
L 532.597982 -303.102268 
L 532.600972 -299.020098 
L 532.624667 -294.937927 
L 532.672291 -290.855756 
L 532.743325 -286.773586 
L 532.835485 -282.691415 
L 532.947549 -278.609244 
L 533.081017 -274.527074 
L 533.239753 -270.444903 
L 533.428555 -266.362732 
L 533.652371 -262.280562 
L 533.916942 -258.198391 
L 534.229819 -254.11622 
L 534.599535 -250.03405 
L 535.031891 -245.951879 
L 535.525498 -241.869708 
L 536.071386 -237.787538 
L 536.660475 -233.705367 
L 537.29731 -229.623196 
L 538.01211 -225.541026 
L 538.860984 -221.458855 
L 539.908718 -217.376684 
L 541.197596 -213.294514 
L 542.714217 -209.212343 
L 544.36954 -205.130172 
L 546.003592 -201.048002 
L 547.416406 -196.965831 
L 548.41475 -192.88366 
L 548.856536 -188.80149 
L 548.676691 -184.719319 
L 547.889248 -180.637149 
L 546.572674 -176.554978 
L 544.850222 -172.472807 
L 542.872314 -168.390637 
L 540.80012 -164.308466 
L 538.786675 -160.226295 
L 536.95604 -156.144125 
L 535.386873 -152.061954 
L 534.107675 -147.979783 
L 533.10563 -143.897613 
L 532.343822 -139.815442 
L 531.778277 -135.733271 
L 531.368626 -131.651101 
L 531.081373 -127.56893 
L 530.88874 -123.486759 
L 530.766778 -119.404589 
L 530.694674 -115.322418 
L 530.655204 -111.240247 
z
" style="stroke: #3d3d3d; stroke-width: 1.25"/>
    </defs>
    <g clip-path="url(#p444ce2a806)">
     <use xlink:href="#m477ab7d48e" x="0" y="576" style="fill: #3a923a; stroke: #3d3d3d; stroke-width: 1.25"/>
    </g>
   </g>
   <g id="PolyCollection_4">
    <defs>
     <path id="m682aa24bac" d="M 717.262315 -107.658049 
L 717.241685 -107.658049 
L 717.229188 -108.823996 
L 717.209736 -109.989944 
L 717.184609 -111.155891 
L 717.153603 -112.321839 
L 717.106135 -113.487786 
L 717.014194 -114.653734 
L 716.838158 -115.819681 
L 716.547138 -116.985629 
L 716.138367 -118.151576 
L 715.634739 -119.317523 
L 715.058092 -120.483471 
L 714.401224 -121.649418 
L 713.619334 -122.815366 
L 712.629645 -123.981313 
L 711.297865 -125.147261 
L 709.430998 -126.313208 
L 706.823643 -127.479156 
L 703.354017 -128.645103 
L 699.057895 -129.81105 
L 694.122779 -130.976998 
L 688.816342 -132.142945 
L 683.408851 -133.308893 
L 678.154645 -134.47484 
L 673.356277 -135.640788 
L 669.426091 -136.806735 
L 666.797584 -137.972683 
L 665.684953 -139.13863 
L 665.914833 -140.304577 
L 667.026568 -141.470525 
L 668.548926 -142.636472 
L 670.194209 -143.80242 
L 671.858776 -144.968367 
L 673.528517 -146.134315 
L 675.204884 -147.300262 
L 676.878908 -148.46621 
L 678.547791 -149.632157 
L 680.25321 -150.798104 
L 682.078203 -151.964052 
L 684.069219 -153.129999 
L 686.161967 -154.295947 
L 688.213823 -155.461894 
L 690.12131 -156.627842 
L 691.89934 -157.793789 
L 693.65207 -158.959737 
L 695.483264 -160.125684 
L 697.429181 -161.291631 
L 699.444175 -162.457579 
L 701.422712 -163.623526 
L 703.237602 -164.789474 
L 704.778158 -165.955421 
L 705.975986 -167.121369 
L 706.825126 -168.287316 
L 707.405203 -169.453264 
L 707.880108 -170.619211 
L 708.435815 -171.785159 
L 709.182975 -172.951106 
L 710.104438 -174.117053 
L 711.091889 -175.283001 
L 712.030646 -176.448948 
L 712.85676 -177.614896 
L 713.555423 -178.780843 
L 714.13223 -179.946791 
L 714.59776 -181.112738 
L 714.968414 -182.278686 
L 715.264917 -183.444633 
L 715.504763 -184.61058 
L 715.700151 -185.776528 
L 715.864586 -186.942475 
L 716.01677 -188.108423 
L 716.173198 -189.27437 
L 716.33636 -190.440318 
L 716.490802 -191.606265 
L 716.609696 -192.772213 
L 716.667332 -193.93816 
L 716.653841 -195.104107 
L 716.586766 -196.270055 
L 716.509874 -197.436002 
L 716.474765 -198.60195 
L 716.514618 -199.767897 
L 716.627468 -200.933845 
L 716.779642 -202.099792 
L 716.925268 -203.26574 
L 717.028722 -204.431687 
L 717.078811 -205.597634 
L 717.089829 -206.763582 
L 717.089777 -207.929529 
L 717.102 -209.095477 
L 717.132151 -210.261424 
L 717.169335 -211.427372 
L 717.197947 -212.593319 
L 717.208738 -213.759267 
L 717.202532 -214.925214 
L 717.188101 -216.091161 
L 717.177198 -217.257109 
L 717.178256 -218.423056 
L 717.191826 -219.589004 
L 717.211511 -220.754951 
L 717.229553 -221.920899 
L 717.241748 -223.086846 
L 717.262252 -223.086846 
L 717.262252 -223.086846 
L 717.274447 -221.920899 
L 717.292489 -220.754951 
L 717.312174 -219.589004 
L 717.325744 -218.423056 
L 717.326802 -217.257109 
L 717.315899 -216.091161 
L 717.301468 -214.925214 
L 717.295262 -213.759267 
L 717.306053 -212.593319 
L 717.334665 -211.427372 
L 717.371849 -210.261424 
L 717.402 -209.095477 
L 717.414223 -207.929529 
L 717.414171 -206.763582 
L 717.425189 -205.597634 
L 717.475278 -204.431687 
L 717.578732 -203.26574 
L 717.724358 -202.099792 
L 717.876532 -200.933845 
L 717.989382 -199.767897 
L 718.029235 -198.60195 
L 717.994126 -197.436002 
L 717.917234 -196.270055 
L 717.850159 -195.104107 
L 717.836668 -193.93816 
L 717.894304 -192.772213 
L 718.013198 -191.606265 
L 718.16764 -190.440318 
L 718.330802 -189.27437 
L 718.48723 -188.108423 
L 718.639414 -186.942475 
L 718.803849 -185.776528 
L 718.999237 -184.61058 
L 719.239083 -183.444633 
L 719.535586 -182.278686 
L 719.90624 -181.112738 
L 720.37177 -179.946791 
L 720.948577 -178.780843 
L 721.64724 -177.614896 
L 722.473354 -176.448948 
L 723.412111 -175.283001 
L 724.399562 -174.117053 
L 725.321025 -172.951106 
L 726.068185 -171.785159 
L 726.623892 -170.619211 
L 727.098797 -169.453264 
L 727.678874 -168.287316 
L 728.528014 -167.121369 
L 729.725842 -165.955421 
L 731.266398 -164.789474 
L 733.081288 -163.623526 
L 735.059825 -162.457579 
L 737.074819 -161.291631 
L 739.020736 -160.125684 
L 740.85193 -158.959737 
L 742.60466 -157.793789 
L 744.38269 -156.627842 
L 746.290177 -155.461894 
L 748.342033 -154.295947 
L 750.434781 -153.129999 
L 752.425797 -151.964052 
L 754.25079 -150.798104 
L 755.956209 -149.632157 
L 757.625092 -148.46621 
L 759.299116 -147.300262 
L 760.975483 -146.134315 
L 762.645224 -144.968367 
L 764.309791 -143.80242 
L 765.955074 -142.636472 
L 767.477432 -141.470525 
L 768.589167 -140.304577 
L 768.819047 -139.13863 
L 767.706416 -137.972683 
L 765.077909 -136.806735 
L 761.147723 -135.640788 
L 756.349355 -134.47484 
L 751.095149 -133.308893 
L 745.687658 -132.142945 
L 740.381221 -130.976998 
L 735.446105 -129.81105 
L 731.149983 -128.645103 
L 727.680357 -127.479156 
L 725.073002 -126.313208 
L 723.206135 -125.147261 
L 721.874355 -123.981313 
L 720.884666 -122.815366 
L 720.102776 -121.649418 
L 719.445908 -120.483471 
L 718.869261 -119.317523 
L 718.365633 -118.151576 
L 717.956862 -116.985629 
L 717.665842 -115.819681 
L 717.489806 -114.653734 
L 717.397865 -113.487786 
L 717.350397 -112.321839 
L 717.319391 -111.155891 
L 717.294264 -109.989944 
L 717.274812 -108.823996 
L 717.262315 -107.658049 
z
" style="stroke: #3d3d3d; stroke-width: 1.25"/>
    </defs>
    <g clip-path="url(#p444ce2a806)">
     <use xlink:href="#m682aa24bac" x="0" y="576" style="fill: #c03d3e; stroke: #3d3d3d; stroke-width: 1.25"/>
    </g>
   </g>
   <g id="PolyCollection_5">
    <defs>
     <path id="mccc2ccc6a0" d="M 903.893937 -96.697224 
L 903.874063 -96.697224 
L 903.861221 -98.179351 
L 903.836444 -99.661478 
L 903.792275 -101.143605 
L 903.718054 -102.625732 
L 903.59834 -104.107859 
L 903.410888 -105.589986 
L 903.125383 -107.072113 
L 902.704281 -108.55424 
L 902.105131 -110.036368 
L 901.280549 -111.518495 
L 900.172119 -113.000622 
L 898.701478 -114.482749 
L 896.77095 -115.964876 
L 894.286425 -117.447003 
L 891.202657 -118.92913 
L 887.574345 -120.411257 
L 883.58629 -121.893384 
L 879.538214 -123.375511 
L 875.777357 -124.857638 
L 872.601633 -126.339765 
L 870.179935 -127.821892 
L 868.530114 -129.304019 
L 867.558584 -130.786146 
L 867.127559 -132.268273 
L 867.107526 -133.7504 
L 867.396135 -135.232527 
L 867.914772 -136.714654 
L 868.60407 -138.196781 
L 869.426283 -139.678908 
L 870.366403 -141.161035 
L 871.423895 -142.643162 
L 872.599665 -144.12529 
L 873.890579 -145.607417 
L 875.296447 -147.089544 
L 876.829205 -148.571671 
L 878.507888 -150.053798 
L 880.335247 -151.535925 
L 882.272525 -153.018052 
L 884.235973 -154.500179 
L 886.121822 -155.982306 
L 887.84107 -157.464433 
L 889.338344 -158.94656 
L 890.588286 -160.428687 
L 891.586946 -161.910814 
L 892.356104 -163.392941 
L 892.954787 -164.875068 
L 893.473998 -166.357195 
L 894.002619 -167.839322 
L 894.583695 -169.321449 
L 895.196973 -170.803576 
L 895.786366 -172.285703 
L 896.313623 -173.76783 
L 896.795306 -175.249957 
L 897.29282 -176.732084 
L 897.865076 -178.214211 
L 898.523411 -179.696339 
L 899.221438 -181.178466 
L 899.88054 -182.660593 
L 900.428538 -184.14272 
L 900.82963 -185.624847 
L 901.095822 -187.106974 
L 901.279019 -188.589101 
L 901.447768 -190.071228 
L 901.657649 -191.553355 
L 901.928084 -193.035482 
L 902.236186 -194.517609 
L 902.530358 -195.999736 
L 902.75672 -197.481863 
L 902.88498 -198.96399 
L 902.920297 -200.446117 
L 902.895696 -201.928244 
L 902.851823 -203.410371 
L 902.818081 -204.892498 
L 902.805528 -206.374625 
L 902.811547 -207.856752 
L 902.829224 -209.338879 
L 902.854654 -210.821006 
L 902.889011 -212.303133 
L 902.935467 -213.78526 
L 902.993773 -215.267388 
L 903.057382 -216.749515 
L 903.116515 -218.231642 
L 903.165266 -219.713769 
L 903.206322 -221.195896 
L 903.248453 -222.678023 
L 903.298693 -224.16015 
L 903.356443 -225.642277 
L 903.414647 -227.124404 
L 903.466191 -228.606531 
L 903.509268 -230.088658 
L 903.547748 -231.570785 
L 903.587616 -233.052912 
L 903.632935 -234.535039 
L 903.683722 -236.017166 
L 903.736147 -237.499293 
L 903.78447 -238.98142 
L 903.823662 -240.463547 
L 903.851393 -241.945674 
L 903.868419 -243.427801 
L 903.899581 -243.427801 
L 903.899581 -243.427801 
L 903.916607 -241.945674 
L 903.944338 -240.463547 
L 903.98353 -238.98142 
L 904.031853 -237.499293 
L 904.084278 -236.017166 
L 904.135065 -234.535039 
L 904.180384 -233.052912 
L 904.220252 -231.570785 
L 904.258732 -230.088658 
L 904.301809 -228.606531 
L 904.353353 -227.124404 
L 904.411557 -225.642277 
L 904.469307 -224.16015 
L 904.519547 -222.678023 
L 904.561678 -221.195896 
L 904.602734 -219.713769 
L 904.651485 -218.231642 
L 904.710618 -216.749515 
L 904.774227 -215.267388 
L 904.832533 -213.78526 
L 904.878989 -212.303133 
L 904.913346 -210.821006 
L 904.938776 -209.338879 
L 904.956453 -207.856752 
L 904.962472 -206.374625 
L 904.949919 -204.892498 
L 904.916177 -203.410371 
L 904.872304 -201.928244 
L 904.847703 -200.446117 
L 904.88302 -198.96399 
L 905.01128 -197.481863 
L 905.237642 -195.999736 
L 905.531814 -194.517609 
L 905.839916 -193.035482 
L 906.110351 -191.553355 
L 906.320232 -190.071228 
L 906.488981 -188.589101 
L 906.672178 -187.106974 
L 906.93837 -185.624847 
L 907.339462 -184.14272 
L 907.88746 -182.660593 
L 908.546562 -181.178466 
L 909.244589 -179.696339 
L 909.902924 -178.214211 
L 910.47518 -176.732084 
L 910.972694 -175.249957 
L 911.454377 -173.76783 
L 911.981634 -172.285703 
L 912.571027 -170.803576 
L 913.184305 -169.321449 
L 913.765381 -167.839322 
L 914.294002 -166.357195 
L 914.813213 -164.875068 
L 915.411896 -163.392941 
L 916.181054 -161.910814 
L 917.179714 -160.428687 
L 918.429656 -158.94656 
L 919.92693 -157.464433 
L 921.646178 -155.982306 
L 923.532027 -154.500179 
L 925.495475 -153.018052 
L 927.432753 -151.535925 
L 929.260112 -150.053798 
L 930.938795 -148.571671 
L 932.471553 -147.089544 
L 933.877421 -145.607417 
L 935.168335 -144.12529 
L 936.344105 -142.643162 
L 937.401597 -141.161035 
L 938.341717 -139.678908 
L 939.16393 -138.196781 
L 939.853228 -136.714654 
L 940.371865 -135.232527 
L 940.660474 -133.7504 
L 940.640441 -132.268273 
L 940.209416 -130.786146 
L 939.237886 -129.304019 
L 937.588065 -127.821892 
L 935.166367 -126.339765 
L 931.990643 -124.857638 
L 928.229786 -123.375511 
L 924.18171 -121.893384 
L 920.193655 -120.411257 
L 916.565343 -118.92913 
L 913.481575 -117.447003 
L 910.99705 -115.964876 
L 909.066522 -114.482749 
L 907.595881 -113.000622 
L 906.487451 -111.518495 
L 905.662869 -110.036368 
L 905.063719 -108.55424 
L 904.642617 -107.072113 
L 904.357112 -105.589986 
L 904.16966 -104.107859 
L 904.049946 -102.625732 
L 903.975725 -101.143605 
L 903.931556 -99.661478 
L 903.906779 -98.179351 
L 903.893937 -96.697224 
z
" style="stroke: #3d3d3d; stroke-width: 1.25"/>
    </defs>
    <g clip-path="url(#p444ce2a806)">
     <use xlink:href="#mccc2ccc6a0" x="0" y="576" style="fill: #9372b2; stroke: #3d3d3d; stroke-width: 1.25"/>
    </g>
   </g>
   <g id="line2d_137">
    <path d="M 88.627599 461.206687 
L 226.084401 461.206687 
" clip-path="url(#p444ce2a806)" style="fill: none; stroke-dasharray: 2.34375,2.34375; stroke-dashoffset: 0; stroke: #3d3d3d; stroke-width: 1.25"/>
   </g>
   <g id="line2d_138">
    <path d="M 85.184254 456.320907 
L 229.527746 456.320907 
" clip-path="url(#p444ce2a806)" style="fill: none; stroke-dasharray: 4.6875,4.6875; stroke-dashoffset: 0; stroke: #3d3d3d; stroke-width: 1.25"/>
   </g>
   <g id="line2d_139">
    <path d="M 108.414149 450.604002 
L 206.297851 450.604002 
" clip-path="url(#p444ce2a806)" style="fill: none; stroke-dasharray: 2.34375,2.34375; stroke-dashoffset: 0; stroke: #3d3d3d; stroke-width: 1.25"/>
   </g>
   <g id="line2d_140">
    <path d="M 328.585893 424.127583 
L 359.390107 424.127583 
" clip-path="url(#p444ce2a806)" style="fill: none; stroke-dasharray: 2.34375,2.34375; stroke-dashoffset: 0; stroke: #3d3d3d; stroke-width: 1.25"/>
   </g>
   <g id="line2d_141">
    <path d="M 330.707315 404.756903 
L 357.268685 404.756903 
" clip-path="url(#p444ce2a806)" style="fill: none; stroke-dasharray: 4.6875,4.6875; stroke-dashoffset: 0; stroke: #3d3d3d; stroke-width: 1.25"/>
   </g>
   <g id="line2d_142">
    <path d="M 340.20163 353.059301 
L 347.77437 353.059301 
" clip-path="url(#p444ce2a806)" style="fill: none; stroke-dasharray: 2.34375,2.34375; stroke-dashoffset: 0; stroke: #3d3d3d; stroke-width: 1.25"/>
   </g>
   <g id="line2d_143">
    <path d="M 513.523445 394.37807 
L 547.716555 394.37807 
" clip-path="url(#p444ce2a806)" style="fill: none; stroke-dasharray: 2.34375,2.34375; stroke-dashoffset: 0; stroke: #3d3d3d; stroke-width: 1.25"/>
   </g>
   <g id="line2d_144">
    <path d="M 513.991558 378.099385 
L 547.248442 378.099385 
" clip-path="url(#p444ce2a806)" style="fill: none; stroke-dasharray: 4.6875,4.6875; stroke-dashoffset: 0; stroke: #3d3d3d; stroke-width: 1.25"/>
   </g>
   <g id="line2d_145">
    <path d="M 525.223128 336.966427 
L 536.016872 336.966427 
" clip-path="url(#p444ce2a806)" style="fill: none; stroke-dasharray: 2.34375,2.34375; stroke-dashoffset: 0; stroke: #3d3d3d; stroke-width: 1.25"/>
   </g>
   <g id="line2d_146">
    <path d="M 667.302128 437.916951 
L 767.201872 437.916951 
" clip-path="url(#p444ce2a806)" style="fill: none; stroke-dasharray: 2.34375,2.34375; stroke-dashoffset: 0; stroke: #3d3d3d; stroke-width: 1.25"/>
   </g>
   <g id="line2d_147">
    <path d="M 672.312708 430.790235 
L 762.191292 430.790235 
" clip-path="url(#p444ce2a806)" style="fill: none; stroke-dasharray: 4.6875,4.6875; stroke-dashoffset: 0; stroke: #3d3d3d; stroke-width: 1.25"/>
   </g>
   <g id="line2d_148">
    <path d="M 686.472867 421.29411 
L 748.031133 421.29411 
" clip-path="url(#p444ce2a806)" style="fill: none; stroke-dasharray: 2.34375,2.34375; stroke-dashoffset: 0; stroke: #3d3d3d; stroke-width: 1.25"/>
   </g>
   <g id="line2d_149">
    <path d="M 867.921839 445.355771 
L 939.846161 445.355771 
" clip-path="url(#p444ce2a806)" style="fill: none; stroke-dasharray: 2.34375,2.34375; stroke-dashoffset: 0; stroke: #3d3d3d; stroke-width: 1.25"/>
   </g>
   <g id="line2d_150">
    <path d="M 870.701579 435.392138 
L 937.066421 435.392138 
" clip-path="url(#p444ce2a806)" style="fill: none; stroke-dasharray: 4.6875,4.6875; stroke-dashoffset: 0; stroke: #3d3d3d; stroke-width: 1.25"/>
   </g>
   <g id="line2d_151">
    <path d="M 882.488639 422.912741 
L 925.279361 422.912741 
" clip-path="url(#p444ce2a806)" style="fill: none; stroke-dasharray: 2.34375,2.34375; stroke-dashoffset: 0; stroke: #3d3d3d; stroke-width: 1.25"/>
   </g>
   <g id="patch_3">
    <path d="M 64.04 519.34 
L 64.04 10.8 
" style="fill: none; stroke: #ffffff; stroke-width: 1.2; stroke-linejoin: miter; stroke-linecap: square"/>
   </g>
   <g id="patch_4">
    <path d="M 997.2 519.34 
L 997.2 10.8 
" style="fill: none; stroke: #ffffff; stroke-width: 1.2; stroke-linejoin: miter; stroke-linecap: square"/>
   </g>
   <g id="patch_5">
    <path d="M 64.04 519.34 
L 997.2 519.34 
" style="fill: none; stroke: #ffffff; stroke-width: 1.2; stroke-linejoin: miter; stroke-linecap: square"/>
   </g>
   <g id="patch_6">
    <path d="M 64.04 10.8 
L 997.2 10.8 
" style="fill: none; stroke: #ffffff; stroke-width: 1.2; stroke-linejoin: miter; stroke-linecap: square"/>
   </g>
  </g>
 </g>
 <defs>
  <clipPath id="p444ce2a806">
   <rect x="64.04" y="10.8" width="933.16" height="508.54"/>
  </clipPath>
 </defs>
</svg>
