<?xml version="1.0" encoding="utf-8" standalone="no"?>
<!DOCTYPE svg PUBLIC "-//W3C//DTD SVG 1.1//EN"
  "http://www.w3.org/Graphics/SVG/1.1/DTD/svg11.dtd">
<svg xmlns:xlink="http://www.w3.org/1999/xlink" width="1008pt" height="576pt" viewBox="0 0 1008 576" xmlns="http://www.w3.org/2000/svg" version="1.1">
 <metadata>
  <rdf:RDF xmlns:dc="http://purl.org/dc/elements/1.1/" xmlns:cc="http://creativecommons.org/ns#" xmlns:rdf="http://www.w3.org/1999/02/22-rdf-syntax-ns#">
   <cc:Work>
    <dc:type rdf:resource="http://purl.org/dc/dcmitype/StillImage"/>
    <dc:date>2024-06-22T10:00:23.051892</dc:date>
    <dc:format>image/svg+xml</dc:format>
    <dc:creator>
     <cc:Agent>
      <dc:title>Matplotlib v3.6.3, https://matplotlib.org/</dc:title>
     </cc:Agent>
    </dc:creator>
   </cc:Work>
  </rdf:RDF>
 </metadata>
 <defs>
  <style type="text/css">*{stroke-linejoin: round; stroke-linecap: butt}</style>
 </defs>
 <g id="figure_1">
  <g id="patch_1">
   <path d="M 0 576 
L 1008 576 
L 1008 0 
L 0 0 
z
" style="fill: #ffffff"/>
  </g>
  <g id="axes_1">
   <g id="patch_2">
    <path d="M 64.04 519.34 
L 997.2 519.34 
L 997.2 10.8 
L 64.04 10.8 
z
" style="fill: #ffffff"/>
   </g>
   <g id="matplotlib.axis_1">
    <g id="xtick_1">
     <g id="line2d_1">
      <path d="M 157.356 519.34 
L 157.356 10.8 
" clip-path="url(#p3cee5c8c58)" style="fill: none; stroke-dasharray: 2.22,0.96; stroke-dashoffset: 0; stroke: #808080; stroke-opacity: 0.6; stroke-width: 0.6"/>
     </g>
     <g id="line2d_2"/>
     <g id="text_1">
      <!-- HelBERT -->
      <g style="fill: #262626" transform="translate(127.408031 532.985625) scale(0.14 -0.14)">
       <defs>
        <path id="LiberationSans-Bold-48" d="M 3269 0 
L 3269 1888 
L 1350 1888 
L 1350 0 
L 428 0 
L 428 4403 
L 1350 4403 
L 1350 2650 
L 3269 2650 
L 3269 4403 
L 4191 4403 
L 4191 0 
L 3269 0 
z
" transform="scale(0.015625)"/>
        <path id="LiberationSans-Bold-65" d="M 1831 -63 
Q 1466 -63 1173 45 
Q 881 153 675 373 
Q 469 594 359 926 
Q 250 1259 250 1706 
Q 250 2191 379 2522 
Q 509 2853 729 3058 
Q 950 3263 1237 3353 
Q 1525 3444 1844 3444 
Q 2244 3444 2526 3305 
Q 2809 3166 2990 2916 
Q 3172 2666 3256 2317 
Q 3341 1969 3341 1547 
L 3341 1522 
L 1172 1522 
Q 1172 1309 1209 1126 
Q 1247 944 1331 811 
Q 1416 678 1550 601 
Q 1684 525 1875 525 
Q 2106 525 2253 623 
Q 2400 722 2463 928 
L 3291 856 
Q 3234 713 3132 550 
Q 3031 388 2862 252 
Q 2694 116 2442 26 
Q 2191 -63 1831 -63 
z
M 1831 2891 
Q 1697 2891 1580 2845 
Q 1463 2800 1377 2701 
Q 1291 2603 1237 2447 
Q 1184 2291 1178 2072 
L 2491 2072 
Q 2466 2481 2294 2686 
Q 2122 2891 1831 2891 
z
" transform="scale(0.015625)"/>
        <path id="LiberationSans-Bold-6c" d="M 447 0 
L 447 4638 
L 1325 4638 
L 1325 0 
L 447 0 
z
" transform="scale(0.015625)"/>
        <path id="LiberationSans-Bold-42" d="M 4331 1256 
Q 4331 922 4197 683 
Q 4063 444 3830 292 
Q 3597 141 3287 70 
Q 2978 0 2631 0 
L 428 0 
L 428 4403 
L 2444 4403 
Q 2834 4403 3139 4336 
Q 3444 4269 3653 4131 
Q 3863 3994 3970 3786 
Q 4078 3578 4078 3297 
Q 4078 2922 3870 2664 
Q 3663 2406 3238 2316 
Q 3772 2253 4051 1979 
Q 4331 1706 4331 1256 
z
M 3150 3172 
Q 3150 3469 2961 3594 
Q 2772 3719 2400 3719 
L 1350 3719 
L 1350 2628 
L 2406 2628 
Q 2797 2628 2973 2764 
Q 3150 2900 3150 3172 
z
M 3406 1328 
Q 3406 1503 3337 1622 
Q 3269 1741 3148 1812 
Q 3028 1884 2867 1915 
Q 2706 1947 2519 1947 
L 1350 1947 
L 1350 684 
L 2553 684 
Q 2734 684 2890 714 
Q 3047 744 3161 817 
Q 3275 891 3340 1016 
Q 3406 1141 3406 1328 
z
" transform="scale(0.015625)"/>
        <path id="LiberationSans-Bold-45" d="M 428 0 
L 428 4403 
L 3891 4403 
L 3891 3691 
L 1350 3691 
L 1350 2584 
L 3700 2584 
L 3700 1872 
L 1350 1872 
L 1350 713 
L 4019 713 
L 4019 0 
L 428 0 
z
" transform="scale(0.015625)"/>
        <path id="LiberationSans-Bold-52" d="M 3453 0 
L 2431 1672 
L 1350 1672 
L 1350 0 
L 428 0 
L 428 4403 
L 2628 4403 
Q 3041 4403 3348 4311 
Q 3656 4219 3862 4048 
Q 4069 3878 4170 3636 
Q 4272 3394 4272 3091 
Q 4272 2844 4198 2639 
Q 4125 2434 3995 2275 
Q 3866 2116 3687 2008 
Q 3509 1900 3300 1850 
L 4491 0 
L 3453 0 
z
M 3344 3053 
Q 3344 3375 3133 3531 
Q 2922 3688 2531 3688 
L 1350 3688 
L 1350 2388 
L 2556 2388 
Q 2763 2388 2911 2436 
Q 3059 2484 3154 2573 
Q 3250 2663 3297 2784 
Q 3344 2906 3344 3053 
z
" transform="scale(0.015625)"/>
        <path id="LiberationSans-Bold-54" d="M 2416 3691 
L 2416 0 
L 1494 0 
L 1494 3691 
L 72 3691 
L 72 4403 
L 3841 4403 
L 3841 3691 
L 2416 3691 
z
" transform="scale(0.015625)"/>
       </defs>
       <use xlink:href="#LiberationSans-Bold-48"/>
       <use xlink:href="#LiberationSans-Bold-65" x="72.216797"/>
       <use xlink:href="#LiberationSans-Bold-6c" x="127.832031"/>
       <use xlink:href="#LiberationSans-Bold-42" x="155.615234"/>
       <use xlink:href="#LiberationSans-Bold-45" x="227.832031"/>
       <use xlink:href="#LiberationSans-Bold-52" x="294.53125"/>
       <use xlink:href="#LiberationSans-Bold-54" x="366.748047"/>
      </g>
     </g>
    </g>
    <g id="xtick_2">
     <g id="line2d_3">
      <path d="M 343.988 519.34 
L 343.988 10.8 
" clip-path="url(#p3cee5c8c58)" style="fill: none; stroke-dasharray: 2.22,0.96; stroke-dashoffset: 0; stroke: #808080; stroke-opacity: 0.6; stroke-width: 0.6"/>
     </g>
     <g id="line2d_4"/>
     <g id="text_2">
      <!-- BERTimbau -->
      <g style="fill: #262626" transform="translate(304.442375 532.985625) scale(0.14 -0.14)">
       <defs>
        <path id="LiberationSans-Bold-69" d="M 447 3991 
L 447 4638 
L 1325 4638 
L 1325 3991 
L 447 3991 
z
M 447 0 
L 447 3381 
L 1325 3381 
L 1325 0 
L 447 0 
z
" transform="scale(0.015625)"/>
        <path id="LiberationSans-Bold-6d" d="M 2438 0 
L 2438 1897 
Q 2438 2094 2411 2258 
Q 2384 2422 2323 2539 
Q 2263 2656 2164 2722 
Q 2066 2788 1925 2788 
Q 1791 2788 1681 2717 
Q 1572 2647 1492 2517 
Q 1413 2388 1369 2208 
Q 1325 2028 1325 1813 
L 1325 0 
L 447 0 
L 447 2625 
Q 447 2734 445 2850 
Q 444 2966 439 3070 
Q 434 3175 431 3258 
Q 428 3341 422 3381 
L 1259 3381 
Q 1266 3344 1272 3261 
Q 1278 3178 1284 3078 
Q 1291 2978 1295 2878 
Q 1300 2778 1300 2709 
L 1313 2709 
Q 1475 3097 1717 3272 
Q 1959 3447 2297 3447 
Q 2684 3447 2920 3258 
Q 3156 3069 3238 2709 
L 3256 2709 
Q 3347 2919 3451 3059 
Q 3556 3200 3682 3286 
Q 3809 3372 3957 3409 
Q 4106 3447 4281 3447 
Q 4559 3447 4751 3347 
Q 4944 3247 5064 3072 
Q 5184 2897 5239 2659 
Q 5294 2422 5294 2147 
L 5294 0 
L 4422 0 
L 4422 1897 
Q 4422 2094 4395 2258 
Q 4369 2422 4308 2539 
Q 4247 2656 4148 2722 
Q 4050 2788 3909 2788 
Q 3778 2788 3670 2720 
Q 3563 2653 3483 2529 
Q 3403 2406 3359 2234 
Q 3316 2063 3309 1853 
L 3309 0 
L 2438 0 
z
" transform="scale(0.015625)"/>
        <path id="LiberationSans-Bold-62" d="M 3647 1703 
Q 3647 1319 3570 995 
Q 3494 672 3334 436 
Q 3175 200 2929 68 
Q 2684 -63 2350 -63 
Q 2200 -63 2050 -31 
Q 1900 0 1765 72 
Q 1631 144 1518 259 
Q 1406 375 1325 544 
L 1319 544 
Q 1319 478 1314 393 
Q 1309 309 1303 229 
Q 1297 150 1289 87 
Q 1281 25 1275 0 
L 422 0 
Q 431 109 439 311 
Q 447 513 447 772 
L 447 4638 
L 1325 4638 
L 1325 3344 
Q 1325 3244 1323 3148 
Q 1322 3053 1319 2972 
Q 1316 2878 1313 2794 
L 1325 2794 
Q 1484 3144 1762 3294 
Q 2041 3444 2406 3444 
Q 2731 3444 2965 3314 
Q 3200 3184 3351 2951 
Q 3503 2719 3575 2400 
Q 3647 2081 3647 1703 
z
M 2731 1703 
Q 2731 2278 2562 2556 
Q 2394 2834 2041 2834 
Q 1906 2834 1775 2781 
Q 1644 2728 1541 2595 
Q 1438 2463 1375 2239 
Q 1313 2016 1313 1675 
Q 1313 1344 1375 1125 
Q 1438 906 1538 775 
Q 1638 644 1769 591 
Q 1900 538 2034 538 
Q 2369 538 2550 814 
Q 2731 1091 2731 1703 
z
" transform="scale(0.015625)"/>
        <path id="LiberationSans-Bold-61" d="M 1228 -63 
Q 984 -63 792 4 
Q 600 72 465 201 
Q 331 331 259 522 
Q 188 713 188 956 
Q 188 1256 292 1461 
Q 397 1666 578 1792 
Q 759 1919 1003 1976 
Q 1247 2034 1522 2038 
L 2250 2050 
L 2250 2222 
Q 2250 2406 2217 2529 
Q 2184 2653 2121 2731 
Q 2059 2809 1967 2842 
Q 1875 2875 1756 2875 
Q 1647 2875 1561 2853 
Q 1475 2831 1412 2776 
Q 1350 2722 1311 2630 
Q 1272 2538 1256 2397 
L 341 2441 
Q 378 2663 478 2845 
Q 578 3028 754 3162 
Q 931 3297 1189 3370 
Q 1447 3444 1794 3444 
Q 2109 3444 2356 3366 
Q 2603 3288 2775 3133 
Q 2947 2978 3037 2753 
Q 3128 2528 3128 2231 
L 3128 1000 
Q 3128 881 3139 787 
Q 3150 694 3179 630 
Q 3209 566 3264 533 
Q 3319 500 3406 500 
Q 3506 500 3600 519 
L 3600 44 
Q 3522 25 3459 9 
Q 3397 -6 3334 -15 
Q 3272 -25 3201 -31 
Q 3131 -38 3038 -38 
Q 2706 -38 2548 125 
Q 2391 288 2359 603 
L 2341 603 
Q 2166 288 1892 112 
Q 1619 -63 1228 -63 
z
M 2250 1566 
L 1800 1559 
Q 1659 1553 1532 1536 
Q 1406 1519 1311 1464 
Q 1216 1409 1159 1306 
Q 1103 1203 1103 1025 
Q 1103 784 1214 667 
Q 1325 550 1509 550 
Q 1678 550 1815 622 
Q 1953 694 2048 811 
Q 2144 928 2197 1081 
Q 2250 1234 2250 1394 
L 2250 1566 
z
" transform="scale(0.015625)"/>
        <path id="LiberationSans-Bold-75" d="M 1275 3381 
L 1275 1484 
Q 1275 1288 1306 1123 
Q 1338 959 1409 842 
Q 1481 725 1595 659 
Q 1709 594 1875 594 
Q 2034 594 2164 664 
Q 2294 734 2387 864 
Q 2481 994 2532 1173 
Q 2584 1353 2584 1569 
L 2584 3381 
L 3463 3381 
L 3463 756 
Q 3463 650 3464 533 
Q 3466 416 3470 311 
Q 3475 206 3479 123 
Q 3484 41 3488 0 
L 2650 0 
Q 2647 38 2639 120 
Q 2631 203 2626 303 
Q 2622 403 2617 503 
Q 2613 603 2613 672 
L 2597 672 
Q 2422 288 2151 112 
Q 1881 -63 1509 -63 
Q 1206 -63 993 37 
Q 781 138 648 311 
Q 516 484 456 721 
Q 397 959 397 1234 
L 397 3381 
L 1275 3381 
z
" transform="scale(0.015625)"/>
       </defs>
       <use xlink:href="#LiberationSans-Bold-42"/>
       <use xlink:href="#LiberationSans-Bold-45" x="72.216797"/>
       <use xlink:href="#LiberationSans-Bold-52" x="138.916016"/>
       <use xlink:href="#LiberationSans-Bold-54" x="211.132812"/>
       <use xlink:href="#LiberationSans-Bold-69" x="270.466797"/>
       <use xlink:href="#LiberationSans-Bold-6d" x="298.25"/>
       <use xlink:href="#LiberationSans-Bold-62" x="387.166016"/>
       <use xlink:href="#LiberationSans-Bold-61" x="448.25"/>
       <use xlink:href="#LiberationSans-Bold-75" x="503.865234"/>
      </g>
     </g>
    </g>
    <g id="xtick_3">
     <g id="line2d_5">
      <path d="M 530.62 519.34 
L 530.62 10.8 
" clip-path="url(#p3cee5c8c58)" style="fill: none; stroke-dasharray: 2.22,0.96; stroke-dashoffset: 0; stroke: #808080; stroke-opacity: 0.6; stroke-width: 0.6"/>
     </g>
     <g id="line2d_6"/>
     <g id="text_3">
      <!-- mBERT -->
      <g style="fill: #262626" transform="translate(505.340156 532.985625) scale(0.14 -0.14)">
       <use xlink:href="#LiberationSans-Bold-6d"/>
       <use xlink:href="#LiberationSans-Bold-42" x="88.916016"/>
       <use xlink:href="#LiberationSans-Bold-45" x="161.132812"/>
       <use xlink:href="#LiberationSans-Bold-52" x="227.832031"/>
       <use xlink:href="#LiberationSans-Bold-54" x="300.048828"/>
      </g>
     </g>
    </g>
    <g id="xtick_4">
     <g id="line2d_7">
      <path d="M 717.252 519.34 
L 717.252 10.8 
" clip-path="url(#p3cee5c8c58)" style="fill: none; stroke-dasharray: 2.22,0.96; stroke-dashoffset: 0; stroke: #808080; stroke-opacity: 0.6; stroke-width: 0.6"/>
     </g>
     <g id="line2d_8"/>
     <g id="text_4">
      <!-- JurisBERT -->
      <g style="fill: #262626" transform="translate(681.466688 532.985625) scale(0.14 -0.14)">
       <defs>
        <path id="LiberationSans-Bold-4a" d="M 1638 -63 
Q 1306 -63 1047 6 
Q 788 75 597 225 
Q 406 375 282 614 
Q 159 853 97 1194 
L 1013 1328 
Q 1044 1144 1100 1017 
Q 1156 891 1236 811 
Q 1316 731 1419 695 
Q 1522 659 1644 659 
Q 1919 659 2061 843 
Q 2203 1028 2203 1372 
L 2203 3681 
L 1325 3681 
L 1325 4403 
L 3122 4403 
L 3122 1394 
Q 3122 1059 3025 789 
Q 2928 519 2739 330 
Q 2550 141 2273 39 
Q 1997 -63 1638 -63 
z
" transform="scale(0.015625)"/>
        <path id="LiberationSans-Bold-72" d="M 447 0 
L 447 2588 
Q 447 2697 445 2819 
Q 444 2941 439 3052 
Q 434 3163 431 3252 
Q 428 3341 422 3381 
L 1259 3381 
Q 1266 3344 1272 3251 
Q 1278 3159 1284 3050 
Q 1291 2941 1295 2833 
Q 1300 2725 1300 2659 
L 1313 2659 
Q 1378 2844 1443 2989 
Q 1509 3134 1598 3236 
Q 1688 3338 1813 3392 
Q 1938 3447 2122 3447 
Q 2200 3447 2276 3433 
Q 2353 3419 2394 3400 
L 2394 2666 
Q 2309 2684 2223 2698 
Q 2138 2713 2019 2713 
Q 1691 2713 1508 2447 
Q 1325 2181 1325 1659 
L 1325 0 
L 447 0 
z
" transform="scale(0.015625)"/>
        <path id="LiberationSans-Bold-73" d="M 3297 988 
Q 3297 744 3195 550 
Q 3094 356 2900 220 
Q 2706 84 2425 10 
Q 2144 -63 1784 -63 
Q 1463 -63 1203 -16 
Q 944 31 748 139 
Q 553 247 422 419 
Q 291 591 225 844 
L 997 959 
Q 1034 819 1100 731 
Q 1166 644 1262 597 
Q 1359 550 1489 534 
Q 1619 519 1784 519 
Q 1934 519 2064 536 
Q 2194 553 2289 595 
Q 2384 638 2437 714 
Q 2491 791 2491 906 
Q 2491 1038 2414 1114 
Q 2338 1191 2205 1239 
Q 2072 1288 1892 1323 
Q 1713 1359 1509 1406 
Q 1297 1453 1090 1518 
Q 884 1584 721 1696 
Q 559 1809 459 1982 
Q 359 2156 359 2422 
Q 359 2663 453 2852 
Q 547 3041 728 3173 
Q 909 3306 1176 3376 
Q 1444 3447 1791 3447 
Q 2066 3447 2303 3395 
Q 2541 3344 2728 3233 
Q 2916 3122 3042 2950 
Q 3169 2778 3219 2534 
L 2441 2453 
Q 2419 2575 2362 2654 
Q 2306 2734 2223 2781 
Q 2141 2828 2031 2845 
Q 1922 2863 1791 2863 
Q 1478 2863 1322 2783 
Q 1166 2703 1166 2516 
Q 1166 2400 1230 2331 
Q 1294 2263 1411 2217 
Q 1528 2172 1689 2139 
Q 1850 2106 2041 2059 
Q 2275 2009 2501 1942 
Q 2728 1875 2904 1758 
Q 3081 1641 3189 1456 
Q 3297 1272 3297 988 
z
" transform="scale(0.015625)"/>
       </defs>
       <use xlink:href="#LiberationSans-Bold-4a"/>
       <use xlink:href="#LiberationSans-Bold-75" x="55.615234"/>
       <use xlink:href="#LiberationSans-Bold-72" x="116.699219"/>
       <use xlink:href="#LiberationSans-Bold-69" x="155.615234"/>
       <use xlink:href="#LiberationSans-Bold-73" x="183.398438"/>
       <use xlink:href="#LiberationSans-Bold-42" x="239.013672"/>
       <use xlink:href="#LiberationSans-Bold-45" x="311.230469"/>
       <use xlink:href="#LiberationSans-Bold-52" x="377.929688"/>
       <use xlink:href="#LiberationSans-Bold-54" x="450.146484"/>
      </g>
     </g>
    </g>
    <g id="xtick_5">
     <g id="line2d_9">
      <path d="M 903.884 519.34 
L 903.884 10.8 
" clip-path="url(#p3cee5c8c58)" style="fill: none; stroke-dasharray: 2.22,0.96; stroke-dashoffset: 0; stroke: #808080; stroke-opacity: 0.6; stroke-width: 0.6"/>
     </g>
     <g id="line2d_10"/>
     <g id="text_5">
      <!-- LegalBERT -->
      <g style="fill: #262626" transform="translate(866.54775 532.985625) scale(0.14 -0.14)">
       <defs>
        <path id="LiberationSans-Bold-4c" d="M 428 0 
L 428 4403 
L 1350 4403 
L 1350 713 
L 3713 713 
L 3713 0 
L 428 0 
z
" transform="scale(0.015625)"/>
        <path id="LiberationSans-Bold-67" d="M 1863 -1356 
Q 1528 -1356 1273 -1289 
Q 1019 -1222 839 -1101 
Q 659 -981 551 -814 
Q 444 -647 403 -447 
L 1281 -344 
Q 1328 -547 1483 -662 
Q 1638 -778 1888 -778 
Q 2044 -778 2173 -734 
Q 2303 -691 2395 -586 
Q 2488 -481 2539 -309 
Q 2591 -138 2591 116 
Q 2591 203 2591 293 
Q 2591 384 2594 459 
Q 2597 547 2597 628 
L 2591 628 
Q 2438 300 2161 153 
Q 1884 6 1503 6 
Q 1181 6 948 132 
Q 716 259 562 486 
Q 409 713 336 1027 
Q 263 1341 263 1719 
Q 263 2109 341 2426 
Q 419 2744 580 2972 
Q 741 3200 986 3323 
Q 1231 3447 1569 3447 
Q 1906 3447 2173 3303 
Q 2441 3159 2591 2838 
L 2606 2838 
Q 2606 2903 2611 2989 
Q 2616 3075 2622 3154 
Q 2628 3234 2636 3296 
Q 2644 3359 2650 3381 
L 3481 3381 
Q 3475 3269 3469 3066 
Q 3463 2863 3463 2600 
L 3463 103 
Q 3463 -266 3356 -539 
Q 3250 -813 3045 -994 
Q 2841 -1175 2542 -1265 
Q 2244 -1356 1863 -1356 
z
M 2597 1738 
Q 2597 2056 2534 2268 
Q 2472 2481 2372 2609 
Q 2272 2738 2142 2791 
Q 2013 2844 1881 2844 
Q 1713 2844 1583 2778 
Q 1453 2713 1362 2575 
Q 1272 2438 1225 2225 
Q 1178 2013 1178 1719 
Q 1178 1172 1353 894 
Q 1528 616 1875 616 
Q 2006 616 2136 667 
Q 2266 719 2369 848 
Q 2472 978 2534 1193 
Q 2597 1409 2597 1738 
z
" transform="scale(0.015625)"/>
       </defs>
       <use xlink:href="#LiberationSans-Bold-4c"/>
       <use xlink:href="#LiberationSans-Bold-65" x="61.083984"/>
       <use xlink:href="#LiberationSans-Bold-67" x="116.699219"/>
       <use xlink:href="#LiberationSans-Bold-61" x="177.783203"/>
       <use xlink:href="#LiberationSans-Bold-6c" x="233.398438"/>
       <use xlink:href="#LiberationSans-Bold-42" x="261.181641"/>
       <use xlink:href="#LiberationSans-Bold-45" x="333.398438"/>
       <use xlink:href="#LiberationSans-Bold-52" x="400.097656"/>
       <use xlink:href="#LiberationSans-Bold-54" x="472.314453"/>
      </g>
     </g>
    </g>
    <g id="xtick_6">
     <g id="line2d_11">
      <path d="M 82.7032 519.34 
L 82.7032 10.8 
" clip-path="url(#p3cee5c8c58)" style="fill: none; stroke-dasharray: 0.4,0.66; stroke-dashoffset: 0; stroke: #808080; stroke-opacity: 0.4; stroke-width: 0.4"/>
     </g>
     <g id="line2d_12"/>
    </g>
    <g id="xtick_7">
     <g id="line2d_13">
      <path d="M 120.0296 519.34 
L 120.0296 10.8 
" clip-path="url(#p3cee5c8c58)" style="fill: none; stroke-dasharray: 0.4,0.66; stroke-dashoffset: 0; stroke: #808080; stroke-opacity: 0.4; stroke-width: 0.4"/>
     </g>
     <g id="line2d_14"/>
    </g>
    <g id="xtick_8">
     <g id="line2d_15">
      <path d="M 194.6824 519.34 
L 194.6824 10.8 
" clip-path="url(#p3cee5c8c58)" style="fill: none; stroke-dasharray: 0.4,0.66; stroke-dashoffset: 0; stroke: #808080; stroke-opacity: 0.4; stroke-width: 0.4"/>
     </g>
     <g id="line2d_16"/>
    </g>
    <g id="xtick_9">
     <g id="line2d_17">
      <path d="M 232.0088 519.34 
L 232.0088 10.8 
" clip-path="url(#p3cee5c8c58)" style="fill: none; stroke-dasharray: 0.4,0.66; stroke-dashoffset: 0; stroke: #808080; stroke-opacity: 0.4; stroke-width: 0.4"/>
     </g>
     <g id="line2d_18"/>
    </g>
    <g id="xtick_10">
     <g id="line2d_19">
      <path d="M 269.3352 519.34 
L 269.3352 10.8 
" clip-path="url(#p3cee5c8c58)" style="fill: none; stroke-dasharray: 0.4,0.66; stroke-dashoffset: 0; stroke: #808080; stroke-opacity: 0.4; stroke-width: 0.4"/>
     </g>
     <g id="line2d_20"/>
    </g>
    <g id="xtick_11">
     <g id="line2d_21">
      <path d="M 306.6616 519.34 
L 306.6616 10.8 
" clip-path="url(#p3cee5c8c58)" style="fill: none; stroke-dasharray: 0.4,0.66; stroke-dashoffset: 0; stroke: #808080; stroke-opacity: 0.4; stroke-width: 0.4"/>
     </g>
     <g id="line2d_22"/>
    </g>
    <g id="xtick_12">
     <g id="line2d_23">
      <path d="M 381.3144 519.34 
L 381.3144 10.8 
" clip-path="url(#p3cee5c8c58)" style="fill: none; stroke-dasharray: 0.4,0.66; stroke-dashoffset: 0; stroke: #808080; stroke-opacity: 0.4; stroke-width: 0.4"/>
     </g>
     <g id="line2d_24"/>
    </g>
    <g id="xtick_13">
     <g id="line2d_25">
      <path d="M 418.6408 519.34 
L 418.6408 10.8 
" clip-path="url(#p3cee5c8c58)" style="fill: none; stroke-dasharray: 0.4,0.66; stroke-dashoffset: 0; stroke: #808080; stroke-opacity: 0.4; stroke-width: 0.4"/>
     </g>
     <g id="line2d_26"/>
    </g>
    <g id="xtick_14">
     <g id="line2d_27">
      <path d="M 455.9672 519.34 
L 455.9672 10.8 
" clip-path="url(#p3cee5c8c58)" style="fill: none; stroke-dasharray: 0.4,0.66; stroke-dashoffset: 0; stroke: #808080; stroke-opacity: 0.4; stroke-width: 0.4"/>
     </g>
     <g id="line2d_28"/>
    </g>
    <g id="xtick_15">
     <g id="line2d_29">
      <path d="M 493.2936 519.34 
L 493.2936 10.8 
" clip-path="url(#p3cee5c8c58)" style="fill: none; stroke-dasharray: 0.4,0.66; stroke-dashoffset: 0; stroke: #808080; stroke-opacity: 0.4; stroke-width: 0.4"/>
     </g>
     <g id="line2d_30"/>
    </g>
    <g id="xtick_16">
     <g id="line2d_31">
      <path d="M 567.9464 519.34 
L 567.9464 10.8 
" clip-path="url(#p3cee5c8c58)" style="fill: none; stroke-dasharray: 0.4,0.66; stroke-dashoffset: 0; stroke: #808080; stroke-opacity: 0.4; stroke-width: 0.4"/>
     </g>
     <g id="line2d_32"/>
    </g>
    <g id="xtick_17">
     <g id="line2d_33">
      <path d="M 605.2728 519.34 
L 605.2728 10.8 
" clip-path="url(#p3cee5c8c58)" style="fill: none; stroke-dasharray: 0.4,0.66; stroke-dashoffset: 0; stroke: #808080; stroke-opacity: 0.4; stroke-width: 0.4"/>
     </g>
     <g id="line2d_34"/>
    </g>
    <g id="xtick_18">
     <g id="line2d_35">
      <path d="M 642.5992 519.34 
L 642.5992 10.8 
" clip-path="url(#p3cee5c8c58)" style="fill: none; stroke-dasharray: 0.4,0.66; stroke-dashoffset: 0; stroke: #808080; stroke-opacity: 0.4; stroke-width: 0.4"/>
     </g>
     <g id="line2d_36"/>
    </g>
    <g id="xtick_19">
     <g id="line2d_37">
      <path d="M 679.9256 519.34 
L 679.9256 10.8 
" clip-path="url(#p3cee5c8c58)" style="fill: none; stroke-dasharray: 0.4,0.66; stroke-dashoffset: 0; stroke: #808080; stroke-opacity: 0.4; stroke-width: 0.4"/>
     </g>
     <g id="line2d_38"/>
    </g>
    <g id="xtick_20">
     <g id="line2d_39">
      <path d="M 754.5784 519.34 
L 754.5784 10.8 
" clip-path="url(#p3cee5c8c58)" style="fill: none; stroke-dasharray: 0.4,0.66; stroke-dashoffset: 0; stroke: #808080; stroke-opacity: 0.4; stroke-width: 0.4"/>
     </g>
     <g id="line2d_40"/>
    </g>
    <g id="xtick_21">
     <g id="line2d_41">
      <path d="M 791.9048 519.34 
L 791.9048 10.8 
" clip-path="url(#p3cee5c8c58)" style="fill: none; stroke-dasharray: 0.4,0.66; stroke-dashoffset: 0; stroke: #808080; stroke-opacity: 0.4; stroke-width: 0.4"/>
     </g>
     <g id="line2d_42"/>
    </g>
    <g id="xtick_22">
     <g id="line2d_43">
      <path d="M 829.2312 519.34 
L 829.2312 10.8 
" clip-path="url(#p3cee5c8c58)" style="fill: none; stroke-dasharray: 0.4,0.66; stroke-dashoffset: 0; stroke: #808080; stroke-opacity: 0.4; stroke-width: 0.4"/>
     </g>
     <g id="line2d_44"/>
    </g>
    <g id="xtick_23">
     <g id="line2d_45">
      <path d="M 866.5576 519.34 
L 866.5576 10.8 
" clip-path="url(#p3cee5c8c58)" style="fill: none; stroke-dasharray: 0.4,0.66; stroke-dashoffset: 0; stroke: #808080; stroke-opacity: 0.4; stroke-width: 0.4"/>
     </g>
     <g id="line2d_46"/>
    </g>
    <g id="xtick_24">
     <g id="line2d_47">
      <path d="M 941.2104 519.34 
L 941.2104 10.8 
" clip-path="url(#p3cee5c8c58)" style="fill: none; stroke-dasharray: 0.4,0.66; stroke-dashoffset: 0; stroke: #808080; stroke-opacity: 0.4; stroke-width: 0.4"/>
     </g>
     <g id="line2d_48"/>
    </g>
    <g id="xtick_25">
     <g id="line2d_49">
      <path d="M 978.5368 519.34 
L 978.5368 10.8 
" clip-path="url(#p3cee5c8c58)" style="fill: none; stroke-dasharray: 0.4,0.66; stroke-dashoffset: 0; stroke: #808080; stroke-opacity: 0.4; stroke-width: 0.4"/>
     </g>
     <g id="line2d_50"/>
    </g>
    <g id="text_6">
     <!-- Modelos -->
     <g style="fill: #262626" transform="translate(500.38375 562.546875) scale(0.16 -0.16)">
      <defs>
       <path id="LiberationSans-4d" d="M 4269 0 
L 4269 2938 
Q 4269 3097 4272 3262 
Q 4275 3428 4281 3566 
Q 4288 3725 4297 3875 
Q 4253 3716 4206 3559 
Q 4166 3425 4117 3273 
Q 4069 3122 4022 3000 
L 2884 0 
L 2466 0 
L 1313 3000 
Q 1294 3047 1273 3109 
Q 1253 3172 1229 3242 
Q 1206 3313 1182 3386 
Q 1159 3459 1138 3531 
Q 1084 3697 1034 3875 
Q 1038 3700 1044 3528 
Q 1050 3381 1053 3220 
Q 1056 3059 1056 2938 
L 1056 0 
L 525 0 
L 525 4403 
L 1309 4403 
L 2481 1350 
Q 2503 1288 2534 1189 
Q 2566 1091 2594 987 
Q 2622 884 2645 792 
Q 2669 700 2678 650 
Q 2688 700 2713 794 
Q 2738 888 2770 991 
Q 2803 1094 2834 1191 
Q 2866 1288 2891 1350 
L 4041 4403 
L 4806 4403 
L 4806 0 
L 4269 0 
z
" transform="scale(0.015625)"/>
       <path id="LiberationSans-6f" d="M 3291 1694 
Q 3291 806 2900 371 
Q 2509 -63 1766 -63 
Q 1413 -63 1134 43 
Q 856 150 664 369 
Q 472 588 370 917 
Q 269 1247 269 1694 
Q 269 3444 1784 3444 
Q 2178 3444 2464 3334 
Q 2750 3225 2933 3006 
Q 3116 2788 3203 2459 
Q 3291 2131 3291 1694 
z
M 2700 1694 
Q 2700 2088 2639 2344 
Q 2578 2600 2461 2753 
Q 2344 2906 2175 2967 
Q 2006 3028 1794 3028 
Q 1578 3028 1404 2964 
Q 1231 2900 1109 2745 
Q 988 2591 923 2334 
Q 859 2078 859 1694 
Q 859 1300 928 1042 
Q 997 784 1117 631 
Q 1238 478 1402 415 
Q 1566 353 1759 353 
Q 1975 353 2150 414 
Q 2325 475 2447 628 
Q 2569 781 2634 1040 
Q 2700 1300 2700 1694 
z
" transform="scale(0.015625)"/>
       <path id="LiberationSans-64" d="M 2566 544 
Q 2409 219 2151 78 
Q 1894 -63 1513 -63 
Q 872 -63 570 368 
Q 269 800 269 1675 
Q 269 3444 1513 3444 
Q 1897 3444 2153 3303 
Q 2409 3163 2566 2856 
L 2572 2856 
Q 2572 2888 2570 2955 
Q 2569 3022 2567 3095 
Q 2566 3169 2566 3234 
Q 2566 3300 2566 3328 
L 2566 4638 
L 3128 4638 
L 3128 697 
Q 3128 575 3129 462 
Q 3131 350 3134 256 
Q 3138 163 3141 95 
Q 3144 28 3147 0 
L 2609 0 
Q 2603 31 2598 89 
Q 2594 147 2589 222 
Q 2584 297 2581 380 
Q 2578 463 2578 544 
L 2566 544 
z
M 859 1694 
Q 859 1344 903 1094 
Q 947 844 1044 683 
Q 1141 522 1291 447 
Q 1441 372 1656 372 
Q 1878 372 2048 444 
Q 2219 516 2333 677 
Q 2447 838 2506 1097 
Q 2566 1356 2566 1731 
Q 2566 2091 2506 2339 
Q 2447 2588 2331 2741 
Q 2216 2894 2048 2961 
Q 1881 3028 1663 3028 
Q 1456 3028 1306 2956 
Q 1156 2884 1056 2725 
Q 956 2566 907 2311 
Q 859 2056 859 1694 
z
" transform="scale(0.015625)"/>
       <path id="LiberationSans-65" d="M 863 1572 
Q 863 1306 917 1082 
Q 972 859 1086 698 
Q 1200 538 1378 448 
Q 1556 359 1806 359 
Q 2172 359 2392 506 
Q 2613 653 2691 878 
L 3184 738 
Q 3131 597 3036 455 
Q 2941 313 2781 198 
Q 2622 84 2383 10 
Q 2144 -63 1806 -63 
Q 1056 -63 664 384 
Q 272 831 272 1713 
Q 272 2188 390 2517 
Q 509 2847 715 3053 
Q 922 3259 1197 3351 
Q 1472 3444 1784 3444 
Q 2209 3444 2495 3306 
Q 2781 3169 2954 2926 
Q 3128 2684 3201 2356 
Q 3275 2028 3275 1647 
L 3275 1572 
L 863 1572 
z
M 2694 2003 
Q 2647 2538 2422 2783 
Q 2197 3028 1775 3028 
Q 1634 3028 1479 2983 
Q 1325 2938 1194 2822 
Q 1063 2706 972 2507 
Q 881 2309 869 2003 
L 2694 2003 
z
" transform="scale(0.015625)"/>
       <path id="LiberationSans-6c" d="M 431 0 
L 431 4638 
L 994 4638 
L 994 0 
L 431 0 
z
" transform="scale(0.015625)"/>
       <path id="LiberationSans-73" d="M 2969 934 
Q 2969 697 2876 511 
Q 2784 325 2609 198 
Q 2434 72 2179 4 
Q 1925 -63 1597 -63 
Q 1303 -63 1067 -17 
Q 831 28 653 128 
Q 475 228 354 392 
Q 234 556 178 794 
L 675 891 
Q 747 619 972 492 
Q 1197 366 1597 366 
Q 1778 366 1929 391 
Q 2081 416 2190 477 
Q 2300 538 2361 639 
Q 2422 741 2422 891 
Q 2422 1044 2350 1142 
Q 2278 1241 2150 1306 
Q 2022 1372 1839 1420 
Q 1656 1469 1438 1528 
Q 1234 1581 1034 1647 
Q 834 1713 673 1820 
Q 513 1928 413 2087 
Q 313 2247 313 2488 
Q 313 2950 642 3192 
Q 972 3434 1603 3434 
Q 2163 3434 2492 3237 
Q 2822 3041 2909 2606 
L 2403 2544 
Q 2375 2675 2300 2764 
Q 2225 2853 2119 2908 
Q 2013 2963 1880 2986 
Q 1747 3009 1603 3009 
Q 1222 3009 1040 2893 
Q 859 2778 859 2544 
Q 859 2406 926 2317 
Q 994 2228 1114 2167 
Q 1234 2106 1403 2061 
Q 1572 2016 1775 1966 
Q 1909 1931 2050 1892 
Q 2191 1853 2323 1798 
Q 2456 1744 2573 1670 
Q 2691 1597 2778 1494 
Q 2866 1391 2917 1253 
Q 2969 1116 2969 934 
z
" transform="scale(0.015625)"/>
      </defs>
      <use xlink:href="#LiberationSans-4d"/>
      <use xlink:href="#LiberationSans-6f" x="83.300781"/>
      <use xlink:href="#LiberationSans-64" x="138.916016"/>
      <use xlink:href="#LiberationSans-65" x="194.53125"/>
      <use xlink:href="#LiberationSans-6c" x="250.146484"/>
      <use xlink:href="#LiberationSans-6f" x="272.363281"/>
      <use xlink:href="#LiberationSans-73" x="327.978516"/>
     </g>
    </g>
   </g>
   <g id="matplotlib.axis_2">
    <g id="ytick_1">
     <g id="line2d_51">
      <path d="M 64.04 471.506438 
L 997.2 471.506438 
" clip-path="url(#p3cee5c8c58)" style="fill: none; stroke-dasharray: 2.22,0.96; stroke-dashoffset: 0; stroke: #808080; stroke-opacity: 0.6; stroke-width: 0.6"/>
     </g>
     <g id="line2d_52"/>
     <g id="text_7">
      <!-- 1.0 -->
      <g style="fill: #262626" transform="translate(41.08 476.57925) scale(0.14 -0.14)">
       <defs>
        <path id="LiberationSans-31" d="M 488 0 
L 488 478 
L 1609 478 
L 1609 3866 
L 616 3156 
L 616 3688 
L 1656 4403 
L 2175 4403 
L 2175 478 
L 3247 478 
L 3247 0 
L 488 0 
z
" transform="scale(0.015625)"/>
        <path id="LiberationSans-2e" d="M 584 0 
L 584 684 
L 1194 684 
L 1194 0 
L 584 0 
z
" transform="scale(0.015625)"/>
        <path id="LiberationSans-30" d="M 3309 2203 
Q 3309 1569 3189 1136 
Q 3069 703 2861 436 
Q 2653 169 2372 53 
Q 2091 -63 1772 -63 
Q 1450 -63 1172 53 
Q 894 169 689 434 
Q 484 700 367 1133 
Q 250 1566 250 2203 
Q 250 2869 367 3305 
Q 484 3741 690 4000 
Q 897 4259 1178 4364 
Q 1459 4469 1791 4469 
Q 2106 4469 2382 4364 
Q 2659 4259 2865 4000 
Q 3072 3741 3190 3305 
Q 3309 2869 3309 2203 
z
M 2738 2203 
Q 2738 2728 2675 3076 
Q 2613 3425 2491 3633 
Q 2369 3841 2192 3927 
Q 2016 4013 1791 4013 
Q 1553 4013 1372 3925 
Q 1191 3838 1067 3630 
Q 944 3422 881 3073 
Q 819 2725 819 2203 
Q 819 1697 883 1350 
Q 947 1003 1070 792 
Q 1194 581 1372 489 
Q 1550 397 1778 397 
Q 2000 397 2178 489 
Q 2356 581 2479 792 
Q 2603 1003 2670 1350 
Q 2738 1697 2738 2203 
z
" transform="scale(0.015625)"/>
       </defs>
       <use xlink:href="#LiberationSans-31"/>
       <use xlink:href="#LiberationSans-2e" x="55.615234"/>
       <use xlink:href="#LiberationSans-30" x="83.398438"/>
      </g>
     </g>
    </g>
    <g id="ytick_2">
     <g id="line2d_53">
      <path d="M 64.04 412.28287 
L 997.2 412.28287 
" clip-path="url(#p3cee5c8c58)" style="fill: none; stroke-dasharray: 2.22,0.96; stroke-dashoffset: 0; stroke: #808080; stroke-opacity: 0.6; stroke-width: 0.6"/>
     </g>
     <g id="line2d_54"/>
     <g id="text_8">
      <!-- 1.5 -->
      <g style="fill: #262626" transform="translate(41.08 417.355682) scale(0.14 -0.14)">
       <defs>
        <path id="LiberationSans-35" d="M 3291 1434 
Q 3291 1103 3191 828 
Q 3091 553 2894 354 
Q 2697 156 2405 46 
Q 2113 -63 1728 -63 
Q 1381 -63 1123 18 
Q 866 100 687 242 
Q 509 384 404 575 
Q 300 766 256 984 
L 825 1050 
Q 859 925 921 808 
Q 984 691 1092 598 
Q 1200 506 1358 451 
Q 1516 397 1741 397 
Q 1959 397 2137 464 
Q 2316 531 2442 662 
Q 2569 794 2637 984 
Q 2706 1175 2706 1422 
Q 2706 1625 2640 1795 
Q 2575 1966 2453 2089 
Q 2331 2213 2154 2281 
Q 1978 2350 1753 2350 
Q 1613 2350 1494 2325 
Q 1375 2300 1273 2256 
Q 1172 2213 1089 2155 
Q 1006 2097 934 2034 
L 384 2034 
L 531 4403 
L 3034 4403 
L 3034 3925 
L 1044 3925 
L 959 2528 
Q 1109 2644 1334 2726 
Q 1559 2809 1869 2809 
Q 2197 2809 2459 2709 
Q 2722 2609 2906 2426 
Q 3091 2244 3191 1991 
Q 3291 1738 3291 1434 
z
" transform="scale(0.015625)"/>
       </defs>
       <use xlink:href="#LiberationSans-31"/>
       <use xlink:href="#LiberationSans-2e" x="55.615234"/>
       <use xlink:href="#LiberationSans-35" x="83.398438"/>
      </g>
     </g>
    </g>
    <g id="ytick_3">
     <g id="line2d_55">
      <path d="M 64.04 353.059301 
L 997.2 353.059301 
" clip-path="url(#p3cee5c8c58)" style="fill: none; stroke-dasharray: 2.22,0.96; stroke-dashoffset: 0; stroke: #808080; stroke-opacity: 0.6; stroke-width: 0.6"/>
     </g>
     <g id="line2d_56"/>
     <g id="text_9">
      <!-- 2.0 -->
      <g style="fill: #262626" transform="translate(41.08 358.132114) scale(0.14 -0.14)">
       <defs>
        <path id="LiberationSans-32" d="M 322 0 
L 322 397 
Q 481 763 711 1042 
Q 941 1322 1194 1548 
Q 1447 1775 1695 1969 
Q 1944 2163 2144 2356 
Q 2344 2550 2467 2762 
Q 2591 2975 2591 3244 
Q 2591 3431 2534 3573 
Q 2478 3716 2372 3812 
Q 2266 3909 2117 3957 
Q 1969 4006 1788 4006 
Q 1619 4006 1470 3959 
Q 1322 3913 1206 3819 
Q 1091 3725 1017 3586 
Q 944 3447 922 3263 
L 347 3316 
Q 375 3553 478 3762 
Q 581 3972 762 4130 
Q 944 4288 1198 4378 
Q 1453 4469 1788 4469 
Q 2116 4469 2372 4391 
Q 2628 4313 2804 4159 
Q 2981 4006 3075 3781 
Q 3169 3556 3169 3263 
Q 3169 3041 3089 2841 
Q 3009 2641 2876 2459 
Q 2744 2278 2569 2109 
Q 2394 1941 2203 1780 
Q 2013 1619 1819 1461 
Q 1625 1303 1454 1143 
Q 1284 984 1150 820 
Q 1016 656 941 478 
L 3238 478 
L 3238 0 
L 322 0 
z
" transform="scale(0.015625)"/>
       </defs>
       <use xlink:href="#LiberationSans-32"/>
       <use xlink:href="#LiberationSans-2e" x="55.615234"/>
       <use xlink:href="#LiberationSans-30" x="83.398438"/>
      </g>
     </g>
    </g>
    <g id="ytick_4">
     <g id="line2d_57">
      <path d="M 64.04 293.835733 
L 997.2 293.835733 
" clip-path="url(#p3cee5c8c58)" style="fill: none; stroke-dasharray: 2.22,0.96; stroke-dashoffset: 0; stroke: #808080; stroke-opacity: 0.6; stroke-width: 0.6"/>
     </g>
     <g id="line2d_58"/>
     <g id="text_10">
      <!-- 2.5 -->
      <g style="fill: #262626" transform="translate(41.08 298.908546) scale(0.14 -0.14)">
       <use xlink:href="#LiberationSans-32"/>
       <use xlink:href="#LiberationSans-2e" x="55.615234"/>
       <use xlink:href="#LiberationSans-35" x="83.398438"/>
      </g>
     </g>
    </g>
    <g id="ytick_5">
     <g id="line2d_59">
      <path d="M 64.04 234.612165 
L 997.2 234.612165 
" clip-path="url(#p3cee5c8c58)" style="fill: none; stroke-dasharray: 2.22,0.96; stroke-dashoffset: 0; stroke: #808080; stroke-opacity: 0.6; stroke-width: 0.6"/>
     </g>
     <g id="line2d_60"/>
     <g id="text_11">
      <!-- 3.0 -->
      <g style="fill: #262626" transform="translate(41.08 239.684977) scale(0.14 -0.14)">
       <defs>
        <path id="LiberationSans-33" d="M 3278 1216 
Q 3278 913 3179 675 
Q 3081 438 2892 273 
Q 2703 109 2423 23 
Q 2144 -63 1784 -63 
Q 1375 -63 1095 39 
Q 816 141 634 308 
Q 453 475 362 689 
Q 272 903 244 1131 
L 825 1184 
Q 850 1009 917 865 
Q 984 722 1100 619 
Q 1216 516 1384 459 
Q 1553 403 1784 403 
Q 2209 403 2451 612 
Q 2694 822 2694 1234 
Q 2694 1478 2586 1626 
Q 2478 1775 2317 1858 
Q 2156 1941 1967 1969 
Q 1778 1997 1619 1997 
L 1300 1997 
L 1300 2484 
L 1606 2484 
Q 1766 2484 1937 2517 
Q 2109 2550 2251 2636 
Q 2394 2722 2486 2869 
Q 2578 3016 2578 3244 
Q 2578 3597 2370 3801 
Q 2163 4006 1753 4006 
Q 1381 4006 1151 3815 
Q 922 3625 884 3278 
L 319 3322 
Q 353 3613 478 3828 
Q 603 4044 795 4186 
Q 988 4328 1234 4398 
Q 1481 4469 1759 4469 
Q 2128 4469 2393 4376 
Q 2659 4284 2828 4126 
Q 2997 3969 3076 3756 
Q 3156 3544 3156 3303 
Q 3156 3109 3103 2940 
Q 3050 2772 2937 2637 
Q 2825 2503 2651 2406 
Q 2478 2309 2234 2259 
L 2234 2247 
Q 2500 2219 2697 2126 
Q 2894 2034 3022 1896 
Q 3150 1759 3214 1584 
Q 3278 1409 3278 1216 
z
" transform="scale(0.015625)"/>
       </defs>
       <use xlink:href="#LiberationSans-33"/>
       <use xlink:href="#LiberationSans-2e" x="55.615234"/>
       <use xlink:href="#LiberationSans-30" x="83.398438"/>
      </g>
     </g>
    </g>
    <g id="ytick_6">
     <g id="line2d_61">
      <path d="M 64.04 175.388597 
L 997.2 175.388597 
" clip-path="url(#p3cee5c8c58)" style="fill: none; stroke-dasharray: 2.22,0.96; stroke-dashoffset: 0; stroke: #808080; stroke-opacity: 0.6; stroke-width: 0.6"/>
     </g>
     <g id="line2d_62"/>
     <g id="text_12">
      <!-- 3.5 -->
      <g style="fill: #262626" transform="translate(41.08 180.461409) scale(0.14 -0.14)">
       <use xlink:href="#LiberationSans-33"/>
       <use xlink:href="#LiberationSans-2e" x="55.615234"/>
       <use xlink:href="#LiberationSans-35" x="83.398438"/>
      </g>
     </g>
    </g>
    <g id="ytick_7">
     <g id="line2d_63">
      <path d="M 64.04 116.165028 
L 997.2 116.165028 
" clip-path="url(#p3cee5c8c58)" style="fill: none; stroke-dasharray: 2.22,0.96; stroke-dashoffset: 0; stroke: #808080; stroke-opacity: 0.6; stroke-width: 0.6"/>
     </g>
     <g id="line2d_64"/>
     <g id="text_13">
      <!-- 4.0 -->
      <g style="fill: #262626" transform="translate(41.08 121.237841) scale(0.14 -0.14)">
       <defs>
        <path id="LiberationSans-34" d="M 2753 997 
L 2753 0 
L 2222 0 
L 2222 997 
L 147 997 
L 147 1434 
L 2163 4403 
L 2753 4403 
L 2753 1441 
L 3372 1441 
L 3372 997 
L 2753 997 
z
M 2222 3769 
Q 2216 3753 2191 3708 
Q 2166 3663 2134 3606 
Q 2103 3550 2070 3492 
Q 2038 3434 2013 3397 
L 884 1734 
Q 869 1709 839 1668 
Q 809 1628 778 1586 
Q 747 1544 715 1503 
Q 684 1463 666 1441 
L 2222 1441 
L 2222 3769 
z
" transform="scale(0.015625)"/>
       </defs>
       <use xlink:href="#LiberationSans-34"/>
       <use xlink:href="#LiberationSans-2e" x="55.615234"/>
       <use xlink:href="#LiberationSans-30" x="83.398438"/>
      </g>
     </g>
    </g>
    <g id="ytick_8">
     <g id="line2d_65">
      <path d="M 64.04 56.94146 
L 997.2 56.94146 
" clip-path="url(#p3cee5c8c58)" style="fill: none; stroke-dasharray: 2.22,0.96; stroke-dashoffset: 0; stroke: #808080; stroke-opacity: 0.6; stroke-width: 0.6"/>
     </g>
     <g id="line2d_66"/>
     <g id="text_14">
      <!-- 4.5 -->
      <g style="fill: #262626" transform="translate(41.08 62.014273) scale(0.14 -0.14)">
       <use xlink:href="#LiberationSans-34"/>
       <use xlink:href="#LiberationSans-2e" x="55.615234"/>
       <use xlink:href="#LiberationSans-35" x="83.398438"/>
      </g>
     </g>
    </g>
    <g id="ytick_9">
     <g id="line2d_67">
      <path d="M 64.04 518.885292 
L 997.2 518.885292 
" clip-path="url(#p3cee5c8c58)" style="fill: none; stroke-dasharray: 0.4,0.66; stroke-dashoffset: 0; stroke: #808080; stroke-opacity: 0.4; stroke-width: 0.4"/>
     </g>
     <g id="line2d_68"/>
    </g>
    <g id="ytick_10">
     <g id="line2d_69">
      <path d="M 64.04 507.040579 
L 997.2 507.040579 
" clip-path="url(#p3cee5c8c58)" style="fill: none; stroke-dasharray: 0.4,0.66; stroke-dashoffset: 0; stroke: #808080; stroke-opacity: 0.4; stroke-width: 0.4"/>
     </g>
     <g id="line2d_70"/>
    </g>
    <g id="ytick_11">
     <g id="line2d_71">
      <path d="M 64.04 495.195865 
L 997.2 495.195865 
" clip-path="url(#p3cee5c8c58)" style="fill: none; stroke-dasharray: 0.4,0.66; stroke-dashoffset: 0; stroke: #808080; stroke-opacity: 0.4; stroke-width: 0.4"/>
     </g>
     <g id="line2d_72"/>
    </g>
    <g id="ytick_12">
     <g id="line2d_73">
      <path d="M 64.04 483.351151 
L 997.2 483.351151 
" clip-path="url(#p3cee5c8c58)" style="fill: none; stroke-dasharray: 0.4,0.66; stroke-dashoffset: 0; stroke: #808080; stroke-opacity: 0.4; stroke-width: 0.4"/>
     </g>
     <g id="line2d_74"/>
    </g>
    <g id="ytick_13">
     <g id="line2d_75">
      <path d="M 64.04 459.661724 
L 997.2 459.661724 
" clip-path="url(#p3cee5c8c58)" style="fill: none; stroke-dasharray: 0.4,0.66; stroke-dashoffset: 0; stroke: #808080; stroke-opacity: 0.4; stroke-width: 0.4"/>
     </g>
     <g id="line2d_76"/>
    </g>
    <g id="ytick_14">
     <g id="line2d_77">
      <path d="M 64.04 447.817011 
L 997.2 447.817011 
" clip-path="url(#p3cee5c8c58)" style="fill: none; stroke-dasharray: 0.4,0.66; stroke-dashoffset: 0; stroke: #808080; stroke-opacity: 0.4; stroke-width: 0.4"/>
     </g>
     <g id="line2d_78"/>
    </g>
    <g id="ytick_15">
     <g id="line2d_79">
      <path d="M 64.04 435.972297 
L 997.2 435.972297 
" clip-path="url(#p3cee5c8c58)" style="fill: none; stroke-dasharray: 0.4,0.66; stroke-dashoffset: 0; stroke: #808080; stroke-opacity: 0.4; stroke-width: 0.4"/>
     </g>
     <g id="line2d_80"/>
    </g>
    <g id="ytick_16">
     <g id="line2d_81">
      <path d="M 64.04 424.127583 
L 997.2 424.127583 
" clip-path="url(#p3cee5c8c58)" style="fill: none; stroke-dasharray: 0.4,0.66; stroke-dashoffset: 0; stroke: #808080; stroke-opacity: 0.4; stroke-width: 0.4"/>
     </g>
     <g id="line2d_82"/>
    </g>
    <g id="ytick_17">
     <g id="line2d_83">
      <path d="M 64.04 400.438156 
L 997.2 400.438156 
" clip-path="url(#p3cee5c8c58)" style="fill: none; stroke-dasharray: 0.4,0.66; stroke-dashoffset: 0; stroke: #808080; stroke-opacity: 0.4; stroke-width: 0.4"/>
     </g>
     <g id="line2d_84"/>
    </g>
    <g id="ytick_18">
     <g id="line2d_85">
      <path d="M 64.04 388.593442 
L 997.2 388.593442 
" clip-path="url(#p3cee5c8c58)" style="fill: none; stroke-dasharray: 0.4,0.66; stroke-dashoffset: 0; stroke: #808080; stroke-opacity: 0.4; stroke-width: 0.4"/>
     </g>
     <g id="line2d_86"/>
    </g>
    <g id="ytick_19">
     <g id="line2d_87">
      <path d="M 64.04 376.748729 
L 997.2 376.748729 
" clip-path="url(#p3cee5c8c58)" style="fill: none; stroke-dasharray: 0.4,0.66; stroke-dashoffset: 0; stroke: #808080; stroke-opacity: 0.4; stroke-width: 0.4"/>
     </g>
     <g id="line2d_88"/>
    </g>
    <g id="ytick_20">
     <g id="line2d_89">
      <path d="M 64.04 364.904015 
L 997.2 364.904015 
" clip-path="url(#p3cee5c8c58)" style="fill: none; stroke-dasharray: 0.4,0.66; stroke-dashoffset: 0; stroke: #808080; stroke-opacity: 0.4; stroke-width: 0.4"/>
     </g>
     <g id="line2d_90"/>
    </g>
    <g id="ytick_21">
     <g id="line2d_91">
      <path d="M 64.04 341.214588 
L 997.2 341.214588 
" clip-path="url(#p3cee5c8c58)" style="fill: none; stroke-dasharray: 0.4,0.66; stroke-dashoffset: 0; stroke: #808080; stroke-opacity: 0.4; stroke-width: 0.4"/>
     </g>
     <g id="line2d_92"/>
    </g>
    <g id="ytick_22">
     <g id="line2d_93">
      <path d="M 64.04 329.369874 
L 997.2 329.369874 
" clip-path="url(#p3cee5c8c58)" style="fill: none; stroke-dasharray: 0.4,0.66; stroke-dashoffset: 0; stroke: #808080; stroke-opacity: 0.4; stroke-width: 0.4"/>
     </g>
     <g id="line2d_94"/>
    </g>
    <g id="ytick_23">
     <g id="line2d_95">
      <path d="M 64.04 317.52516 
L 997.2 317.52516 
" clip-path="url(#p3cee5c8c58)" style="fill: none; stroke-dasharray: 0.4,0.66; stroke-dashoffset: 0; stroke: #808080; stroke-opacity: 0.4; stroke-width: 0.4"/>
     </g>
     <g id="line2d_96"/>
    </g>
    <g id="ytick_24">
     <g id="line2d_97">
      <path d="M 64.04 305.680447 
L 997.2 305.680447 
" clip-path="url(#p3cee5c8c58)" style="fill: none; stroke-dasharray: 0.4,0.66; stroke-dashoffset: 0; stroke: #808080; stroke-opacity: 0.4; stroke-width: 0.4"/>
     </g>
     <g id="line2d_98"/>
    </g>
    <g id="ytick_25">
     <g id="line2d_99">
      <path d="M 64.04 281.991019 
L 997.2 281.991019 
" clip-path="url(#p3cee5c8c58)" style="fill: none; stroke-dasharray: 0.4,0.66; stroke-dashoffset: 0; stroke: #808080; stroke-opacity: 0.4; stroke-width: 0.4"/>
     </g>
     <g id="line2d_100"/>
    </g>
    <g id="ytick_26">
     <g id="line2d_101">
      <path d="M 64.04 270.146306 
L 997.2 270.146306 
" clip-path="url(#p3cee5c8c58)" style="fill: none; stroke-dasharray: 0.4,0.66; stroke-dashoffset: 0; stroke: #808080; stroke-opacity: 0.4; stroke-width: 0.4"/>
     </g>
     <g id="line2d_102"/>
    </g>
    <g id="ytick_27">
     <g id="line2d_103">
      <path d="M 64.04 258.301592 
L 997.2 258.301592 
" clip-path="url(#p3cee5c8c58)" style="fill: none; stroke-dasharray: 0.4,0.66; stroke-dashoffset: 0; stroke: #808080; stroke-opacity: 0.4; stroke-width: 0.4"/>
     </g>
     <g id="line2d_104"/>
    </g>
    <g id="ytick_28">
     <g id="line2d_105">
      <path d="M 64.04 246.456879 
L 997.2 246.456879 
" clip-path="url(#p3cee5c8c58)" style="fill: none; stroke-dasharray: 0.4,0.66; stroke-dashoffset: 0; stroke: #808080; stroke-opacity: 0.4; stroke-width: 0.4"/>
     </g>
     <g id="line2d_106"/>
    </g>
    <g id="ytick_29">
     <g id="line2d_107">
      <path d="M 64.04 222.767451 
L 997.2 222.767451 
" clip-path="url(#p3cee5c8c58)" style="fill: none; stroke-dasharray: 0.4,0.66; stroke-dashoffset: 0; stroke: #808080; stroke-opacity: 0.4; stroke-width: 0.4"/>
     </g>
     <g id="line2d_108"/>
    </g>
    <g id="ytick_30">
     <g id="line2d_109">
      <path d="M 64.04 210.922738 
L 997.2 210.922738 
" clip-path="url(#p3cee5c8c58)" style="fill: none; stroke-dasharray: 0.4,0.66; stroke-dashoffset: 0; stroke: #808080; stroke-opacity: 0.4; stroke-width: 0.4"/>
     </g>
     <g id="line2d_110"/>
    </g>
    <g id="ytick_31">
     <g id="line2d_111">
      <path d="M 64.04 199.078024 
L 997.2 199.078024 
" clip-path="url(#p3cee5c8c58)" style="fill: none; stroke-dasharray: 0.4,0.66; stroke-dashoffset: 0; stroke: #808080; stroke-opacity: 0.4; stroke-width: 0.4"/>
     </g>
     <g id="line2d_112"/>
    </g>
    <g id="ytick_32">
     <g id="line2d_113">
      <path d="M 64.04 187.23331 
L 997.2 187.23331 
" clip-path="url(#p3cee5c8c58)" style="fill: none; stroke-dasharray: 0.4,0.66; stroke-dashoffset: 0; stroke: #808080; stroke-opacity: 0.4; stroke-width: 0.4"/>
     </g>
     <g id="line2d_114"/>
    </g>
    <g id="ytick_33">
     <g id="line2d_115">
      <path d="M 64.04 163.543883 
L 997.2 163.543883 
" clip-path="url(#p3cee5c8c58)" style="fill: none; stroke-dasharray: 0.4,0.66; stroke-dashoffset: 0; stroke: #808080; stroke-opacity: 0.4; stroke-width: 0.4"/>
     </g>
     <g id="line2d_116"/>
    </g>
    <g id="ytick_34">
     <g id="line2d_117">
      <path d="M 64.04 151.699169 
L 997.2 151.699169 
" clip-path="url(#p3cee5c8c58)" style="fill: none; stroke-dasharray: 0.4,0.66; stroke-dashoffset: 0; stroke: #808080; stroke-opacity: 0.4; stroke-width: 0.4"/>
     </g>
     <g id="line2d_118"/>
    </g>
    <g id="ytick_35">
     <g id="line2d_119">
      <path d="M 64.04 139.854456 
L 997.2 139.854456 
" clip-path="url(#p3cee5c8c58)" style="fill: none; stroke-dasharray: 0.4,0.66; stroke-dashoffset: 0; stroke: #808080; stroke-opacity: 0.4; stroke-width: 0.4"/>
     </g>
     <g id="line2d_120"/>
    </g>
    <g id="ytick_36">
     <g id="line2d_121">
      <path d="M 64.04 128.009742 
L 997.2 128.009742 
" clip-path="url(#p3cee5c8c58)" style="fill: none; stroke-dasharray: 0.4,0.66; stroke-dashoffset: 0; stroke: #808080; stroke-opacity: 0.4; stroke-width: 0.4"/>
     </g>
     <g id="line2d_122"/>
    </g>
    <g id="ytick_37">
     <g id="line2d_123">
      <path d="M 64.04 104.320315 
L 997.2 104.320315 
" clip-path="url(#p3cee5c8c58)" style="fill: none; stroke-dasharray: 0.4,0.66; stroke-dashoffset: 0; stroke: #808080; stroke-opacity: 0.4; stroke-width: 0.4"/>
     </g>
     <g id="line2d_124"/>
    </g>
    <g id="ytick_38">
     <g id="line2d_125">
      <path d="M 64.04 92.475601 
L 997.2 92.475601 
" clip-path="url(#p3cee5c8c58)" style="fill: none; stroke-dasharray: 0.4,0.66; stroke-dashoffset: 0; stroke: #808080; stroke-opacity: 0.4; stroke-width: 0.4"/>
     </g>
     <g id="line2d_126"/>
    </g>
    <g id="ytick_39">
     <g id="line2d_127">
      <path d="M 64.04 80.630888 
L 997.2 80.630888 
" clip-path="url(#p3cee5c8c58)" style="fill: none; stroke-dasharray: 0.4,0.66; stroke-dashoffset: 0; stroke: #808080; stroke-opacity: 0.4; stroke-width: 0.4"/>
     </g>
     <g id="line2d_128"/>
    </g>
    <g id="ytick_40">
     <g id="line2d_129">
      <path d="M 64.04 68.786174 
L 997.2 68.786174 
" clip-path="url(#p3cee5c8c58)" style="fill: none; stroke-dasharray: 0.4,0.66; stroke-dashoffset: 0; stroke: #808080; stroke-opacity: 0.4; stroke-width: 0.4"/>
     </g>
     <g id="line2d_130"/>
    </g>
    <g id="ytick_41">
     <g id="line2d_131">
      <path d="M 64.04 45.096747 
L 997.2 45.096747 
" clip-path="url(#p3cee5c8c58)" style="fill: none; stroke-dasharray: 0.4,0.66; stroke-dashoffset: 0; stroke: #808080; stroke-opacity: 0.4; stroke-width: 0.4"/>
     </g>
     <g id="line2d_132"/>
    </g>
    <g id="ytick_42">
     <g id="line2d_133">
      <path d="M 64.04 33.252033 
L 997.2 33.252033 
" clip-path="url(#p3cee5c8c58)" style="fill: none; stroke-dasharray: 0.4,0.66; stroke-dashoffset: 0; stroke: #808080; stroke-opacity: 0.4; stroke-width: 0.4"/>
     </g>
     <g id="line2d_134"/>
    </g>
    <g id="ytick_43">
     <g id="line2d_135">
      <path d="M 64.04 21.407319 
L 997.2 21.407319 
" clip-path="url(#p3cee5c8c58)" style="fill: none; stroke-dasharray: 0.4,0.66; stroke-dashoffset: 0; stroke: #808080; stroke-opacity: 0.4; stroke-width: 0.4"/>
     </g>
     <g id="line2d_136"/>
    </g>
    <g id="text_15">
     <!-- Fertilidade -->
     <g style="fill: #262626" transform="translate(22.76 302.41875) rotate(-90) scale(0.16 -0.16)">
      <defs>
       <path id="LiberationSans-46" d="M 1122 3916 
L 1122 2278 
L 3578 2278 
L 3578 1784 
L 1122 1784 
L 1122 0 
L 525 0 
L 525 4403 
L 3653 4403 
L 3653 3916 
L 1122 3916 
z
" transform="scale(0.015625)"/>
       <path id="LiberationSans-72" d="M 444 0 
L 444 2594 
Q 444 2700 442 2811 
Q 441 2922 437 3025 
Q 434 3128 431 3218 
Q 428 3309 425 3381 
L 956 3381 
Q 959 3309 964 3217 
Q 969 3125 973 3028 
Q 978 2931 979 2842 
Q 981 2753 981 2691 
L 994 2691 
Q 1053 2884 1120 3026 
Q 1188 3169 1278 3261 
Q 1369 3353 1494 3398 
Q 1619 3444 1797 3444 
Q 1866 3444 1928 3433 
Q 1991 3422 2025 3413 
L 2025 2897 
Q 1969 2913 1894 2920 
Q 1819 2928 1725 2928 
Q 1531 2928 1395 2840 
Q 1259 2753 1173 2598 
Q 1088 2444 1047 2230 
Q 1006 2016 1006 1763 
L 1006 0 
L 444 0 
z
" transform="scale(0.015625)"/>
       <path id="LiberationSans-74" d="M 1731 25 
Q 1603 -9 1470 -29 
Q 1338 -50 1163 -50 
Q 488 -50 488 716 
L 488 2972 
L 97 2972 
L 97 3381 
L 509 3381 
L 675 4138 
L 1050 4138 
L 1050 3381 
L 1675 3381 
L 1675 2972 
L 1050 2972 
L 1050 838 
Q 1050 594 1129 495 
Q 1209 397 1406 397 
Q 1488 397 1564 409 
Q 1641 422 1731 441 
L 1731 25 
z
" transform="scale(0.015625)"/>
       <path id="LiberationSans-69" d="M 428 4100 
L 428 4638 
L 991 4638 
L 991 4100 
L 428 4100 
z
M 428 0 
L 428 3381 
L 991 3381 
L 991 0 
L 428 0 
z
" transform="scale(0.015625)"/>
       <path id="LiberationSans-61" d="M 1294 -63 
Q 784 -63 528 206 
Q 272 475 272 944 
Q 272 1278 398 1492 
Q 525 1706 729 1828 
Q 934 1950 1196 1997 
Q 1459 2044 1731 2050 
L 2491 2063 
L 2491 2247 
Q 2491 2456 2447 2603 
Q 2403 2750 2312 2840 
Q 2222 2931 2086 2973 
Q 1950 3016 1766 3016 
Q 1603 3016 1472 2992 
Q 1341 2969 1244 2908 
Q 1147 2847 1087 2742 
Q 1028 2638 1009 2478 
L 422 2531 
Q 453 2731 540 2898 
Q 628 3066 789 3187 
Q 950 3309 1192 3376 
Q 1434 3444 1778 3444 
Q 2416 3444 2737 3151 
Q 3059 2859 3059 2306 
L 3059 850 
Q 3059 600 3125 473 
Q 3191 347 3375 347 
Q 3422 347 3469 353 
Q 3516 359 3559 369 
L 3559 19 
Q 3453 -6 3348 -18 
Q 3244 -31 3125 -31 
Q 2966 -31 2852 11 
Q 2738 53 2666 139 
Q 2594 225 2556 351 
Q 2519 478 2509 647 
L 2491 647 
Q 2400 484 2292 353 
Q 2184 222 2040 130 
Q 1897 38 1714 -12 
Q 1531 -63 1294 -63 
z
M 1422 359 
Q 1691 359 1892 457 
Q 2094 556 2226 709 
Q 2359 863 2425 1044 
Q 2491 1225 2491 1391 
L 2491 1669 
L 1875 1656 
Q 1669 1653 1483 1626 
Q 1297 1600 1156 1522 
Q 1016 1444 933 1303 
Q 850 1163 850 934 
Q 850 659 998 509 
Q 1147 359 1422 359 
z
" transform="scale(0.015625)"/>
      </defs>
      <use xlink:href="#LiberationSans-46"/>
      <use xlink:href="#LiberationSans-65" x="61.083984"/>
      <use xlink:href="#LiberationSans-72" x="116.699219"/>
      <use xlink:href="#LiberationSans-74" x="150"/>
      <use xlink:href="#LiberationSans-69" x="177.783203"/>
      <use xlink:href="#LiberationSans-6c" x="200"/>
      <use xlink:href="#LiberationSans-69" x="222.216797"/>
      <use xlink:href="#LiberationSans-64" x="244.433594"/>
      <use xlink:href="#LiberationSans-61" x="300.048828"/>
      <use xlink:href="#LiberationSans-64" x="355.664062"/>
      <use xlink:href="#LiberationSans-65" x="411.279297"/>
     </g>
    </g>
   </g>
   <g id="PolyCollection_1">
    <defs>
     <path id="ma3e9429e4f" d="M 158.109574 -98.555689 
L 156.602426 -98.555689 
L 155.53195 -99.944593 
L 153.65422 -101.333497 
L 150.874212 -102.722401 
L 147.170206 -104.111305 
L 142.374584 -105.500209 
L 136.11914 -106.889113 
L 128.107103 -108.278017 
L 118.458894 -109.666921 
L 107.885296 -111.055825 
L 97.678555 -112.444729 
L 89.428245 -113.833633 
L 84.364958 -115.222537 
L 82.7032 -116.611441 
L 83.59324 -118.000345 
L 85.770307 -119.389249 
L 88.335305 -120.778153 
L 91.065216 -122.167057 
L 94.171968 -123.555961 
L 97.893784 -124.944865 
L 102.261304 -126.333769 
L 107.060586 -127.722673 
L 111.918735 -129.111577 
L 116.490833 -130.500481 
L 120.617234 -131.889385 
L 124.280428 -133.278289 
L 127.449822 -134.667193 
L 130.065091 -136.056097 
L 132.182156 -137.445001 
L 134.053483 -138.833905 
L 136.004636 -140.222809 
L 138.228062 -141.611713 
L 140.684652 -143.000617 
L 143.160567 -144.389521 
L 145.408072 -145.778425 
L 147.285586 -147.167329 
L 148.813318 -148.556233 
L 150.095843 -149.945137 
L 151.176328 -151.334041 
L 151.956146 -152.722945 
L 152.25047 -154.111849 
L 151.948916 -155.500753 
L 151.179487 -156.889657 
L 150.333139 -158.278561 
L 149.877582 -159.667465 
L 150.087351 -161.05637 
L 150.911874 -162.445274 
L 152.05311 -163.834178 
L 153.148923 -165.223082 
L 153.948184 -166.611986 
L 154.407239 -168.00089 
L 154.655738 -169.389794 
L 154.857667 -170.778698 
L 155.092341 -172.167602 
L 155.349598 -173.556506 
L 155.600574 -174.94541 
L 155.846739 -176.334314 
L 156.110427 -177.723218 
L 156.399442 -179.112122 
L 156.68792 -180.501026 
L 156.928659 -181.88993 
L 157.082154 -183.278834 
L 157.1362 -184.667738 
L 157.104627 -186.056642 
L 157.014544 -187.445546 
L 156.895102 -188.83445 
L 156.771076 -190.223354 
L 156.660532 -191.612258 
L 156.577212 -193.001162 
L 156.532384 -194.390066 
L 156.530796 -195.77897 
L 156.570679 -197.167874 
L 156.653328 -198.556778 
L 156.782457 -199.945682 
L 156.945591 -201.334586 
L 157.107265 -202.72349 
L 157.231257 -204.112394 
L 157.304936 -205.501298 
L 157.339065 -206.890202 
L 157.351468 -208.279106 
L 157.355023 -209.66801 
L 157.355831 -211.056914 
L 157.355976 -212.445818 
L 157.355997 -213.834722 
L 157.355999 -215.223626 
L 157.355997 -216.61253 
L 157.355978 -218.001434 
L 157.355866 -219.390338 
L 157.355349 -220.779242 
L 157.353459 -222.168146 
L 157.348028 -223.55705 
L 157.335903 -224.945954 
L 157.315298 -226.334858 
L 157.289768 -227.723762 
L 157.269408 -229.112666 
L 157.265042 -230.50157 
L 157.279235 -231.890474 
L 157.303948 -233.279378 
L 157.327643 -234.668282 
L 157.343588 -236.057186 
L 157.368412 -236.057186 
L 157.368412 -236.057186 
L 157.384357 -234.668282 
L 157.408052 -233.279378 
L 157.432765 -231.890474 
L 157.446958 -230.50157 
L 157.442592 -229.112666 
L 157.422232 -227.723762 
L 157.396702 -226.334858 
L 157.376097 -224.945954 
L 157.363972 -223.55705 
L 157.358541 -222.168146 
L 157.356651 -220.779242 
L 157.356134 -219.390338 
L 157.356022 -218.001434 
L 157.356003 -216.61253 
L 157.356001 -215.223626 
L 157.356003 -213.834722 
L 157.356024 -212.445818 
L 157.356169 -211.056914 
L 157.356977 -209.66801 
L 157.360532 -208.279106 
L 157.372935 -206.890202 
L 157.407064 -205.501298 
L 157.480743 -204.112394 
L 157.604735 -202.72349 
L 157.766409 -201.334586 
L 157.929543 -199.945682 
L 158.058672 -198.556778 
L 158.141321 -197.167874 
L 158.181204 -195.77897 
L 158.179616 -194.390066 
L 158.134788 -193.001162 
L 158.051468 -191.612258 
L 157.940924 -190.223354 
L 157.816898 -188.83445 
L 157.697456 -187.445546 
L 157.607373 -186.056642 
L 157.5758 -184.667738 
L 157.629846 -183.278834 
L 157.783341 -181.88993 
L 158.02408 -180.501026 
L 158.312558 -179.112122 
L 158.601573 -177.723218 
L 158.865261 -176.334314 
L 159.111426 -174.94541 
L 159.362402 -173.556506 
L 159.619659 -172.167602 
L 159.854333 -170.778698 
L 160.056262 -169.389794 
L 160.304761 -168.00089 
L 160.763816 -166.611986 
L 161.563077 -165.223082 
L 162.65889 -163.834178 
L 163.800126 -162.445274 
L 164.624649 -161.05637 
L 164.834418 -159.667465 
L 164.378861 -158.278561 
L 163.532513 -156.889657 
L 162.763084 -155.500753 
L 162.46153 -154.111849 
L 162.755854 -152.722945 
L 163.535672 -151.334041 
L 164.616157 -149.945137 
L 165.898682 -148.556233 
L 167.426414 -147.167329 
L 169.303928 -145.778425 
L 171.551433 -144.389521 
L 174.027348 -143.000617 
L 176.483938 -141.611713 
L 178.707364 -140.222809 
L 180.658517 -138.833905 
L 182.529844 -137.445001 
L 184.646909 -136.056097 
L 187.262178 -134.667193 
L 190.431572 -133.278289 
L 194.094766 -131.889385 
L 198.221167 -130.500481 
L 202.793265 -129.111577 
L 207.651414 -127.722673 
L 212.450696 -126.333769 
L 216.818216 -124.944865 
L 220.540032 -123.555961 
L 223.646784 -122.167057 
L 226.376695 -120.778153 
L 228.941693 -119.389249 
L 231.11876 -118.000345 
L 232.0088 -116.611441 
L 230.347042 -115.222537 
L 225.283755 -113.833633 
L 217.033445 -112.444729 
L 206.826704 -111.055825 
L 196.253106 -109.666921 
L 186.604897 -108.278017 
L 178.59286 -106.889113 
L 172.337416 -105.500209 
L 167.541794 -104.111305 
L 163.837788 -102.722401 
L 161.05778 -101.333497 
L 159.18005 -99.944593 
L 158.109574 -98.555689 
z
" style="stroke: #3d3d3d; stroke-width: 1.25"/>
    </defs>
    <g clip-path="url(#p3cee5c8c58)">
     <use xlink:href="#ma3e9429e4f" x="0" y="576" style="fill: #3274a1; stroke: #3d3d3d; stroke-width: 1.25"/>
    </g>
   </g>
   <g id="PolyCollection_2">
    <defs>
     <path id="m4f0264ae9b" d="M 344.026138 -79.775455 
L 343.949862 -79.775455 
L 343.902731 -84.445243 
L 343.809155 -89.115032 
L 343.635261 -93.784821 
L 343.332134 -98.45461 
L 342.835397 -103.124399 
L 342.068828 -107.794187 
L 340.953669 -112.463976 
L 339.424559 -117.133765 
L 337.451241 -121.803554 
L 335.062226 -126.473343 
L 332.36308 -131.143131 
L 329.540016 -135.81292 
L 326.84157 -140.482709 
L 324.538169 -145.152498 
L 322.868951 -149.822287 
L 321.99198 -154.492075 
L 321.953773 -159.161864 
L 322.686601 -163.831653 
L 324.031592 -168.501442 
L 325.7778 -173.17123 
L 327.705035 -177.841019 
L 329.620613 -182.510808 
L 331.384232 -187.180597 
L 332.918656 -191.850386 
L 334.206281 -196.520174 
L 335.273901 -201.189963 
L 336.170597 -205.859752 
L 336.945699 -210.529541 
L 337.633718 -215.19933 
L 338.250028 -219.869118 
L 338.796209 -224.538907 
L 339.269841 -229.208696 
L 339.672569 -233.878485 
L 340.01271 -238.548274 
L 340.302734 -243.218062 
L 340.554859 -247.887851 
L 340.778083 -252.55764 
L 340.977858 -257.227429 
L 341.157251 -261.897218 
L 341.317729 -266.567006 
L 341.458833 -271.236795 
L 341.577671 -275.906584 
L 341.669646 -280.576373 
L 341.730931 -285.246162 
L 341.761583 -289.91595 
L 341.767421 -294.585739 
L 341.759247 -299.255528 
L 341.749434 -303.925317 
L 341.747397 -308.595106 
L 341.756119 -313.264894 
L 341.771543 -317.934683 
L 341.785258 -322.604472 
L 341.789312 -327.274261 
L 341.780917 -331.94405 
L 341.764817 -336.613838 
L 341.752238 -341.283627 
L 341.756852 -345.953416 
L 341.789538 -350.623205 
L 341.854169 -355.292994 
L 341.946225 -359.962782 
L 342.054681 -364.632571 
L 342.166095 -369.30236 
L 342.268864 -373.972149 
L 342.355834 -378.641938 
L 342.424678 -383.311726 
L 342.476885 -387.981515 
L 342.516709 -392.651304 
L 342.550745 -397.321093 
L 342.587674 -401.990882 
L 342.637096 -406.66067 
L 342.706999 -411.330459 
L 342.800652 -416.000248 
L 342.914626 -420.670037 
L 343.039338 -425.339826 
L 343.162098 -430.009614 
L 343.271259 -434.679403 
L 343.359457 -439.349192 
L 343.424665 -444.018981 
L 343.469108 -448.68877 
L 343.497143 -453.358558 
L 343.513469 -458.028347 
L 343.522366 -462.698136 
L 343.527842 -467.367925 
L 343.534019 -472.037713 
L 343.545129 -476.707502 
L 343.564909 -481.377291 
L 343.595641 -486.04708 
L 343.63736 -490.716869 
L 343.687685 -495.386657 
L 343.742413 -500.056446 
L 343.796674 -504.726235 
L 343.846158 -509.396024 
L 343.887973 -514.065813 
L 343.920921 -518.735601 
L 343.94525 -523.40539 
L 343.962142 -528.075179 
L 343.973188 -532.744968 
L 343.979989 -537.414757 
L 343.983924 -542.084545 
L 343.992076 -542.084545 
L 343.992076 -542.084545 
L 343.996011 -537.414757 
L 344.002812 -532.744968 
L 344.013858 -528.075179 
L 344.03075 -523.40539 
L 344.055079 -518.735601 
L 344.088027 -514.065813 
L 344.129842 -509.396024 
L 344.179326 -504.726235 
L 344.233587 -500.056446 
L 344.288315 -495.386657 
L 344.33864 -490.716869 
L 344.380359 -486.04708 
L 344.411091 -481.377291 
L 344.430871 -476.707502 
L 344.441981 -472.037713 
L 344.448158 -467.367925 
L 344.453634 -462.698136 
L 344.462531 -458.028347 
L 344.478857 -453.358558 
L 344.506892 -448.68877 
L 344.551335 -444.018981 
L 344.616543 -439.349192 
L 344.704741 -434.679403 
L 344.813902 -430.009614 
L 344.936662 -425.339826 
L 345.061374 -420.670037 
L 345.175348 -416.000248 
L 345.269001 -411.330459 
L 345.338904 -406.66067 
L 345.388326 -401.990882 
L 345.425255 -397.321093 
L 345.459291 -392.651304 
L 345.499115 -387.981515 
L 345.551322 -383.311726 
L 345.620166 -378.641938 
L 345.707136 -373.972149 
L 345.809905 -369.30236 
L 345.921319 -364.632571 
L 346.029775 -359.962782 
L 346.121831 -355.292994 
L 346.186462 -350.623205 
L 346.219148 -345.953416 
L 346.223762 -341.283627 
L 346.211183 -336.613838 
L 346.195083 -331.94405 
L 346.186688 -327.274261 
L 346.190742 -322.604472 
L 346.204457 -317.934683 
L 346.219881 -313.264894 
L 346.228603 -308.595106 
L 346.226566 -303.925317 
L 346.216753 -299.255528 
L 346.208579 -294.585739 
L 346.214417 -289.91595 
L 346.245069 -285.246162 
L 346.306354 -280.576373 
L 346.398329 -275.906584 
L 346.517167 -271.236795 
L 346.658271 -266.567006 
L 346.818749 -261.897218 
L 346.998142 -257.227429 
L 347.197917 -252.55764 
L 347.421141 -247.887851 
L 347.673266 -243.218062 
L 347.96329 -238.548274 
L 348.303431 -233.878485 
L 348.706159 -229.208696 
L 349.179791 -224.538907 
L 349.725972 -219.869118 
L 350.342282 -215.19933 
L 351.030301 -210.529541 
L 351.805403 -205.859752 
L 352.702099 -201.189963 
L 353.769719 -196.520174 
L 355.057344 -191.850386 
L 356.591768 -187.180597 
L 358.355387 -182.510808 
L 360.270965 -177.841019 
L 362.1982 -173.17123 
L 363.944408 -168.501442 
L 365.289399 -163.831653 
L 366.022227 -159.161864 
L 365.98402 -154.492075 
L 365.107049 -149.822287 
L 363.437831 -145.152498 
L 361.13443 -140.482709 
L 358.435984 -135.81292 
L 355.61292 -131.143131 
L 352.913774 -126.473343 
L 350.524759 -121.803554 
L 348.551441 -117.133765 
L 347.022331 -112.463976 
L 345.907172 -107.794187 
L 345.140603 -103.124399 
L 344.643866 -98.45461 
L 344.340739 -93.784821 
L 344.166845 -89.115032 
L 344.073269 -84.445243 
L 344.026138 -79.775455 
z
" style="stroke: #3d3d3d; stroke-width: 1.25"/>
    </defs>
    <g clip-path="url(#p3cee5c8c58)">
     <use xlink:href="#m4f0264ae9b" x="0" y="576" style="fill: #e1812c; stroke: #3d3d3d; stroke-width: 1.25"/>
    </g>
   </g>
   <g id="PolyCollection_3">
    <defs>
     <path id="m0b72b05c8c" d="M 530.667788 -111.240247 
L 530.572212 -111.240247 
L 530.518633 -115.322418 
L 530.420754 -119.404589 
L 530.255194 -123.486759 
L 529.993702 -127.56893 
L 529.603764 -131.651101 
L 529.047676 -135.733271 
L 528.279968 -139.815442 
L 527.245838 -143.897613 
L 525.885595 -147.979783 
L 524.149125 -152.061954 
L 522.019031 -156.144125 
L 519.534004 -160.226295 
L 516.800818 -164.308466 
L 513.987882 -168.390637 
L 511.302936 -172.472807 
L 508.964764 -176.554978 
L 507.177558 -180.637149 
L 506.10863 -184.719319 
L 505.864496 -188.80149 
L 506.464206 -192.88366 
L 507.819426 -196.965831 
L 509.737274 -201.048002 
L 511.955448 -205.130172 
L 514.202495 -209.212343 
L 516.261258 -213.294514 
L 518.010868 -217.376684 
L 519.433132 -221.458855 
L 520.585451 -225.541026 
L 521.555768 -229.623196 
L 522.420252 -233.705367 
L 523.219921 -237.787538 
L 523.960946 -241.869708 
L 524.631001 -245.951879 
L 525.217911 -250.03405 
L 525.719788 -254.11622 
L 526.144509 -258.198391 
L 526.503656 -262.280562 
L 526.807478 -266.362732 
L 527.063771 -270.444903 
L 527.279249 -274.527074 
L 527.460428 -278.609244 
L 527.612552 -282.691415 
L 527.737655 -286.773586 
L 527.834082 -290.855756 
L 527.898729 -294.937927 
L 527.930896 -299.020098 
L 527.934953 -303.102268 
L 527.919671 -307.184439 
L 527.894734 -311.26661 
L 527.867365 -315.34878 
L 527.841765 -319.430951 
L 527.821426 -323.513122 
L 527.811725 -327.595292 
L 527.820176 -331.677463 
L 527.853927 -335.759634 
L 527.916451 -339.841804 
L 528.005718 -343.923975 
L 528.114732 -348.006146 
L 528.233732 -352.088316 
L 528.35287 -356.170487 
L 528.464582 -360.252658 
L 528.565314 -364.334828 
L 528.656288 -368.416999 
L 528.74296 -372.49917 
L 528.83311 -376.58134 
L 528.934178 -380.663511 
L 529.050762 -384.745682 
L 529.183029 -388.827852 
L 529.326327 -392.910023 
L 529.47192 -396.992194 
L 529.608735 -401.074364 
L 529.725809 -405.156535 
L 529.814963 -409.238706 
L 529.872942 -413.320876 
L 529.902412 -417.403047 
L 529.911436 -421.485217 
L 529.911455 -425.567388 
L 529.914255 -429.649559 
L 529.928807 -433.731729 
L 529.959138 -437.8139 
L 530.004028 -441.896071 
L 530.058536 -445.978241 
L 530.11649 -450.060412 
L 530.172764 -454.142583 
L 530.224531 -458.224753 
L 530.271341 -462.306924 
L 530.314357 -466.389095 
L 530.355267 -470.471265 
L 530.395308 -474.553436 
L 530.434701 -478.635607 
L 530.472614 -482.717777 
L 530.507583 -486.799948 
L 530.538128 -490.882119 
L 530.563259 -494.964289 
L 530.582701 -499.04646 
L 530.596829 -503.128631 
L 530.606458 -507.210801 
L 530.612592 -511.292972 
L 530.616227 -515.375143 
L 530.623773 -515.375143 
L 530.623773 -515.375143 
L 530.627408 -511.292972 
L 530.633542 -507.210801 
L 530.643171 -503.128631 
L 530.657299 -499.04646 
L 530.676741 -494.964289 
L 530.701872 -490.882119 
L 530.732417 -486.799948 
L 530.767386 -482.717777 
L 530.805299 -478.635607 
L 530.844692 -474.553436 
L 530.884733 -470.471265 
L 530.925643 -466.389095 
L 530.968659 -462.306924 
L 531.015469 -458.224753 
L 531.067236 -454.142583 
L 531.12351 -450.060412 
L 531.181464 -445.978241 
L 531.235972 -441.896071 
L 531.280862 -437.8139 
L 531.311193 -433.731729 
L 531.325745 -429.649559 
L 531.328545 -425.567388 
L 531.328564 -421.485217 
L 531.337588 -417.403047 
L 531.367058 -413.320876 
L 531.425037 -409.238706 
L 531.514191 -405.156535 
L 531.631265 -401.074364 
L 531.76808 -396.992194 
L 531.913673 -392.910023 
L 532.056971 -388.827852 
L 532.189238 -384.745682 
L 532.305822 -380.663511 
L 532.40689 -376.58134 
L 532.49704 -372.49917 
L 532.583712 -368.416999 
L 532.674686 -364.334828 
L 532.775418 -360.252658 
L 532.88713 -356.170487 
L 533.006268 -352.088316 
L 533.125268 -348.006146 
L 533.234282 -343.923975 
L 533.323549 -339.841804 
L 533.386073 -335.759634 
L 533.419824 -331.677463 
L 533.428275 -327.595292 
L 533.418574 -323.513122 
L 533.398235 -319.430951 
L 533.372635 -315.34878 
L 533.345266 -311.26661 
L 533.320329 -307.184439 
L 533.305047 -303.102268 
L 533.309104 -299.020098 
L 533.341271 -294.937927 
L 533.405918 -290.855756 
L 533.502345 -286.773586 
L 533.627448 -282.691415 
L 533.779572 -278.609244 
L 533.960751 -274.527074 
L 534.176229 -270.444903 
L 534.432522 -266.362732 
L 534.736344 -262.280562 
L 535.095491 -258.198391 
L 535.520212 -254.11622 
L 536.022089 -250.03405 
L 536.608999 -245.951879 
L 537.279054 -241.869708 
L 538.020079 -237.787538 
L 538.819748 -233.705367 
L 539.684232 -229.623196 
L 540.654549 -225.541026 
L 541.806868 -221.458855 
L 543.229132 -217.376684 
L 544.978742 -213.294514 
L 547.037505 -209.212343 
L 549.284552 -205.130172 
L 551.502726 -201.048002 
L 553.420574 -196.965831 
L 554.775794 -192.88366 
L 555.375504 -188.80149 
L 555.13137 -184.719319 
L 554.062442 -180.637149 
L 552.275236 -176.554978 
L 549.937064 -172.472807 
L 547.252118 -168.390637 
L 544.439182 -164.308466 
L 541.705996 -160.226295 
L 539.220969 -156.144125 
L 537.090875 -152.061954 
L 535.354405 -147.979783 
L 533.994162 -143.897613 
L 532.960032 -139.815442 
L 532.192324 -135.733271 
L 531.636236 -131.651101 
L 531.246298 -127.56893 
L 530.984806 -123.486759 
L 530.819246 -119.404589 
L 530.721367 -115.322418 
L 530.667788 -111.240247 
z
" style="stroke: #3d3d3d; stroke-width: 1.25"/>
    </defs>
    <g clip-path="url(#p3cee5c8c58)">
     <use xlink:href="#m0b72b05c8c" x="0" y="576" style="fill: #3a923a; stroke: #3d3d3d; stroke-width: 1.25"/>
    </g>
   </g>
   <g id="PolyCollection_4">
    <defs>
     <path id="m1fdf8cfbc6" d="M 717.266002 -107.658049 
L 717.237998 -107.658049 
L 717.221033 -108.823996 
L 717.194628 -109.989944 
L 717.160519 -111.155891 
L 717.11843 -112.321839 
L 717.053993 -113.487786 
L 716.929186 -114.653734 
L 716.690223 -115.819681 
L 716.295173 -116.985629 
L 715.74028 -118.151576 
L 715.056621 -119.317523 
L 714.273842 -120.483471 
L 713.382164 -121.649418 
L 712.320774 -122.815366 
L 710.977303 -123.981313 
L 709.169456 -125.147261 
L 706.635244 -126.313208 
L 703.095844 -127.479156 
L 698.385941 -128.645103 
L 692.554095 -129.81105 
L 685.854836 -130.976998 
L 678.651519 -132.142945 
L 671.311027 -133.308893 
L 664.178613 -134.47484 
L 657.664985 -135.640788 
L 652.329885 -136.806735 
L 648.761773 -137.972683 
L 647.251412 -139.13863 
L 647.563466 -140.304577 
L 649.072611 -141.470525 
L 651.139163 -142.636472 
L 653.372581 -143.80242 
L 655.632176 -144.968367 
L 657.898795 -146.134315 
L 660.174408 -147.300262 
L 662.446842 -148.46621 
L 664.712296 -149.632157 
L 667.027347 -150.798104 
L 669.504716 -151.964052 
L 672.207455 -153.129999 
L 675.048292 -154.295947 
L 677.83362 -155.461894 
L 680.422971 -156.627842 
L 682.836589 -157.793789 
L 685.215863 -158.959737 
L 687.701649 -160.125684 
L 690.343168 -161.291631 
L 693.078457 -162.457579 
L 695.764256 -163.623526 
L 698.22791 -164.789474 
L 700.319165 -165.955421 
L 701.945177 -167.121369 
L 703.097858 -168.287316 
L 703.885294 -169.453264 
L 704.529962 -170.619211 
L 705.284316 -171.785159 
L 706.298561 -172.951106 
L 707.549417 -174.117053 
L 708.88985 -175.283001 
L 710.164182 -176.448948 
L 711.285605 -177.614896 
L 712.234016 -178.780843 
L 713.017014 -179.946791 
L 713.648955 -181.112738 
L 714.152106 -182.278686 
L 714.5546 -183.444633 
L 714.880182 -184.61058 
L 715.145415 -185.776528 
L 715.36863 -186.942475 
L 715.575215 -188.108423 
L 715.787561 -189.27437 
L 716.009049 -190.440318 
L 716.218699 -191.606265 
L 716.380093 -192.772213 
L 716.458332 -193.93816 
L 716.440018 -195.104107 
L 716.348966 -196.270055 
L 716.244588 -197.436002 
L 716.196928 -198.60195 
L 716.251028 -199.767897 
L 716.404218 -200.933845 
L 716.610789 -202.099792 
L 716.808471 -203.26574 
L 716.948907 -204.431687 
L 717.016902 -205.597634 
L 717.031859 -206.763582 
L 717.031788 -207.929529 
L 717.04838 -209.095477 
L 717.089309 -210.261424 
L 717.139785 -211.427372 
L 717.178624 -212.593319 
L 717.193274 -213.759267 
L 717.184849 -214.925214 
L 717.165259 -216.091161 
L 717.150459 -217.257109 
L 717.151895 -218.423056 
L 717.170315 -219.589004 
L 717.197037 -220.754951 
L 717.221529 -221.920899 
L 717.238083 -223.086846 
L 717.265917 -223.086846 
L 717.265917 -223.086846 
L 717.282471 -221.920899 
L 717.306963 -220.754951 
L 717.333685 -219.589004 
L 717.352105 -218.423056 
L 717.353541 -217.257109 
L 717.338741 -216.091161 
L 717.319151 -214.925214 
L 717.310726 -213.759267 
L 717.325376 -212.593319 
L 717.364215 -211.427372 
L 717.414691 -210.261424 
L 717.45562 -209.095477 
L 717.472212 -207.929529 
L 717.472141 -206.763582 
L 717.487098 -205.597634 
L 717.555093 -204.431687 
L 717.695529 -203.26574 
L 717.893211 -202.099792 
L 718.099782 -200.933845 
L 718.252972 -199.767897 
L 718.307072 -198.60195 
L 718.259412 -197.436002 
L 718.155034 -196.270055 
L 718.063982 -195.104107 
L 718.045668 -193.93816 
L 718.123907 -192.772213 
L 718.285301 -191.606265 
L 718.494951 -190.440318 
L 718.716439 -189.27437 
L 718.928785 -188.108423 
L 719.13537 -186.942475 
L 719.358585 -185.776528 
L 719.623818 -184.61058 
L 719.9494 -183.444633 
L 720.351894 -182.278686 
L 720.855045 -181.112738 
L 721.486986 -179.946791 
L 722.269984 -178.780843 
L 723.218395 -177.614896 
L 724.339818 -176.448948 
L 725.61415 -175.283001 
L 726.954583 -174.117053 
L 728.205439 -172.951106 
L 729.219684 -171.785159 
L 729.974038 -170.619211 
L 730.618706 -169.453264 
L 731.406142 -168.287316 
L 732.558823 -167.121369 
L 734.184835 -165.955421 
L 736.27609 -164.789474 
L 738.739744 -163.623526 
L 741.425543 -162.457579 
L 744.160832 -161.291631 
L 746.802351 -160.125684 
L 749.288137 -158.959737 
L 751.667411 -157.793789 
L 754.081029 -156.627842 
L 756.67038 -155.461894 
L 759.455708 -154.295947 
L 762.296545 -153.129999 
L 764.999284 -151.964052 
L 767.476653 -150.798104 
L 769.791704 -149.632157 
L 772.057158 -148.46621 
L 774.329592 -147.300262 
L 776.605205 -146.134315 
L 778.871824 -144.968367 
L 781.131419 -143.80242 
L 783.364837 -142.636472 
L 785.431389 -141.470525 
L 786.940534 -140.304577 
L 787.252588 -139.13863 
L 785.742227 -137.972683 
L 782.174115 -136.806735 
L 776.839015 -135.640788 
L 770.325387 -134.47484 
L 763.192973 -133.308893 
L 755.852481 -132.142945 
L 748.649164 -130.976998 
L 741.949905 -129.81105 
L 736.118059 -128.645103 
L 731.408156 -127.479156 
L 727.868756 -126.313208 
L 725.334544 -125.147261 
L 723.526697 -123.981313 
L 722.183226 -122.815366 
L 721.121836 -121.649418 
L 720.230158 -120.483471 
L 719.447379 -119.317523 
L 718.76372 -118.151576 
L 718.208827 -116.985629 
L 717.813777 -115.819681 
L 717.574814 -114.653734 
L 717.450007 -113.487786 
L 717.38557 -112.321839 
L 717.343481 -111.155891 
L 717.309372 -109.989944 
L 717.282967 -108.823996 
L 717.266002 -107.658049 
z
" style="stroke: #3d3d3d; stroke-width: 1.25"/>
    </defs>
    <g clip-path="url(#p3cee5c8c58)">
     <use xlink:href="#m1fdf8cfbc6" x="0" y="576" style="fill: #c03d3e; stroke: #3d3d3d; stroke-width: 1.25"/>
    </g>
   </g>
   <g id="PolyCollection_5">
    <defs>
     <path id="mc484342487" d="M 903.89749 -96.697224 
L 903.87051 -96.697224 
L 903.853079 -98.179351 
L 903.819444 -99.661478 
L 903.759486 -101.143605 
L 903.658734 -102.625732 
L 903.496226 -104.107859 
L 903.241765 -105.589986 
L 902.854202 -107.072113 
L 902.28257 -108.55424 
L 901.469243 -110.036368 
L 900.3499 -111.518495 
L 898.845243 -113.000622 
L 896.848895 -114.482749 
L 894.228266 -115.964876 
L 890.855604 -117.447003 
L 886.669489 -118.92913 
L 881.744175 -120.411257 
L 876.330519 -121.893384 
L 870.835388 -123.375511 
L 865.730146 -124.857638 
L 861.419205 -126.339765 
L 858.131829 -127.821892 
L 855.89225 -129.304019 
L 854.573431 -130.786146 
L 853.988328 -132.268273 
L 853.961134 -133.7504 
L 854.352911 -135.232527 
L 855.056944 -136.714654 
L 855.992643 -138.196781 
L 857.10877 -139.678908 
L 858.384953 -141.161035 
L 859.820464 -142.643162 
L 861.416533 -144.12529 
L 863.168907 -145.607417 
L 865.077327 -147.089544 
L 867.157996 -148.571671 
L 869.436754 -150.053798 
L 871.917335 -151.535925 
L 874.547126 -153.018052 
L 877.212443 -154.500179 
L 879.772421 -155.982306 
L 882.106245 -157.464433 
L 884.138745 -158.94656 
L 885.835502 -160.428687 
L 887.191149 -161.910814 
L 888.235256 -163.392941 
L 889.047949 -164.875068 
L 889.75276 -166.357195 
L 890.470347 -167.839322 
L 891.259139 -169.321449 
L 892.091643 -170.803576 
L 892.891726 -172.285703 
L 893.60746 -173.76783 
L 894.261328 -175.249957 
L 894.936687 -176.732084 
L 895.713506 -178.214211 
L 896.607175 -179.696339 
L 897.554724 -181.178466 
L 898.449433 -182.660593 
L 899.193323 -184.14272 
L 899.737792 -185.624847 
L 900.099139 -187.106974 
L 900.347823 -188.589101 
L 900.576894 -190.071228 
L 900.861802 -191.553355 
L 901.228908 -193.035482 
L 901.647146 -194.517609 
L 902.046474 -195.999736 
L 902.353754 -197.481863 
L 902.527863 -198.96399 
L 902.575804 -200.446117 
L 902.54241 -201.928244 
L 902.482854 -203.410371 
L 902.437049 -204.892498 
L 902.420009 -206.374625 
L 902.42818 -207.856752 
L 902.452176 -209.338879 
L 902.486696 -210.821006 
L 902.533335 -212.303133 
L 902.596397 -213.78526 
L 902.675546 -215.267388 
L 902.761893 -216.749515 
L 902.842165 -218.231642 
L 902.908342 -219.713769 
L 902.964074 -221.195896 
L 903.021265 -222.678023 
L 903.089465 -224.16015 
L 903.167858 -225.642277 
L 903.246868 -227.124404 
L 903.316838 -228.606531 
L 903.375313 -230.088658 
L 903.427548 -231.570785 
L 903.481668 -233.052912 
L 903.543188 -234.535039 
L 903.61213 -236.017166 
L 903.683295 -237.499293 
L 903.748892 -238.98142 
L 903.802093 -240.463547 
L 903.839737 -241.945674 
L 903.86285 -243.427801 
L 903.90515 -243.427801 
L 903.90515 -243.427801 
L 903.928263 -241.945674 
L 903.965907 -240.463547 
L 904.019108 -238.98142 
L 904.084705 -237.499293 
L 904.15587 -236.017166 
L 904.224812 -234.535039 
L 904.286332 -233.052912 
L 904.340452 -231.570785 
L 904.392687 -230.088658 
L 904.451162 -228.606531 
L 904.521132 -227.124404 
L 904.600142 -225.642277 
L 904.678535 -224.16015 
L 904.746735 -222.678023 
L 904.803926 -221.195896 
L 904.859658 -219.713769 
L 904.925835 -218.231642 
L 905.006107 -216.749515 
L 905.092454 -215.267388 
L 905.171603 -213.78526 
L 905.234665 -212.303133 
L 905.281304 -210.821006 
L 905.315824 -209.338879 
L 905.33982 -207.856752 
L 905.347991 -206.374625 
L 905.330951 -204.892498 
L 905.285146 -203.410371 
L 905.22559 -201.928244 
L 905.192196 -200.446117 
L 905.240137 -198.96399 
L 905.414246 -197.481863 
L 905.721526 -195.999736 
L 906.120854 -194.517609 
L 906.539092 -193.035482 
L 906.906198 -191.553355 
L 907.191106 -190.071228 
L 907.420177 -188.589101 
L 907.668861 -187.106974 
L 908.030208 -185.624847 
L 908.574677 -184.14272 
L 909.318567 -182.660593 
L 910.213276 -181.178466 
L 911.160825 -179.696339 
L 912.054494 -178.214211 
L 912.831313 -176.732084 
L 913.506672 -175.249957 
L 914.16054 -173.76783 
L 914.876274 -172.285703 
L 915.676357 -170.803576 
L 916.508861 -169.321449 
L 917.297653 -167.839322 
L 918.01524 -166.357195 
L 918.720051 -164.875068 
L 919.532744 -163.392941 
L 920.576851 -161.910814 
L 921.932498 -160.428687 
L 923.629255 -158.94656 
L 925.661755 -157.464433 
L 927.995579 -155.982306 
L 930.555557 -154.500179 
L 933.220874 -153.018052 
L 935.850665 -151.535925 
L 938.331246 -150.053798 
L 940.610004 -148.571671 
L 942.690673 -147.089544 
L 944.599093 -145.607417 
L 946.351467 -144.12529 
L 947.947536 -142.643162 
L 949.383047 -141.161035 
L 950.65923 -139.678908 
L 951.775357 -138.196781 
L 952.711056 -136.714654 
L 953.415089 -135.232527 
L 953.806866 -133.7504 
L 953.779672 -132.268273 
L 953.194569 -130.786146 
L 951.87575 -129.304019 
L 949.636171 -127.821892 
L 946.348795 -126.339765 
L 942.037854 -124.857638 
L 936.932612 -123.375511 
L 931.437481 -121.893384 
L 926.023825 -120.411257 
L 921.098511 -118.92913 
L 916.912396 -117.447003 
L 913.539734 -115.964876 
L 910.919105 -114.482749 
L 908.922757 -113.000622 
L 907.4181 -111.518495 
L 906.298757 -110.036368 
L 905.48543 -108.55424 
L 904.913798 -107.072113 
L 904.526235 -105.589986 
L 904.271774 -104.107859 
L 904.109266 -102.625732 
L 904.008514 -101.143605 
L 903.948556 -99.661478 
L 903.914921 -98.179351 
L 903.89749 -96.697224 
z
" style="stroke: #3d3d3d; stroke-width: 1.25"/>
    </defs>
    <g clip-path="url(#p3cee5c8c58)">
     <use xlink:href="#mc484342487" x="0" y="576" style="fill: #9372b2; stroke: #3d3d3d; stroke-width: 1.25"/>
    </g>
   </g>
   <g id="line2d_137">
    <path d="M 85.094868 460.519476 
L 229.617132 460.519476 
" clip-path="url(#p3cee5c8c58)" style="fill: none; stroke-dasharray: 2.34375,2.34375; stroke-dashoffset: 0; stroke: #3d3d3d; stroke-width: 1.25"/>
   </g>
   <g id="line2d_138">
    <path d="M 91.728124 453.614631 
L 222.983876 453.614631 
" clip-path="url(#p3cee5c8c58)" style="fill: none; stroke-dasharray: 4.6875,4.6875; stroke-dashoffset: 0; stroke: #3d3d3d; stroke-width: 1.25"/>
   </g>
   <g id="line2d_139">
    <path d="M 120.984621 444.172483 
L 193.727379 444.172483 
" clip-path="url(#p3cee5c8c58)" style="fill: none; stroke-dasharray: 2.34375,2.34375; stroke-dashoffset: 0; stroke: #3d3d3d; stroke-width: 1.25"/>
   </g>
   <g id="line2d_140">
    <path d="M 323.080142 424.127583 
L 364.895858 424.127583 
" clip-path="url(#p3cee5c8c58)" style="fill: none; stroke-dasharray: 2.34375,2.34375; stroke-dashoffset: 0; stroke: #3d3d3d; stroke-width: 1.25"/>
   </g>
   <g id="line2d_141">
    <path d="M 325.959902 404.756903 
L 362.016098 404.756903 
" clip-path="url(#p3cee5c8c58)" style="fill: none; stroke-dasharray: 4.6875,4.6875; stroke-dashoffset: 0; stroke: #3d3d3d; stroke-width: 1.25"/>
   </g>
   <g id="line2d_142">
    <path d="M 338.848127 353.059301 
L 349.127873 353.059301 
" clip-path="url(#p3cee5c8c58)" style="fill: none; stroke-dasharray: 2.34375,2.34375; stroke-dashoffset: 0; stroke: #3d3d3d; stroke-width: 1.25"/>
   </g>
   <g id="line2d_143">
    <path d="M 507.411983 394.37807 
L 553.828017 394.37807 
" clip-path="url(#p3cee5c8c58)" style="fill: none; stroke-dasharray: 2.34375,2.34375; stroke-dashoffset: 0; stroke: #3d3d3d; stroke-width: 1.25"/>
   </g>
   <g id="line2d_144">
    <path d="M 508.047432 378.099385 
L 553.192568 378.099385 
" clip-path="url(#p3cee5c8c58)" style="fill: none; stroke-dasharray: 4.6875,4.6875; stroke-dashoffset: 0; stroke: #3d3d3d; stroke-width: 1.25"/>
   </g>
   <g id="line2d_145">
    <path d="M 523.293922 336.966427 
L 537.946078 336.966427 
" clip-path="url(#p3cee5c8c58)" style="fill: none; stroke-dasharray: 2.34375,2.34375; stroke-dashoffset: 0; stroke: #3d3d3d; stroke-width: 1.25"/>
   </g>
   <g id="line2d_146">
    <path d="M 649.446675 437.916951 
L 785.057325 437.916951 
" clip-path="url(#p3cee5c8c58)" style="fill: none; stroke-dasharray: 2.34375,2.34375; stroke-dashoffset: 0; stroke: #3d3d3d; stroke-width: 1.25"/>
   </g>
   <g id="line2d_147">
    <path d="M 656.248374 430.790235 
L 778.255626 430.790235 
" clip-path="url(#p3cee5c8c58)" style="fill: none; stroke-dasharray: 4.6875,4.6875; stroke-dashoffset: 0; stroke: #3d3d3d; stroke-width: 1.25"/>
   </g>
   <g id="line2d_148">
    <path d="M 675.470329 421.29411 
L 759.033671 421.29411 
" clip-path="url(#p3cee5c8c58)" style="fill: none; stroke-dasharray: 2.34375,2.34375; stroke-dashoffset: 0; stroke: #3d3d3d; stroke-width: 1.25"/>
   </g>
   <g id="line2d_149">
    <path d="M 855.066536 445.355771 
L 952.701464 445.355771 
" clip-path="url(#p3cee5c8c58)" style="fill: none; stroke-dasharray: 2.34375,2.34375; stroke-dashoffset: 0; stroke: #3d3d3d; stroke-width: 1.25"/>
   </g>
   <g id="line2d_150">
    <path d="M 858.839943 435.392138 
L 948.928057 435.392138 
" clip-path="url(#p3cee5c8c58)" style="fill: none; stroke-dasharray: 4.6875,4.6875; stroke-dashoffset: 0; stroke: #3d3d3d; stroke-width: 1.25"/>
   </g>
   <g id="line2d_151">
    <path d="M 874.840494 422.912741 
L 932.927506 422.912741 
" clip-path="url(#p3cee5c8c58)" style="fill: none; stroke-dasharray: 2.34375,2.34375; stroke-dashoffset: 0; stroke: #3d3d3d; stroke-width: 1.25"/>
   </g>
   <g id="patch_3">
    <path d="M 64.04 519.34 
L 64.04 10.8 
" style="fill: none; stroke: #ffffff; stroke-width: 1.2; stroke-linejoin: miter; stroke-linecap: square"/>
   </g>
   <g id="patch_4">
    <path d="M 997.2 519.34 
L 997.2 10.8 
" style="fill: none; stroke: #ffffff; stroke-width: 1.2; stroke-linejoin: miter; stroke-linecap: square"/>
   </g>
   <g id="patch_5">
    <path d="M 64.04 519.34 
L 997.2 519.34 
" style="fill: none; stroke: #ffffff; stroke-width: 1.2; stroke-linejoin: miter; stroke-linecap: square"/>
   </g>
   <g id="patch_6">
    <path d="M 64.04 10.8 
L 997.2 10.8 
" style="fill: none; stroke: #ffffff; stroke-width: 1.2; stroke-linejoin: miter; stroke-linecap: square"/>
   </g>
  </g>
 </g>
 <defs>
  <clipPath id="p3cee5c8c58">
   <rect x="64.04" y="10.8" width="933.16" height="508.54"/>
  </clipPath>
 </defs>
</svg>
