<?xml version="1.0" encoding="utf-8" standalone="no"?>
<!DOCTYPE svg PUBLIC "-//W3C//DTD SVG 1.1//EN"
  "http://www.w3.org/Graphics/SVG/1.1/DTD/svg11.dtd">
<svg xmlns:xlink="http://www.w3.org/1999/xlink" width="864pt" height="576pt" viewBox="0 0 864 576" xmlns="http://www.w3.org/2000/svg" version="1.1">
 <metadata>
  <rdf:RDF xmlns:dc="http://purl.org/dc/elements/1.1/" xmlns:cc="http://creativecommons.org/ns#" xmlns:rdf="http://www.w3.org/1999/02/22-rdf-syntax-ns#">
   <cc:Work>
    <dc:type rdf:resource="http://purl.org/dc/dcmitype/StillImage"/>
    <dc:date>2024-06-14T13:57:45.472494</dc:date>
    <dc:format>image/svg+xml</dc:format>
    <dc:creator>
     <cc:Agent>
      <dc:title>Matplotlib v3.6.3, https://matplotlib.org/</dc:title>
     </cc:Agent>
    </dc:creator>
   </cc:Work>
  </rdf:RDF>
 </metadata>
 <defs>
  <style type="text/css">*{stroke-linejoin: round; stroke-linecap: butt}</style>
 </defs>
 <g id="figure_1">
  <g id="patch_1">
   <path d="M 0 576 
L 864 576 
L 864 0 
L 0 0 
z
" style="fill: #ffffff"/>
  </g>
  <g id="axes_1">
   <g id="patch_2">
    <path d="M 53.66 526.48 
L 853.2 526.48 
L 853.2 10.8 
L 53.66 10.8 
z
" style="fill: #ffffff"/>
   </g>
   <g id="matplotlib.axis_1">
    <g id="xtick_1">
     <g id="line2d_1">
      <path d="M 64.938777 526.48 
L 64.938777 10.8 
" clip-path="url(#p26900a8894)" style="fill: none; stroke-dasharray: 1.85,0.8; stroke-dashoffset: 0; stroke: #b0b0b0; stroke-width: 0.5"/>
     </g>
     <g id="line2d_2">
      <defs>
       <path id="m2c910985b1" d="M 0 0 
L 0 3.5 
" style="stroke: #000000; stroke-width: 0.8"/>
      </defs>
      <g>
       <use xlink:href="#m2c910985b1" x="64.938777" y="526.48" style="stroke: #000000; stroke-width: 0.8"/>
      </g>
     </g>
     <g id="text_1">
      <!-- 0 -->
      <g transform="translate(61.121277 542.598125) scale(0.12 -0.12)">
       <defs>
        <path id="DejaVuSans-30" d="M 2034 4250 
Q 1547 4250 1301 3770 
Q 1056 3291 1056 2328 
Q 1056 1369 1301 889 
Q 1547 409 2034 409 
Q 2525 409 2770 889 
Q 3016 1369 3016 2328 
Q 3016 3291 2770 3770 
Q 2525 4250 2034 4250 
z
M 2034 4750 
Q 2819 4750 3233 4129 
Q 3647 3509 3647 2328 
Q 3647 1150 3233 529 
Q 2819 -91 2034 -91 
Q 1250 -91 836 529 
Q 422 1150 422 2328 
Q 422 3509 836 4129 
Q 1250 4750 2034 4750 
z
" transform="scale(0.015625)"/>
       </defs>
       <use xlink:href="#DejaVuSans-30"/>
      </g>
     </g>
    </g>
    <g id="xtick_2">
     <g id="line2d_3">
      <path d="M 190.258527 526.48 
L 190.258527 10.8 
" clip-path="url(#p26900a8894)" style="fill: none; stroke-dasharray: 1.85,0.8; stroke-dashoffset: 0; stroke: #b0b0b0; stroke-width: 0.5"/>
     </g>
     <g id="line2d_4">
      <g>
       <use xlink:href="#m2c910985b1" x="190.258527" y="526.48" style="stroke: #000000; stroke-width: 0.8"/>
      </g>
     </g>
     <g id="text_2">
      <!-- 5 -->
      <g transform="translate(186.441027 542.598125) scale(0.12 -0.12)">
       <defs>
        <path id="DejaVuSans-35" d="M 691 4666 
L 3169 4666 
L 3169 4134 
L 1269 4134 
L 1269 2991 
Q 1406 3038 1543 3061 
Q 1681 3084 1819 3084 
Q 2600 3084 3056 2656 
Q 3513 2228 3513 1497 
Q 3513 744 3044 326 
Q 2575 -91 1722 -91 
Q 1428 -91 1123 -41 
Q 819 9 494 109 
L 494 744 
Q 775 591 1075 516 
Q 1375 441 1709 441 
Q 2250 441 2565 725 
Q 2881 1009 2881 1497 
Q 2881 1984 2565 2268 
Q 2250 2553 1709 2553 
Q 1456 2553 1204 2497 
Q 953 2441 691 2322 
L 691 4666 
z
" transform="scale(0.015625)"/>
       </defs>
       <use xlink:href="#DejaVuSans-35"/>
      </g>
     </g>
    </g>
    <g id="xtick_3">
     <g id="line2d_5">
      <path d="M 315.578276 526.48 
L 315.578276 10.8 
" clip-path="url(#p26900a8894)" style="fill: none; stroke-dasharray: 1.85,0.8; stroke-dashoffset: 0; stroke: #b0b0b0; stroke-width: 0.5"/>
     </g>
     <g id="line2d_6">
      <g>
       <use xlink:href="#m2c910985b1" x="315.578276" y="526.48" style="stroke: #000000; stroke-width: 0.8"/>
      </g>
     </g>
     <g id="text_3">
      <!-- 10 -->
      <g transform="translate(307.943276 542.598125) scale(0.12 -0.12)">
       <defs>
        <path id="DejaVuSans-31" d="M 794 531 
L 1825 531 
L 1825 4091 
L 703 3866 
L 703 4441 
L 1819 4666 
L 2450 4666 
L 2450 531 
L 3481 531 
L 3481 0 
L 794 0 
L 794 531 
z
" transform="scale(0.015625)"/>
       </defs>
       <use xlink:href="#DejaVuSans-31"/>
       <use xlink:href="#DejaVuSans-30" x="63.623047"/>
      </g>
     </g>
    </g>
    <g id="xtick_4">
     <g id="line2d_7">
      <path d="M 440.898025 526.48 
L 440.898025 10.8 
" clip-path="url(#p26900a8894)" style="fill: none; stroke-dasharray: 1.85,0.8; stroke-dashoffset: 0; stroke: #b0b0b0; stroke-width: 0.5"/>
     </g>
     <g id="line2d_8">
      <g>
       <use xlink:href="#m2c910985b1" x="440.898025" y="526.48" style="stroke: #000000; stroke-width: 0.8"/>
      </g>
     </g>
     <g id="text_4">
      <!-- 15 -->
      <g transform="translate(433.263025 542.598125) scale(0.12 -0.12)">
       <use xlink:href="#DejaVuSans-31"/>
       <use xlink:href="#DejaVuSans-35" x="63.623047"/>
      </g>
     </g>
    </g>
    <g id="xtick_5">
     <g id="line2d_9">
      <path d="M 566.217774 526.48 
L 566.217774 10.8 
" clip-path="url(#p26900a8894)" style="fill: none; stroke-dasharray: 1.85,0.8; stroke-dashoffset: 0; stroke: #b0b0b0; stroke-width: 0.5"/>
     </g>
     <g id="line2d_10">
      <g>
       <use xlink:href="#m2c910985b1" x="566.217774" y="526.48" style="stroke: #000000; stroke-width: 0.8"/>
      </g>
     </g>
     <g id="text_5">
      <!-- 20 -->
      <g transform="translate(558.582774 542.598125) scale(0.12 -0.12)">
       <defs>
        <path id="DejaVuSans-32" d="M 1228 531 
L 3431 531 
L 3431 0 
L 469 0 
L 469 531 
Q 828 903 1448 1529 
Q 2069 2156 2228 2338 
Q 2531 2678 2651 2914 
Q 2772 3150 2772 3378 
Q 2772 3750 2511 3984 
Q 2250 4219 1831 4219 
Q 1534 4219 1204 4116 
Q 875 4013 500 3803 
L 500 4441 
Q 881 4594 1212 4672 
Q 1544 4750 1819 4750 
Q 2544 4750 2975 4387 
Q 3406 4025 3406 3419 
Q 3406 3131 3298 2873 
Q 3191 2616 2906 2266 
Q 2828 2175 2409 1742 
Q 1991 1309 1228 531 
z
" transform="scale(0.015625)"/>
       </defs>
       <use xlink:href="#DejaVuSans-32"/>
       <use xlink:href="#DejaVuSans-30" x="63.623047"/>
      </g>
     </g>
    </g>
    <g id="xtick_6">
     <g id="line2d_11">
      <path d="M 691.537524 526.48 
L 691.537524 10.8 
" clip-path="url(#p26900a8894)" style="fill: none; stroke-dasharray: 1.85,0.8; stroke-dashoffset: 0; stroke: #b0b0b0; stroke-width: 0.5"/>
     </g>
     <g id="line2d_12">
      <g>
       <use xlink:href="#m2c910985b1" x="691.537524" y="526.48" style="stroke: #000000; stroke-width: 0.8"/>
      </g>
     </g>
     <g id="text_6">
      <!-- 25 -->
      <g transform="translate(683.902524 542.598125) scale(0.12 -0.12)">
       <use xlink:href="#DejaVuSans-32"/>
       <use xlink:href="#DejaVuSans-35" x="63.623047"/>
      </g>
     </g>
    </g>
    <g id="xtick_7">
     <g id="line2d_13">
      <path d="M 816.857273 526.48 
L 816.857273 10.8 
" clip-path="url(#p26900a8894)" style="fill: none; stroke-dasharray: 1.85,0.8; stroke-dashoffset: 0; stroke: #b0b0b0; stroke-width: 0.5"/>
     </g>
     <g id="line2d_14">
      <g>
       <use xlink:href="#m2c910985b1" x="816.857273" y="526.48" style="stroke: #000000; stroke-width: 0.8"/>
      </g>
     </g>
     <g id="text_7">
      <!-- 30 -->
      <g transform="translate(809.222273 542.598125) scale(0.12 -0.12)">
       <defs>
        <path id="DejaVuSans-33" d="M 2597 2516 
Q 3050 2419 3304 2112 
Q 3559 1806 3559 1356 
Q 3559 666 3084 287 
Q 2609 -91 1734 -91 
Q 1441 -91 1130 -33 
Q 819 25 488 141 
L 488 750 
Q 750 597 1062 519 
Q 1375 441 1716 441 
Q 2309 441 2620 675 
Q 2931 909 2931 1356 
Q 2931 1769 2642 2001 
Q 2353 2234 1838 2234 
L 1294 2234 
L 1294 2753 
L 1863 2753 
Q 2328 2753 2575 2939 
Q 2822 3125 2822 3475 
Q 2822 3834 2567 4026 
Q 2313 4219 1838 4219 
Q 1578 4219 1281 4162 
Q 984 4106 628 3988 
L 628 4550 
Q 988 4650 1302 4700 
Q 1616 4750 1894 4750 
Q 2613 4750 3031 4423 
Q 3450 4097 3450 3541 
Q 3450 3153 3228 2886 
Q 3006 2619 2597 2516 
z
" transform="scale(0.015625)"/>
       </defs>
       <use xlink:href="#DejaVuSans-33"/>
       <use xlink:href="#DejaVuSans-30" x="63.623047"/>
      </g>
     </g>
    </g>
    <g id="text_8">
     <!-- Época -->
     <g transform="translate(435.1825 560.195625) scale(0.12 -0.12)">
      <defs>
       <path id="DejaVuSans-c9" d="M 628 4666 
L 3578 4666 
L 3578 4134 
L 1259 4134 
L 1259 2753 
L 3481 2753 
L 3481 2222 
L 1259 2222 
L 1259 531 
L 3634 531 
L 3634 0 
L 628 0 
L 628 4666 
z
M 2268 5921 
L 2846 5921 
L 2134 5096 
L 1655 5096 
L 2268 5921 
z
" transform="scale(0.015625)"/>
       <path id="DejaVuSans-70" d="M 1159 525 
L 1159 -1331 
L 581 -1331 
L 581 3500 
L 1159 3500 
L 1159 2969 
Q 1341 3281 1617 3432 
Q 1894 3584 2278 3584 
Q 2916 3584 3314 3078 
Q 3713 2572 3713 1747 
Q 3713 922 3314 415 
Q 2916 -91 2278 -91 
Q 1894 -91 1617 61 
Q 1341 213 1159 525 
z
M 3116 1747 
Q 3116 2381 2855 2742 
Q 2594 3103 2138 3103 
Q 1681 3103 1420 2742 
Q 1159 2381 1159 1747 
Q 1159 1113 1420 752 
Q 1681 391 2138 391 
Q 2594 391 2855 752 
Q 3116 1113 3116 1747 
z
" transform="scale(0.015625)"/>
       <path id="DejaVuSans-6f" d="M 1959 3097 
Q 1497 3097 1228 2736 
Q 959 2375 959 1747 
Q 959 1119 1226 758 
Q 1494 397 1959 397 
Q 2419 397 2687 759 
Q 2956 1122 2956 1747 
Q 2956 2369 2687 2733 
Q 2419 3097 1959 3097 
z
M 1959 3584 
Q 2709 3584 3137 3096 
Q 3566 2609 3566 1747 
Q 3566 888 3137 398 
Q 2709 -91 1959 -91 
Q 1206 -91 779 398 
Q 353 888 353 1747 
Q 353 2609 779 3096 
Q 1206 3584 1959 3584 
z
" transform="scale(0.015625)"/>
       <path id="DejaVuSans-63" d="M 3122 3366 
L 3122 2828 
Q 2878 2963 2633 3030 
Q 2388 3097 2138 3097 
Q 1578 3097 1268 2742 
Q 959 2388 959 1747 
Q 959 1106 1268 751 
Q 1578 397 2138 397 
Q 2388 397 2633 464 
Q 2878 531 3122 666 
L 3122 134 
Q 2881 22 2623 -34 
Q 2366 -91 2075 -91 
Q 1284 -91 818 406 
Q 353 903 353 1747 
Q 353 2603 823 3093 
Q 1294 3584 2113 3584 
Q 2378 3584 2631 3529 
Q 2884 3475 3122 3366 
z
" transform="scale(0.015625)"/>
       <path id="DejaVuSans-61" d="M 2194 1759 
Q 1497 1759 1228 1600 
Q 959 1441 959 1056 
Q 959 750 1161 570 
Q 1363 391 1709 391 
Q 2188 391 2477 730 
Q 2766 1069 2766 1631 
L 2766 1759 
L 2194 1759 
z
M 3341 1997 
L 3341 0 
L 2766 0 
L 2766 531 
Q 2569 213 2275 61 
Q 1981 -91 1556 -91 
Q 1019 -91 701 211 
Q 384 513 384 1019 
Q 384 1609 779 1909 
Q 1175 2209 1959 2209 
L 2766 2209 
L 2766 2266 
Q 2766 2663 2505 2880 
Q 2244 3097 1772 3097 
Q 1472 3097 1187 3025 
Q 903 2953 641 2809 
L 641 3341 
Q 956 3463 1253 3523 
Q 1550 3584 1831 3584 
Q 2591 3584 2966 3190 
Q 3341 2797 3341 1997 
z
" transform="scale(0.015625)"/>
      </defs>
      <use xlink:href="#DejaVuSans-c9"/>
      <use xlink:href="#DejaVuSans-70" x="63.183594"/>
      <use xlink:href="#DejaVuSans-6f" x="126.660156"/>
      <use xlink:href="#DejaVuSans-63" x="187.841797"/>
      <use xlink:href="#DejaVuSans-61" x="242.822266"/>
     </g>
    </g>
   </g>
   <g id="matplotlib.axis_2">
    <g id="ytick_1">
     <g id="line2d_15">
      <path d="M 53.66 519.204721 
L 853.2 519.204721 
" clip-path="url(#p26900a8894)" style="fill: none; stroke-dasharray: 1.85,0.8; stroke-dashoffset: 0; stroke: #b0b0b0; stroke-width: 0.5"/>
     </g>
     <g id="line2d_16">
      <defs>
       <path id="m2042389309" d="M 0 0 
L -3.5 0 
" style="stroke: #000000; stroke-width: 0.8"/>
      </defs>
      <g>
       <use xlink:href="#m2042389309" x="53.66" y="519.204721" style="stroke: #000000; stroke-width: 0.8"/>
      </g>
     </g>
     <g id="text_9">
      <!-- 0.4 -->
      <g transform="translate(27.57625 523.763784) scale(0.12 -0.12)">
       <defs>
        <path id="DejaVuSans-2e" d="M 684 794 
L 1344 794 
L 1344 0 
L 684 0 
L 684 794 
z
" transform="scale(0.015625)"/>
        <path id="DejaVuSans-34" d="M 2419 4116 
L 825 1625 
L 2419 1625 
L 2419 4116 
z
M 2253 4666 
L 3047 4666 
L 3047 1625 
L 3713 1625 
L 3713 1100 
L 3047 1100 
L 3047 0 
L 2419 0 
L 2419 1100 
L 313 1100 
L 313 1709 
L 2253 4666 
z
" transform="scale(0.015625)"/>
       </defs>
       <use xlink:href="#DejaVuSans-30"/>
       <use xlink:href="#DejaVuSans-2e" x="63.623047"/>
       <use xlink:href="#DejaVuSans-34" x="95.410156"/>
      </g>
     </g>
    </g>
    <g id="ytick_2">
     <g id="line2d_17">
      <path d="M 53.66 432.678011 
L 853.2 432.678011 
" clip-path="url(#p26900a8894)" style="fill: none; stroke-dasharray: 1.85,0.8; stroke-dashoffset: 0; stroke: #b0b0b0; stroke-width: 0.5"/>
     </g>
     <g id="line2d_18">
      <g>
       <use xlink:href="#m2042389309" x="53.66" y="432.678011" style="stroke: #000000; stroke-width: 0.8"/>
      </g>
     </g>
     <g id="text_10">
      <!-- 0.5 -->
      <g transform="translate(27.57625 437.237074) scale(0.12 -0.12)">
       <use xlink:href="#DejaVuSans-30"/>
       <use xlink:href="#DejaVuSans-2e" x="63.623047"/>
       <use xlink:href="#DejaVuSans-35" x="95.410156"/>
      </g>
     </g>
    </g>
    <g id="ytick_3">
     <g id="line2d_19">
      <path d="M 53.66 346.151301 
L 853.2 346.151301 
" clip-path="url(#p26900a8894)" style="fill: none; stroke-dasharray: 1.85,0.8; stroke-dashoffset: 0; stroke: #b0b0b0; stroke-width: 0.5"/>
     </g>
     <g id="line2d_20">
      <g>
       <use xlink:href="#m2042389309" x="53.66" y="346.151301" style="stroke: #000000; stroke-width: 0.8"/>
      </g>
     </g>
     <g id="text_11">
      <!-- 0.6 -->
      <g transform="translate(27.57625 350.710364) scale(0.12 -0.12)">
       <defs>
        <path id="DejaVuSans-36" d="M 2113 2584 
Q 1688 2584 1439 2293 
Q 1191 2003 1191 1497 
Q 1191 994 1439 701 
Q 1688 409 2113 409 
Q 2538 409 2786 701 
Q 3034 994 3034 1497 
Q 3034 2003 2786 2293 
Q 2538 2584 2113 2584 
z
M 3366 4563 
L 3366 3988 
Q 3128 4100 2886 4159 
Q 2644 4219 2406 4219 
Q 1781 4219 1451 3797 
Q 1122 3375 1075 2522 
Q 1259 2794 1537 2939 
Q 1816 3084 2150 3084 
Q 2853 3084 3261 2657 
Q 3669 2231 3669 1497 
Q 3669 778 3244 343 
Q 2819 -91 2113 -91 
Q 1303 -91 875 529 
Q 447 1150 447 2328 
Q 447 3434 972 4092 
Q 1497 4750 2381 4750 
Q 2619 4750 2861 4703 
Q 3103 4656 3366 4563 
z
" transform="scale(0.015625)"/>
       </defs>
       <use xlink:href="#DejaVuSans-30"/>
       <use xlink:href="#DejaVuSans-2e" x="63.623047"/>
       <use xlink:href="#DejaVuSans-36" x="95.410156"/>
      </g>
     </g>
    </g>
    <g id="ytick_4">
     <g id="line2d_21">
      <path d="M 53.66 259.624591 
L 853.2 259.624591 
" clip-path="url(#p26900a8894)" style="fill: none; stroke-dasharray: 1.85,0.8; stroke-dashoffset: 0; stroke: #b0b0b0; stroke-width: 0.5"/>
     </g>
     <g id="line2d_22">
      <g>
       <use xlink:href="#m2042389309" x="53.66" y="259.624591" style="stroke: #000000; stroke-width: 0.8"/>
      </g>
     </g>
     <g id="text_12">
      <!-- 0.7 -->
      <g transform="translate(27.57625 264.183654) scale(0.12 -0.12)">
       <defs>
        <path id="DejaVuSans-37" d="M 525 4666 
L 3525 4666 
L 3525 4397 
L 1831 0 
L 1172 0 
L 2766 4134 
L 525 4134 
L 525 4666 
z
" transform="scale(0.015625)"/>
       </defs>
       <use xlink:href="#DejaVuSans-30"/>
       <use xlink:href="#DejaVuSans-2e" x="63.623047"/>
       <use xlink:href="#DejaVuSans-37" x="95.410156"/>
      </g>
     </g>
    </g>
    <g id="ytick_5">
     <g id="line2d_23">
      <path d="M 53.66 173.097882 
L 853.2 173.097882 
" clip-path="url(#p26900a8894)" style="fill: none; stroke-dasharray: 1.85,0.8; stroke-dashoffset: 0; stroke: #b0b0b0; stroke-width: 0.5"/>
     </g>
     <g id="line2d_24">
      <g>
       <use xlink:href="#m2042389309" x="53.66" y="173.097882" style="stroke: #000000; stroke-width: 0.8"/>
      </g>
     </g>
     <g id="text_13">
      <!-- 0.8 -->
      <g transform="translate(27.57625 177.656944) scale(0.12 -0.12)">
       <defs>
        <path id="DejaVuSans-38" d="M 2034 2216 
Q 1584 2216 1326 1975 
Q 1069 1734 1069 1313 
Q 1069 891 1326 650 
Q 1584 409 2034 409 
Q 2484 409 2743 651 
Q 3003 894 3003 1313 
Q 3003 1734 2745 1975 
Q 2488 2216 2034 2216 
z
M 1403 2484 
Q 997 2584 770 2862 
Q 544 3141 544 3541 
Q 544 4100 942 4425 
Q 1341 4750 2034 4750 
Q 2731 4750 3128 4425 
Q 3525 4100 3525 3541 
Q 3525 3141 3298 2862 
Q 3072 2584 2669 2484 
Q 3125 2378 3379 2068 
Q 3634 1759 3634 1313 
Q 3634 634 3220 271 
Q 2806 -91 2034 -91 
Q 1263 -91 848 271 
Q 434 634 434 1313 
Q 434 1759 690 2068 
Q 947 2378 1403 2484 
z
M 1172 3481 
Q 1172 3119 1398 2916 
Q 1625 2713 2034 2713 
Q 2441 2713 2670 2916 
Q 2900 3119 2900 3481 
Q 2900 3844 2670 4047 
Q 2441 4250 2034 4250 
Q 1625 4250 1398 4047 
Q 1172 3844 1172 3481 
z
" transform="scale(0.015625)"/>
       </defs>
       <use xlink:href="#DejaVuSans-30"/>
       <use xlink:href="#DejaVuSans-2e" x="63.623047"/>
       <use xlink:href="#DejaVuSans-38" x="95.410156"/>
      </g>
     </g>
    </g>
    <g id="ytick_6">
     <g id="line2d_25">
      <path d="M 53.66 86.571172 
L 853.2 86.571172 
" clip-path="url(#p26900a8894)" style="fill: none; stroke-dasharray: 1.85,0.8; stroke-dashoffset: 0; stroke: #b0b0b0; stroke-width: 0.5"/>
     </g>
     <g id="line2d_26">
      <g>
       <use xlink:href="#m2042389309" x="53.66" y="86.571172" style="stroke: #000000; stroke-width: 0.8"/>
      </g>
     </g>
     <g id="text_14">
      <!-- 0.9 -->
      <g transform="translate(27.57625 91.130234) scale(0.12 -0.12)">
       <defs>
        <path id="DejaVuSans-39" d="M 703 97 
L 703 672 
Q 941 559 1184 500 
Q 1428 441 1663 441 
Q 2288 441 2617 861 
Q 2947 1281 2994 2138 
Q 2813 1869 2534 1725 
Q 2256 1581 1919 1581 
Q 1219 1581 811 2004 
Q 403 2428 403 3163 
Q 403 3881 828 4315 
Q 1253 4750 1959 4750 
Q 2769 4750 3195 4129 
Q 3622 3509 3622 2328 
Q 3622 1225 3098 567 
Q 2575 -91 1691 -91 
Q 1453 -91 1209 -44 
Q 966 3 703 97 
z
M 1959 2075 
Q 2384 2075 2632 2365 
Q 2881 2656 2881 3163 
Q 2881 3666 2632 3958 
Q 2384 4250 1959 4250 
Q 1534 4250 1286 3958 
Q 1038 3666 1038 3163 
Q 1038 2656 1286 2365 
Q 1534 2075 1959 2075 
z
" transform="scale(0.015625)"/>
       </defs>
       <use xlink:href="#DejaVuSans-30"/>
       <use xlink:href="#DejaVuSans-2e" x="63.623047"/>
       <use xlink:href="#DejaVuSans-39" x="95.410156"/>
      </g>
     </g>
    </g>
    <g id="text_15">
     <!-- F1 Score -->
     <g transform="translate(21.080625 294.618125) rotate(-90) scale(0.12 -0.12)">
      <defs>
       <path id="DejaVuSans-46" d="M 628 4666 
L 3309 4666 
L 3309 4134 
L 1259 4134 
L 1259 2759 
L 3109 2759 
L 3109 2228 
L 1259 2228 
L 1259 0 
L 628 0 
L 628 4666 
z
" transform="scale(0.015625)"/>
       <path id="DejaVuSans-20" transform="scale(0.015625)"/>
       <path id="DejaVuSans-53" d="M 3425 4513 
L 3425 3897 
Q 3066 4069 2747 4153 
Q 2428 4238 2131 4238 
Q 1616 4238 1336 4038 
Q 1056 3838 1056 3469 
Q 1056 3159 1242 3001 
Q 1428 2844 1947 2747 
L 2328 2669 
Q 3034 2534 3370 2195 
Q 3706 1856 3706 1288 
Q 3706 609 3251 259 
Q 2797 -91 1919 -91 
Q 1588 -91 1214 -16 
Q 841 59 441 206 
L 441 856 
Q 825 641 1194 531 
Q 1563 422 1919 422 
Q 2459 422 2753 634 
Q 3047 847 3047 1241 
Q 3047 1584 2836 1778 
Q 2625 1972 2144 2069 
L 1759 2144 
Q 1053 2284 737 2584 
Q 422 2884 422 3419 
Q 422 4038 858 4394 
Q 1294 4750 2059 4750 
Q 2388 4750 2728 4690 
Q 3069 4631 3425 4513 
z
" transform="scale(0.015625)"/>
       <path id="DejaVuSans-72" d="M 2631 2963 
Q 2534 3019 2420 3045 
Q 2306 3072 2169 3072 
Q 1681 3072 1420 2755 
Q 1159 2438 1159 1844 
L 1159 0 
L 581 0 
L 581 3500 
L 1159 3500 
L 1159 2956 
Q 1341 3275 1631 3429 
Q 1922 3584 2338 3584 
Q 2397 3584 2469 3576 
Q 2541 3569 2628 3553 
L 2631 2963 
z
" transform="scale(0.015625)"/>
       <path id="DejaVuSans-65" d="M 3597 1894 
L 3597 1613 
L 953 1613 
Q 991 1019 1311 708 
Q 1631 397 2203 397 
Q 2534 397 2845 478 
Q 3156 559 3463 722 
L 3463 178 
Q 3153 47 2828 -22 
Q 2503 -91 2169 -91 
Q 1331 -91 842 396 
Q 353 884 353 1716 
Q 353 2575 817 3079 
Q 1281 3584 2069 3584 
Q 2775 3584 3186 3129 
Q 3597 2675 3597 1894 
z
M 3022 2063 
Q 3016 2534 2758 2815 
Q 2500 3097 2075 3097 
Q 1594 3097 1305 2825 
Q 1016 2553 972 2059 
L 3022 2063 
z
" transform="scale(0.015625)"/>
      </defs>
      <use xlink:href="#DejaVuSans-46"/>
      <use xlink:href="#DejaVuSans-31" x="57.519531"/>
      <use xlink:href="#DejaVuSans-20" x="121.142578"/>
      <use xlink:href="#DejaVuSans-53" x="152.929688"/>
      <use xlink:href="#DejaVuSans-63" x="216.40625"/>
      <use xlink:href="#DejaVuSans-6f" x="271.386719"/>
      <use xlink:href="#DejaVuSans-72" x="332.568359"/>
      <use xlink:href="#DejaVuSans-65" x="371.431641"/>
     </g>
    </g>
   </g>
   <g id="line2d_27">
    <path d="M 90.002727 171.400672 
L 115.066677 127.084172 
L 140.130627 97.709156 
L 165.194577 88.78414 
L 190.258527 82.816999 
L 215.322476 79.605652 
L 240.386426 72.466281 
L 265.450376 70.30019 
L 290.514326 69.101621 
L 315.578276 57.448556 
L 340.642226 56.355825 
L 365.706176 55.439749 
L 390.770125 55.744638 
L 415.834075 47.389979 
L 440.898025 50.281013 
L 465.961975 43.203178 
L 491.025925 45.160246 
L 516.089875 37.999041 
L 541.153824 39.524269 
L 566.217774 35.744424 
L 591.281724 34.24 
L 616.345674 47.763149 
" clip-path="url(#p26900a8894)" style="fill: none; stroke: #1f77b4; stroke-width: 2.5; stroke-linecap: square"/>
    <defs>
     <path id="mec26ab780c" d="M 0 1.5 
C 0.397805 1.5 0.77937 1.341951 1.06066 1.06066 
C 1.341951 0.77937 1.5 0.397805 1.5 0 
C 1.5 -0.397805 1.341951 -0.77937 1.06066 -1.06066 
C 0.77937 -1.341951 0.397805 -1.5 0 -1.5 
C -0.397805 -1.5 -0.77937 -1.341951 -1.06066 -1.06066 
C -1.341951 -0.77937 -1.5 -0.397805 -1.5 0 
C -1.5 0.397805 -1.341951 0.77937 -1.06066 1.06066 
C -0.77937 1.341951 -0.397805 1.5 0 1.5 
z
" style="stroke: #1f77b4"/>
    </defs>
    <g clip-path="url(#p26900a8894)">
     <use xlink:href="#mec26ab780c" x="90.002727" y="171.400672" style="fill: #1f77b4; stroke: #1f77b4"/>
     <use xlink:href="#mec26ab780c" x="115.066677" y="127.084172" style="fill: #1f77b4; stroke: #1f77b4"/>
     <use xlink:href="#mec26ab780c" x="140.130627" y="97.709156" style="fill: #1f77b4; stroke: #1f77b4"/>
     <use xlink:href="#mec26ab780c" x="165.194577" y="88.78414" style="fill: #1f77b4; stroke: #1f77b4"/>
     <use xlink:href="#mec26ab780c" x="190.258527" y="82.816999" style="fill: #1f77b4; stroke: #1f77b4"/>
     <use xlink:href="#mec26ab780c" x="215.322476" y="79.605652" style="fill: #1f77b4; stroke: #1f77b4"/>
     <use xlink:href="#mec26ab780c" x="240.386426" y="72.466281" style="fill: #1f77b4; stroke: #1f77b4"/>
     <use xlink:href="#mec26ab780c" x="265.450376" y="70.30019" style="fill: #1f77b4; stroke: #1f77b4"/>
     <use xlink:href="#mec26ab780c" x="290.514326" y="69.101621" style="fill: #1f77b4; stroke: #1f77b4"/>
     <use xlink:href="#mec26ab780c" x="315.578276" y="57.448556" style="fill: #1f77b4; stroke: #1f77b4"/>
     <use xlink:href="#mec26ab780c" x="340.642226" y="56.355825" style="fill: #1f77b4; stroke: #1f77b4"/>
     <use xlink:href="#mec26ab780c" x="365.706176" y="55.439749" style="fill: #1f77b4; stroke: #1f77b4"/>
     <use xlink:href="#mec26ab780c" x="390.770125" y="55.744638" style="fill: #1f77b4; stroke: #1f77b4"/>
     <use xlink:href="#mec26ab780c" x="415.834075" y="47.389979" style="fill: #1f77b4; stroke: #1f77b4"/>
     <use xlink:href="#mec26ab780c" x="440.898025" y="50.281013" style="fill: #1f77b4; stroke: #1f77b4"/>
     <use xlink:href="#mec26ab780c" x="465.961975" y="43.203178" style="fill: #1f77b4; stroke: #1f77b4"/>
     <use xlink:href="#mec26ab780c" x="491.025925" y="45.160246" style="fill: #1f77b4; stroke: #1f77b4"/>
     <use xlink:href="#mec26ab780c" x="516.089875" y="37.999041" style="fill: #1f77b4; stroke: #1f77b4"/>
     <use xlink:href="#mec26ab780c" x="541.153824" y="39.524269" style="fill: #1f77b4; stroke: #1f77b4"/>
     <use xlink:href="#mec26ab780c" x="566.217774" y="35.744424" style="fill: #1f77b4; stroke: #1f77b4"/>
     <use xlink:href="#mec26ab780c" x="591.281724" y="34.24" style="fill: #1f77b4; stroke: #1f77b4"/>
     <use xlink:href="#mec26ab780c" x="616.345674" y="47.763149" style="fill: #1f77b4; stroke: #1f77b4"/>
    </g>
   </g>
   <g id="line2d_28">
    <path d="M 90.002727 387.386954 
L 115.066677 239.820854 
L 140.130627 209.470848 
L 165.194577 183.275277 
L 190.258527 164.933192 
L 215.322476 160.64278 
L 240.386426 143.992253 
L 265.450376 138.459075 
L 290.514326 132.279086 
L 315.578276 133.348785 
L 340.642226 134.722902 
L 365.706176 114.001689 
L 390.770125 117.162902 
L 415.834075 113.246051 
L 440.898025 110.964402 
L 465.961975 102.590704 
L 491.025925 98.832777 
L 516.089875 94.233317 
L 541.153824 102.490996 
L 566.217774 100.748606 
L 591.281724 81.974069 
L 616.345674 81.532501 
L 641.409624 78.639628 
L 666.473574 79.128002 
" clip-path="url(#p26900a8894)" style="fill: none; stroke: #ff7f0e; stroke-width: 2.5; stroke-linecap: square"/>
    <defs>
     <path id="m6b7dabc81a" d="M 0 1.5 
C 0.397805 1.5 0.77937 1.341951 1.06066 1.06066 
C 1.341951 0.77937 1.5 0.397805 1.5 0 
C 1.5 -0.397805 1.341951 -0.77937 1.06066 -1.06066 
C 0.77937 -1.341951 0.397805 -1.5 0 -1.5 
C -0.397805 -1.5 -0.77937 -1.341951 -1.06066 -1.06066 
C -1.341951 -0.77937 -1.5 -0.397805 -1.5 0 
C -1.5 0.397805 -1.341951 0.77937 -1.06066 1.06066 
C -0.77937 1.341951 -0.397805 1.5 0 1.5 
z
" style="stroke: #ff7f0e"/>
    </defs>
    <g clip-path="url(#p26900a8894)">
     <use xlink:href="#m6b7dabc81a" x="90.002727" y="387.386954" style="fill: #ff7f0e; stroke: #ff7f0e"/>
     <use xlink:href="#m6b7dabc81a" x="115.066677" y="239.820854" style="fill: #ff7f0e; stroke: #ff7f0e"/>
     <use xlink:href="#m6b7dabc81a" x="140.130627" y="209.470848" style="fill: #ff7f0e; stroke: #ff7f0e"/>
     <use xlink:href="#m6b7dabc81a" x="165.194577" y="183.275277" style="fill: #ff7f0e; stroke: #ff7f0e"/>
     <use xlink:href="#m6b7dabc81a" x="190.258527" y="164.933192" style="fill: #ff7f0e; stroke: #ff7f0e"/>
     <use xlink:href="#m6b7dabc81a" x="215.322476" y="160.64278" style="fill: #ff7f0e; stroke: #ff7f0e"/>
     <use xlink:href="#m6b7dabc81a" x="240.386426" y="143.992253" style="fill: #ff7f0e; stroke: #ff7f0e"/>
     <use xlink:href="#m6b7dabc81a" x="265.450376" y="138.459075" style="fill: #ff7f0e; stroke: #ff7f0e"/>
     <use xlink:href="#m6b7dabc81a" x="290.514326" y="132.279086" style="fill: #ff7f0e; stroke: #ff7f0e"/>
     <use xlink:href="#m6b7dabc81a" x="315.578276" y="133.348785" style="fill: #ff7f0e; stroke: #ff7f0e"/>
     <use xlink:href="#m6b7dabc81a" x="340.642226" y="134.722902" style="fill: #ff7f0e; stroke: #ff7f0e"/>
     <use xlink:href="#m6b7dabc81a" x="365.706176" y="114.001689" style="fill: #ff7f0e; stroke: #ff7f0e"/>
     <use xlink:href="#m6b7dabc81a" x="390.770125" y="117.162902" style="fill: #ff7f0e; stroke: #ff7f0e"/>
     <use xlink:href="#m6b7dabc81a" x="415.834075" y="113.246051" style="fill: #ff7f0e; stroke: #ff7f0e"/>
     <use xlink:href="#m6b7dabc81a" x="440.898025" y="110.964402" style="fill: #ff7f0e; stroke: #ff7f0e"/>
     <use xlink:href="#m6b7dabc81a" x="465.961975" y="102.590704" style="fill: #ff7f0e; stroke: #ff7f0e"/>
     <use xlink:href="#m6b7dabc81a" x="491.025925" y="98.832777" style="fill: #ff7f0e; stroke: #ff7f0e"/>
     <use xlink:href="#m6b7dabc81a" x="516.089875" y="94.233317" style="fill: #ff7f0e; stroke: #ff7f0e"/>
     <use xlink:href="#m6b7dabc81a" x="541.153824" y="102.490996" style="fill: #ff7f0e; stroke: #ff7f0e"/>
     <use xlink:href="#m6b7dabc81a" x="566.217774" y="100.748606" style="fill: #ff7f0e; stroke: #ff7f0e"/>
     <use xlink:href="#m6b7dabc81a" x="591.281724" y="81.974069" style="fill: #ff7f0e; stroke: #ff7f0e"/>
     <use xlink:href="#m6b7dabc81a" x="616.345674" y="81.532501" style="fill: #ff7f0e; stroke: #ff7f0e"/>
     <use xlink:href="#m6b7dabc81a" x="641.409624" y="78.639628" style="fill: #ff7f0e; stroke: #ff7f0e"/>
     <use xlink:href="#m6b7dabc81a" x="666.473574" y="79.128002" style="fill: #ff7f0e; stroke: #ff7f0e"/>
    </g>
   </g>
   <g id="line2d_29">
    <path d="M 90.002727 373.179649 
L 115.066677 244.195115 
L 140.130627 250.119154 
L 165.194577 194.372661 
L 190.258527 192.313143 
L 215.322476 175.252239 
L 240.386426 168.200604 
L 265.450376 171.820875 
L 290.514326 150.394957 
L 315.578276 151.758949 
L 340.642226 134.334835 
L 365.706176 126.685469 
L 390.770125 127.928704 
L 415.834075 132.147396 
L 440.898025 119.03976 
L 465.961975 108.999198 
L 491.025925 117.713881 
L 516.089875 100.733496 
L 541.153824 95.968065 
L 566.217774 87.033149 
L 591.281724 94.09867 
L 616.345674 86.652822 
L 641.409624 98.784513 
L 666.473574 96.927524 
L 691.537524 84.478937 
L 716.601473 80.372632 
L 741.665423 90.365604 
L 766.729373 79.018788 
L 791.793323 79.717141 
L 816.857273 80.16006 
" clip-path="url(#p26900a8894)" style="fill: none; stroke: #2ca02c; stroke-width: 2.5; stroke-linecap: square"/>
    <defs>
     <path id="me73bfe545c" d="M 0 1.5 
C 0.397805 1.5 0.77937 1.341951 1.06066 1.06066 
C 1.341951 0.77937 1.5 0.397805 1.5 0 
C 1.5 -0.397805 1.341951 -0.77937 1.06066 -1.06066 
C 0.77937 -1.341951 0.397805 -1.5 0 -1.5 
C -0.397805 -1.5 -0.77937 -1.341951 -1.06066 -1.06066 
C -1.341951 -0.77937 -1.5 -0.397805 -1.5 0 
C -1.5 0.397805 -1.341951 0.77937 -1.06066 1.06066 
C -0.77937 1.341951 -0.397805 1.5 0 1.5 
z
" style="stroke: #2ca02c"/>
    </defs>
    <g clip-path="url(#p26900a8894)">
     <use xlink:href="#me73bfe545c" x="90.002727" y="373.179649" style="fill: #2ca02c; stroke: #2ca02c"/>
     <use xlink:href="#me73bfe545c" x="115.066677" y="244.195115" style="fill: #2ca02c; stroke: #2ca02c"/>
     <use xlink:href="#me73bfe545c" x="140.130627" y="250.119154" style="fill: #2ca02c; stroke: #2ca02c"/>
     <use xlink:href="#me73bfe545c" x="165.194577" y="194.372661" style="fill: #2ca02c; stroke: #2ca02c"/>
     <use xlink:href="#me73bfe545c" x="190.258527" y="192.313143" style="fill: #2ca02c; stroke: #2ca02c"/>
     <use xlink:href="#me73bfe545c" x="215.322476" y="175.252239" style="fill: #2ca02c; stroke: #2ca02c"/>
     <use xlink:href="#me73bfe545c" x="240.386426" y="168.200604" style="fill: #2ca02c; stroke: #2ca02c"/>
     <use xlink:href="#me73bfe545c" x="265.450376" y="171.820875" style="fill: #2ca02c; stroke: #2ca02c"/>
     <use xlink:href="#me73bfe545c" x="290.514326" y="150.394957" style="fill: #2ca02c; stroke: #2ca02c"/>
     <use xlink:href="#me73bfe545c" x="315.578276" y="151.758949" style="fill: #2ca02c; stroke: #2ca02c"/>
     <use xlink:href="#me73bfe545c" x="340.642226" y="134.334835" style="fill: #2ca02c; stroke: #2ca02c"/>
     <use xlink:href="#me73bfe545c" x="365.706176" y="126.685469" style="fill: #2ca02c; stroke: #2ca02c"/>
     <use xlink:href="#me73bfe545c" x="390.770125" y="127.928704" style="fill: #2ca02c; stroke: #2ca02c"/>
     <use xlink:href="#me73bfe545c" x="415.834075" y="132.147396" style="fill: #2ca02c; stroke: #2ca02c"/>
     <use xlink:href="#me73bfe545c" x="440.898025" y="119.03976" style="fill: #2ca02c; stroke: #2ca02c"/>
     <use xlink:href="#me73bfe545c" x="465.961975" y="108.999198" style="fill: #2ca02c; stroke: #2ca02c"/>
     <use xlink:href="#me73bfe545c" x="491.025925" y="117.713881" style="fill: #2ca02c; stroke: #2ca02c"/>
     <use xlink:href="#me73bfe545c" x="516.089875" y="100.733496" style="fill: #2ca02c; stroke: #2ca02c"/>
     <use xlink:href="#me73bfe545c" x="541.153824" y="95.968065" style="fill: #2ca02c; stroke: #2ca02c"/>
     <use xlink:href="#me73bfe545c" x="566.217774" y="87.033149" style="fill: #2ca02c; stroke: #2ca02c"/>
     <use xlink:href="#me73bfe545c" x="591.281724" y="94.09867" style="fill: #2ca02c; stroke: #2ca02c"/>
     <use xlink:href="#me73bfe545c" x="616.345674" y="86.652822" style="fill: #2ca02c; stroke: #2ca02c"/>
     <use xlink:href="#me73bfe545c" x="641.409624" y="98.784513" style="fill: #2ca02c; stroke: #2ca02c"/>
     <use xlink:href="#me73bfe545c" x="666.473574" y="96.927524" style="fill: #2ca02c; stroke: #2ca02c"/>
     <use xlink:href="#me73bfe545c" x="691.537524" y="84.478937" style="fill: #2ca02c; stroke: #2ca02c"/>
     <use xlink:href="#me73bfe545c" x="716.601473" y="80.372632" style="fill: #2ca02c; stroke: #2ca02c"/>
     <use xlink:href="#me73bfe545c" x="741.665423" y="90.365604" style="fill: #2ca02c; stroke: #2ca02c"/>
     <use xlink:href="#me73bfe545c" x="766.729373" y="79.018788" style="fill: #2ca02c; stroke: #2ca02c"/>
     <use xlink:href="#me73bfe545c" x="791.793323" y="79.717141" style="fill: #2ca02c; stroke: #2ca02c"/>
     <use xlink:href="#me73bfe545c" x="816.857273" y="80.16006" style="fill: #2ca02c; stroke: #2ca02c"/>
    </g>
   </g>
   <g id="line2d_30">
    <path d="M 90.002727 285.157799 
L 115.066677 228.334462 
L 140.130627 194.989093 
L 165.194577 171.000352 
L 190.258527 167.829822 
L 215.322476 144.903705 
L 240.386426 139.238124 
L 265.450376 129.023581 
L 290.514326 122.850383 
L 315.578276 115.601907 
L 340.642226 112.468718 
L 365.706176 107.041195 
L 390.770125 99.558607 
L 415.834075 105.748009 
L 440.898025 93.246787 
L 465.961975 91.693376 
L 491.025925 83.981246 
L 516.089875 87.419705 
L 541.153824 82.607321 
L 566.217774 83.884756 
L 591.281724 79.681224 
L 616.345674 74.015134 
" clip-path="url(#p26900a8894)" style="fill: none; stroke: #d62728; stroke-width: 2.5; stroke-linecap: square"/>
    <defs>
     <path id="mbba1590500" d="M 0 1.5 
C 0.397805 1.5 0.77937 1.341951 1.06066 1.06066 
C 1.341951 0.77937 1.5 0.397805 1.5 0 
C 1.5 -0.397805 1.341951 -0.77937 1.06066 -1.06066 
C 0.77937 -1.341951 0.397805 -1.5 0 -1.5 
C -0.397805 -1.5 -0.77937 -1.341951 -1.06066 -1.06066 
C -1.341951 -0.77937 -1.5 -0.397805 -1.5 0 
C -1.5 0.397805 -1.341951 0.77937 -1.06066 1.06066 
C -0.77937 1.341951 -0.397805 1.5 0 1.5 
z
" style="stroke: #d62728"/>
    </defs>
    <g clip-path="url(#p26900a8894)">
     <use xlink:href="#mbba1590500" x="90.002727" y="285.157799" style="fill: #d62728; stroke: #d62728"/>
     <use xlink:href="#mbba1590500" x="115.066677" y="228.334462" style="fill: #d62728; stroke: #d62728"/>
     <use xlink:href="#mbba1590500" x="140.130627" y="194.989093" style="fill: #d62728; stroke: #d62728"/>
     <use xlink:href="#mbba1590500" x="165.194577" y="171.000352" style="fill: #d62728; stroke: #d62728"/>
     <use xlink:href="#mbba1590500" x="190.258527" y="167.829822" style="fill: #d62728; stroke: #d62728"/>
     <use xlink:href="#mbba1590500" x="215.322476" y="144.903705" style="fill: #d62728; stroke: #d62728"/>
     <use xlink:href="#mbba1590500" x="240.386426" y="139.238124" style="fill: #d62728; stroke: #d62728"/>
     <use xlink:href="#mbba1590500" x="265.450376" y="129.023581" style="fill: #d62728; stroke: #d62728"/>
     <use xlink:href="#mbba1590500" x="290.514326" y="122.850383" style="fill: #d62728; stroke: #d62728"/>
     <use xlink:href="#mbba1590500" x="315.578276" y="115.601907" style="fill: #d62728; stroke: #d62728"/>
     <use xlink:href="#mbba1590500" x="340.642226" y="112.468718" style="fill: #d62728; stroke: #d62728"/>
     <use xlink:href="#mbba1590500" x="365.706176" y="107.041195" style="fill: #d62728; stroke: #d62728"/>
     <use xlink:href="#mbba1590500" x="390.770125" y="99.558607" style="fill: #d62728; stroke: #d62728"/>
     <use xlink:href="#mbba1590500" x="415.834075" y="105.748009" style="fill: #d62728; stroke: #d62728"/>
     <use xlink:href="#mbba1590500" x="440.898025" y="93.246787" style="fill: #d62728; stroke: #d62728"/>
     <use xlink:href="#mbba1590500" x="465.961975" y="91.693376" style="fill: #d62728; stroke: #d62728"/>
     <use xlink:href="#mbba1590500" x="491.025925" y="83.981246" style="fill: #d62728; stroke: #d62728"/>
     <use xlink:href="#mbba1590500" x="516.089875" y="87.419705" style="fill: #d62728; stroke: #d62728"/>
     <use xlink:href="#mbba1590500" x="541.153824" y="82.607321" style="fill: #d62728; stroke: #d62728"/>
     <use xlink:href="#mbba1590500" x="566.217774" y="83.884756" style="fill: #d62728; stroke: #d62728"/>
     <use xlink:href="#mbba1590500" x="591.281724" y="79.681224" style="fill: #d62728; stroke: #d62728"/>
     <use xlink:href="#mbba1590500" x="616.345674" y="74.015134" style="fill: #d62728; stroke: #d62728"/>
    </g>
   </g>
   <g id="line2d_31">
    <path d="M 90.002727 503.04 
L 115.066677 407.521845 
L 140.130627 361.577256 
L 165.194577 322.493547 
L 190.258527 320.577232 
L 215.322476 287.64672 
L 240.386426 275.66387 
L 265.450376 264.180884 
L 290.514326 259.509137 
L 315.578276 260.216132 
L 340.642226 255.164201 
L 365.706176 237.406712 
L 390.770125 225.190367 
L 415.834075 234.454092 
L 440.898025 234.374968 
L 465.961975 228.306382 
L 491.025925 240.10277 
L 516.089875 216.636962 
L 541.153824 220.274851 
L 566.217774 190.811607 
L 591.281724 199.414567 
L 616.345674 184.778842 
L 641.409624 204.974567 
L 666.473574 189.182307 
L 691.537524 190.266849 
" clip-path="url(#p26900a8894)" style="fill: none; stroke: #9467bd; stroke-width: 2.5; stroke-linecap: square"/>
    <defs>
     <path id="m7a067e2ae3" d="M 0 1.5 
C 0.397805 1.5 0.77937 1.341951 1.06066 1.06066 
C 1.341951 0.77937 1.5 0.397805 1.5 0 
C 1.5 -0.397805 1.341951 -0.77937 1.06066 -1.06066 
C 0.77937 -1.341951 0.397805 -1.5 0 -1.5 
C -0.397805 -1.5 -0.77937 -1.341951 -1.06066 -1.06066 
C -1.341951 -0.77937 -1.5 -0.397805 -1.5 0 
C -1.5 0.397805 -1.341951 0.77937 -1.06066 1.06066 
C -0.77937 1.341951 -0.397805 1.5 0 1.5 
z
" style="stroke: #9467bd"/>
    </defs>
    <g clip-path="url(#p26900a8894)">
     <use xlink:href="#m7a067e2ae3" x="90.002727" y="503.04" style="fill: #9467bd; stroke: #9467bd"/>
     <use xlink:href="#m7a067e2ae3" x="115.066677" y="407.521845" style="fill: #9467bd; stroke: #9467bd"/>
     <use xlink:href="#m7a067e2ae3" x="140.130627" y="361.577256" style="fill: #9467bd; stroke: #9467bd"/>
     <use xlink:href="#m7a067e2ae3" x="165.194577" y="322.493547" style="fill: #9467bd; stroke: #9467bd"/>
     <use xlink:href="#m7a067e2ae3" x="190.258527" y="320.577232" style="fill: #9467bd; stroke: #9467bd"/>
     <use xlink:href="#m7a067e2ae3" x="215.322476" y="287.64672" style="fill: #9467bd; stroke: #9467bd"/>
     <use xlink:href="#m7a067e2ae3" x="240.386426" y="275.66387" style="fill: #9467bd; stroke: #9467bd"/>
     <use xlink:href="#m7a067e2ae3" x="265.450376" y="264.180884" style="fill: #9467bd; stroke: #9467bd"/>
     <use xlink:href="#m7a067e2ae3" x="290.514326" y="259.509137" style="fill: #9467bd; stroke: #9467bd"/>
     <use xlink:href="#m7a067e2ae3" x="315.578276" y="260.216132" style="fill: #9467bd; stroke: #9467bd"/>
     <use xlink:href="#m7a067e2ae3" x="340.642226" y="255.164201" style="fill: #9467bd; stroke: #9467bd"/>
     <use xlink:href="#m7a067e2ae3" x="365.706176" y="237.406712" style="fill: #9467bd; stroke: #9467bd"/>
     <use xlink:href="#m7a067e2ae3" x="390.770125" y="225.190367" style="fill: #9467bd; stroke: #9467bd"/>
     <use xlink:href="#m7a067e2ae3" x="415.834075" y="234.454092" style="fill: #9467bd; stroke: #9467bd"/>
     <use xlink:href="#m7a067e2ae3" x="440.898025" y="234.374968" style="fill: #9467bd; stroke: #9467bd"/>
     <use xlink:href="#m7a067e2ae3" x="465.961975" y="228.306382" style="fill: #9467bd; stroke: #9467bd"/>
     <use xlink:href="#m7a067e2ae3" x="491.025925" y="240.10277" style="fill: #9467bd; stroke: #9467bd"/>
     <use xlink:href="#m7a067e2ae3" x="516.089875" y="216.636962" style="fill: #9467bd; stroke: #9467bd"/>
     <use xlink:href="#m7a067e2ae3" x="541.153824" y="220.274851" style="fill: #9467bd; stroke: #9467bd"/>
     <use xlink:href="#m7a067e2ae3" x="566.217774" y="190.811607" style="fill: #9467bd; stroke: #9467bd"/>
     <use xlink:href="#m7a067e2ae3" x="591.281724" y="199.414567" style="fill: #9467bd; stroke: #9467bd"/>
     <use xlink:href="#m7a067e2ae3" x="616.345674" y="184.778842" style="fill: #9467bd; stroke: #9467bd"/>
     <use xlink:href="#m7a067e2ae3" x="641.409624" y="204.974567" style="fill: #9467bd; stroke: #9467bd"/>
     <use xlink:href="#m7a067e2ae3" x="666.473574" y="189.182307" style="fill: #9467bd; stroke: #9467bd"/>
     <use xlink:href="#m7a067e2ae3" x="691.537524" y="190.266849" style="fill: #9467bd; stroke: #9467bd"/>
    </g>
   </g>
   <g id="patch_3">
    <path d="M 53.66 526.48 
L 53.66 10.8 
" style="fill: none; stroke: #000000; stroke-width: 0.8; stroke-linejoin: miter; stroke-linecap: square"/>
   </g>
   <g id="patch_4">
    <path d="M 853.2 526.48 
L 853.2 10.8 
" style="fill: none; stroke: #000000; stroke-width: 0.8; stroke-linejoin: miter; stroke-linecap: square"/>
   </g>
   <g id="patch_5">
    <path d="M 53.66 526.48 
L 853.2 526.48 
" style="fill: none; stroke: #000000; stroke-width: 0.8; stroke-linejoin: miter; stroke-linecap: square"/>
   </g>
   <g id="patch_6">
    <path d="M 53.66 10.8 
L 853.2 10.8 
" style="fill: none; stroke: #000000; stroke-width: 0.8; stroke-linejoin: miter; stroke-linecap: square"/>
   </g>
   <g id="text_16">
    <!-- 0.80 -->
    <g transform="translate(78.869915 161.400672) scale(0.1 -0.1)">
     <use xlink:href="#DejaVuSans-30"/>
     <use xlink:href="#DejaVuSans-2e" x="63.623047"/>
     <use xlink:href="#DejaVuSans-38" x="95.410156"/>
     <use xlink:href="#DejaVuSans-30" x="159.033203"/>
    </g>
   </g>
   <g id="text_17">
    <!-- 0.94 -->
    <g transform="translate(605.212861 37.763149) scale(0.1 -0.1)">
     <use xlink:href="#DejaVuSans-30"/>
     <use xlink:href="#DejaVuSans-2e" x="63.623047"/>
     <use xlink:href="#DejaVuSans-39" x="95.410156"/>
     <use xlink:href="#DejaVuSans-34" x="159.033203"/>
    </g>
   </g>
   <g id="text_18">
    <!-- 0.55 -->
    <g transform="translate(78.869915 377.386954) scale(0.1 -0.1)">
     <use xlink:href="#DejaVuSans-30"/>
     <use xlink:href="#DejaVuSans-2e" x="63.623047"/>
     <use xlink:href="#DejaVuSans-35" x="95.410156"/>
     <use xlink:href="#DejaVuSans-35" x="159.033203"/>
    </g>
   </g>
   <g id="text_19">
    <!-- 0.91 -->
    <g transform="translate(655.340761 69.128002) scale(0.1 -0.1)">
     <use xlink:href="#DejaVuSans-30"/>
     <use xlink:href="#DejaVuSans-2e" x="63.623047"/>
     <use xlink:href="#DejaVuSans-39" x="95.410156"/>
     <use xlink:href="#DejaVuSans-31" x="159.033203"/>
    </g>
   </g>
   <g id="text_20">
    <!-- 0.57 -->
    <g transform="translate(78.869915 363.179649) scale(0.1 -0.1)">
     <use xlink:href="#DejaVuSans-30"/>
     <use xlink:href="#DejaVuSans-2e" x="63.623047"/>
     <use xlink:href="#DejaVuSans-35" x="95.410156"/>
     <use xlink:href="#DejaVuSans-37" x="159.033203"/>
    </g>
   </g>
   <g id="text_21">
    <!-- 0.91 -->
    <g transform="translate(805.72446 70.16006) scale(0.1 -0.1)">
     <use xlink:href="#DejaVuSans-30"/>
     <use xlink:href="#DejaVuSans-2e" x="63.623047"/>
     <use xlink:href="#DejaVuSans-39" x="95.410156"/>
     <use xlink:href="#DejaVuSans-31" x="159.033203"/>
    </g>
   </g>
   <g id="text_22">
    <!-- 0.67 -->
    <g transform="translate(78.869915 275.157799) scale(0.1 -0.1)">
     <use xlink:href="#DejaVuSans-30"/>
     <use xlink:href="#DejaVuSans-2e" x="63.623047"/>
     <use xlink:href="#DejaVuSans-36" x="95.410156"/>
     <use xlink:href="#DejaVuSans-37" x="159.033203"/>
    </g>
   </g>
   <g id="text_23">
    <!-- 0.91 -->
    <g transform="translate(605.212861 64.015134) scale(0.1 -0.1)">
     <use xlink:href="#DejaVuSans-30"/>
     <use xlink:href="#DejaVuSans-2e" x="63.623047"/>
     <use xlink:href="#DejaVuSans-39" x="95.410156"/>
     <use xlink:href="#DejaVuSans-31" x="159.033203"/>
    </g>
   </g>
   <g id="text_24">
    <!-- 0.42 -->
    <g transform="translate(78.869915 493.04) scale(0.1 -0.1)">
     <use xlink:href="#DejaVuSans-30"/>
     <use xlink:href="#DejaVuSans-2e" x="63.623047"/>
     <use xlink:href="#DejaVuSans-34" x="95.410156"/>
     <use xlink:href="#DejaVuSans-32" x="159.033203"/>
    </g>
   </g>
   <g id="text_25">
    <!-- 0.78 -->
    <g transform="translate(680.404711 180.266849) scale(0.1 -0.1)">
     <use xlink:href="#DejaVuSans-30"/>
     <use xlink:href="#DejaVuSans-2e" x="63.623047"/>
     <use xlink:href="#DejaVuSans-37" x="95.410156"/>
     <use xlink:href="#DejaVuSans-38" x="159.033203"/>
    </g>
   </g>
   <g id="legend_1">
    <g id="patch_7">
     <path d="M 675.62625 520.48 
L 844.8 520.48 
Q 847.2 520.48 847.2 518.08 
L 847.2 431.21125 
Q 847.2 428.81125 844.8 428.81125 
L 675.62625 428.81125 
Q 673.22625 428.81125 673.22625 431.21125 
L 673.22625 518.08 
Q 673.22625 520.48 675.62625 520.48 
z
" style="fill: #ffffff; opacity: 0.8; stroke: #cccccc; stroke-linejoin: miter"/>
    </g>
    <g id="line2d_32">
     <path d="M 678.02625 438.529375 
L 690.02625 438.529375 
L 702.02625 438.529375 
" style="fill: none; stroke: #1f77b4; stroke-width: 2.5; stroke-linecap: square"/>
     <g>
      <use xlink:href="#mec26ab780c" x="690.02625" y="438.529375" style="fill: #1f77b4; stroke: #1f77b4"/>
     </g>
    </g>
    <g id="text_26">
     <!-- HelBERT-uncased-fs-6 -->
     <g transform="translate(711.62625 442.729375) scale(0.12 -0.12)">
      <defs>
       <path id="DejaVuSans-48" d="M 628 4666 
L 1259 4666 
L 1259 2753 
L 3553 2753 
L 3553 4666 
L 4184 4666 
L 4184 0 
L 3553 0 
L 3553 2222 
L 1259 2222 
L 1259 0 
L 628 0 
L 628 4666 
z
" transform="scale(0.015625)"/>
       <path id="DejaVuSans-6c" d="M 603 4863 
L 1178 4863 
L 1178 0 
L 603 0 
L 603 4863 
z
" transform="scale(0.015625)"/>
       <path id="DejaVuSans-42" d="M 1259 2228 
L 1259 519 
L 2272 519 
Q 2781 519 3026 730 
Q 3272 941 3272 1375 
Q 3272 1813 3026 2020 
Q 2781 2228 2272 2228 
L 1259 2228 
z
M 1259 4147 
L 1259 2741 
L 2194 2741 
Q 2656 2741 2882 2914 
Q 3109 3088 3109 3444 
Q 3109 3797 2882 3972 
Q 2656 4147 2194 4147 
L 1259 4147 
z
M 628 4666 
L 2241 4666 
Q 2963 4666 3353 4366 
Q 3744 4066 3744 3513 
Q 3744 3084 3544 2831 
Q 3344 2578 2956 2516 
Q 3422 2416 3680 2098 
Q 3938 1781 3938 1306 
Q 3938 681 3513 340 
Q 3088 0 2303 0 
L 628 0 
L 628 4666 
z
" transform="scale(0.015625)"/>
       <path id="DejaVuSans-45" d="M 628 4666 
L 3578 4666 
L 3578 4134 
L 1259 4134 
L 1259 2753 
L 3481 2753 
L 3481 2222 
L 1259 2222 
L 1259 531 
L 3634 531 
L 3634 0 
L 628 0 
L 628 4666 
z
" transform="scale(0.015625)"/>
       <path id="DejaVuSans-52" d="M 2841 2188 
Q 3044 2119 3236 1894 
Q 3428 1669 3622 1275 
L 4263 0 
L 3584 0 
L 2988 1197 
Q 2756 1666 2539 1819 
Q 2322 1972 1947 1972 
L 1259 1972 
L 1259 0 
L 628 0 
L 628 4666 
L 2053 4666 
Q 2853 4666 3247 4331 
Q 3641 3997 3641 3322 
Q 3641 2881 3436 2590 
Q 3231 2300 2841 2188 
z
M 1259 4147 
L 1259 2491 
L 2053 2491 
Q 2509 2491 2742 2702 
Q 2975 2913 2975 3322 
Q 2975 3731 2742 3939 
Q 2509 4147 2053 4147 
L 1259 4147 
z
" transform="scale(0.015625)"/>
       <path id="DejaVuSans-54" d="M -19 4666 
L 3928 4666 
L 3928 4134 
L 2272 4134 
L 2272 0 
L 1638 0 
L 1638 4134 
L -19 4134 
L -19 4666 
z
" transform="scale(0.015625)"/>
       <path id="DejaVuSans-2d" d="M 313 2009 
L 1997 2009 
L 1997 1497 
L 313 1497 
L 313 2009 
z
" transform="scale(0.015625)"/>
       <path id="DejaVuSans-75" d="M 544 1381 
L 544 3500 
L 1119 3500 
L 1119 1403 
Q 1119 906 1312 657 
Q 1506 409 1894 409 
Q 2359 409 2629 706 
Q 2900 1003 2900 1516 
L 2900 3500 
L 3475 3500 
L 3475 0 
L 2900 0 
L 2900 538 
Q 2691 219 2414 64 
Q 2138 -91 1772 -91 
Q 1169 -91 856 284 
Q 544 659 544 1381 
z
M 1991 3584 
L 1991 3584 
z
" transform="scale(0.015625)"/>
       <path id="DejaVuSans-6e" d="M 3513 2113 
L 3513 0 
L 2938 0 
L 2938 2094 
Q 2938 2591 2744 2837 
Q 2550 3084 2163 3084 
Q 1697 3084 1428 2787 
Q 1159 2491 1159 1978 
L 1159 0 
L 581 0 
L 581 3500 
L 1159 3500 
L 1159 2956 
Q 1366 3272 1645 3428 
Q 1925 3584 2291 3584 
Q 2894 3584 3203 3211 
Q 3513 2838 3513 2113 
z
" transform="scale(0.015625)"/>
       <path id="DejaVuSans-73" d="M 2834 3397 
L 2834 2853 
Q 2591 2978 2328 3040 
Q 2066 3103 1784 3103 
Q 1356 3103 1142 2972 
Q 928 2841 928 2578 
Q 928 2378 1081 2264 
Q 1234 2150 1697 2047 
L 1894 2003 
Q 2506 1872 2764 1633 
Q 3022 1394 3022 966 
Q 3022 478 2636 193 
Q 2250 -91 1575 -91 
Q 1294 -91 989 -36 
Q 684 19 347 128 
L 347 722 
Q 666 556 975 473 
Q 1284 391 1588 391 
Q 1994 391 2212 530 
Q 2431 669 2431 922 
Q 2431 1156 2273 1281 
Q 2116 1406 1581 1522 
L 1381 1569 
Q 847 1681 609 1914 
Q 372 2147 372 2553 
Q 372 3047 722 3315 
Q 1072 3584 1716 3584 
Q 2034 3584 2315 3537 
Q 2597 3491 2834 3397 
z
" transform="scale(0.015625)"/>
       <path id="DejaVuSans-64" d="M 2906 2969 
L 2906 4863 
L 3481 4863 
L 3481 0 
L 2906 0 
L 2906 525 
Q 2725 213 2448 61 
Q 2172 -91 1784 -91 
Q 1150 -91 751 415 
Q 353 922 353 1747 
Q 353 2572 751 3078 
Q 1150 3584 1784 3584 
Q 2172 3584 2448 3432 
Q 2725 3281 2906 2969 
z
M 947 1747 
Q 947 1113 1208 752 
Q 1469 391 1925 391 
Q 2381 391 2643 752 
Q 2906 1113 2906 1747 
Q 2906 2381 2643 2742 
Q 2381 3103 1925 3103 
Q 1469 3103 1208 2742 
Q 947 2381 947 1747 
z
" transform="scale(0.015625)"/>
       <path id="DejaVuSans-66" d="M 2375 4863 
L 2375 4384 
L 1825 4384 
Q 1516 4384 1395 4259 
Q 1275 4134 1275 3809 
L 1275 3500 
L 2222 3500 
L 2222 3053 
L 1275 3053 
L 1275 0 
L 697 0 
L 697 3053 
L 147 3053 
L 147 3500 
L 697 3500 
L 697 3744 
Q 697 4328 969 4595 
Q 1241 4863 1831 4863 
L 2375 4863 
z
" transform="scale(0.015625)"/>
      </defs>
      <use xlink:href="#DejaVuSans-48"/>
      <use xlink:href="#DejaVuSans-65" x="75.195312"/>
      <use xlink:href="#DejaVuSans-6c" x="136.71875"/>
      <use xlink:href="#DejaVuSans-42" x="164.501953"/>
      <use xlink:href="#DejaVuSans-45" x="233.105469"/>
      <use xlink:href="#DejaVuSans-52" x="296.289062"/>
      <use xlink:href="#DejaVuSans-54" x="358.521484"/>
      <use xlink:href="#DejaVuSans-2d" x="410.480469"/>
      <use xlink:href="#DejaVuSans-75" x="446.564453"/>
      <use xlink:href="#DejaVuSans-6e" x="509.943359"/>
      <use xlink:href="#DejaVuSans-63" x="573.322266"/>
      <use xlink:href="#DejaVuSans-61" x="628.302734"/>
      <use xlink:href="#DejaVuSans-73" x="689.582031"/>
      <use xlink:href="#DejaVuSans-65" x="741.681641"/>
      <use xlink:href="#DejaVuSans-64" x="803.205078"/>
      <use xlink:href="#DejaVuSans-2d" x="866.681641"/>
      <use xlink:href="#DejaVuSans-66" x="902.765625"/>
      <use xlink:href="#DejaVuSans-73" x="937.970703"/>
      <use xlink:href="#DejaVuSans-2d" x="990.070312"/>
      <use xlink:href="#DejaVuSans-36" x="1026.154297"/>
     </g>
    </g>
    <g id="line2d_33">
     <path d="M 678.02625 456.143125 
L 690.02625 456.143125 
L 702.02625 456.143125 
" style="fill: none; stroke: #ff7f0e; stroke-width: 2.5; stroke-linecap: square"/>
     <g>
      <use xlink:href="#m6b7dabc81a" x="690.02625" y="456.143125" style="fill: #ff7f0e; stroke: #ff7f0e"/>
     </g>
    </g>
    <g id="text_27">
     <!-- BERTimbau -->
     <g transform="translate(711.62625 460.343125) scale(0.12 -0.12)">
      <defs>
       <path id="DejaVuSans-69" d="M 603 3500 
L 1178 3500 
L 1178 0 
L 603 0 
L 603 3500 
z
M 603 4863 
L 1178 4863 
L 1178 4134 
L 603 4134 
L 603 4863 
z
" transform="scale(0.015625)"/>
       <path id="DejaVuSans-6d" d="M 3328 2828 
Q 3544 3216 3844 3400 
Q 4144 3584 4550 3584 
Q 5097 3584 5394 3201 
Q 5691 2819 5691 2113 
L 5691 0 
L 5113 0 
L 5113 2094 
Q 5113 2597 4934 2840 
Q 4756 3084 4391 3084 
Q 3944 3084 3684 2787 
Q 3425 2491 3425 1978 
L 3425 0 
L 2847 0 
L 2847 2094 
Q 2847 2600 2669 2842 
Q 2491 3084 2119 3084 
Q 1678 3084 1418 2786 
Q 1159 2488 1159 1978 
L 1159 0 
L 581 0 
L 581 3500 
L 1159 3500 
L 1159 2956 
Q 1356 3278 1631 3431 
Q 1906 3584 2284 3584 
Q 2666 3584 2933 3390 
Q 3200 3197 3328 2828 
z
" transform="scale(0.015625)"/>
       <path id="DejaVuSans-62" d="M 3116 1747 
Q 3116 2381 2855 2742 
Q 2594 3103 2138 3103 
Q 1681 3103 1420 2742 
Q 1159 2381 1159 1747 
Q 1159 1113 1420 752 
Q 1681 391 2138 391 
Q 2594 391 2855 752 
Q 3116 1113 3116 1747 
z
M 1159 2969 
Q 1341 3281 1617 3432 
Q 1894 3584 2278 3584 
Q 2916 3584 3314 3078 
Q 3713 2572 3713 1747 
Q 3713 922 3314 415 
Q 2916 -91 2278 -91 
Q 1894 -91 1617 61 
Q 1341 213 1159 525 
L 1159 0 
L 581 0 
L 581 4863 
L 1159 4863 
L 1159 2969 
z
" transform="scale(0.015625)"/>
      </defs>
      <use xlink:href="#DejaVuSans-42"/>
      <use xlink:href="#DejaVuSans-45" x="68.603516"/>
      <use xlink:href="#DejaVuSans-52" x="131.787109"/>
      <use xlink:href="#DejaVuSans-54" x="194.019531"/>
      <use xlink:href="#DejaVuSans-69" x="251.978516"/>
      <use xlink:href="#DejaVuSans-6d" x="279.761719"/>
      <use xlink:href="#DejaVuSans-62" x="377.173828"/>
      <use xlink:href="#DejaVuSans-61" x="440.650391"/>
      <use xlink:href="#DejaVuSans-75" x="501.929688"/>
     </g>
    </g>
    <g id="line2d_34">
     <path d="M 678.02625 473.756875 
L 690.02625 473.756875 
L 702.02625 473.756875 
" style="fill: none; stroke: #2ca02c; stroke-width: 2.5; stroke-linecap: square"/>
     <g>
      <use xlink:href="#me73bfe545c" x="690.02625" y="473.756875" style="fill: #2ca02c; stroke: #2ca02c"/>
     </g>
    </g>
    <g id="text_28">
     <!-- LegalBERT-pt-sc -->
     <g transform="translate(711.62625 477.956875) scale(0.12 -0.12)">
      <defs>
       <path id="DejaVuSans-4c" d="M 628 4666 
L 1259 4666 
L 1259 531 
L 3531 531 
L 3531 0 
L 628 0 
L 628 4666 
z
" transform="scale(0.015625)"/>
       <path id="DejaVuSans-67" d="M 2906 1791 
Q 2906 2416 2648 2759 
Q 2391 3103 1925 3103 
Q 1463 3103 1205 2759 
Q 947 2416 947 1791 
Q 947 1169 1205 825 
Q 1463 481 1925 481 
Q 2391 481 2648 825 
Q 2906 1169 2906 1791 
z
M 3481 434 
Q 3481 -459 3084 -895 
Q 2688 -1331 1869 -1331 
Q 1566 -1331 1297 -1286 
Q 1028 -1241 775 -1147 
L 775 -588 
Q 1028 -725 1275 -790 
Q 1522 -856 1778 -856 
Q 2344 -856 2625 -561 
Q 2906 -266 2906 331 
L 2906 616 
Q 2728 306 2450 153 
Q 2172 0 1784 0 
Q 1141 0 747 490 
Q 353 981 353 1791 
Q 353 2603 747 3093 
Q 1141 3584 1784 3584 
Q 2172 3584 2450 3431 
Q 2728 3278 2906 2969 
L 2906 3500 
L 3481 3500 
L 3481 434 
z
" transform="scale(0.015625)"/>
       <path id="DejaVuSans-74" d="M 1172 4494 
L 1172 3500 
L 2356 3500 
L 2356 3053 
L 1172 3053 
L 1172 1153 
Q 1172 725 1289 603 
Q 1406 481 1766 481 
L 2356 481 
L 2356 0 
L 1766 0 
Q 1100 0 847 248 
Q 594 497 594 1153 
L 594 3053 
L 172 3053 
L 172 3500 
L 594 3500 
L 594 4494 
L 1172 4494 
z
" transform="scale(0.015625)"/>
      </defs>
      <use xlink:href="#DejaVuSans-4c"/>
      <use xlink:href="#DejaVuSans-65" x="53.962891"/>
      <use xlink:href="#DejaVuSans-67" x="115.486328"/>
      <use xlink:href="#DejaVuSans-61" x="178.962891"/>
      <use xlink:href="#DejaVuSans-6c" x="240.242188"/>
      <use xlink:href="#DejaVuSans-42" x="268.025391"/>
      <use xlink:href="#DejaVuSans-45" x="336.628906"/>
      <use xlink:href="#DejaVuSans-52" x="399.8125"/>
      <use xlink:href="#DejaVuSans-54" x="462.044922"/>
      <use xlink:href="#DejaVuSans-2d" x="514.003906"/>
      <use xlink:href="#DejaVuSans-70" x="550.087891"/>
      <use xlink:href="#DejaVuSans-74" x="613.564453"/>
      <use xlink:href="#DejaVuSans-2d" x="652.773438"/>
      <use xlink:href="#DejaVuSans-73" x="688.857422"/>
      <use xlink:href="#DejaVuSans-63" x="740.957031"/>
     </g>
    </g>
    <g id="line2d_35">
     <path d="M 678.02625 491.370625 
L 690.02625 491.370625 
L 702.02625 491.370625 
" style="fill: none; stroke: #d62728; stroke-width: 2.5; stroke-linecap: square"/>
     <g>
      <use xlink:href="#mbba1590500" x="690.02625" y="491.370625" style="fill: #d62728; stroke: #d62728"/>
     </g>
    </g>
    <g id="text_29">
     <!-- JurisBERT -->
     <g transform="translate(711.62625 495.570625) scale(0.12 -0.12)">
      <defs>
       <path id="DejaVuSans-4a" d="M 628 4666 
L 1259 4666 
L 1259 325 
Q 1259 -519 939 -900 
Q 619 -1281 -91 -1281 
L -331 -1281 
L -331 -750 
L -134 -750 
Q 284 -750 456 -515 
Q 628 -281 628 325 
L 628 4666 
z
" transform="scale(0.015625)"/>
      </defs>
      <use xlink:href="#DejaVuSans-4a"/>
      <use xlink:href="#DejaVuSans-75" x="29.492188"/>
      <use xlink:href="#DejaVuSans-72" x="92.871094"/>
      <use xlink:href="#DejaVuSans-69" x="133.984375"/>
      <use xlink:href="#DejaVuSans-73" x="161.767578"/>
      <use xlink:href="#DejaVuSans-42" x="213.867188"/>
      <use xlink:href="#DejaVuSans-45" x="282.470703"/>
      <use xlink:href="#DejaVuSans-52" x="345.654297"/>
      <use xlink:href="#DejaVuSans-54" x="407.886719"/>
     </g>
    </g>
    <g id="line2d_36">
     <path d="M 678.02625 508.984375 
L 690.02625 508.984375 
L 702.02625 508.984375 
" style="fill: none; stroke: #9467bd; stroke-width: 2.5; stroke-linecap: square"/>
     <g>
      <use xlink:href="#m7a067e2ae3" x="690.02625" y="508.984375" style="fill: #9467bd; stroke: #9467bd"/>
     </g>
    </g>
    <g id="text_30">
     <!-- mBERT -->
     <g transform="translate(711.62625 513.184375) scale(0.12 -0.12)">
      <use xlink:href="#DejaVuSans-6d"/>
      <use xlink:href="#DejaVuSans-42" x="97.412109"/>
      <use xlink:href="#DejaVuSans-45" x="166.015625"/>
      <use xlink:href="#DejaVuSans-52" x="229.199219"/>
      <use xlink:href="#DejaVuSans-54" x="291.431641"/>
     </g>
    </g>
   </g>
  </g>
 </g>
 <defs>
  <clipPath id="p26900a8894">
   <rect x="53.66" y="10.8" width="799.54" height="515.68"/>
  </clipPath>
 </defs>
</svg>
